<svg width="54" height="22" viewBox="0 0 54 22" fill="none" xmlns="http://www.w3.org/2000/svg">
<path d="M9.86707 2.83061C9.23431 3.57594 8.22189 4.16216 7.20947 4.07842C7.08292 3.07347 7.58069 2.00152 8.16283 1.34831C8.79559 0.58622 9.90081 0.0418729 10.8036 0C10.9048 1.03845 10.4914 2.06852 9.86707 2.83061ZM10.7867 4.27103C9.31868 4.18729 8.06159 5.10011 7.36977 5.10011C6.66108 5.10011 5.59804 4.3129 4.43376 4.33803C2.92358 4.36315 1.52307 5.20898 0.755316 6.55729C-0.830803 9.26228 0.341913 13.2569 1.87741 15.4595C2.62829 16.5482 3.52259 17.7457 4.70374 17.7038C5.82584 17.662 6.26455 16.9836 7.61444 16.9836C8.97277 16.9836 9.3693 17.7038 10.5504 17.6871C11.7738 17.662 12.5415 16.5984 13.2924 15.5097C14.1445 14.2703 14.4989 13.0727 14.5157 13.0057C14.4904 12.9806 12.1534 12.0929 12.1281 9.41302C12.1028 7.16863 13.9758 6.10506 14.0602 6.03807C13.0056 4.4804 11.3604 4.3129 10.7867 4.27103ZM19.2572 1.23944V17.5615H21.8136V11.984H25.3486C28.5799 11.984 30.841 9.7815 30.841 6.59916C30.841 3.41683 28.6137 1.23944 25.433 1.23944H19.2572ZM21.8136 3.37495H24.758C26.9769 3.37495 28.2424 4.54739 28.2424 6.60754C28.2424 8.66768 26.9769 9.85687 24.7496 9.85687H21.8136V3.37495ZM35.4981 17.6871C37.1011 17.6871 38.586 16.8831 39.2609 15.6018H39.3115V17.5615H41.6738V9.43814C41.6738 7.08489 39.7755 5.56072 36.8564 5.56072C34.1482 5.56072 32.1402 7.10164 32.0643 9.21203H34.3676C34.5616 8.20708 35.4981 7.54549 36.7805 7.54549C38.3413 7.54549 39.2187 8.2657 39.2187 9.59726V10.5017L36.0296 10.6943C33.0683 10.8702 31.4653 12.0761 31.4653 14.1698C31.4737 16.2802 33.1273 17.6871 35.4981 17.6871ZM36.1899 15.7526C34.8316 15.7526 33.9626 15.0994 33.9626 14.1112C33.9626 13.0811 34.7978 12.4865 36.3924 12.3944L39.2272 12.2185V13.1397C39.2272 14.6639 37.9194 15.7526 36.1899 15.7526ZM44.8376 22C47.3265 22 48.4992 21.0537 49.5201 18.1979L54 5.71983H51.4015L48.398 15.359H48.3473L45.3438 5.71983H42.6778L46.9975 17.6033L46.7612 18.3236C46.3731 19.5462 45.7404 20.0236 44.6098 20.0236C44.4074 20.0236 44.0193 19.9985 43.859 19.9817V21.9414C44.0108 21.9749 44.6436 22 44.8376 22Z" fill="black"/>
</svg>
