<svg width="20" height="24" viewBox="0 0 20 24" fill="none" xmlns="http://www.w3.org/2000/svg">
<path d="M19.5808 18.7033C19.2218 19.5418 18.7967 20.3136 18.3043 21.0232C17.633 21.9906 17.0834 22.6602 16.6598 23.032C16.0032 23.6424 15.2997 23.955 14.5464 23.9728C14.0056 23.9728 13.3534 23.8172 12.5942 23.5017C11.8325 23.1876 11.1325 23.032 10.4925 23.032C9.82119 23.032 9.10128 23.1876 8.33123 23.5017C7.56002 23.8172 6.93874 23.9816 6.46373 23.9979C5.74132 24.0291 5.02125 23.7076 4.30251 23.032C3.84376 22.6276 3.26997 21.9343 2.58259 20.9521C1.84508 19.9033 1.23875 18.687 0.76374 17.3004C0.25502 15.8026 0 14.3523 0 12.9482C0 11.3398 0.343837 9.95259 1.03254 8.79011C1.57379 7.85636 2.29386 7.11979 3.19508 6.57906C4.09629 6.03834 5.07006 5.76279 6.11872 5.74516C6.69251 5.74516 7.44497 5.92456 8.38004 6.27715C9.31247 6.63091 9.91118 6.81031 10.1737 6.81031C10.3699 6.81031 11.035 6.60054 12.1625 6.18233C13.2288 5.79449 14.1287 5.63391 14.8659 5.69716C16.8636 5.86012 18.3644 6.6561 19.3625 8.09013C17.5758 9.18432 16.6921 10.7169 16.7097 12.6829C16.7258 14.2142 17.2754 15.4886 18.3556 16.5004C18.8451 16.97 19.3918 17.333 20 17.5907C19.8681 17.9774 19.7289 18.3477 19.5808 18.7033V18.7033ZM14.9993 0.480137C14.9993 1.68041 14.5654 2.8011 13.7007 3.8384C12.6572 5.07155 11.395 5.78412 10.0262 5.67168C10.0088 5.52769 9.99868 5.37614 9.99868 5.21688C9.99868 4.06462 10.4949 2.83147 11.3762 1.82321C11.8162 1.3127 12.3758 0.888228 13.0544 0.549615C13.7315 0.216055 14.372 0.031589 14.9744 0C14.9919 0.160458 14.9993 0.320926 14.9993 0.480121V0.480137Z" fill="black"/>
</svg>
