<?xml version="1.0" encoding="UTF-8" standalone="no"?>
<!DOCTYPE svg PUBLIC "-//W3C//DTD SVG 1.1//EN" "http://www.w3.org/Graphics/SVG/1.1/DTD/svg11.dtd">
<!-- Created with Vectornator (http://vectornator.io/) -->
<svg height="100%" stroke-miterlimit="10" style="fill-rule:nonzero;clip-rule:evenodd;stroke-linecap:round;stroke-linejoin:round;" version="1.1" viewBox="0 0 390 238" width="100%" xml:space="preserve" xmlns="http://www.w3.org/2000/svg" xmlns:vectornator="http://vectornator.io" xmlns:xlink="http://www.w3.org/1999/xlink">
<defs/>
<g id="auth_bg" vectornator:layerName="auth_bg">
<g opacity="1">
<clipPath id="ClipPath">
<path d="M0 0L390 0L390 0L390 238L390 238L0 238L0 238L0 0L0 0Z"/>
</clipPath>
<g clip-path="url(#ClipPath)">
<path d="M0 0L390 0L390 0L390 276L390 276L0 276L0 276L0 0L0 0Z" fill="#000000" fill-rule="nonzero" opacity="1" stroke="none"/>
<path d="M-86 274C-86 202.203-27.797 144 44 144C115.797 144 174 202.203 174 274C174 345.797 115.797 404 44 404C-27.797 404-86 345.797-86 274Z" fill="#df602f" fill-rule="nonzero" opacity="1" stroke="none"/>
<path d="M112 254.5C112 163.097 186.097 89 277.5 89C368.903 89 443 163.097 443 254.5C443 345.903 368.903 420 277.5 420C186.097 420 112 345.903 112 254.5Z" fill="#5eb1eb" fill-rule="nonzero" opacity="1" stroke="none"/>
</g>
</g>
</g>
</svg>
