<svg width="16" height="16" viewBox="0 0 16 16" fill="none" xmlns="http://www.w3.org/2000/svg">
<circle cx="8" cy="8" r="8" fill="#FF000D"/>
<path d="M5.48517 5.48444C5.52 5.44952 5.56139 5.42181 5.60694 5.4029C5.6525 5.384 5.70134 5.37427 5.75067 5.37427C5.8 5.37427 5.84884 5.384 5.8944 5.4029C5.93995 5.42181 5.98134 5.44952 6.01617 5.48444L8.00067 7.46969L9.98517 5.48444C10.02 5.44957 10.0614 5.42191 10.107 5.40305C10.1525 5.38418 10.2014 5.37446 10.2507 5.37446C10.3 5.37446 10.3488 5.38418 10.3944 5.40305C10.4399 5.42191 10.4813 5.44957 10.5162 5.48444C10.551 5.5193 10.5787 5.5607 10.5976 5.60625C10.6164 5.6518 10.6261 5.70063 10.6261 5.74994C10.6261 5.79925 10.6164 5.84807 10.5976 5.89363C10.5787 5.93918 10.551 5.98057 10.5162 6.01544L8.53092 7.99994L10.5162 9.98444C10.551 10.0193 10.5787 10.0607 10.5976 10.1062C10.6164 10.1518 10.6261 10.2006 10.6261 10.2499C10.6261 10.2992 10.6164 10.3481 10.5976 10.3936C10.5787 10.4392 10.551 10.4806 10.5162 10.5154C10.4813 10.5503 10.4399 10.578 10.3944 10.5968C10.3488 10.6157 10.3 10.6254 10.2507 10.6254C10.2014 10.6254 10.1525 10.6157 10.107 10.5968C10.0614 10.578 10.02 10.5503 9.98517 10.5154L8.00067 8.53019L6.01617 10.5154C5.9813 10.5503 5.93991 10.578 5.89436 10.5968C5.8488 10.6157 5.79998 10.6254 5.75067 10.6254C5.70136 10.6254 5.65254 10.6157 5.60698 10.5968C5.56143 10.578 5.52004 10.5503 5.48517 10.5154C5.4503 10.4806 5.42265 10.4392 5.40378 10.3936C5.38491 10.3481 5.3752 10.2992 5.3752 10.2499C5.3752 10.2006 5.38491 10.1518 5.40378 10.1062C5.42265 10.0607 5.4503 10.0193 5.48517 9.98444L7.47042 7.99994L5.48517 6.01544C5.45025 5.9806 5.42254 5.93922 5.40364 5.89366C5.38473 5.8481 5.375 5.79926 5.375 5.74994C5.375 5.70061 5.38473 5.65177 5.40364 5.60621C5.42254 5.56065 5.45025 5.51927 5.48517 5.48444Z" fill="white"/>
</svg>
