<svg width="235" height="177" viewBox="0 0 235 177" fill="none" xmlns="http://www.w3.org/2000/svg">
<path d="M30.8771 81.939L15.3052 126.636L81.834 149.663L97.4059 104.967L30.8771 81.939Z" fill="#EBEBEB"/>
<path d="M97.4019 104.961C97.4019 104.961 97.1253 105.112 96.5766 105.34C95.9673 105.585 95.1636 105.913 94.1612 106.318C91.9878 107.166 88.9502 108.35 85.2256 109.802C77.5993 112.709 67.1557 116.693 55.5887 121.103L55.3467 121.198L55.2085 120.978C55.1004 120.81 54.9881 120.625 54.8714 120.444C48.2173 109.862 42.194 100.284 37.791 93.2851C35.6608 89.8397 33.9195 87.0273 32.6794 85.016C32.1134 84.0728 31.6597 83.3234 31.3183 82.7506C31.0115 82.2295 30.8603 81.9495 30.8819 81.9366C30.8992 81.9237 31.0893 82.1821 31.4307 82.6817C31.7979 83.2373 32.2862 83.9694 32.8954 84.8825C34.1831 86.8679 35.9762 89.6415 38.1799 93.0439C42.6217 100.021 48.7012 109.561 55.4159 120.104C55.5325 120.285 55.6492 120.47 55.7529 120.638L55.3683 120.509C66.9613 116.167 77.4264 112.248 85.0701 109.384C88.8249 108.01 91.8841 106.89 94.0791 106.089C95.0988 105.732 95.9155 105.443 96.5377 105.224C97.1037 105.034 97.4019 104.944 97.4105 104.961H97.4019Z" fill="#E0E0E0"/>
<path d="M15.3007 126.633C15.2099 126.482 22.348 122.085 31.2404 116.818C40.1371 111.546 47.4178 107.399 47.5085 107.549C47.5992 107.7 40.4611 112.093 31.5688 117.365C22.6764 122.636 15.3914 126.784 15.3007 126.633Z" fill="#E0E0E0"/>
<path d="M69.8214 114.643C69.9899 114.587 72.8114 122.378 76.1298 132.047C79.4483 141.72 82.0019 149.601 81.8334 149.657C81.6649 149.713 78.8434 141.922 75.5249 132.253C72.2065 122.585 69.6528 114.699 69.8214 114.643Z" fill="#E0E0E0"/>
<path d="M227.2 70.3128L161.369 81.4347L168.89 125.664L234.721 114.542L227.2 70.3128Z" fill="#E0E0E0"/>
<path d="M227.197 70.3298C227.197 70.3298 227.037 70.5796 226.683 71.0232C226.289 71.5055 225.771 72.1386 225.123 72.9354C223.705 74.628 221.722 76.9924 219.294 79.8952C214.286 85.7827 207.429 93.8408 199.837 102.765L199.677 102.954L199.461 102.833C199.297 102.743 199.115 102.644 198.934 102.545C188.559 96.778 179.17 91.5581 172.309 87.738C168.96 85.843 166.229 84.2968 164.272 83.19C163.369 82.6645 162.647 82.2468 162.103 81.9281C161.61 81.6352 161.355 81.4715 161.368 81.45C161.377 81.4328 161.653 81.5577 162.163 81.8204C162.725 82.1133 163.464 82.5009 164.388 82.9832C166.367 84.047 169.128 85.5372 172.516 87.3633C179.403 91.1404 188.819 96.3043 199.228 102.015C199.409 102.114 199.586 102.213 199.755 102.304L199.379 102.373C207.027 93.4919 213.927 85.4769 218.97 79.6196C221.463 76.7685 223.494 74.4471 224.946 72.7847C225.628 72.0224 226.177 71.4108 226.592 70.9457C226.972 70.5322 227.179 70.3169 227.197 70.3298Z" fill="#EBEBEB"/>
<path d="M168.887 125.677C168.744 125.591 172.663 118.695 177.641 110.271C182.623 101.847 186.775 95.0855 186.918 95.1716C187.06 95.2577 183.141 102.153 178.164 110.581C173.186 119.006 169.033 125.767 168.887 125.681V125.677Z" fill="#EBEBEB"/>
<path d="M208.703 90.9165C208.816 90.7916 214.731 95.9857 221.912 102.511C229.098 109.04 234.827 114.432 234.715 114.552C234.603 114.677 228.687 109.483 221.506 102.954C214.325 96.4293 208.591 91.0371 208.703 90.9122V90.9165Z" fill="#EBEBEB"/>
<path d="M161.396 3.55106e-05L149.536 30.0558L194.274 47.5944L206.134 17.5386L161.396 3.55106e-05Z" fill="#EBEBEB"/>
<path d="M206.124 17.9458C206.124 17.9458 205.929 18.0405 205.549 18.1826C205.126 18.3334 204.568 18.5315 203.873 18.7813C202.365 19.2981 200.265 20.0216 197.681 20.9132C192.396 22.6876 185.163 25.1166 177.157 27.8084L176.988 27.8644L176.897 27.7093C176.828 27.5931 176.755 27.4638 176.681 27.3346C172.434 19.9355 168.593 13.2384 165.784 8.34152C164.427 5.9297 163.317 3.96578 162.526 2.56176C162.167 1.90281 161.878 1.37738 161.658 0.981149C161.463 0.615068 161.368 0.421261 161.381 0.412647C161.394 0.404034 161.515 0.584921 161.735 0.933774C161.973 1.32139 162.284 1.8339 162.673 2.47562C163.494 3.86673 164.643 5.8048 166.052 8.18648C168.891 13.0661 172.771 19.7417 177.062 27.1193C177.135 27.2485 177.208 27.3734 177.278 27.494L177.018 27.3949C185.047 24.7505 192.293 22.3689 197.586 20.6246C200.187 19.7891 202.304 19.1086 203.821 18.6219C204.525 18.4066 205.091 18.23 205.523 18.1008C205.912 17.9845 206.119 17.9328 206.124 17.9458Z" fill="#E0E0E0"/>
<path d="M149.524 30.4699C149.468 30.3623 154.459 27.5628 160.668 24.2121C166.881 20.8614 171.963 18.2299 172.019 18.3376C172.075 18.4453 167.089 21.2447 160.875 24.5954C154.666 27.9461 149.581 30.5733 149.524 30.4699Z" fill="#E0E0E0"/>
<path d="M187.042 23.7901C187.159 23.7557 188.87 29.1478 190.862 35.8363C192.858 42.5249 194.379 47.973 194.267 48.0075C194.15 48.0419 192.439 42.6498 190.447 35.9612C188.451 29.277 186.93 23.8289 187.047 23.7944L187.042 23.7901Z" fill="#E0E0E0"/>
<path d="M6.23091 59.2352L12.4184 57.0517L9.76539 53.5158C9.72218 53.2832 9.57959 52.4692 9.57527 51.1513C9.57527 50.7422 9.6444 50.3373 9.77835 49.954C9.94254 49.4889 10.1845 48.8773 10.4222 48.5845C10.716 48.2227 10.4135 47.6929 10.003 47.8006C9.59255 47.9083 8.75862 48.8902 8.39135 50.346C8.02407 51.8017 7.02163 49.6612 6.64571 48.8859C6.26547 48.1107 4.98217 45.7721 4.65379 45.6989C4.16985 45.5912 3.96677 46.0908 4.35997 46.8531C4.76181 47.6283 5.78154 49.9928 5.36241 50.1694C4.94761 50.346 3.07666 46.3794 3.07666 46.3794C3.07666 46.3794 2.81309 45.4663 2.32051 45.6601C1.43473 46.0047 3.73344 50.0746 3.96245 50.4579C4.12232 50.725 3.67295 50.936 3.51739 50.6388C3.35752 50.3373 1.74151 46.6421 0.834128 46.9823C0.138466 47.245 2.69643 50.346 2.60569 51.2978C2.51495 52.2496 0.907583 48.7481 0.250809 49.0281C0.00883958 49.1314 -0.159675 49.2434 1.05449 51.1212C1.46498 51.7586 2.20385 52.6932 3.00321 53.6579L6.23091 59.2266" fill="#FFBE9D"/>
<path d="M61.845 66.7635C61.845 66.7635 58.7988 59.6616 56.6902 56.2118C54.7069 52.9644 52.0798 52.439 50.6798 52.34C49.6212 52.0299 48.8953 51.9782 48.8953 51.9782L37.4493 51.8791C37.4493 51.8791 33.8932 51.6939 30.618 54.3771C30.0909 54.8078 26.1329 59.3816 20.8874 65.8936L11.7055 56.0051L6.23096 59.2309C6.23096 59.2309 12.1765 79.6926 19.6386 78.2886C24.0589 77.4574 27.5156 74.3866 27.5156 74.3866L33.3272 69.718L33.4611 70.4933C33.5778 71.4364 33.8716 72.9611 34.0963 73.887C34.8006 76.8114 35.1895 80.6617 33.6815 83.2113C33.6815 83.2113 31.6118 84.7876 33.2581 86.5276H54.7933C54.7933 86.5276 57.8439 84.4646 55.0612 82.1734L53.3156 77.8192L54.4433 72.5045L54.8668 70.377L56.7593 73.6157C56.7593 73.6157 60.5142 78.3231 64.4116 77.7416C69.1041 77.0439 71.8219 68.5293 67.5875 57.2713L62.4888 58.8174L61.845 66.7635Z" fill="#DF602F"/>
<g opacity="0.4">
<path d="M6.23096 59.2354L6.77107 60.9409L12.8505 57.2413L11.7055 56.0052L6.23096 59.2354Z" fill="black"/>
</g>
<g opacity="0.2">
<path d="M33.6773 83.2113C35.5223 82.9615 37.1037 81.9192 38.2142 80.4291C39.3246 78.9389 39.7999 76.9922 39.5018 75.1575C39.3981 74.5115 39.1604 73.8267 38.6031 73.4779C37.9247 73.0558 36.9957 73.2711 36.2914 72.8964C35.7167 72.5907 35.4056 71.9619 35.0081 71.445C34.6106 70.9282 34.0488 70.1271 33.4482 70.3856C33.4482 70.3856 34.1698 74.1756 34.4853 75.8638C34.805 77.5607 34.9044 79.9726 34.3081 81.747C34.1439 82.2724 33.9322 82.7591 33.6773 83.2113Z" fill="black"/>
</g>
<path d="M20.0233 69.3908C19.9542 69.3822 20.0665 68.5682 20.343 67.6121C20.6196 66.6559 20.827 65.885 20.8875 65.8936C20.9566 65.9022 20.8443 66.7162 20.5677 67.6723C20.2912 68.6285 20.0838 69.3994 20.0233 69.3865V69.3908Z" fill="black"/>
<path d="M21.3841 68.4476C21.3193 68.4605 21.1551 67.9006 21.0125 67.1943C20.8699 66.488 20.8051 65.9066 20.8699 65.8937C20.9347 65.8807 21.0989 66.4406 21.2415 67.1469C21.3841 67.8533 21.4489 68.4347 21.3841 68.4476Z" fill="black"/>
<path d="M62.4586 43.3774L54.6421 56.0051L60.795 57.7106L67.622 47.2191L62.4586 43.3774Z" fill="#545454"/>
<path d="M61.9701 54.136L62.238 55.9836L63.3269 57.3833L63.4349 58.529L67.3582 57.3403L65.7725 51.7629C65.7725 51.7629 66.0274 50.1393 65.9237 49.4803L64.8478 50.9059L64.5497 48.5802L62.3374 46.8101C62.0954 46.6335 61.7584 46.6852 61.5812 46.9264C61.4257 47.1417 61.4516 47.4346 61.6417 47.6198L63.4176 49.1788L63.5343 51.104L62.2509 49.9153C62.1256 49.799 61.9658 49.7172 61.7973 49.6827L60.0127 49.3253C59.7448 49.2736 59.4856 49.4631 59.4597 49.7344C59.4381 49.9541 59.572 50.1608 59.7837 50.2254L61.4041 50.725L63.046 52.3745L61.4429 51.7672L59.2609 52.073C59.0535 52.1032 58.8979 52.2797 58.8979 52.4908C58.8979 52.732 59.101 52.9258 59.343 52.9129L60.73 52.8353L61.5467 53.0894L59.6714 53.5847C59.4986 53.6321 59.3819 53.7914 59.3905 53.968C59.3992 54.1791 59.585 54.3427 59.801 54.3255L61.9701 54.1446V54.136Z" fill="#FFBE9D"/>
<g opacity="0.4">
<path d="M62.4845 58.8175L62.3203 60.8847L68.2658 59.2524L67.5831 57.2713L62.4845 58.8175Z" fill="black"/>
</g>
<path d="M54.6422 56.0051C54.6422 56.0051 54.1151 55.2945 54.1583 55.1739C54.1972 55.0533 61.5988 42.9124 61.5988 42.9124L62.463 43.3775L54.6422 56.0094V56.0051Z" fill="black"/>
<path d="M64.42 46.5516C64.554 46.4181 64.8176 46.487 64.8694 46.6636C64.9213 46.8402 64.7354 47.0426 64.554 47.0038C64.3725 46.9651 64.2818 46.7066 64.4027 46.5645" fill="black"/>
<path d="M59.5204 62.1336C59.5204 62.1336 59.4685 62.2585 59.2957 62.4351C59.1228 62.6117 58.7988 62.827 58.3321 62.9347C57.8698 63.051 57.2735 63.0467 56.6167 62.9347C55.96 62.8442 55.2038 62.6547 54.4001 62.8356C53.5964 63.0122 52.823 63.5247 52.0582 64.132C51.2848 64.722 50.4681 65.4542 49.3706 65.7987C48.8219 65.9538 48.2299 66.0055 47.6423 65.9322C47.0546 65.8547 46.4756 65.6738 45.9096 65.4542C44.7775 65.0106 43.6887 64.3861 42.5004 63.9554C41.9041 63.7444 41.2992 63.5979 40.69 63.5549C40.0807 63.5161 39.4758 63.585 38.8925 63.7056C37.7215 63.9468 36.624 64.3516 35.5308 64.5842C33.3229 65.0795 31.2316 64.5713 29.7538 63.7874C28.2502 62.9993 27.2909 61.97 26.7465 61.212C26.2064 60.441 26.0249 59.9458 26.0249 59.9458C26.0508 59.9328 26.2582 60.4109 26.8199 61.156C27.3817 61.8881 28.3452 62.883 29.8316 63.6367C31.2964 64.3904 33.3358 64.8642 35.4876 64.3689C36.5635 64.1363 37.6567 63.7271 38.8493 63.4774C39.4456 63.3525 40.0721 63.2792 40.7073 63.318C41.3424 63.3611 41.9733 63.5118 42.5825 63.7315C43.801 64.1708 44.8855 64.7996 46.0003 65.2388C46.5534 65.4585 47.1151 65.6351 47.6768 65.7083C48.2385 65.7772 48.7959 65.7298 49.3144 65.5877C50.3515 65.269 51.1638 64.5627 51.9459 63.9726C52.7193 63.3697 53.5187 62.8399 54.3699 62.6677C55.2254 62.4868 55.9945 62.6978 56.6427 62.8012C57.2951 62.9261 57.8655 62.9433 58.3192 62.8442C58.7729 62.7538 59.0883 62.56 59.2698 62.4006C59.4512 62.237 59.516 62.125 59.529 62.1336H59.5204Z" fill="#FAFAFA"/>
<path d="M61.966 70.3382C61.9011 70.3382 61.8234 69.4855 61.7888 68.426C61.7542 67.3708 61.7802 66.5095 61.845 66.5095C61.9098 66.5095 61.9876 67.3622 62.0221 68.4217C62.0567 69.4769 62.0308 70.3382 61.966 70.3382Z" fill="black"/>
<path d="M48.4892 149.528C48.6793 150.273 53.0866 174.908 53.0866 174.908L59.8358 174.404L58.6 149.252L48.4849 149.528H48.4892Z" fill="#FFBE9D"/>
<path d="M60.0435 174.792L60.0219 174.085L52.8276 174.236L52.8708 176.57L53.3159 176.588C55.2949 176.652 63.3835 176.786 64.6928 176.39C66.1576 175.946 60.0435 174.792 60.0435 174.792Z" fill="#DF602F"/>
<g opacity="0.3">
<path d="M55.4678 176.467C55.3512 175.916 55.0098 175.403 54.5216 175.067C54.0333 174.732 53.4413 174.559 52.8364 174.615L52.8796 176.472H55.4722L55.4678 176.467Z" fill="black"/>
</g>
<g opacity="0.3">
<path d="M63.0333 175.455C63.0333 175.455 65.1808 175.985 64.9215 176.316C64.6623 176.648 56.4829 176.795 52.8706 176.571L52.8792 176.424L62.4198 176.325C62.4198 176.325 62.6185 175.481 63.0333 175.459V175.455Z" fill="black"/>
</g>
<path d="M52.7671 176.42C52.7671 176.42 52.8103 176.424 52.8924 176.428C53.0004 176.428 53.1171 176.437 53.2467 176.441C53.601 176.45 54.0374 176.459 54.5516 176.471C55.6534 176.489 57.1744 176.493 58.8509 176.463C60.5317 176.433 62.0483 176.377 63.1502 176.321C63.6643 176.291 64.0964 176.269 64.4508 176.248C64.5804 176.239 64.697 176.23 64.8051 176.222C64.8872 176.213 64.926 176.209 64.926 176.209C64.926 176.209 64.8828 176.209 64.8007 176.209C64.6927 176.209 64.5761 176.217 64.4464 176.217C64.0921 176.23 63.66 176.248 63.1458 176.265C62.0483 176.303 60.5274 176.355 58.8509 176.385C57.1744 176.415 55.6534 176.42 54.5516 176.415C54.0374 176.415 53.601 176.415 53.2467 176.415C53.1171 176.415 53.0004 176.415 52.8924 176.415C52.8103 176.415 52.7671 176.415 52.7671 176.42Z" fill="black"/>
<path d="M62.4201 176.428C62.446 176.428 62.459 176.144 62.6491 175.847C62.8349 175.55 63.0985 175.399 63.0812 175.378C63.0769 175.356 62.7701 175.49 62.5713 175.808C62.3683 176.123 62.3942 176.433 62.4158 176.428H62.4201Z" fill="black"/>
<path d="M60.2852 175.472C60.2852 175.472 60.4062 175.369 60.5056 175.214C60.605 175.059 60.6698 174.925 60.6525 174.912C60.6309 174.9 60.5315 175.016 60.4321 175.171C60.3327 175.326 60.2636 175.459 60.2852 175.472Z" fill="black"/>
<path d="M59.6975 175.197C59.6975 175.197 59.8271 175.141 59.9481 175.037C60.0691 174.934 60.1555 174.835 60.1382 174.818C60.121 174.8 60.0086 174.874 59.8876 174.977C59.7666 175.08 59.6802 175.179 59.6975 175.197Z" fill="black"/>
<path d="M59.3174 174.577C59.3174 174.598 59.4859 174.615 59.6933 174.615C59.9007 174.615 60.0692 174.594 60.0692 174.572C60.0692 174.551 59.9007 174.534 59.6933 174.534C59.4859 174.534 59.3174 174.555 59.3174 174.577Z" fill="black"/>
<path d="M59.1792 174.137C59.1792 174.137 59.3563 174.232 59.5983 174.24C59.8403 174.253 60.0347 174.202 60.0261 174.18C60.0218 174.159 59.8317 174.171 59.6026 174.163C59.3736 174.15 59.1835 174.116 59.1792 174.137Z" fill="black"/>
<path d="M60.5146 174.887C60.5146 174.887 60.6918 174.912 60.977 174.874C61.1196 174.856 61.2838 174.822 61.4652 174.766C61.556 174.736 61.6467 174.71 61.7418 174.654C61.785 174.624 61.8368 174.585 61.8541 174.521C61.8714 174.456 61.8325 174.387 61.7807 174.353C61.3356 174.15 60.8992 174.387 60.7437 174.602C60.6572 174.71 60.6183 174.818 60.6011 174.891C60.5838 174.964 60.5881 175.007 60.5924 175.007C60.6097 175.012 60.6183 174.839 60.7955 174.641C60.8819 174.542 61.0116 174.447 61.1844 174.396C61.3443 174.348 61.5776 174.331 61.7331 174.422C61.8066 174.469 61.7807 174.551 61.6986 174.598C61.6251 174.645 61.5257 174.676 61.4436 174.706C61.2708 174.766 61.1109 174.805 60.9727 174.831C60.6961 174.882 60.5233 174.887 60.5233 174.9L60.5146 174.887Z" fill="black"/>
<path d="M60.6312 174.908C60.6312 174.908 60.7046 174.801 60.6787 174.611C60.6658 174.516 60.6269 174.404 60.5448 174.301C60.4627 174.206 60.3547 174.081 60.1559 174.09C60.0479 174.103 60.0003 174.219 60.0176 174.288C60.0263 174.361 60.0652 174.426 60.0997 174.478C60.1689 174.581 60.251 174.667 60.3244 174.732C60.4713 174.861 60.588 174.908 60.5923 174.9C60.6009 174.891 60.4973 174.826 60.3676 174.693C60.3028 174.628 60.2337 174.542 60.1689 174.439C60.104 174.348 60.0565 174.189 60.1689 174.167C60.2855 174.154 60.4022 174.258 60.4756 174.344C60.5491 174.434 60.5923 174.533 60.6139 174.62C60.6528 174.792 60.6139 174.904 60.6269 174.908H60.6312Z" fill="black"/>
<path d="M52.8709 174.602C52.8709 174.602 53.0739 174.581 53.398 174.611C53.7177 174.637 54.1671 174.753 54.5603 175.033C54.9535 175.313 55.1912 175.683 55.3035 175.963C55.4202 176.248 55.4331 176.437 55.4504 176.433C55.4547 176.433 55.4591 176.385 55.4504 176.299C55.4418 176.213 55.4159 176.088 55.364 175.942C55.2646 175.649 55.027 175.257 54.6165 174.964C54.206 174.671 53.735 174.564 53.4023 174.551C53.2338 174.542 53.0999 174.551 53.0091 174.568C52.9184 174.581 52.8665 174.594 52.8709 174.602Z" fill="black"/>
<path d="M56.3535 175.804C56.3535 175.804 56.8202 175.886 57.3992 175.881C57.9825 175.877 58.4491 175.804 58.4448 175.787C58.4448 175.765 57.9738 175.8 57.3992 175.804C56.8245 175.808 56.3535 175.782 56.3535 175.804Z" fill="black"/>
<path d="M54.9492 175.83C54.9492 175.83 54.9881 175.92 55.04 176.019C55.0918 176.118 55.1177 176.205 55.1437 176.205C55.1653 176.205 55.1782 176.097 55.1177 175.985C55.0616 175.873 54.9622 175.813 54.9492 175.83Z" fill="black"/>
<path d="M54.4048 175.227C54.4048 175.227 54.435 175.313 54.5128 175.378C54.5906 175.446 54.664 175.49 54.6813 175.472C54.6986 175.455 54.6511 175.386 54.5733 175.322C54.4955 175.253 54.4221 175.21 54.4048 175.227Z" fill="black"/>
<path d="M53.644 174.964C53.6483 174.986 53.7434 174.986 53.8514 175.016C53.9595 175.046 54.0329 175.098 54.0545 175.085C54.0718 175.072 54.0113 174.977 53.8774 174.943C53.7477 174.904 53.6354 174.943 53.644 174.968V174.964Z" fill="black"/>
<path d="M53.0996 174.843C53.0996 174.843 53.1342 174.899 53.1947 174.917C53.2552 174.938 53.3113 174.938 53.32 174.917C53.3286 174.895 53.2854 174.861 53.2249 174.843C53.1644 174.822 53.1083 174.822 53.0996 174.843Z" fill="black"/>
<path d="M31.3138 147.474C31.2793 148.245 28.4707 172.234 28.4707 172.234L35.0817 173.694L41.1784 149.257L31.3182 147.478L31.3138 147.474Z" fill="#FFBE9D"/>
<path d="M35.3798 174.327L35.5268 173.633L28.501 172.07L27.9868 174.348L28.4146 174.473C30.3201 175.007 38.1452 177.057 39.5149 176.984C41.0445 176.902 35.3798 174.327 35.3798 174.327Z" fill="#DF602F"/>
<g opacity="0.3">
<path d="M30.5362 174.869C30.5578 174.305 30.3418 173.728 29.9529 173.289C29.5597 172.845 29.0239 172.539 28.4233 172.449L28.0215 174.262L30.5406 174.869H30.5362Z" fill="black"/>
</g>
<g opacity="0.3">
<path d="M38.128 175.683C38.128 175.683 40.0854 176.709 39.757 176.967C39.4286 177.225 31.4479 175.429 27.9912 174.353L28.0344 174.211L37.3243 176.381C37.3243 176.381 37.7175 175.61 38.128 175.683Z" fill="black"/>
</g>
<path d="M27.9262 174.18C27.9262 174.18 27.9651 174.198 28.0429 174.219C28.1466 174.249 28.2589 174.279 28.3842 174.318C28.7256 174.409 29.1447 174.521 29.6416 174.654C30.7045 174.93 32.1823 175.296 33.8199 175.666C35.4575 176.037 36.9482 176.342 38.0284 176.549C38.534 176.644 38.9617 176.721 39.3074 176.786C39.437 176.807 39.5537 176.829 39.6574 176.846C39.7395 176.859 39.7784 176.863 39.7784 176.863C39.7784 176.863 39.7395 176.851 39.6574 176.833C39.5537 176.812 39.4413 176.786 39.3117 176.76C38.966 176.687 38.5383 176.601 38.0371 176.497C36.9612 176.278 35.4748 175.963 33.8372 175.593C32.1995 175.223 30.7218 174.865 29.6545 174.602C29.1576 174.477 28.7342 174.374 28.3885 174.292C28.2589 174.262 28.1466 174.236 28.0429 174.21C27.9651 174.193 27.9219 174.185 27.9219 174.189L27.9262 174.18Z" fill="black"/>
<path d="M37.298 176.48C37.324 176.489 37.4061 176.213 37.661 175.972C37.9116 175.726 38.2054 175.64 38.1925 175.619C38.1925 175.597 37.8641 175.653 37.5962 175.916C37.324 176.174 37.2764 176.48 37.298 176.48Z" fill="black"/>
<path d="M35.4532 175.042C35.4532 175.042 35.5958 174.969 35.7297 174.844C35.8637 174.719 35.9587 174.602 35.9415 174.585C35.9242 174.568 35.7989 174.658 35.6649 174.783C35.531 174.908 35.4359 175.025 35.4532 175.042Z" fill="black"/>
<path d="M34.9478 174.637C34.9478 174.637 35.0861 174.611 35.2287 174.538C35.3713 174.464 35.4793 174.391 35.4663 174.37C35.4534 174.348 35.3281 174.396 35.1855 174.469C35.0429 174.542 34.9349 174.615 34.9478 174.637Z" fill="black"/>
<path d="M34.7271 173.948C34.7228 173.969 34.8827 174.025 35.0814 174.073C35.2845 174.12 35.4487 174.142 35.453 174.12C35.4574 174.099 35.2975 174.043 35.0987 173.995C34.8956 173.948 34.7315 173.926 34.7271 173.948Z" fill="black"/>
<path d="M34.7012 173.487C34.7012 173.487 34.8524 173.621 35.0857 173.689C35.3191 173.758 35.5178 173.754 35.5178 173.733C35.5178 173.711 35.332 173.681 35.1117 173.612C34.8913 173.547 34.7185 173.466 34.7055 173.487H34.7012Z" fill="black"/>
<path d="M35.8159 174.533C35.8159 174.533 35.9801 174.602 36.2653 174.632C36.4079 174.65 36.5764 174.654 36.7665 174.641C36.8616 174.632 36.9566 174.632 37.0647 174.598C37.1165 174.581 37.1727 174.555 37.2029 174.495C37.2375 174.434 37.2159 174.357 37.1727 174.314C36.7881 174.012 36.3085 174.137 36.1054 174.309C35.9931 174.396 35.9326 174.486 35.898 174.555C35.8634 174.624 35.8548 174.663 35.8634 174.667C35.8764 174.675 35.9283 174.512 36.1486 174.357C36.2566 174.284 36.4079 174.219 36.585 174.21C36.7535 174.202 36.9826 174.24 37.1122 174.365C37.1727 174.43 37.1295 174.503 37.0387 174.529C36.9566 174.555 36.8529 174.564 36.7622 174.572C36.5807 174.589 36.4122 174.589 36.2739 174.581C35.9931 174.563 35.8246 174.525 35.8202 174.538L35.8159 174.533Z" fill="black"/>
<path d="M35.9284 174.577C35.9284 174.577 36.0234 174.49 36.045 174.301C36.0537 174.206 36.045 174.09 35.9889 173.969C35.9284 173.857 35.8549 173.707 35.6605 173.672C35.5525 173.659 35.479 173.758 35.479 173.832C35.4704 173.905 35.492 173.978 35.5136 174.034C35.5568 174.155 35.613 174.254 35.6691 174.335C35.7815 174.495 35.8808 174.568 35.8895 174.564C35.8981 174.555 35.816 174.469 35.721 174.31C35.6734 174.228 35.6259 174.133 35.587 174.017C35.5438 173.913 35.5395 173.745 35.6562 173.754C35.7728 173.771 35.8636 173.9 35.9111 173.999C35.9629 174.107 35.9802 174.211 35.9759 174.301C35.9759 174.478 35.9068 174.577 35.9197 174.585L35.9284 174.577Z" fill="black"/>
<path d="M28.4619 172.44C28.4619 172.44 28.665 172.466 28.9761 172.574C29.2829 172.677 29.689 172.893 30.0088 173.259C30.3242 173.625 30.4668 174.043 30.5057 174.34C30.5489 174.641 30.5187 174.831 30.5359 174.831C30.5403 174.831 30.5532 174.788 30.5662 174.701C30.5791 174.615 30.5835 174.49 30.5662 174.335C30.5403 174.025 30.402 173.59 30.0736 173.211C29.7452 172.832 29.3131 172.613 28.9934 172.522C28.8335 172.475 28.6996 172.453 28.6088 172.445C28.5181 172.436 28.4662 172.436 28.4662 172.445L28.4619 172.44Z" fill="black"/>
<path d="M31.5557 174.434C31.5557 174.434 31.9878 174.624 32.5538 174.757C33.1198 174.891 33.5908 174.934 33.5908 174.912C33.5908 174.891 33.1328 174.813 32.5711 174.68C32.0094 174.551 31.56 174.413 31.5557 174.434Z" fill="black"/>
<path d="M30.186 174.124C30.186 174.124 30.2033 174.223 30.2292 174.331C30.2552 174.439 30.2595 174.529 30.2854 174.533C30.307 174.538 30.3459 174.439 30.3157 174.314C30.2854 174.189 30.2076 174.111 30.1904 174.124H30.186Z" fill="black"/>
<path d="M29.8013 173.414C29.8013 173.414 29.8099 173.504 29.8704 173.586C29.9266 173.672 29.9914 173.728 30.0087 173.719C30.0303 173.707 30 173.629 29.9395 173.547C29.8834 173.461 29.8186 173.405 29.8013 173.414Z" fill="black"/>
<path d="M29.123 172.974C29.123 172.996 29.2181 173.018 29.3132 173.074C29.4082 173.13 29.473 173.198 29.4946 173.185C29.5162 173.177 29.4774 173.074 29.3607 173.005C29.244 172.936 29.1274 172.953 29.1274 172.974H29.123Z" fill="black"/>
<path d="M28.626 172.729C28.626 172.729 28.6476 172.789 28.6994 172.824C28.7513 172.858 28.8075 172.871 28.8204 172.854C28.8334 172.837 28.7988 172.794 28.747 172.759C28.6951 172.725 28.6389 172.712 28.626 172.729Z" fill="black"/>
<path d="M56.1154 40.6555C55.9382 40.143 55.5018 39.7597 55.2901 39.2601C54.9747 38.5107 55.208 37.6623 55.2901 36.8569C55.3765 36.0515 55.208 35.0696 54.4648 34.7379C54.158 34.6001 53.7994 34.6001 53.5142 34.4236C52.9352 34.0661 52.9698 33.2435 52.9136 32.5673C52.8791 32.128 52.7624 31.6844 52.5723 31.2839C52.6112 31.271 52.65 31.258 52.6933 31.2451C53.6222 31.0039 54.6161 31.5681 54.9012 32.3347C55.0525 32.7137 55.0395 33.1401 54.8278 33.4158C54.6204 33.6957 54.2445 33.8163 53.9895 33.6871C53.7346 33.5579 53.6093 33.2435 53.6827 33.0324C53.7476 32.8042 53.9895 32.7439 54.1537 32.7697C54.3266 32.7913 54.4389 32.8817 54.4864 32.9549C54.534 33.0324 54.5383 33.0841 54.5512 33.0841C54.5556 33.0841 54.5728 33.0281 54.5296 32.9291C54.4864 32.8343 54.3654 32.7094 54.1667 32.6707C54.0673 32.6491 53.9506 32.6491 53.8297 32.6922C53.7087 32.731 53.592 32.8429 53.5402 32.9851C53.4321 33.2736 53.5618 33.6569 53.8988 33.8464C54.2488 34.0359 54.7241 33.8852 54.992 33.5493C55.2728 33.2004 55.2858 32.6879 55.1216 32.2529C54.8191 31.426 53.8469 30.8273 52.8488 30.9652C53.0649 30.6163 53.0951 30.1813 52.9828 29.8195C52.8272 29.3157 52.4081 28.9797 51.9846 28.8204C51.5569 28.6567 51.1032 28.6567 50.7186 28.7515C50.3297 28.8419 49.997 29.0099 49.7205 29.1908C49.4396 29.3716 49.2236 29.5741 49.0162 29.7076C48.8088 29.8454 48.6057 29.9186 48.4329 29.9315C48.0786 29.9617 47.9187 29.8023 47.91 29.8239C47.8928 29.8239 48.044 30.0306 48.4372 30.0306C48.6273 30.0306 48.8606 29.966 49.0896 29.8282C49.323 29.6946 49.5477 29.5052 49.8155 29.3415C50.3427 29.0228 51.1291 28.7299 51.8982 29.0357C52.2698 29.1821 52.6198 29.4793 52.7408 29.8885C52.8618 30.2761 52.7667 30.7627 52.4426 31.0384C52.2136 30.6465 51.9069 30.3062 51.5093 30.0823C50.6452 29.5956 49.3705 29.8325 48.9298 30.7197L41.8392 28.2949C40.9707 27.5283 39.6874 27.3001 38.5813 27.6403C38.5337 27.6317 38.4862 27.6231 38.4344 27.6188C38.1016 27.5843 37.6782 27.6188 37.2375 27.8169C36.7838 28.0107 36.4165 28.4414 36.0319 28.8677C35.8332 29.0788 35.6171 29.2898 35.3536 29.4276C35.3104 29.4492 35.2628 29.4664 35.2196 29.4836C34.9085 29.5224 34.5931 29.5224 34.2733 29.5181C33.6771 29.3803 33.0592 29.04 32.3246 28.9668C31.9271 28.9194 31.5037 28.9366 31.0975 29.0529C30.687 29.1735 30.2981 29.4061 30 29.742C29.6975 30.0737 29.5204 30.5388 29.5247 30.9996C29.5247 31.3356 29.5895 31.6586 29.6803 31.9773C29.5247 32.4036 29.4469 32.8559 29.4728 33.3124C29.5031 33.911 29.6759 34.5355 29.6846 35.1256C29.5161 35.2591 29.3173 35.3581 29.1056 35.4184C28.7297 35.5347 28.3321 35.5907 27.9519 35.7371C27.1871 36.0386 26.6513 36.6803 26.4223 37.3522C26.2149 37.9638 26.2322 38.6701 26.6124 39.1309C26.4482 39.9234 26.5951 40.7847 27.1136 41.4092C27.4593 41.827 27.9303 42.1371 28.2241 42.5936C28.6908 43.3172 28.6216 44.2388 28.7426 45.0873C28.8593 45.9357 29.3562 46.8961 30.2117 46.9521C30.9031 46.9952 31.5253 46.4181 32.2166 46.4741C33.1845 46.5516 33.582 47.7101 34.1437 48.5026C34.8523 49.5061 36.1443 50.066 37.3628 49.898C38.2442 49.7774 39.1171 49.3123 39.9812 49.5319C41.0658 49.8075 41.7182 51.0738 42.8244 51.2331C43.6497 51.3494 44.4101 50.8067 45.0237 50.2425C45.6373 49.6783 46.2595 49.0366 47.0761 48.8902C48.0613 48.7136 49.0119 49.308 50.0057 49.4458C51.289 49.6224 52.6457 48.9419 53.2723 47.8135C53.8167 46.8272 53.8167 45.617 54.3266 44.6135C54.6679 43.9416 55.221 43.399 55.6444 42.7745C56.0679 42.15 56.3703 41.3575 56.1197 40.6469L56.1154 40.6555ZM27.684 37.4771C27.5285 37.4426 27.442 37.4642 27.442 37.4642C27.442 37.4771 27.5155 37.4771 27.6365 37.5115C27.5933 37.5417 27.5457 37.5762 27.5025 37.6063C27.0964 37.9336 26.8155 38.3901 26.6643 38.8897C26.4396 38.4935 26.4396 37.925 26.6211 37.4254C26.8371 36.8095 27.3427 36.2238 28.034 35.9611C28.3797 35.8319 28.7772 35.7759 29.179 35.6553C29.3432 35.6079 29.5117 35.5347 29.6716 35.4357C29.6457 35.6682 29.5852 35.8922 29.4685 36.1032C29.0969 36.7665 28.3105 37.0378 27.684 37.4771ZM32.5234 29.5525C31.3697 29.7377 30.3716 30.5517 29.8531 31.5897C29.8099 31.3915 29.784 31.1977 29.784 30.9996C29.784 30.5905 29.9309 30.2029 30.1901 29.9057C30.7173 29.2941 31.5598 29.1046 32.2987 29.1994C32.7092 29.2338 33.0851 29.3673 33.461 29.4965C33.1456 29.4965 32.8302 29.5008 32.5191 29.5525H32.5234ZM36.0795 29.2554C35.9931 29.2941 35.9023 29.32 35.8116 29.3501C35.9455 29.2338 36.0622 29.1132 36.1702 28.9926C36.5548 28.549 36.8918 28.1399 37.3023 27.9504C37.6739 27.7652 38.0455 27.7178 38.3479 27.7221C38.1621 27.7953 37.985 27.8815 37.8165 27.9891C37.2115 28.3768 36.7276 28.9582 36.0752 29.2554H36.0795Z" fill="black"/>
<path d="M51.4492 44.0494C51.7863 41.9261 51.6783 38.4462 51.5011 35.6037C51.3412 33.0454 49.0728 31.1332 46.5148 31.4045L39.0872 32.1884C38.3095 32.2702 37.7261 32.9334 37.7391 33.7087L38.5039 51.8921C37.4755 51.8921 36.7842 51.8964 36.7842 51.8964V55.1911C36.7842 58.9596 39.8477 62.0132 43.6285 62.0132C47.4092 62.0132 50.4727 58.9596 50.4727 55.1911V52.34C50.4727 52.34 48.6925 51.7629 47.6123 51.8189C47.5518 51.8189 47.4611 51.8232 47.3444 51.8275C47.3531 50.1608 47.4827 48.8558 47.4827 48.8558C47.4827 48.8558 50.7622 48.3131 51.4449 44.0451L51.4492 44.0494Z" fill="#FFBE9D"/>
<path d="M50.3863 38.3685C50.395 38.6571 50.1616 38.9026 49.8548 38.9198C49.5524 38.937 49.2974 38.7174 49.2888 38.4245C49.2802 38.136 49.5135 37.8862 49.816 37.8732C50.1184 37.856 50.3734 38.08 50.382 38.3685H50.3863Z" fill="black"/>
<path d="M50.7448 37.4168C50.6757 37.49 50.2609 37.1799 49.6689 37.1842C49.077 37.1756 48.6449 37.4814 48.5801 37.4082C48.5498 37.378 48.619 37.2488 48.8048 37.111C48.9906 36.9732 49.306 36.844 49.6776 36.844C50.0449 36.844 50.356 36.9818 50.5331 37.1196C50.7146 37.2574 50.7751 37.3867 50.7448 37.4211V37.4168Z" fill="black"/>
<path d="M44.6138 38.3686C44.6225 38.6572 44.3892 38.9026 44.0824 38.9199C43.7799 38.9371 43.525 38.7174 43.5163 38.4246C43.5077 38.136 43.741 37.8862 44.0435 37.8733C44.346 37.8561 44.6009 38.08 44.6095 38.3686H44.6138Z" fill="black"/>
<path d="M44.9377 37.5244C44.8686 37.5976 44.4538 37.2875 43.8618 37.2918C43.2699 37.2832 42.8378 37.589 42.773 37.5158C42.7427 37.4856 42.8118 37.3564 42.9976 37.2186C43.1834 37.0808 43.4989 36.9516 43.8705 36.9516C44.2377 36.9516 44.5488 37.0894 44.726 37.2272C44.9075 37.3651 44.968 37.4943 44.9377 37.5287V37.5244Z" fill="black"/>
<path d="M47.0808 41.8917C47.0808 41.8572 47.4437 41.7969 48.04 41.7194C48.1912 41.7022 48.3338 41.672 48.3597 41.573C48.3943 41.4653 48.3338 41.3016 48.2604 41.1294C48.1178 40.7676 47.9709 40.3843 47.8153 39.9837C47.1974 38.3514 46.748 37.012 46.8129 36.9905C46.8777 36.9646 47.4351 38.2696 48.053 39.8976C48.2042 40.2981 48.3468 40.6814 48.4807 41.0475C48.5369 41.2198 48.6363 41.4136 48.5585 41.6376C48.5196 41.7495 48.4073 41.8314 48.3122 41.8572C48.2171 41.8874 48.1307 41.8874 48.0573 41.8917C47.4567 41.9218 47.0851 41.9261 47.0851 41.8917H47.0808Z" fill="black"/>
<path d="M47.4872 48.86C47.4872 48.86 44.6052 49.0452 41.7534 47.3354C41.7534 47.3354 43.1447 50.2683 47.4267 49.8678L47.4829 48.86H47.4872Z" fill="#EB996E"/>
<path d="M46.8302 43.3129C46.6185 43.0329 46.2469 42.8779 45.8753 42.9209C45.6203 42.9468 45.3611 43.0717 45.2055 43.2784C45.05 43.4851 45.0154 43.7823 45.158 43.9804C45.3179 44.2044 45.6506 44.2561 45.9314 44.1742C46.2123 44.0924 46.4543 43.9115 46.6876 43.7263C46.7524 43.6746 46.8172 43.623 46.8561 43.554C46.895 43.4851 46.9036 43.3947 46.8561 43.3344" fill="#EB996E"/>
<path d="M45.3393 42.3007C45.4344 42.2964 45.4387 42.9338 45.9874 43.3861C46.5362 43.8426 47.2189 43.7694 47.2232 43.8598C47.2319 43.8986 47.072 43.9847 46.7825 43.9933C46.4973 44.0019 46.0868 43.9115 45.7498 43.6359C45.4171 43.3559 45.2702 42.9855 45.2486 42.7228C45.2226 42.4558 45.2961 42.2964 45.3393 42.3007Z" fill="black"/>
<path d="M45.201 36.495C45.1449 36.6544 44.5529 36.5812 43.8616 36.663C43.1659 36.7319 42.6085 36.9343 42.5178 36.7922C42.4789 36.7233 42.5739 36.5726 42.7986 36.4175C43.0233 36.2625 43.3819 36.116 43.7967 36.0687C44.2115 36.0213 44.5918 36.0902 44.8467 36.1936C45.1016 36.2969 45.2313 36.4218 45.2053 36.4993L45.201 36.495Z" fill="black"/>
<path d="M50.5247 36.2109C50.421 36.3445 50.0148 36.2066 49.5222 36.198C49.034 36.1722 48.6192 36.2885 48.5241 36.1463C48.4809 36.0774 48.5457 35.9439 48.7272 35.819C48.9044 35.6941 49.2025 35.5908 49.5395 35.5994C49.8766 35.608 50.1661 35.7329 50.3389 35.8664C50.5117 36.0042 50.5679 36.142 50.5247 36.2066V36.2109Z" fill="black"/>
<path d="M53.0951 31.7964C52.8013 30.6594 51.9371 29.6042 50.7791 29.3932C50.0229 29.2554 49.2495 29.475 48.4804 29.4276C47.8495 29.3889 47.6205 28.885 47.0156 28.6869C46.0132 28.3595 45.244 27.2484 43.0793 27.481C42.5003 27.5412 41.7571 28.2088 41.2299 28.9711C40.4003 28.6136 39.3072 28.997 38.7109 29.2597C37.4708 29.798 36.6973 31.1891 36.4554 32.6018C36.2091 34.0144 36.4122 35.4658 36.6109 36.8871C36.7017 37.5374 36.7924 38.1834 36.8831 38.8338C36.9436 39.2644 37.0171 39.708 37.2288 40.0741L36.2437 49.2089C38.201 49.9368 40.6553 48.593 41.0874 46.5559C41.4719 44.76 40.4695 42.9296 40.625 41.1035C40.7201 40.0138 41.338 39.0017 41.3336 37.9078C41.3336 37.5675 41.2775 37.2101 41.1824 36.844C42.9237 35.4357 43.3688 34.303 43.2953 32.9808C43.8311 33.3425 44.4576 33.5708 45.1101 33.5794C46.0261 33.5923 46.981 33.2349 47.8366 33.5579C48.4545 33.7905 48.8909 34.3288 49.3618 34.794C49.8328 35.2548 50.4421 35.6855 51.0945 35.5907C51.4099 35.5476 51.6951 35.384 51.9933 35.2763C52.2914 35.1686 52.6457 35.1127 52.9179 35.2763C53.2031 34.1393 53.3889 32.9334 53.0951 31.8007V31.7964Z" fill="black"/>
<path d="M27.4984 41.1466C27.5157 41.1165 27.9434 41.5471 28.92 41.9563C29.4039 42.1544 30.0347 42.3396 30.7779 42.3482C31.5168 42.3611 32.3853 42.1846 33.1415 41.6376C33.889 41.1035 34.5587 40.2249 34.671 39.1396C34.7272 38.6056 34.6408 38.0285 34.3513 37.5375C34.0704 37.0508 33.539 36.6847 32.947 36.6675C32.6532 36.6589 32.3637 36.7536 32.1304 36.9345C31.897 37.1197 31.7328 37.3867 31.6291 37.6753C31.4347 38.2653 31.5298 38.9587 31.9575 39.4583C32.3637 39.9708 32.9902 40.2939 33.6513 40.4618C34.3167 40.6255 35.034 40.6341 35.7253 40.4963C36.4167 40.3585 37.0735 40.0699 37.6136 39.6478C38.1537 39.2258 38.5598 38.6659 38.7845 38.0414C39.0135 37.4212 39.0611 36.7493 38.9401 36.1291C38.8796 35.8191 38.7759 35.5219 38.6203 35.2506C38.4691 34.9792 38.2833 34.7423 38.0413 34.5701C37.8037 34.3935 37.5228 34.2772 37.2463 34.2729C36.9741 34.2643 36.7148 34.4107 36.5852 34.6433C36.4556 34.8716 36.4296 35.1601 36.4988 35.4142C36.5679 35.6683 36.7278 35.8966 36.9179 36.0818C37.7216 36.8139 38.8104 37.0379 39.7222 36.9388C40.6511 36.8484 41.4289 36.4177 41.9431 35.888C42.4616 35.3582 42.7424 34.7596 42.8894 34.26C43.1702 33.2436 42.9844 32.6406 43.0233 32.6449C43.0233 32.6449 43.0708 32.787 43.0924 33.067C43.114 33.3469 43.114 33.7647 42.9758 34.2858C42.8375 34.7983 42.561 35.4185 42.0338 35.9784C41.511 36.534 40.703 36.9991 39.7394 37.1025C38.7888 37.2102 37.6481 36.9991 36.7796 36.2196C36.5722 36.0172 36.3864 35.7674 36.3043 35.4659C36.2222 35.1687 36.2438 34.8285 36.4037 34.5399C36.5636 34.2471 36.9006 34.0533 37.242 34.0619C37.5833 34.0619 37.8987 34.204 38.1623 34.3935C38.4345 34.583 38.6463 34.8543 38.8061 35.1429C38.9746 35.4314 39.087 35.7501 39.1518 36.0818C39.2857 36.745 39.2339 37.4557 38.9962 38.1146C38.7629 38.7778 38.3265 39.3808 37.7562 39.8244C37.1858 40.2723 36.4945 40.5738 35.7685 40.7202C35.0426 40.8624 34.2951 40.858 33.5908 40.6815C32.8952 40.5049 32.2211 40.1603 31.7717 39.5961C31.547 39.3205 31.3872 38.9846 31.331 38.6357C31.2748 38.2869 31.3094 37.9294 31.4131 37.6021C31.5254 37.2748 31.7156 36.9733 31.9878 36.7579C32.26 36.5469 32.61 36.4349 32.947 36.4479C33.6254 36.4694 34.2174 36.8915 34.5241 37.4298C34.8396 37.9682 34.926 38.5883 34.8612 39.1525C34.7315 40.3068 34.0186 41.2198 33.2322 41.7668C32.4371 42.331 31.5254 42.4989 30.7693 42.4731C30.0045 42.4516 29.365 42.2448 28.8767 42.0338C28.3842 41.8185 28.0385 41.5859 27.8181 41.4179C27.7058 41.3361 27.6237 41.2629 27.5718 41.2155C27.52 41.1681 27.4897 41.1423 27.4941 41.138L27.4984 41.1466Z" fill="#545454"/>
<path d="M53.3414 33.726C53.3414 33.726 53.2809 33.7906 53.134 33.8724C52.9914 33.9542 52.7624 34.0576 52.4556 34.1179C52.1445 34.1782 51.7513 34.1997 51.3063 34.0963C50.8655 33.9973 50.3859 33.769 49.9581 33.3943C49.5261 33.0239 49.1501 32.5114 48.8952 31.8912C48.7742 31.5812 48.6921 31.1935 48.8606 30.8318C48.9427 30.6595 49.0767 30.4958 49.2625 30.4011C49.4483 30.302 49.6946 30.3063 49.8847 30.4097C50.2563 30.6121 50.4637 31.0816 50.3297 31.5036C50.2044 31.9214 49.8588 32.2186 49.4828 32.4038C48.7181 32.7785 47.7934 32.7268 46.9811 32.4382C46.5706 32.2961 46.186 32.1023 45.8274 31.8826C45.4774 31.6544 45.1274 31.4347 44.8465 31.1031C44.5657 30.7844 44.4577 30.2503 44.7515 29.88C44.8941 29.6948 45.1533 29.6129 45.3694 29.6603C45.5854 29.7034 45.7669 29.8283 45.8965 29.9919C46.0261 30.1513 46.0953 30.3752 46.065 30.5777C46.0391 30.7801 45.9484 30.961 45.8274 31.1074C45.5811 31.396 45.2225 31.5596 44.8768 31.5855C44.5311 31.6156 44.2027 31.5467 43.9089 31.4563C43.6151 31.3615 43.3429 31.2581 43.0836 31.1375C42.5694 30.905 42.1374 30.5906 41.8781 30.2159C41.6059 29.8412 41.5454 29.4277 41.567 29.1133C41.5886 28.7946 41.7182 28.5621 41.8176 28.4329C41.9256 28.3037 42.0077 28.2649 42.0077 28.2649C42.038 28.2778 41.688 28.4975 41.6577 29.1176C41.6491 29.4148 41.7225 29.7981 41.9818 30.1384C42.2367 30.4829 42.6515 30.7715 43.1528 30.9868C43.654 31.1892 44.2373 31.4433 44.8595 31.3873C45.162 31.3615 45.4644 31.2151 45.6718 30.9739C45.8749 30.737 45.944 30.3709 45.7323 30.1254C45.5422 29.8713 45.1231 29.7594 44.9286 30.0221C44.8293 30.1427 44.7947 30.3193 44.812 30.4872C44.8293 30.6595 44.9114 30.8188 45.028 30.961C45.2657 31.2452 45.6157 31.4692 45.9527 31.6845C46.2984 31.8956 46.67 32.0807 47.0588 32.2143C47.8323 32.4899 48.6921 32.5287 49.3835 32.1927C49.7205 32.0291 50.0143 31.7663 50.1137 31.4347C50.226 31.1203 50.0532 30.7413 49.781 30.5949C49.5045 30.4355 49.1674 30.6293 49.0464 30.9136C48.9125 31.1935 48.9687 31.5295 49.0767 31.818C49.31 32.4081 49.6686 32.9077 50.0705 33.2651C50.4723 33.6269 50.9217 33.8552 51.3408 33.9628C51.7599 34.0705 52.1402 34.0619 52.4426 34.0188C53.0519 33.9155 53.3328 33.6915 53.3457 33.7173L53.3414 33.726Z" fill="#545454"/>
<path d="M40.8671 43.7435C40.8671 43.7435 40.8152 43.8081 40.6856 43.89C40.556 43.9761 40.3486 44.0838 40.0591 44.1398C39.7696 44.2 39.3936 44.2087 38.9875 44.0708C38.5986 43.933 38.1319 43.6617 37.9159 43.1406C37.8079 42.8951 37.8122 42.5161 38.0801 42.3007C38.3307 42.0811 38.7455 42.0983 39.0134 42.3007C39.5578 42.6927 39.7825 43.4377 39.6745 44.1398C39.5751 44.8332 39.1603 45.5782 38.4258 45.9056C37.7042 46.2372 36.8141 46.1467 36.1054 45.7333C35.7511 45.5265 35.4357 45.2509 35.2153 44.9064C34.995 44.5661 34.8913 44.1268 35.0036 43.7306C35.0598 43.5368 35.1549 43.3473 35.3061 43.2052C35.4573 43.0587 35.6734 42.9769 35.8808 42.9855C36.2999 42.9984 36.6369 43.287 36.8054 43.6057C36.9826 43.9287 37.0431 44.2819 37.0604 44.6135C37.0733 44.9451 37.0431 45.2724 36.9653 45.5739C36.8141 46.1812 36.5073 46.7023 36.1141 47.0684C35.7209 47.4388 35.237 47.6154 34.8178 47.6498C34.3944 47.6886 34.0271 47.5981 33.7592 47.4819C33.487 47.3613 33.3055 47.2148 33.1975 47.1028C33.0895 46.9909 33.0463 46.9263 33.0506 46.922C33.0679 46.8961 33.2623 47.1847 33.7938 47.3957C34.0574 47.4948 34.4073 47.568 34.8049 47.5163C35.2024 47.4689 35.6388 47.2967 36.0017 46.9435C36.3647 46.599 36.6412 46.0994 36.7795 45.5266C36.8486 45.238 36.8746 44.9322 36.8573 44.6221C36.84 44.312 36.7752 43.989 36.6196 43.7091C36.4727 43.4334 36.1875 43.2138 35.8764 43.2095C35.5653 43.1922 35.3061 43.4679 35.224 43.7909C35.1332 44.1182 35.2153 44.48 35.4098 44.7815C35.6042 45.0873 35.8937 45.3414 36.2178 45.5309C36.8702 45.9099 37.6826 45.9917 38.3264 45.6945C38.9788 45.4103 39.3634 44.7427 39.4585 44.1053C39.5665 43.4679 39.3547 42.7917 38.8967 42.4558C38.6764 42.2878 38.3826 42.2792 38.1924 42.4386C37.998 42.5893 37.9807 42.8649 38.0671 43.0846C38.24 43.5411 38.6634 43.8124 39.0264 43.9503C39.4023 44.0924 39.7566 44.0967 40.0374 44.0536C40.6035 43.9589 40.8498 43.7134 40.8627 43.7435H40.8671Z" fill="#545454"/>
<path d="M23.0176 148.438C23.0176 148.438 25.9039 154.033 33.4439 151.315C33.4439 151.315 40.8239 155.312 47.8799 150.837C47.8799 150.837 57.0186 152.06 61.9919 149.661L55.597 94.689L54.789 86.2476H34.6235C34.6235 86.2476 28.6304 88.9652 27.6712 102.235C26.7076 115.504 24.6249 133.73 24.6249 133.73L23.0219 148.438H23.0176Z" fill="black"/>
<path d="M47.4523 151.005C47.4523 151.005 47.4393 150.949 47.4307 150.841C47.4177 150.721 47.4048 150.557 47.3875 150.355C47.3529 149.911 47.3054 149.282 47.2406 148.477C47.1153 146.849 46.9597 144.489 46.7869 141.569C46.4369 135.733 46.0653 127.666 45.8708 118.747C45.6764 109.828 45.7023 101.748 45.7931 95.9036C45.8406 92.9792 45.8925 90.6148 45.9486 88.9825C45.9746 88.1771 45.9962 87.544 46.0134 87.1004C46.0221 86.8937 46.0307 86.7343 46.035 86.6094C46.0394 86.4975 46.048 86.4415 46.0523 86.4415C46.0567 86.4415 46.0566 86.4975 46.061 86.6094C46.061 86.73 46.061 86.8937 46.061 87.1004C46.0566 87.544 46.048 88.1728 46.0394 88.9825C46.0178 90.6277 45.9918 92.9922 45.9573 95.9036C45.9054 101.748 45.9054 109.823 46.0999 118.738C46.2943 127.654 46.6443 135.72 46.9511 141.556C47.1109 144.463 47.2449 146.823 47.3356 148.468C47.3788 149.274 47.4134 149.907 47.4393 150.346C47.448 150.553 47.4566 150.712 47.4609 150.837C47.4609 150.949 47.4609 151.005 47.4609 151.005H47.4523Z" fill="#545454"/>
<path d="M49.2194 135.281C49.2194 135.281 49.2626 135.225 49.375 135.191C49.4873 135.16 49.6688 135.16 49.8675 135.251C50.0533 135.341 50.2737 135.531 50.3299 135.832C50.3947 136.138 50.2046 136.478 49.9108 136.642C49.6213 136.81 49.2281 136.801 48.9991 136.586C48.77 136.379 48.7182 136.099 48.7355 135.893C48.7571 135.677 48.8478 135.522 48.9342 135.44C49.0207 135.358 49.0855 135.341 49.0898 135.35C49.12 135.376 48.891 135.531 48.8953 135.897C48.8953 136.069 48.9645 136.289 49.133 136.427C49.2972 136.569 49.5737 136.573 49.7984 136.444C50.0274 136.315 50.1614 136.078 50.1225 135.862C50.0922 135.647 49.9367 135.479 49.7855 135.389C49.47 135.195 49.2194 135.311 49.2151 135.277L49.2194 135.281Z" fill="#545454"/>
<path d="M48.7746 118.945C48.7746 118.945 48.8178 118.889 48.9301 118.855C49.0425 118.824 49.224 118.824 49.4227 118.915C49.6085 119.005 49.8289 119.195 49.8851 119.496C49.9499 119.802 49.7597 120.142 49.4659 120.306C49.1764 120.474 48.7832 120.465 48.5542 120.25C48.3252 120.043 48.2734 119.763 48.2907 119.557C48.3123 119.341 48.403 119.186 48.4894 119.104C48.5758 119.023 48.6406 119.005 48.645 119.014C48.6752 119.04 48.4462 119.195 48.4505 119.561C48.4505 119.733 48.5197 119.953 48.6882 120.091C48.8524 120.233 49.1289 120.237 49.3536 120.108C49.5826 119.979 49.7165 119.742 49.6777 119.526C49.6474 119.311 49.4919 119.143 49.3406 119.053C49.0252 118.863 48.7746 118.975 48.7703 118.941L48.7746 118.945Z" fill="#545454"/>
<path d="M48.5109 104.509C48.5109 104.509 48.5541 104.453 48.6665 104.418C48.7788 104.388 48.9603 104.388 49.159 104.478C49.3448 104.569 49.5652 104.758 49.6214 105.06C49.6862 105.366 49.4961 105.706 49.2023 105.87C48.9128 106.038 48.5196 106.029 48.2906 105.814C48.0615 105.607 48.0097 105.327 48.027 105.12C48.0486 104.905 48.1393 104.75 48.2257 104.668C48.3122 104.586 48.377 104.569 48.3813 104.578C48.4115 104.603 48.1825 104.758 48.1869 105.124C48.1869 105.297 48.256 105.516 48.4245 105.654C48.5887 105.796 48.8652 105.801 49.0899 105.671C49.3189 105.542 49.4529 105.305 49.414 105.09C49.3837 104.875 49.2282 104.707 49.077 104.616C48.7615 104.427 48.5109 104.539 48.5066 104.504L48.5109 104.509Z" fill="#545454"/>
<path d="M47.9968 89.0642C47.9968 89.0642 48.04 89.0082 48.1523 88.9738C48.2647 88.9436 48.4461 88.9436 48.6449 89.0341C48.8307 89.1245 49.0511 89.314 49.1072 89.6155C49.172 89.9213 48.9819 90.2615 48.6881 90.4252C48.3986 90.5931 48.0054 90.5845 47.7764 90.3692C47.5474 90.1625 47.4955 89.8825 47.5128 89.6758C47.5344 89.4604 47.6252 89.3054 47.7116 89.2236C47.798 89.1417 47.8628 89.1245 47.8671 89.1331C47.8974 89.159 47.6684 89.314 47.6727 89.6801C47.6727 89.8524 47.7418 90.072 47.9103 90.2098C48.0745 90.352 48.3511 90.3563 48.5758 90.2271C48.8048 90.0979 48.9387 89.861 48.8998 89.6456C48.8696 89.4303 48.714 89.2623 48.5628 89.1719C48.2474 88.9781 47.9968 89.0944 47.9924 89.0599L47.9968 89.0642Z" fill="#545454"/>
<path d="M74.2978 72.3452L176.214 71.6088L179.058 140.673L73.5244 139.7L74.2978 72.3452Z" fill="#DF602F"/>
<path d="M74.2979 72.3452L122.532 33.4416C124.576 31.7964 127.497 31.805 129.527 33.4632L176.214 71.6045" fill="#DF602F"/>
<g opacity="0.3">
<path d="M74.2979 72.3452L122.532 33.4416C124.576 31.7964 127.497 31.805 129.527 33.4632L176.214 71.6045" fill="black"/>
</g>
<path d="M73.5243 139.7C73.399 139.579 81.5569 130.703 91.7455 119.871C101.938 109.035 110.304 100.353 110.429 100.469C110.554 100.589 102.401 109.466 92.2035 120.302C82.0149 131.133 73.6496 139.82 73.52 139.7H73.5243Z" fill="black"/>
<path d="M179.058 140.673C178.928 140.789 170.982 132.09 161.312 121.245C151.637 110.396 143.907 101.511 144.037 101.395C144.166 101.279 152.112 109.978 161.783 120.827C171.453 131.672 179.187 140.561 179.058 140.673Z" fill="black"/>
<g opacity="0.5">
<path d="M176.214 71.6088L125.038 112.36L74.2979 72.3452" fill="black"/>
</g>
<path d="M79.4314 76.1181L79.2715 44.394L168.515 43.3388L169.522 76.721L125.034 111.826L79.4314 76.1181Z" fill="#FAFAFA"/>
<path d="M79.4312 76.118C79.4312 76.118 79.7207 76.3334 80.2694 76.7555C80.8182 77.1818 81.6305 77.8106 82.6891 78.6332C84.8106 80.2871 87.9217 82.7118 91.8969 85.8127C99.843 92.0232 111.246 100.934 125.09 111.748H124.978C137.793 101.632 152.998 89.6243 169.452 76.6306L169.409 76.721C169.219 70.3512 169.016 63.6713 168.809 56.8708C168.67 52.2927 168.536 47.7705 168.402 43.3388L168.515 43.4464C132.552 43.8556 100.828 44.2131 79.2713 44.4585L79.3404 44.3853C79.375 54.3686 79.4009 62.2931 79.4225 67.7283C79.4268 70.446 79.4312 72.5391 79.4355 73.956C79.4355 74.6623 79.4355 75.2007 79.4355 75.5625C79.4355 75.9242 79.4312 76.1094 79.4312 76.1094C79.4312 76.1094 79.4225 75.9285 79.4182 75.5711C79.4182 75.2093 79.4095 74.6753 79.4009 73.9689C79.3879 72.552 79.375 70.4632 79.3534 67.7499C79.3188 62.3104 79.267 54.3729 79.2021 44.381V44.3078H79.2756C100.828 44.0451 132.552 43.6575 168.515 43.2139H168.623V43.3215C168.761 47.7576 168.895 52.2797 169.033 56.8536C169.236 63.6541 169.439 70.334 169.63 76.7038V76.7598L169.586 76.7942C153.124 89.775 137.91 101.77 125.09 111.882L125.034 111.925L124.978 111.882C111.146 101.029 99.7522 92.0878 91.8105 85.8601C87.8482 82.7463 84.7502 80.3086 82.6416 78.6505C81.5916 77.8236 80.7879 77.1861 80.2435 76.7555C79.7034 76.3291 79.4312 76.1051 79.4312 76.1051V76.118Z" fill="black"/>
<path d="M154.411 59.3127C154.411 59.373 140.766 59.5065 123.932 59.6099C107.093 59.7133 93.4478 59.7434 93.4478 59.6831C93.4478 59.6228 107.093 59.4893 123.932 59.386C140.761 59.2826 154.411 59.2524 154.411 59.3127Z" fill="black"/>
<path d="M154.411 68.2753C154.411 68.3356 140.766 68.4691 123.932 68.5725C107.093 68.6759 93.4478 68.706 93.4478 68.6457C93.4478 68.5854 107.093 68.4519 123.932 68.3485C140.761 68.2452 154.411 68.215 154.411 68.2753Z" fill="black"/>
<path d="M154.411 78.6074C154.411 78.6677 140.766 78.8012 123.932 78.9046C107.093 79.008 93.4478 79.0381 93.4478 78.9778C93.4478 78.9175 107.093 78.784 123.932 78.6806C140.761 78.5773 154.411 78.5471 154.411 78.6074Z" fill="black"/>
<path d="M154.411 88.9351C154.411 88.9954 141.393 89.1246 125.332 89.2237C109.267 89.3227 96.248 89.3486 96.248 89.2883C96.248 89.228 109.267 89.0988 125.328 88.9997C141.384 88.9007 154.407 88.8748 154.407 88.9351H154.411Z" fill="black"/>
<path d="M142.995 98.0011C142.995 98.0011 142.874 98.0183 142.637 98.0269C142.382 98.0355 142.04 98.0441 141.613 98.0528C140.701 98.0657 139.418 98.0872 137.841 98.1131C134.639 98.1604 130.249 98.2207 125.401 98.2896C120.54 98.3715 116.141 98.3973 112.957 98.4016C111.379 98.4016 110.1 98.393 109.184 98.393C108.757 98.3887 108.415 98.3801 108.16 98.3801C107.927 98.3758 107.802 98.3672 107.802 98.3585C107.802 98.3499 107.923 98.3413 108.16 98.3327C108.415 98.3241 108.757 98.3155 109.184 98.3069C110.096 98.2939 111.379 98.2724 112.957 98.2466C116.158 98.1992 120.548 98.1389 125.396 98.07C130.253 97.9882 134.652 97.9623 137.836 97.958C139.413 97.958 140.692 97.9666 141.608 97.9666C142.036 97.9709 142.377 97.9752 142.632 97.9795C142.866 97.9838 142.991 97.9925 142.991 98.0011H142.995Z" fill="black"/>
<path d="M131.506 106.718C131.506 106.778 128.599 106.83 125.008 106.83C121.417 106.83 118.509 106.778 118.509 106.718C118.509 106.658 121.417 106.606 125.008 106.606C128.599 106.606 131.506 106.658 131.506 106.718Z" fill="black"/>
<path d="M161.545 99.6807C167.499 99.6807 172.325 94.8698 172.325 88.9352C172.325 83.0006 167.499 78.1896 161.545 78.1896C155.591 78.1896 150.764 83.0006 150.764 88.9352C150.764 94.8698 155.591 99.6807 161.545 99.6807Z" fill="black"/>
<path d="M158.741 99.6807C164.695 99.6807 169.521 94.8698 169.521 88.9352C169.521 83.0006 164.695 78.1896 158.741 78.1896C152.787 78.1896 147.96 83.0006 147.96 88.9352C147.96 94.8698 152.787 99.6807 158.741 99.6807Z" fill="#545454"/>
<path d="M160.11 83.9349V92.8673H158.447V85.326H156.55V83.9349H160.11Z" fill="#EBEBEB"/>
<path d="M80.1309 29.9014H89.9911L88.6603 28.3725V24.716C88.6603 22.7392 87.0486 21.137 85.0653 21.137C83.082 21.137 81.4747 22.7392 81.4747 24.7203V28.2002L80.1352 29.9057L80.1309 29.9014Z" fill="#DF602F"/>
<path d="M83.6826 29.419C83.7042 29.9918 84.0845 30.5345 84.6159 30.7585C85.1474 30.9781 85.7998 30.8661 86.2276 30.4828C86.6554 30.0952 86.8282 29.4578 86.6597 28.9108" fill="#DF602F"/>
<path d="M85.61 19.6469H84.6421V21.697H85.61V19.6469Z" fill="#DF602F"/>
<path d="M99.4323 23.1785C99.4323 23.1785 99.4021 23.0923 99.3632 22.9201C99.32 22.7349 99.2638 22.4851 99.1904 22.1621C99.1342 21.8261 98.9959 21.4256 98.8404 20.9519C98.754 20.7193 98.6978 20.4523 98.5768 20.1938C98.4601 19.9311 98.3391 19.6512 98.2095 19.3583C97.6521 18.1998 96.8441 16.8259 95.5954 15.508C94.3553 14.1944 92.6831 12.9455 90.6177 12.0927C89.598 11.6319 88.4573 11.3605 87.2734 11.1452C86.0765 11.0031 84.8191 10.9083 83.5315 11.0849C82.8834 11.1237 82.2439 11.2916 81.5871 11.4208C81.2587 11.4897 80.9433 11.6146 80.6192 11.7094C80.2952 11.8085 79.9668 11.9118 79.6557 12.0626C78.3637 12.5535 77.1409 13.3288 76.0002 14.2418C73.7058 16.0765 71.9127 18.8329 71.1219 22.0243C70.7244 23.6178 70.6423 25.3276 70.8411 27.0245C71.0009 28.7257 71.5281 30.414 72.3231 31.9687L72.5737 32.4382L72.6083 32.4985L72.591 32.5631C71.796 35.1687 71.0139 37.7226 70.2578 40.1991L70.0547 40.0139C72.1849 38.907 74.2459 37.8346 76.2292 36.8053L76.307 36.7665L76.3761 36.8182C78.3637 38.3428 80.6408 39.2688 82.8747 39.6306C85.1173 39.9923 87.3079 39.777 89.261 39.1956C91.214 38.6142 92.9251 37.6494 94.3078 36.5038C95.6991 35.3539 96.7664 34.0274 97.5571 32.7138C98.3392 31.3873 98.8015 30.0651 99.1342 28.8936C99.4064 27.705 99.536 26.6627 99.562 25.81C99.562 25.3836 99.5663 25.0046 99.5706 24.6773C99.5404 24.3542 99.5188 24.0786 99.4972 23.8547C99.4799 23.6436 99.4669 23.4757 99.4539 23.3508C99.4453 23.2388 99.4453 23.1785 99.4496 23.1785C99.4496 23.1785 99.4626 23.2345 99.4799 23.3464C99.4971 23.4713 99.5188 23.6393 99.5447 23.8503C99.5706 24.0786 99.6052 24.3542 99.6397 24.6773C99.6441 25.0089 99.6484 25.3879 99.657 25.8186C99.6484 26.6799 99.5317 27.7308 99.2681 28.9367C98.9484 30.1211 98.4904 31.4648 97.7083 32.8129C96.9176 34.148 95.846 35.5003 94.4417 36.6761C93.0417 37.8519 91.3134 38.8381 89.3301 39.4368C87.3512 40.0354 85.1259 40.2637 82.8402 39.9019C80.5631 39.5401 78.2427 38.6055 76.2119 37.0508L76.3588 37.0637C74.3799 38.0973 72.3188 39.1697 70.1929 40.2809L69.8818 40.4446L69.9899 40.0957C70.746 37.6193 71.5238 35.0653 72.3188 32.4554L72.3318 32.5803L72.0768 32.1022C71.2688 30.513 70.7287 28.786 70.5645 27.0503C70.3658 25.319 70.4522 23.5704 70.8584 21.9424C71.6707 18.6865 73.5071 15.8741 75.849 14.0135C77.0156 13.0833 78.26 12.2994 79.5779 11.8041C79.8976 11.6534 80.2303 11.55 80.5587 11.451C80.8914 11.3562 81.2112 11.227 81.5439 11.1581C82.2093 11.0289 82.8618 10.8609 83.5185 10.8222C84.8234 10.6499 86.1067 10.749 87.3166 10.8997C88.5221 11.128 89.6758 11.4122 90.7085 11.8817C92.7955 12.7603 94.4849 14.0394 95.7293 15.3788C96.9824 16.7225 97.7861 18.1223 98.3305 19.298C98.4558 19.5995 98.5768 19.8794 98.6891 20.1465C98.8058 20.4092 98.862 20.6762 98.9441 20.9174C99.0953 21.3955 99.2206 21.8003 99.2681 22.1448C99.3286 22.4722 99.3762 22.7263 99.4107 22.9115C99.441 23.0837 99.4539 23.1742 99.4496 23.1742L99.4323 23.1785Z" fill="black"/>
<path d="M218.65 125.453C220.063 130.216 218.991 136.332 217.28 140.992C215.569 145.656 212.324 149.743 208.163 152.478C207.692 152.788 207.096 153.086 206.599 152.818C206.193 152.599 206.055 152.099 205.964 151.647C204.961 146.543 205.661 141.125 207.93 136.444C210.198 131.762 214.018 127.843 218.646 125.453" fill="#DF602F"/>
<g opacity="0.2">
<path d="M218.65 125.453C220.063 130.216 218.991 136.332 217.28 140.992C215.569 145.656 212.324 149.743 208.163 152.478C207.692 152.788 207.096 153.086 206.599 152.818C206.193 152.599 206.055 152.099 205.964 151.647C204.961 146.543 205.661 141.125 207.93 136.444C210.198 131.762 214.018 127.843 218.646 125.453" fill="black"/>
</g>
<path d="M197.421 102.863C200.398 102.782 202.36 106.076 202.658 109.031C202.956 111.981 202.295 115.048 203.164 117.886C204.27 121.491 207.649 124.075 208.673 127.701C209.878 131.978 207.528 136.418 207.416 140.858C207.359 143.02 207.839 145.204 207.437 147.327C206.763 150.91 203.332 153.775 199.673 153.809C196.017 153.843 192.53 151.048 191.783 147.482C191.087 144.153 192.556 140.621 191.675 137.335C191.022 134.906 189.134 132.848 188.978 130.341C188.797 127.356 191.113 124.777 191.541 121.818C191.968 118.859 190.469 115.969 190.249 112.985C189.847 107.635 192.072 103.432 197.421 102.863Z" fill="#DF602F"/>
<path d="M203.942 163.784C203.942 163.784 203.98 163.684 204.028 163.486C204.08 163.258 204.145 162.974 204.227 162.625C204.387 161.876 204.637 160.795 204.961 159.468C205.609 156.806 206.625 153.163 208.029 149.226C209.438 145.294 210.963 141.827 212.147 139.359C212.739 138.123 213.232 137.133 213.581 136.448C213.741 136.129 213.871 135.867 213.975 135.656C214.061 135.475 214.104 135.376 214.096 135.371C214.087 135.367 214.027 135.458 213.927 135.63C213.81 135.832 213.668 136.086 213.486 136.396C213.106 137.064 212.588 138.046 211.97 139.269C210.738 141.72 209.179 145.182 207.766 149.132C206.357 153.077 205.367 156.742 204.771 159.421C204.469 160.76 204.253 161.845 204.123 162.603C204.063 162.957 204.015 163.245 203.976 163.473C203.946 163.672 203.933 163.779 203.946 163.779L203.942 163.784Z" fill="black"/>
<path d="M197.547 117.455C197.547 117.455 197.547 117.619 197.586 117.929C197.629 118.26 197.681 118.713 197.754 119.281C197.914 120.483 198.139 122.175 198.411 124.256C198.973 128.455 199.737 134.256 200.545 140.665C201.353 147.077 202.049 152.887 202.55 157.095C202.801 159.18 203.004 160.872 203.147 162.074C203.22 162.642 203.276 163.095 203.319 163.426C203.363 163.736 203.389 163.896 203.397 163.896C203.406 163.896 203.397 163.732 203.376 163.422C203.345 163.086 203.307 162.634 203.255 162.065C203.134 160.859 202.961 159.162 202.745 157.074C202.295 152.861 201.63 147.047 200.822 140.63C200.014 134.217 199.215 128.42 198.605 124.23C198.294 122.154 198.039 120.466 197.858 119.268C197.767 118.704 197.694 118.252 197.638 117.92C197.586 117.614 197.551 117.451 197.542 117.455H197.547Z" fill="black"/>
<path d="M214.32 157.965H191.739V160.592H214.32V157.965Z" fill="black"/>
<path d="M193.831 160.592L196.484 176.536H210.488L212.324 160.592H193.831Z" fill="black"/>
<path d="M212.397 160.485C212.397 160.545 208.228 160.648 203.081 160.713C197.935 160.777 193.761 160.777 193.761 160.713C193.761 160.653 197.931 160.549 203.077 160.485C208.223 160.42 212.393 160.42 212.393 160.485H212.397Z" fill="#545454"/>
<path d="M211.628 168.465C211.628 168.465 211.585 168.474 211.503 168.478C211.408 168.482 211.282 168.487 211.127 168.495C210.799 168.504 210.31 168.517 209.684 168.439C209.066 168.362 208.279 168.185 207.549 167.642C207.191 167.375 206.845 167.014 206.62 166.544C206.4 166.083 206.301 165.502 206.486 164.942C206.659 164.386 207.225 163.9 207.895 163.93C208.228 163.947 208.547 164.115 208.768 164.369C208.988 164.623 209.131 164.938 209.204 165.274C209.476 166.635 208.521 168.151 207.061 168.624C205.575 169.124 203.79 168.28 203.051 166.794C202.865 166.424 202.744 166.014 202.727 165.588C202.706 165.166 202.796 164.714 203.056 164.348C203.31 163.99 203.717 163.715 204.179 163.676C204.646 163.633 205.108 163.891 205.363 164.262C205.631 164.628 205.76 165.076 205.752 165.519C205.747 165.958 205.622 166.389 205.428 166.768C205.039 167.539 204.36 168.112 203.626 168.469C202.887 168.831 202.101 169.021 201.323 169.12C200.545 169.214 199.75 169.176 199.033 168.922C198.32 168.667 197.693 168.198 197.313 167.578C196.924 166.962 196.859 166.187 197.093 165.545C197.313 164.903 197.862 164.374 198.51 164.283C199.145 164.193 199.789 164.434 200.161 164.899C200.541 165.373 200.519 166.014 200.307 166.48C200.104 166.962 199.733 167.315 199.361 167.561C198.985 167.81 198.596 167.97 198.238 168.103C197.879 168.237 197.546 168.344 197.248 168.431C196.648 168.603 196.168 168.698 195.844 168.754C195.68 168.779 195.559 168.797 195.472 168.805C195.39 168.814 195.347 168.818 195.343 168.814C195.343 168.814 195.386 168.801 195.468 168.784C195.563 168.762 195.684 168.741 195.835 168.711C196.155 168.642 196.63 168.534 197.222 168.349C197.52 168.258 197.849 168.142 198.199 168.004C198.549 167.866 198.929 167.703 199.292 167.457C199.651 167.216 199.992 166.876 200.178 166.428C200.372 165.989 200.377 165.416 200.04 164.998C199.707 164.589 199.111 164.369 198.54 164.455C197.966 164.542 197.469 165.015 197.27 165.61C197.058 166.204 197.123 166.906 197.486 167.479C197.84 168.052 198.432 168.495 199.106 168.732C199.785 168.969 200.545 169.008 201.301 168.913C202.057 168.814 202.827 168.629 203.531 168.28C204.235 167.935 204.866 167.393 205.229 166.673C205.596 165.976 205.67 165.058 205.181 164.399C204.952 164.072 204.576 163.87 204.196 163.904C203.816 163.934 203.457 164.171 203.237 164.481C203.012 164.796 202.93 165.196 202.948 165.584C202.965 165.971 203.077 166.355 203.25 166.704C203.933 168.099 205.626 168.896 206.996 168.435C208.362 168 209.273 166.566 209.023 165.317C208.958 165.011 208.828 164.722 208.634 164.494C208.439 164.27 208.167 164.128 207.886 164.111C207.312 164.081 206.797 164.503 206.638 165.002C206.46 165.506 206.542 166.053 206.75 166.492C206.957 166.936 207.281 167.285 207.627 167.548C208.323 168.082 209.087 168.267 209.697 168.357C210.31 168.448 210.799 168.448 211.127 168.456C211.282 168.456 211.403 168.456 211.503 168.461C211.589 168.461 211.632 168.465 211.632 168.469L211.628 168.465Z" fill="#545454"/>
</svg>
