<svg width="22" height="22" viewBox="0 0 22 22" fill="none" xmlns="http://www.w3.org/2000/svg">
<g clip-path="url(#clip0_47_6280)">
<path d="M21.7855 11.2534C21.7855 10.5056 21.7249 9.75384 21.5955 9.01822H11.22V13.2541H17.1616C16.915 14.6203 16.1228 15.8288 14.9628 16.5968V19.3452H18.5075C20.5891 17.4294 21.7855 14.6001 21.7855 11.2534Z" fill="#4285F4"/>
<path d="M11.22 22.0008C14.1868 22.0008 16.6887 21.0267 18.5116 19.3452L14.9668 16.5968C13.9806 17.2677 12.7074 17.6477 11.2241 17.6477C8.35431 17.6477 5.92109 15.7116 5.04805 13.1086H1.39014V15.942C3.25749 19.6565 7.06091 22.0008 11.22 22.0008V22.0008Z" fill="#34A853"/>
<path d="M5.04396 13.1086C4.58319 11.7425 4.58319 10.2631 5.04396 8.89696V6.0636H1.3901C-0.170072 9.17181 -0.170072 12.8338 1.3901 15.942L5.04396 13.1086V13.1086Z" fill="#FBBC04"/>
<path d="M11.22 4.35386C12.7883 4.3296 14.304 4.91972 15.4397 6.00295L18.5803 2.8624C16.5917 0.995046 13.9523 -0.0315938 11.22 0.000741277C7.06091 0.000741277 3.25749 2.34504 1.39014 6.06357L5.044 8.89694C5.91301 6.28992 8.35027 4.35386 11.22 4.35386V4.35386Z" fill="#EA4335"/>
</g>
<defs>
<clipPath id="clip0_47_6280">
<rect width="22" height="22" fill="white"/>
</clipPath>
</defs>
</svg>
