<svg width="52" height="22" viewBox="0 0 52 22" fill="none" xmlns="http://www.w3.org/2000/svg">
<path d="M24.591 10.6627V16.7151H22.6709V1.76834H27.7633C28.3711 1.75564 28.9755 1.86345 29.5414 2.08554C30.1074 2.30763 30.6238 2.6396 31.0608 3.0623C31.5022 3.45934 31.8535 3.94627 32.0911 4.49035C32.3287 5.03444 32.4471 5.62308 32.4382 6.21672C32.4509 6.81353 32.3343 7.40601 32.0966 7.95356C31.8588 8.50112 31.5055 8.99079 31.0608 9.38902C30.1703 10.2381 29.0712 10.6623 27.7633 10.6615H24.591V10.6627ZM24.591 3.60851V8.82611H27.811C28.164 8.83658 28.5153 8.77325 28.8424 8.64018C29.1696 8.50711 29.4653 8.30722 29.7108 8.05331C29.955 7.81591 30.1491 7.53196 30.2816 7.21824C30.4142 6.90453 30.4824 6.56742 30.4824 6.22685C30.4824 5.88629 30.4142 5.54918 30.2816 5.23546C30.1491 4.92175 29.955 4.6378 29.7108 4.40039C29.4684 4.14113 29.1737 3.93635 28.8461 3.79962C28.5186 3.6629 28.1658 3.59735 27.811 3.60732H24.591V3.60851Z" fill="#5F6368"/>
<path d="M36.8628 6.15466C38.282 6.15466 39.4022 6.53391 40.2235 7.2924C41.0448 8.05089 41.4551 9.09083 41.4543 10.4122V16.7151H39.6177V15.2959H39.5342C38.7391 16.4646 37.6817 17.049 36.3619 17.049C35.2353 17.049 34.2927 16.7151 33.5343 16.0472C33.1703 15.7407 32.8792 15.3568 32.6824 14.9236C32.4856 14.4903 32.3879 14.0186 32.3965 13.5428C32.3965 12.4846 32.7964 11.643 33.5963 11.0181C34.3961 10.3931 35.4639 10.0799 36.7996 10.0783C37.9397 10.0783 38.8787 10.287 39.6165 10.7044V10.2655C39.6187 9.94117 39.5486 9.62039 39.4114 9.32645C39.2743 9.03251 39.0734 8.77278 38.8234 8.56609C38.3157 8.10799 37.6539 7.85803 36.9701 7.86604C35.8976 7.86604 35.0488 8.31843 34.4239 9.22321L32.7328 8.15822C33.6631 6.82252 35.0397 6.15466 36.8628 6.15466ZM34.3786 13.5845C34.3773 13.8289 34.4344 14.07 34.5452 14.2878C34.656 14.5057 34.8172 14.6939 35.0155 14.8368C35.4401 15.1708 35.9672 15.3478 36.5074 15.3376C37.3176 15.3363 38.0943 15.0138 38.6672 14.4408C39.3032 13.8421 39.6213 13.1397 39.6213 12.3335C39.0226 11.8565 38.1878 11.6179 37.1168 11.6179C36.3369 11.6179 35.6865 11.806 35.1657 12.182C34.6398 12.5637 34.3786 13.0276 34.3786 13.5845Z" fill="#5F6368"/>
<path d="M51.9967 6.48865L45.5853 21.2232H43.6032L45.9824 16.0676L41.7666 6.48865H43.8536L46.9007 13.835H46.9425L49.9061 6.48865H51.9967Z" fill="#5F6368"/>
<path d="M16.832 9.35802C16.8328 8.77287 16.7833 8.18875 16.6841 7.61206H8.58643V10.9191H13.2244C13.1295 11.4473 12.9286 11.9508 12.6339 12.3993C12.3392 12.8477 11.9567 13.2319 11.5095 13.5285V15.6752H14.2775C15.8982 14.1809 16.832 11.971 16.832 9.35802Z" fill="#4285F4"/>
<path d="M8.58627 17.7492C10.9035 17.7492 12.8546 16.9883 14.2773 15.6765L11.5093 13.5298C10.7389 14.0522 9.74666 14.3503 8.58627 14.3503C6.34658 14.3503 4.44558 12.8405 3.7658 10.8059H0.914307V13.0182C1.62899 14.4403 2.72488 15.6358 4.07962 16.4713C5.43437 17.3067 6.99465 17.7491 8.58627 17.7492Z" fill="#34A853"/>
<path d="M3.76582 10.8058C3.40645 9.73969 3.40645 8.58515 3.76582 7.51903V5.30676H0.914329C0.313113 6.50312 0 7.82349 0 9.16242C0 10.5013 0.313113 11.8217 0.914329 13.0181L3.76582 10.8058Z" fill="#FBBC04"/>
<path d="M8.58627 3.97465C9.81081 3.95465 10.994 4.41732 11.8802 5.26266L14.331 2.81187C12.7769 1.35223 10.7182 0.550858 8.58627 0.575759C6.99465 0.575831 5.43437 1.01828 4.07962 1.8537C2.72488 2.68912 1.62899 3.88464 0.914307 5.30678L3.7658 7.51905C4.44558 5.48448 6.34658 3.97465 8.58627 3.97465Z" fill="#EA4335"/>
</svg>
