<svg width="48" height="48" viewBox="0 0 48 48" fill="none" xmlns="http://www.w3.org/2000/svg">
<rect width="48" height="48" rx="5" fill="#DF602F"/>
<path d="M21.1348 32.7733V29.7156C21.1348 28.9351 21.7722 28.3023 22.5584 28.3023H25.4326C25.8102 28.3023 26.1723 28.4512 26.4393 28.7163C26.7063 28.9813 26.8563 29.3408 26.8563 29.7156V32.7733C26.8539 33.0978 26.9821 33.4099 27.2124 33.6402C27.4427 33.8705 27.7561 34 28.0829 34H30.0438C30.9596 34.0023 31.8388 33.6428 32.4872 33.0008C33.1356 32.3588 33.5 31.487 33.5 30.5778V21.8669C33.5 21.1325 33.1721 20.4358 32.6046 19.9647L25.934 14.6759C24.7737 13.7486 23.1111 13.7785 21.9854 14.747L15.467 19.9647C14.8727 20.422 14.5176 21.1206 14.5 21.8669V30.5689C14.5 32.4639 16.0474 34 17.9562 34H19.8723C20.5512 34 21.103 33.4562 21.1079 32.7822L21.1348 32.7733Z" fill="white"/>
</svg>
