<svg width="63" height="17" viewBox="0 0 63 17" fill="none" xmlns="http://www.w3.org/2000/svg">
<path d="M48.6999 4.19995H45.2999C45.0999 4.19995 44.8999 4.39995 44.7999 4.59995L43.3999 13.4C43.3999 13.6 43.4999 13.7 43.6999 13.7H45.4999C45.6999 13.7 45.7999 13.6 45.7999 13.4L46.1999 10.9C46.1999 10.7 46.3999 10.5 46.6999 10.5H47.7999C50.0999 10.5 51.3999 9.39995 51.6999 7.19995C51.8999 6.29995 51.6999 5.49995 51.2999 4.99995C50.6999 4.49995 49.7999 4.19995 48.6999 4.19995ZM49.0999 7.49995C48.8999 8.69995 47.9999 8.69995 47.0999 8.69995H46.4999L46.8999 6.39995C46.8999 6.29995 46.9999 6.19995 47.1999 6.19995H47.3999C47.9999 6.19995 48.5999 6.19995 48.8999 6.59995C49.0999 6.69995 49.0999 6.99995 49.0999 7.49995Z" fill="#139AD6"/>
<path d="M24.1999 4.19995H20.7999C20.5999 4.19995 20.3999 4.39995 20.2999 4.59995L18.8999 13.4C18.8999 13.6 18.9999 13.7 19.1999 13.7H20.7999C20.9999 13.7 21.1999 13.4999 21.2999 13.2999L21.6999 10.9C21.6999 10.7 21.8999 10.5 22.1999 10.5H23.2999C25.5999 10.5 26.8999 9.39995 27.1999 7.19995C27.3999 6.29995 27.1999 5.49995 26.7999 4.99995C26.1999 4.49995 25.3999 4.19995 24.1999 4.19995ZM24.5999 7.49995C24.3999 8.69995 23.4999 8.69995 22.5999 8.69995H22.0999L22.4999 6.39995C22.4999 6.29995 22.5999 6.19995 22.7999 6.19995H22.9999C23.5999 6.19995 24.1999 6.19995 24.4999 6.59995C24.5999 6.69995 24.6999 6.99995 24.5999 7.49995Z" fill="#263B80"/>
<path d="M34.5 7.39995H32.9C32.8 7.39995 32.6 7.49995 32.6 7.59995L32.5 8.09995L32.4 7.89995C32 7.39995 31.3 7.19995 30.5 7.19995C28.7 7.19995 27.1 8.59995 26.8 10.5C26.6 11.5 26.9 12.4 27.4 13C27.9 13.6 28.6 13.7999 29.5 13.7999C31 13.7999 31.8 12.9 31.8 12.9L31.7 13.4C31.7 13.6 31.8 13.7 32 13.7H33.5C33.7 13.7 33.9 13.4999 34 13.2999L34.9 7.69995C34.8 7.59995 34.6 7.39995 34.5 7.39995ZM32.2 10.5999C32 11.4999 31.3 12.2 30.3 12.2C29.8 12.2 29.4 11.9999 29.2 11.7999C29 11.4999 28.9 11.0999 28.9 10.5999C29 9.69995 29.8 8.99995 30.7 8.99995C31.2 8.99995 31.5 9.19995 31.8 9.39995C32.1 9.69995 32.2 10.1999 32.2 10.5999Z" fill="#263B80"/>
<path d="M58.9001 7.39995H57.3001C57.2001 7.39995 57.0001 7.49995 57.0001 7.59995L56.9001 8.09995L56.8001 7.89995C56.4001 7.39995 55.7001 7.19995 54.9001 7.19995C53.1001 7.19995 51.5001 8.59995 51.2001 10.5C51.0001 11.5 51.3001 12.4 51.8001 13C52.3001 13.6 53.0001 13.7999 53.9001 13.7999C55.4001 13.7999 56.2001 12.9 56.2001 12.9L56.1001 13.4C56.1001 13.6 56.2001 13.7 56.4001 13.7H57.9001C58.1001 13.7 58.3001 13.4999 58.4001 13.2999L59.3001 7.69995C59.2001 7.59995 59.1001 7.39995 58.9001 7.39995ZM56.6001 10.5999C56.4001 11.4999 55.7001 12.2 54.7001 12.2C54.2001 12.2 53.8001 11.9999 53.6001 11.7999C53.4001 11.4999 53.3001 11.0999 53.3001 10.5999C53.4001 9.69995 54.2001 8.99995 55.1001 8.99995C55.6001 8.99995 55.9001 9.19995 56.2001 9.39995C56.6001 9.69995 56.7001 10.1999 56.6001 10.5999Z" fill="#139AD6"/>
<path d="M43.2 7.40002H41.5C41.3 7.40002 41.2 7.50003 41.1 7.60003L38.9 11L37.9 7.80002C37.8 7.60002 37.7 7.50002 37.4 7.50002H35.8C35.6 7.50002 35.5 7.70002 35.5 7.90002L37.3 13.2L35.6 15.6C35.5 15.8 35.6 16.1 35.8 16.1H37.4C37.6 16.1 37.7 16 37.8 15.9L43.3 8.00002C43.6 7.70002 43.4 7.40002 43.2 7.40002Z" fill="#263B80"/>
<path d="M60.7999 4.49997L59.3999 13.5C59.3999 13.7 59.4999 13.8 59.6999 13.8H61.0999C61.2999 13.8 61.4999 13.6 61.5999 13.4L62.9999 4.59997C62.9999 4.39997 62.8999 4.29997 62.6999 4.29997H61.0999C60.9999 4.19997 60.8999 4.29997 60.7999 4.49997Z" fill="#139AD6"/>
<path d="M11.5 1.2C10.8 0.400001 9.5 0 7.7 0H2.7C2.4 0 2.1 0.3 2 0.6L0 13.7C0 14 0.2 14.2 0.4 14.2H3.5L4.3 9.3V9.5C4.4 9.2 4.7 8.9 5 8.9H6.5C9.4 8.9 11.6 7.7 12.3 4.4C12.3 4.3 12.3 4.2 12.3 4.1C12.2 4.1 12.2 4.1 12.3 4.1C12.4 2.8 12.2 2 11.5 1.2Z" fill="#263B80"/>
<path d="M12.2 4.09998C12.2 4.19998 12.2 4.29997 12.2 4.39997C11.5 7.79997 9.29995 8.89998 6.39995 8.89998H4.89995C4.59995 8.89998 4.29995 9.19998 4.19995 9.49998L3.19995 15.6C3.19995 15.8 3.29995 16 3.59995 16H6.19995C6.49995 16 6.79995 15.8 6.79995 15.5V15.4L7.29995 12.3V12.1C7.29995 11.8 7.59995 11.6 7.89995 11.6H8.29995C10.8 11.6 12.8 10.6 13.3 7.59998C13.5 6.39998 13.4 5.29998 12.8 4.59998C12.7 4.39998 12.5 4.19998 12.2 4.09998Z" fill="#139AD6"/>
<path d="M11.5 3.8C11.4 3.8 11.3 3.7 11.2 3.7C11.1 3.7 11 3.7 10.9 3.6C10.5 3.5 10.1 3.5 9.60005 3.5H5.70005C5.60005 3.5 5.50005 3.5 5.40005 3.6C5.20005 3.7 5.10005 3.9 5.10005 4.1L4.30005 9.3V9.5C4.40005 9.2 4.70005 8.9 5.00005 8.9H6.50005C9.40005 8.9 11.6 7.7 12.3 4.4C12.3 4.3 12.3 4.2 12.4 4.1C12.2 4 12.1 3.9 11.9 3.9C11.6 3.8 11.6 3.8 11.5 3.8Z" fill="#232C65"/>
</svg>
