<svg width="338" height="313" viewBox="0 0 338 313" fill="none" xmlns="http://www.w3.org/2000/svg">
<path d="M289.835 269.817C283.429 276.423 277.366 280.682 272.577 284.049C216.278 323.611 149.662 312.078 135.505 309.262C114.598 305.104 74.1861 297.065 44.9686 263.415C0.765087 212.502 7.64739 132.294 41.9352 79.3469C48.2067 69.6622 81.3349 15.9089 148.669 7.28793C189.418 2.07154 236.919 12.5931 271.319 40.8182C343.525 100.066 338.385 219.758 289.835 269.816V269.817Z" fill="#FF7039"/>
<path d="M116.663 104.435C120.318 129.595 102.83 152.958 77.6003 156.626C52.3703 160.294 28.945 142.864 25.2898 117.712C21.627 92.5524 39.122 69.1889 64.3521 65.5286C89.5821 61.8608 113.007 79.2906 116.663 104.443V104.435Z" fill="#F5F5F5"/>
<path d="M105.795 106.011C108.586 125.184 95.2545 142.985 76.0229 145.782C56.7989 148.578 38.9475 135.293 36.1568 116.128C33.3661 96.9554 46.6978 79.1466 65.9293 76.3579C85.1609 73.5691 103.005 86.8461 105.795 106.011Z" fill="#FF7039"/>
<path d="M77.934 131.247L78.9047 137.294L73.5053 138.158L72.565 132.277C67.1656 132.808 61.7661 131.959 58.4219 130.11L60.3329 123.047C63.3587 124.616 67.4765 125.449 71.4274 125.207L69.979 116.189C63.7454 115.696 56.7308 114.764 55.4947 107.042C54.5771 101.32 57.9517 95.7428 66.3314 93.4012L65.3683 87.4068L70.7753 86.5429L71.7156 92.4312C75.8182 92.1053 79.936 92.5524 83.2121 93.9695L81.5741 101.048C78.5634 99.926 75.6135 99.4561 72.8531 99.5622L74.3243 108.739C80.5427 109.179 87.4588 110.126 88.6797 117.742C89.5822 123.358 86.253 128.875 77.934 131.254V131.247ZM68.705 108.247L67.4765 100.578C64.7161 101.684 63.8364 103.435 64.117 105.216C64.4204 107.103 66.2025 107.876 68.705 108.247ZM80.0801 119.773C79.7768 117.879 78.0478 117.106 75.5907 116.666L76.7813 124.116C79.39 123.093 80.3531 121.494 80.0725 119.766L80.0801 119.773Z" fill="#F5F5F5"/>
<path d="M284.309 62.952C293.895 78.7526 288.814 99.3425 272.972 108.936C257.123 118.538 236.511 113.514 226.926 97.7132C217.34 81.9127 222.421 61.3303 238.263 51.7287C254.105 42.1272 274.724 47.1515 284.309 62.952Z" fill="#F5F5F5"/>
<path d="M277.484 67.0897C284.787 79.1315 280.92 94.8183 268.839 102.131C256.767 109.444 241.054 105.617 233.751 93.5755C226.448 81.5338 230.316 65.8469 242.388 58.534C254.461 51.221 270.174 55.048 277.477 67.0897H277.484Z" fill="#FF7039"/>
<path d="M265.995 91.8704L268.362 95.6443L264.994 97.7511L262.697 94.0832C259.231 95.9702 255.379 96.925 252.618 96.6371L251.898 91.3702C254.363 91.5597 257.358 90.9534 259.936 89.6727L256.41 84.0497C252.103 85.482 247.143 86.8536 244.125 82.0339C241.888 78.4646 242.563 73.7737 247.507 69.8406L245.164 66.1045L248.531 63.9978L250.829 67.6732C253.483 66.294 256.365 65.4301 258.958 65.4452L259.868 70.6439C257.54 70.7424 255.424 71.2653 253.612 72.1216L257.199 77.8507C261.491 76.3881 266.382 75.062 269.355 79.8059C271.547 83.307 270.887 87.9449 265.995 91.8931V91.8704ZM253.301 79.0936L250.305 74.3117C248.774 75.8349 248.675 77.2521 249.373 78.3661C250.108 79.5407 251.526 79.5558 253.301 79.0936ZM264.183 83.5874C263.447 82.4052 262.067 82.3825 260.3 82.7841L263.212 87.4296C264.668 86.0049 264.858 84.6635 264.183 83.5874Z" fill="#F5F5F5"/>
<path d="M239.127 31.9193C231.074 36.9891 220.419 34.5641 215.331 26.5009C210.242 18.4377 212.646 7.7828 220.7 2.71299C228.753 -2.36439 239.408 0.0606287 244.496 8.1314C249.585 16.1946 247.181 26.8495 239.135 31.9193H239.127Z" fill="#F5F5F5"/>
<path d="M236.936 28.441C230.801 32.3058 222.679 30.4568 218.804 24.3109C214.929 18.1649 216.756 10.0487 222.891 6.18383C229.026 2.31895 237.148 4.16803 241.023 10.3139C244.898 16.4599 243.071 24.5761 236.936 28.441Z" fill="#FF7039"/>
<path d="M224.067 22.7573L222.148 24.0077L221.033 22.295L222.907 21.0749C221.906 19.3092 221.375 17.3389 221.496 15.9142L224.203 15.4974C224.127 16.7705 224.469 18.3013 225.151 19.6199L228.018 17.7557C227.244 15.5504 226.494 13.0117 228.943 11.4127C230.763 10.2305 233.182 10.5337 235.26 13.042L237.163 11.7992L238.278 13.5119L236.405 14.732C237.141 16.0885 237.611 17.5587 237.626 18.8924L234.957 19.4077C234.881 18.2104 234.593 17.1267 234.138 16.2022L231.218 18.0967C232.014 20.2868 232.742 22.7952 230.323 24.3714C228.541 25.5309 226.145 25.2354 224.067 22.7497V22.7573ZM230.535 16.1112L232.97 14.5274C232.174 13.7544 231.438 13.7165 230.877 14.0878C230.278 14.4819 230.285 15.2018 230.535 16.1188V16.1112ZM228.321 21.7494C228.92 21.3553 228.92 20.6506 228.7 19.7412L226.334 21.2795C227.085 22.0146 227.775 22.098 228.321 21.7418V21.7494Z" fill="#F5F5F5"/>
<path d="M338 306.803C338 306.909 262.552 307 169.504 307C76.4551 307 0.992432 306.909 0.992432 306.803C0.992432 306.697 76.4248 306.606 169.504 306.606C262.583 306.606 338 306.697 338 306.803Z" fill="black"/>
<path d="M46.0835 283.53C46.9404 280.219 44.764 276.884 42.3297 274.482C39.8954 272.08 36.9758 269.92 35.7094 266.745C33.6543 261.591 36.4146 254.923 32.9111 250.626C30.8484 248.095 27.1477 247.254 25.3201 244.548C24.357 243.131 24.0461 241.388 23.6745 239.721C21.7483 231.203 17.4864 223.231 11.4727 216.903C11.0556 224.489 12.7316 232.173 16.2579 238.895C17.676 241.6 19.4202 244.23 19.8903 247.246C20.6563 252.141 17.9186 257.189 19.1244 262.001C20.5046 267.502 26.6851 271.178 26.9733 276.846C27.2235 281.636 23.045 285.834 23.356 290.616C23.4849 292.654 24.4328 294.541 25.4869 296.292C29.1876 302.446 34.6325 306.682 42.8757 306.545L52.9768 306.901L46.0835 283.538V283.53Z" fill="#5DB1EB"/>
<g opacity="0.3">
<path d="M46.0835 283.53C46.9404 280.219 44.764 276.884 42.3297 274.482C39.8954 272.08 36.9758 269.92 35.7094 266.745C33.6543 261.591 36.4146 254.923 32.9111 250.626C30.8484 248.095 27.1477 247.254 25.3201 244.548C24.357 243.131 24.0461 241.388 23.6745 239.721C21.7483 231.203 17.4864 223.231 11.4727 216.903C11.0556 224.489 12.7316 232.173 16.2579 238.895C17.676 241.6 19.4202 244.23 19.8903 247.246C20.6563 252.141 17.9186 257.189 19.1244 262.001C20.5046 267.502 26.6851 271.178 26.9733 276.846C27.2235 281.636 23.045 285.834 23.356 290.616C23.4849 292.654 24.4328 294.541 25.4869 296.292C29.1876 302.446 34.6325 306.682 42.8757 306.545L52.9768 306.901L46.0835 283.538V283.53Z" fill="black"/>
</g>
<path d="M55.0245 306.826C55.0245 306.826 55.9876 307.053 57.8076 306.765C58.71 306.636 59.8248 306.394 61.0912 305.939C62.35 305.477 63.7757 304.825 65.1483 303.719C65.8081 303.143 66.4603 302.438 66.8167 301.498C67.1655 300.566 67.2262 299.535 67.2944 298.482C67.3475 297.429 67.3475 296.33 67.5295 295.216C67.6964 294.102 68.1362 293.011 68.7656 291.972C69.9562 289.881 71.9355 287.903 72.5725 285.061C73.2626 282.272 72.7697 279.249 72.2995 276.217C71.8293 273.194 71.3743 269.89 72.5346 266.737C73.619 263.577 75.8334 260.728 76.9406 257.173C78.0402 253.581 77.5321 249.716 77.7596 245.905C77.8657 243.987 78.2373 242.078 79.0791 240.304C79.8981 238.516 81.028 236.834 81.9153 234.954C83.705 231.15 84.0235 226.846 84.5164 222.617C84.7591 220.487 84.9942 218.343 85.2444 216.168C85.4871 213.985 85.6767 211.81 86.3668 209.711C86.9886 207.597 87.891 205.551 88.7859 203.467C89.2257 202.421 89.6883 201.368 89.9613 200.208C90.1585 199.018 90.2191 197.904 90.2874 196.737C90.4011 194.426 90.3026 192.077 90.022 189.75C89.749 187.424 89.3243 185.112 89.0741 182.778C89.0589 182.642 89.0437 182.506 89.0286 182.377L88.9755 181.914L88.5584 182.119C86.3971 183.203 84.5467 184.817 83.1211 186.704C81.6726 188.583 80.6185 190.698 79.7768 192.857C78.0932 197.192 77.479 201.739 76.6296 206.074C75.8031 210.408 74.7035 214.675 72.4815 218.282C71.3743 220.078 70.0321 221.723 68.8642 223.473C67.6964 225.216 66.665 227.126 66.3617 229.225C65.7626 233.492 68.121 237.243 67.6281 241.024C67.4537 242.904 66.7029 244.662 65.7853 246.261C64.8677 247.875 63.7909 249.368 62.7671 250.868C61.7434 252.369 60.7727 253.892 60.0523 255.521C59.3243 257.143 58.9223 258.879 58.8086 260.584C58.5659 263.986 59.0437 267.215 58.7934 270.261C58.5887 273.315 57.5118 276.081 56.2985 278.559C55.0775 281.045 53.7201 283.288 52.5826 285.463C52.0063 286.546 51.483 287.615 51.0507 288.676C50.5957 289.737 50.3682 290.828 50.1635 291.866C49.8298 293.958 49.8677 295.906 50.0876 297.626C50.5275 301.081 51.8167 303.575 52.9769 304.969C53.2424 305.34 53.5533 305.606 53.7959 305.856C54.031 306.113 54.2661 306.28 54.4557 306.416C54.8349 306.697 55.032 306.818 55.032 306.818C55.0775 306.765 54.1979 306.303 53.0755 304.886C51.9608 303.476 50.7322 301.006 50.3303 297.588C50.1256 295.89 50.118 293.966 50.4592 291.912C50.6716 290.896 50.8991 289.828 51.3541 288.797C51.7863 287.759 52.3172 286.698 52.8935 285.622C54.0386 283.462 55.4112 281.227 56.6625 278.726C57.8986 276.24 59.0133 273.413 59.2408 270.284C59.5063 267.169 59.0361 263.933 59.2939 260.606C59.4077 258.947 59.802 257.287 60.5149 255.718C61.2125 254.142 62.1756 252.649 63.1918 251.156C64.2156 249.663 65.3076 248.163 66.2479 246.518C67.1883 244.882 67.9845 243.055 68.1741 241.07C68.6595 237.046 66.3238 233.264 66.9304 229.301C67.2186 227.338 68.1969 225.512 69.3496 223.799C70.5022 222.079 71.8521 220.434 72.9896 218.593C75.2874 214.887 76.3946 210.537 77.2363 206.18C78.0932 201.815 78.6999 197.321 80.3607 193.07C81.1873 190.955 82.2186 188.894 83.614 187.083C84.9866 185.256 86.7611 183.718 88.8238 182.687L88.3612 182.43C88.3764 182.559 88.3915 182.695 88.4067 182.839C88.657 185.203 89.0816 187.515 89.3546 189.818C89.6352 192.122 89.7338 194.418 89.6201 196.699C89.5518 197.821 89.4836 199.003 89.3091 200.064C89.0589 201.125 88.6115 202.171 88.1792 203.209C87.2919 205.286 86.3819 207.362 85.7449 209.522C85.0397 211.674 84.8425 213.925 84.6074 216.084C84.3647 218.259 84.1297 220.412 83.8946 222.541C83.4092 226.785 83.0983 231.021 81.3693 234.689C80.5199 236.515 79.3824 238.205 78.5407 240.054C77.6762 241.896 77.2894 243.919 77.1908 245.867C76.9709 249.762 77.479 253.566 76.4249 257.022C75.3784 260.455 73.1716 263.319 72.0644 266.578C70.8738 269.867 71.3667 273.277 71.8445 276.293C72.3298 279.332 72.8228 282.288 72.1706 284.97C71.5867 287.683 69.6681 289.646 68.4547 291.791C67.8253 292.859 67.3703 294.011 67.2034 295.163C67.029 296.315 67.0366 297.421 66.9911 298.467C66.938 299.505 66.8774 300.528 66.5589 301.4C66.2403 302.271 65.6261 302.961 64.9891 303.522C63.6696 304.613 62.2666 305.28 61.0305 305.75C59.7869 306.219 58.6873 306.477 57.7924 306.629C56.8976 306.788 56.1999 306.811 55.7373 306.826C55.2747 306.811 55.032 306.818 55.032 306.818L55.0245 306.826Z" fill="black"/>
<path d="M86.9356 187.924C86.9356 187.924 86.8901 188.022 86.837 188.227C86.7763 188.47 86.7081 188.765 86.6171 189.136C86.4199 189.932 86.1848 191.13 85.7981 192.63C85.4037 194.123 84.4861 195.813 83.7051 197.904C82.8936 199.973 82.067 202.368 81.3011 205.066C80.5276 207.756 79.8451 210.749 79.1322 213.947C78.3967 217.145 77.6611 220.571 75.9017 223.807C75.0751 225.444 74.1424 227.103 73.3992 228.922C72.6408 230.741 72.2313 232.719 71.9432 234.712C71.4578 238.713 70.7222 242.767 69.7667 246.92C67.7419 255.188 65.8157 263.069 64.0564 270.238C62.2591 277.384 60.6363 283.826 59.2712 289.26C57.9441 294.64 56.8597 299.013 56.1014 302.097C55.7525 303.575 55.4719 304.742 55.2672 305.598C55.1838 305.969 55.1231 306.273 55.07 306.515C55.0321 306.72 55.0094 306.826 55.0245 306.833C55.0321 306.833 55.07 306.735 55.1383 306.53C55.2065 306.288 55.2975 306 55.4037 305.636C55.6312 304.795 55.9497 303.635 56.3516 302.165C57.1631 299.096 58.3082 294.739 59.7263 289.381C61.1292 283.962 62.7975 277.528 64.6479 270.397C66.4224 263.221 68.3714 255.34 70.4113 247.072C71.3668 242.926 72.11 238.789 72.5877 234.81C72.8683 232.832 73.2551 230.923 73.9907 229.157C74.7035 227.391 75.6211 225.739 76.4477 224.079C78.2222 220.783 78.9654 217.252 79.6707 214.069C80.3608 210.856 81.0129 207.877 81.7561 205.195C82.4841 202.504 83.2728 200.11 84.0539 198.041C84.7971 195.964 85.6843 194.252 86.0559 192.706C86.4048 191.167 86.6019 189.985 86.7536 189.174C86.8218 188.803 86.8673 188.5 86.9128 188.25C86.9432 188.045 86.9583 187.932 86.9432 187.932L86.9356 187.924Z" fill="black"/>
<path d="M56.8065 306.894C63.404 302.976 65.2923 291.374 62.5395 284.22C59.7867 277.059 54.9713 270.519 54.2281 262.887C53.6593 257.022 55.5779 250.997 54.2129 245.26C52.3701 237.523 44.8095 231.529 44.8929 223.572C44.9384 219.108 47.4864 214.91 47.2817 210.446C47.0314 204.975 42.8302 200.64 40.2291 195.82C36.2478 188.447 35.9824 179.724 34.6249 171.457C33.2599 163.189 30.1128 154.33 22.772 150.268C21.6876 157.285 19.8372 162.097 20.4212 171.608C20.6335 175.026 24.5996 181.566 25.1381 189.053C25.4641 193.524 25.6841 198.01 25.9571 202.489C26.2225 206.847 26.5031 211.28 28.0653 215.357C29.2634 218.479 31.1896 221.321 32.0769 224.542C33.7528 230.612 31.5536 237.182 32.9035 243.328C34.0486 248.534 37.6583 253.021 38.3939 258.303C39.4328 265.722 34.6249 273.436 37.082 280.514C38.3029 284.023 41.1922 286.85 42.0112 290.472C42.6482 293.283 41.9505 296.262 42.5269 299.088C43.452 303.643 52.1502 307.182 56.7913 306.901" fill="#5DB1EB"/>
<path d="M24.592 157.232C24.592 157.232 24.592 157.369 24.6224 157.626C24.6603 157.922 24.7058 158.301 24.774 158.778C24.9257 159.794 25.0925 161.279 25.4414 163.204C25.813 165.144 26.8064 167.319 27.6027 169.948C28.4444 172.57 29.2786 175.594 30.0218 178.974C30.7725 182.354 31.402 186.098 32.0693 190.129C32.7518 194.13 33.4495 198.549 35.4515 202.739C36.3767 204.846 37.4156 206.953 38.1967 209.203C38.993 211.439 39.3646 213.849 39.5921 216.327C39.9333 221.298 40.5931 226.474 41.5258 231.68C43.543 242.085 45.4692 251.99 47.221 261.008C49.0638 269.988 50.7321 278.082 52.1275 284.902C53.538 291.669 54.6907 297.156 55.4945 300.998C55.8964 302.862 56.2149 304.325 56.4424 305.371C56.5486 305.841 56.6396 306.212 56.7079 306.5C56.7685 306.757 56.8064 306.886 56.8216 306.879C56.8292 306.879 56.8216 306.742 56.7761 306.485C56.723 306.189 56.6624 305.81 56.5789 305.34C56.3818 304.295 56.1012 302.824 55.7523 300.945C54.994 297.095 53.9172 291.594 52.5901 284.811C51.225 277.991 49.6098 269.89 47.8125 260.894C46.0759 251.876 44.1725 241.972 42.1704 231.574C41.2377 226.36 40.5779 221.26 40.2291 216.266C40.0016 213.773 39.6148 211.295 38.7882 208.999C37.9844 206.703 36.9303 204.588 36.0051 202.497C34.0182 198.367 33.3206 194.047 32.6077 190.038C31.9252 186.014 31.2655 182.263 30.4844 178.876C29.7109 175.481 28.8388 172.457 27.9591 169.835C27.1173 167.198 26.0936 165.038 25.6992 163.151C25.32 161.264 25.1077 159.756 24.9181 158.755C24.8271 158.278 24.7589 157.907 24.7058 157.611C24.6527 157.353 24.6224 157.225 24.6148 157.225L24.592 157.232Z" fill="black"/>
<path d="M312.065 261.728C314.142 262.63 315.674 264.547 316.44 266.676C317.206 268.806 317.274 271.132 317.024 273.383C316.531 277.733 314.051 282.128 311.39 285.607C307.719 282.409 306.878 276.824 306.627 273.967C306.233 269.45 308.265 261.046 312.065 261.72" fill="#5DB1EB"/>
<path d="M315.652 292.798C315.068 290.336 316.091 287.638 317.98 285.955C319.868 284.273 322.507 283.561 325.032 283.75C326.2 283.841 327.459 284.182 328.126 285.137C328.748 286.031 328.68 287.289 328.172 288.259C327.664 289.229 326.784 289.949 325.859 290.533C322.681 292.526 319.239 293.875 315.644 292.791" fill="#5DB1EB"/>
<path d="M310.942 306.144C310.942 306.144 310.973 305.818 311.071 305.249C311.185 304.62 311.337 303.81 311.511 302.832C311.913 300.809 312.436 297.921 314.006 295.11C315.553 292.306 317.722 290.245 319.55 289.222C320.46 288.699 321.248 288.388 321.809 288.221C322.082 288.13 322.31 288.092 322.462 288.054C322.613 288.024 322.689 288.009 322.697 288.024C322.719 288.092 321.423 288.327 319.671 289.411C317.904 290.464 315.811 292.51 314.287 295.261C312.747 298.012 312.194 300.869 311.731 302.877C311.511 303.893 311.329 304.711 311.185 305.272C311.049 305.833 310.958 306.144 310.935 306.144H310.942Z" fill="black"/>
<path d="M311.087 268.26C311.087 268.26 311.109 268.397 311.132 268.654C311.147 268.942 311.17 269.314 311.2 269.776C311.253 270.753 311.306 272.163 311.367 273.906C311.481 277.392 311.572 282.212 311.549 287.539C311.526 292.867 311.397 297.686 311.253 301.172C311.185 302.915 311.109 304.325 311.049 305.302C311.018 305.765 310.996 306.136 310.973 306.424C310.95 306.682 310.935 306.818 310.927 306.81C310.92 306.81 310.912 306.674 310.912 306.416C310.912 306.128 310.92 305.757 310.927 305.295C310.95 304.279 310.988 302.877 311.026 301.165C311.109 297.679 311.208 292.859 311.231 287.539C311.253 282.219 311.2 277.4 311.147 273.914C311.117 272.201 311.102 270.799 311.079 269.783C311.079 269.321 311.079 268.95 311.079 268.662C311.079 268.404 311.087 268.268 311.102 268.268L311.087 268.26Z" fill="black"/>
<path d="M309.304 295.451C308.47 290.184 304.921 285.425 300.106 283.121C298.877 282.538 297.277 282.151 296.268 283.06C295.26 283.97 295.487 285.614 295.98 286.88C298.035 292.154 303.556 295.875 309.213 295.815" fill="#5DB1EB"/>
<path d="M300.697 287.244C300.697 287.244 300.985 287.342 301.478 287.585C301.729 287.698 302.024 287.85 302.358 288.055C302.684 288.259 303.086 288.464 303.48 288.759C303.882 289.04 304.33 289.343 304.762 289.722C305.217 290.078 305.664 290.502 306.127 290.957C307.029 291.889 307.939 292.995 308.721 294.284C309.486 295.572 310.04 296.898 310.427 298.141C310.601 298.77 310.768 299.361 310.859 299.93C310.98 300.49 311.026 301.028 311.079 301.521C311.147 302.006 311.124 302.453 311.14 302.84C311.155 303.226 311.14 303.559 311.109 303.832C311.071 304.378 311.033 304.681 311.018 304.674C310.95 304.674 311.071 303.461 310.859 301.536C310.798 301.059 310.738 300.528 310.601 299.975C310.503 299.414 310.328 298.831 310.146 298.217C309.752 297.004 309.198 295.708 308.448 294.435C307.682 293.177 306.794 292.079 305.922 291.154C305.475 290.699 305.043 290.275 304.603 289.911C304.186 289.525 303.746 289.222 303.359 288.926C301.782 287.797 300.682 287.297 300.712 287.236L300.697 287.244Z" fill="black"/>
<path d="M258.351 140.659C258.351 140.659 222.944 115.583 218.462 113.12C214.193 110.77 200.641 109.065 199.428 108.77L175.168 103.495L138.101 104.602L127.469 110.99L100.57 123.373C93.2371 126.745 87.4585 132.777 84.4024 140.242L67.408 181.702L109.564 194.161L110.876 237.895L100.934 306.795H224.332L218.121 174.738L230.967 177.565L258.351 140.651V140.659Z" fill="black"/>
<path d="M110.345 176.549C110.345 176.549 109.906 176.875 109.041 177.375C108.184 177.853 106.88 178.572 105.098 178.815C103.308 179.065 101.177 178.633 98.9475 177.921C96.7028 177.216 94.3444 176.125 91.9404 174.874C89.5365 173.624 87.2842 172.358 85.176 171.335C83.0678 170.312 81.1037 169.524 79.3974 169.032C77.6988 168.524 76.2731 168.296 75.2872 168.198C74.7943 168.145 74.4075 168.122 74.1497 168.115C73.8919 168.099 73.7554 168.084 73.7554 168.084C73.7554 168.084 74.309 168.054 75.2948 168.137C76.2882 168.221 77.7139 168.425 79.4278 168.925C81.1416 169.41 83.1209 170.183 85.2367 171.206C87.36 172.222 89.6123 173.487 92.0163 174.738C94.4126 175.988 96.7635 177.072 98.993 177.784C101.215 178.497 103.323 178.936 105.09 178.701C106.849 178.474 108.146 177.777 109.011 177.314C109.443 177.072 109.777 176.875 109.997 176.739C110.224 176.602 110.345 176.541 110.345 176.541V176.549Z" fill="white"/>
<path d="M108.54 156.126C108.54 156.126 108.442 156.126 108.26 156.126C108.032 156.118 107.767 156.103 107.456 156.088C106.758 156.058 105.75 155.982 104.506 155.853C102.019 155.611 98.5986 155.118 94.8751 154.269C91.1593 153.413 87.8605 152.36 85.5172 151.488C84.3418 151.056 83.4014 150.685 82.7644 150.412C82.4838 150.291 82.2412 150.185 82.0288 150.094C81.862 150.018 81.7786 149.972 81.7786 149.972C81.7786 149.972 81.8696 149.995 82.044 150.063C82.2563 150.147 82.5066 150.238 82.7947 150.351C83.4469 150.609 84.3873 150.965 85.5627 151.382C87.9136 152.223 91.2048 153.254 94.9131 154.11C98.6214 154.959 102.041 155.467 104.521 155.739C105.765 155.876 106.766 155.967 107.464 156.02C107.775 156.043 108.032 156.065 108.267 156.088C108.449 156.103 108.548 156.126 108.548 156.126H108.54Z" fill="white"/>
<path d="M135.06 113.12C135.06 113.12 134.749 113.635 134.074 114.499C133.406 115.37 132.314 116.53 130.783 117.742C129.258 118.962 127.249 120.175 124.898 121.259C122.547 122.342 119.862 123.282 117.011 124.138C114.152 124.98 111.415 125.73 108.965 126.541C106.516 127.344 104.354 128.2 102.61 129.072C100.866 129.943 99.5313 130.784 98.6516 131.429C98.1966 131.732 97.8857 132.012 97.6506 132.186C97.4231 132.361 97.3018 132.444 97.3018 132.444C97.3018 132.444 97.7492 132.035 98.6213 131.376C99.4934 130.716 100.828 129.852 102.565 128.966C104.301 128.071 106.47 127.208 108.92 126.389C111.369 125.571 114.107 124.82 116.966 123.972C119.817 123.123 122.494 122.183 124.837 121.115C127.173 120.039 129.182 118.849 130.714 117.644C132.246 116.446 133.346 115.302 134.021 114.446C134.385 114.037 134.605 113.673 134.787 113.453C134.961 113.226 135.052 113.104 135.052 113.104L135.06 113.12Z" fill="white"/>
<path d="M210.932 118.773C210.932 118.773 210.818 118.72 210.613 118.599C210.401 118.485 210.105 118.288 209.703 118.091C208.907 117.659 207.717 117.091 206.185 116.568C204.653 116.037 202.78 115.545 200.672 115.151C198.563 114.749 196.22 114.438 193.763 114.09C188.879 113.4 184.458 112.771 181.182 112.309C179.62 112.081 178.331 111.892 177.375 111.748C176.966 111.687 176.625 111.634 176.344 111.589C176.109 111.551 175.988 111.521 175.988 111.521C175.988 111.521 176.116 111.521 176.352 111.559C176.632 111.596 176.981 111.634 177.39 111.687C178.354 111.816 179.643 111.99 181.205 112.195C184.481 112.65 188.902 113.256 193.786 113.93C196.243 114.272 198.586 114.59 200.694 114.999C202.81 115.401 204.683 115.908 206.223 116.454C207.762 116.992 208.945 117.583 209.734 118.03C210.53 118.477 210.94 118.773 210.94 118.773H210.932Z" fill="white"/>
<path d="M193.748 127.139C193.748 127.139 193.467 127.268 192.929 127.511C192.39 127.753 191.587 128.094 190.548 128.511C188.462 129.337 185.421 130.474 181.569 131.603C177.717 132.724 173.075 133.891 167.82 134.634C162.565 135.437 156.703 135.437 150.591 135.24C144.478 135.043 138.647 134.778 133.353 135.112C128.068 135.422 123.343 136.339 119.552 137.627C115.745 138.893 112.909 140.53 111.066 141.788C110.156 142.44 109.458 142.963 109.018 143.349C108.563 143.728 108.321 143.917 108.321 143.917C108.321 143.917 108.548 143.713 108.995 143.326C109.435 142.925 110.125 142.402 111.028 141.735C112.863 140.454 115.707 138.802 119.514 137.521C123.313 136.218 128.045 135.286 133.338 134.968C138.639 134.627 144.478 134.892 150.591 135.089C156.703 135.293 162.55 135.293 167.79 134.498C173.038 133.763 177.679 132.611 181.531 131.504C185.383 130.39 188.432 129.269 190.517 128.465C191.564 128.056 192.368 127.73 192.914 127.495C193.46 127.268 193.748 127.154 193.748 127.154V127.139Z" fill="white"/>
<path d="M205.381 134.551C205.381 134.551 205.335 134.574 205.244 134.611C205.115 134.657 204.987 134.71 204.842 134.763C204.494 134.892 203.986 135.059 203.349 135.24C202.082 135.597 200.277 135.998 198.245 136.021C196.213 136.044 194.4 135.665 193.134 135.286C192.497 135.096 191.996 134.922 191.647 134.786C191.511 134.733 191.382 134.68 191.253 134.627C191.162 134.589 191.116 134.566 191.116 134.558C191.116 134.558 191.17 134.558 191.261 134.596L191.662 134.725C192.011 134.846 192.519 135.005 193.156 135.18C194.423 135.528 196.22 135.885 198.23 135.862C200.239 135.839 202.029 135.46 203.303 135.134C203.94 134.968 204.456 134.816 204.805 134.71L205.214 134.589C205.305 134.566 205.358 134.551 205.358 134.558L205.381 134.551Z" fill="white"/>
<path d="M181.455 155.989C181.455 155.989 177.815 156.755 171.877 157.641C168.904 158.089 165.355 158.528 161.404 158.922C157.453 159.294 153.093 159.612 148.513 159.786C143.932 159.945 139.564 159.945 135.59 159.862C131.617 159.756 128.045 159.574 125.049 159.339C119.059 158.884 115.381 158.384 115.381 158.384C115.381 158.384 115.616 158.399 116.056 158.437C116.526 158.483 117.17 158.551 117.982 158.627C119.65 158.801 122.069 159.013 125.065 159.225C128.06 159.445 131.632 159.612 135.598 159.71C139.564 159.786 143.932 159.786 148.513 159.627C153.085 159.453 157.438 159.142 161.397 158.778C165.348 158.392 168.897 157.96 171.87 157.528C174.842 157.103 177.239 156.717 178.892 156.421C179.696 156.285 180.325 156.171 180.795 156.096C181.228 156.02 181.463 155.989 181.463 155.989H181.455Z" fill="white"/>
<path d="M211.159 153.837C211.159 153.837 211.068 153.852 210.886 153.852C210.659 153.852 210.401 153.868 210.098 153.875C209.408 153.89 208.414 153.905 207.186 153.905C204.729 153.905 201.331 153.807 197.593 153.489C193.854 153.163 190.494 152.663 188.075 152.223C186.87 152.003 185.891 151.814 185.216 151.67C184.921 151.602 184.67 151.549 184.443 151.503C184.268 151.465 184.177 151.435 184.177 151.435C184.177 151.435 184.276 151.443 184.45 151.473C184.678 151.511 184.928 151.556 185.232 151.609C185.982 151.746 186.945 151.912 188.098 152.117C190.517 152.526 193.877 153.011 197.608 153.33C201.339 153.648 204.729 153.754 207.186 153.792C208.353 153.799 209.332 153.807 210.09 153.815C210.393 153.815 210.651 153.815 210.879 153.815C211.061 153.815 211.152 153.83 211.152 153.83L211.159 153.837Z" fill="white"/>
<path d="M173.273 185.082C173.273 185.082 173.06 185.12 172.651 185.181C172.203 185.241 171.612 185.325 170.861 185.431C170.087 185.544 169.132 185.673 168.025 185.749C166.91 185.825 165.651 185.984 164.248 186.007C162.845 186.052 161.313 186.135 159.66 186.105C158.834 186.105 157.984 186.105 157.105 186.09C156.225 186.06 155.323 186.029 154.397 185.999C150.697 185.848 146.624 185.567 142.362 185.196C138.101 184.84 134.043 184.468 130.343 184.218C126.642 183.991 123.313 183.832 120.507 183.877C119.809 183.877 119.142 183.885 118.505 183.892C117.876 183.923 117.284 183.953 116.723 183.983C115.608 184.029 114.653 184.082 113.879 184.18C113.128 184.256 112.529 184.317 112.082 184.355C111.672 184.393 111.452 184.408 111.452 184.408C111.452 184.408 111.665 184.377 112.074 184.324C112.522 184.271 113.121 184.203 113.872 184.12C114.653 184.014 115.608 183.953 116.723 183.9C117.284 183.87 117.876 183.832 118.505 183.801C119.134 183.801 119.802 183.786 120.507 183.779C123.313 183.726 126.65 183.87 130.35 184.089C134.051 184.324 138.108 184.696 142.37 185.052C146.632 185.423 150.697 185.711 154.397 185.863C155.323 185.893 156.225 185.923 157.105 185.961C157.984 185.984 158.834 185.976 159.66 185.984C161.306 186.014 162.838 185.946 164.241 185.908C165.644 185.893 166.902 185.741 168.01 185.673C169.124 185.613 170.072 185.491 170.846 185.385C171.597 185.294 172.196 185.219 172.636 185.165C173.045 185.12 173.265 185.097 173.265 185.097L173.273 185.082Z" fill="white"/>
<path d="M217.924 176.185C217.924 176.185 217.81 176.208 217.59 176.231C217.325 176.261 217.006 176.291 216.627 176.337C215.785 176.428 214.572 176.526 213.063 176.632C210.052 176.837 205.881 176.989 201.278 176.867C196.675 176.746 192.512 176.375 189.516 176.011C188.015 175.829 186.809 175.662 185.975 175.534C185.596 175.473 185.285 175.42 185.019 175.382C184.8 175.344 184.686 175.321 184.686 175.321C184.686 175.321 184.8 175.321 185.027 175.352C185.292 175.39 185.611 175.428 185.99 175.473C186.824 175.587 188.038 175.738 189.532 175.905C192.527 176.238 196.683 176.587 201.278 176.708C205.874 176.829 210.045 176.693 213.055 176.519C214.557 176.428 215.778 176.344 216.62 176.276C216.999 176.246 217.317 176.223 217.59 176.2C217.81 176.185 217.932 176.185 217.932 176.185H217.924Z" fill="white"/>
<path d="M218.455 203.724C218.455 203.724 218.075 203.709 217.347 203.656C216.619 203.618 215.55 203.505 214.17 203.467C211.41 203.323 207.413 203.293 202.476 203.535C197.54 203.77 191.685 204.361 185.216 205.21C178.74 206.051 171.642 207.165 164.165 208.127C156.688 209.075 149.514 209.681 142.977 209.742C136.44 209.802 130.548 209.34 125.679 208.491C120.81 207.65 116.943 206.566 114.342 205.634C113.682 205.43 113.106 205.21 112.613 205.005C112.127 204.816 111.71 204.649 111.361 204.513C110.686 204.247 110.33 204.096 110.33 204.096C110.33 204.096 110.686 204.225 111.369 204.482C111.718 204.611 112.135 204.778 112.628 204.96C113.121 205.157 113.697 205.369 114.357 205.574C116.958 206.491 120.826 207.559 125.694 208.378C130.563 209.211 136.44 209.658 142.969 209.598C149.498 209.537 156.665 208.923 164.142 207.976C171.619 207.013 178.71 205.907 185.194 205.073C191.67 204.232 197.532 203.649 202.469 203.429C207.406 203.202 211.41 203.247 214.17 203.406C216.93 203.558 218.447 203.724 218.447 203.724H218.455Z" fill="white"/>
<path d="M176.761 232.014C176.761 232.014 173.113 232.635 167.168 233.272C164.195 233.598 160.646 233.886 156.703 234.113C152.76 234.318 148.414 234.446 143.849 234.416C139.284 234.378 134.946 234.189 131.003 233.924C127.059 233.643 123.518 233.302 120.553 232.938C114.622 232.218 110.982 231.544 110.982 231.544C110.982 231.544 111.21 231.567 111.65 231.627C112.12 231.696 112.757 231.786 113.553 231.908C114.38 232.037 115.388 232.181 116.564 232.332C117.739 232.484 119.082 232.673 120.56 232.832C123.525 233.181 127.067 233.514 131.01 233.787C134.954 234.037 139.291 234.227 143.849 234.265C148.407 234.287 152.744 234.166 156.688 233.969C160.631 233.749 164.18 233.476 167.145 233.166C168.632 233.029 169.974 232.863 171.149 232.726C172.332 232.597 173.341 232.461 174.168 232.347C174.971 232.241 175.608 232.158 176.079 232.097C176.518 232.044 176.746 232.021 176.746 232.021L176.761 232.014Z" fill="white"/>
<path d="M218 226.588C218 226.588 217.863 226.641 217.598 226.724C217.287 226.815 216.9 226.937 216.43 227.073C215.421 227.376 213.943 227.793 212.123 228.285C208.467 229.263 203.386 230.476 197.706 231.521C192.026 232.56 186.839 233.226 183.078 233.605C181.197 233.795 179.673 233.931 178.619 233.999C178.126 234.03 177.724 234.06 177.406 234.083C177.125 234.098 176.981 234.098 176.981 234.098C176.981 234.098 177.125 234.075 177.406 234.045C177.724 234.015 178.126 233.977 178.619 233.931C179.673 233.84 181.197 233.689 183.07 233.484C186.824 233.075 192.004 232.393 197.676 231.355C203.349 230.316 208.429 229.119 212.092 228.172C213.92 227.694 215.399 227.3 216.415 227.012C216.893 226.883 217.279 226.777 217.59 226.686C217.856 226.611 218 226.58 218 226.58V226.588Z" fill="white"/>
<path d="M147.83 263.615C147.83 263.615 145.593 264.001 141.93 264.191C140.103 264.297 137.911 264.304 135.492 264.191C133.073 264.062 130.419 263.804 127.651 263.35C124.89 262.88 122.297 262.258 119.961 261.591C117.64 260.902 115.57 260.182 113.879 259.492C110.482 258.121 108.487 257.022 108.487 257.022C108.487 257.022 108.616 257.075 108.866 257.189C109.155 257.317 109.503 257.484 109.936 257.689C110.398 257.909 110.967 258.174 111.634 258.454C112.302 258.735 113.06 259.083 113.917 259.394C115.616 260.076 117.678 260.781 119.999 261.463C122.327 262.122 124.921 262.736 127.673 263.206C130.426 263.66 133.08 263.918 135.492 264.054C137.911 264.168 140.087 264.168 141.915 264.077C142.833 264.062 143.652 263.979 144.38 263.933C145.108 263.888 145.73 263.827 146.238 263.766C146.708 263.721 147.095 263.675 147.413 263.645C147.678 263.622 147.823 263.615 147.823 263.615H147.83Z" fill="white"/>
<path d="M220.783 261.682C220.783 261.682 220.525 261.736 220.032 261.811C219.509 261.895 218.781 262.008 217.863 262.16C215.982 262.463 213.252 262.872 209.878 263.357C203.128 264.32 193.778 265.517 183.427 266.548C173.068 267.571 163.672 268.238 156.862 268.609C153.457 268.798 150.704 268.935 148.793 269.003C147.868 269.041 147.132 269.064 146.602 269.086C146.101 269.101 145.836 269.102 145.836 269.102C145.836 269.102 146.101 269.079 146.602 269.048C147.132 269.018 147.868 268.98 148.793 268.935C150.727 268.829 153.472 268.677 156.854 268.488C163.657 268.078 173.053 267.404 183.412 266.381C193.763 265.35 203.106 264.176 209.863 263.236C213.214 262.759 215.937 262.364 217.856 262.092C218.773 261.955 219.501 261.849 220.024 261.773C220.525 261.705 220.783 261.675 220.783 261.675V261.682Z" fill="white"/>
<path d="M224.756 289.593C224.756 289.593 223.096 289.942 220.078 290.434C217.052 290.927 212.661 291.541 207.208 291.995C201.748 292.45 195.227 292.7 187.984 292.465C180.742 292.23 172.818 291.427 164.529 290.411C156.233 289.396 148.338 288.373 141.126 287.804C133.915 287.221 127.385 287.107 121.918 287.38C116.45 287.66 112.059 288.282 109.049 288.85C107.547 289.138 106.379 289.381 105.598 289.57C104.809 289.752 104.4 289.835 104.4 289.835C104.4 289.835 104.809 289.729 105.59 289.54C106.372 289.335 107.532 289.085 109.033 288.79C112.036 288.199 116.435 287.562 121.902 287.266C127.37 286.986 133.907 287.085 141.126 287.66C148.346 288.214 156.248 289.237 164.536 290.252C172.825 291.268 180.742 292.079 187.977 292.321C195.211 292.564 201.733 292.321 207.186 291.889C212.638 291.45 217.037 290.851 220.055 290.381C221.564 290.139 222.739 289.949 223.536 289.805C224.332 289.669 224.749 289.601 224.749 289.601L224.756 289.593Z" fill="white"/>
<path d="M246.999 133.876C246.999 133.876 246.779 134.475 246.286 135.528C245.8 136.574 244.981 138.044 243.806 139.749C242.638 141.462 241.076 143.372 239.241 145.395C237.406 147.426 235.297 149.563 233.159 151.882C231.028 154.201 229.124 156.535 227.623 158.816C226.129 161.097 225.022 163.31 224.362 165.265C223.695 167.213 223.399 168.872 223.308 170.024C223.232 170.6 223.255 171.047 223.232 171.35C223.217 171.654 223.202 171.813 223.202 171.813C223.202 171.813 223.171 171.169 223.247 170.017C223.316 168.865 223.596 167.198 224.256 165.227C224.9 163.257 226.008 161.029 227.502 158.733C229.003 156.437 230.899 154.095 233.038 151.776C235.184 149.457 237.292 147.32 239.127 145.304C240.962 143.288 242.532 141.386 243.707 139.689C244.89 137.999 245.717 136.544 246.217 135.506C246.49 134.998 246.65 134.574 246.786 134.301C246.915 134.028 246.991 133.884 246.991 133.884L246.999 133.876Z" fill="white"/>
<path d="M212.069 146.934C212.069 146.934 212.153 146.865 212.327 146.744C212.54 146.6 212.79 146.433 213.086 146.229C213.745 145.797 214.678 145.122 215.8 144.266C216.93 143.41 218.22 142.326 219.592 141.053C220.957 139.772 222.39 138.302 223.801 136.658C225.196 135.005 226.425 133.353 227.479 131.807C228.51 130.246 229.382 128.807 230.05 127.556C230.725 126.313 231.233 125.283 231.559 124.563C231.71 124.237 231.839 123.972 231.946 123.737C232.037 123.547 232.09 123.456 232.09 123.456C232.09 123.456 231.468 125.101 230.148 127.609C229.488 128.867 228.632 130.322 227.6 131.891C226.554 133.444 225.325 135.112 223.922 136.764C222.512 138.408 221.063 139.878 219.691 141.159C218.303 142.425 217.006 143.508 215.869 144.349C213.601 146.054 212.069 146.926 212.069 146.926V146.934Z" fill="white"/>
<path d="M206.935 143.22C206.935 143.22 206.807 142.819 206.647 142.068C206.564 141.697 206.473 141.235 206.405 140.697C206.336 140.159 206.23 139.545 206.192 138.863C206.132 138.181 206.079 137.43 206.086 136.627C206.056 135.824 206.109 134.96 206.147 134.058C206.283 132.255 206.564 130.269 207.057 128.238C207.572 126.207 208.255 124.328 208.983 122.668C209.37 121.85 209.726 121.062 210.136 120.364C210.507 119.652 210.909 119.015 211.281 118.44C211.63 117.848 212.016 117.363 212.327 116.916C212.638 116.469 212.934 116.105 213.184 115.817C213.677 115.234 213.958 114.916 213.98 114.931C214.003 114.946 213.761 115.295 213.306 115.908C213.078 116.212 212.797 116.583 212.502 117.038C212.206 117.492 211.842 117.985 211.508 118.576C211.152 119.159 210.773 119.796 210.416 120.508C210.03 121.206 209.688 121.986 209.309 122.805C208.604 124.457 207.944 126.313 207.428 128.321C206.935 130.33 206.655 132.285 206.496 134.073C206.45 134.968 206.382 135.816 206.397 136.62C206.382 137.415 206.42 138.158 206.458 138.84C206.473 139.522 206.564 140.128 206.617 140.666C206.662 141.204 206.731 141.667 206.791 142.038C206.905 142.788 206.958 143.213 206.928 143.213L206.935 143.22Z" fill="#455A64"/>
<path d="M217.969 170.411C217.871 170.449 216.506 167.44 214.921 163.681C213.336 159.922 212.123 156.846 212.221 156.808C212.32 156.77 213.685 159.779 215.27 163.537C216.855 167.296 218.068 170.373 217.969 170.411Z" fill="#455A64"/>
<path d="M109.557 146.388C109.496 146.418 108.905 145.335 107.79 143.69C106.675 142.046 104.984 139.878 102.815 137.764C100.639 135.657 98.4166 134.035 96.7407 132.974C95.0648 131.906 93.9652 131.353 93.9955 131.292C94.0107 131.269 94.2912 131.391 94.7993 131.626C95.3074 131.861 96.0203 132.239 96.8848 132.747C98.6138 133.755 100.889 135.369 103.088 137.499C105.28 139.636 106.963 141.856 108.025 143.554C108.556 144.402 108.958 145.1 109.208 145.607C109.458 146.107 109.587 146.388 109.564 146.403L109.557 146.388Z" fill="#455A64"/>
<path d="M139.352 128.465C139.352 128.465 139.307 128.17 139.352 127.685C139.39 127.207 139.526 126.541 139.815 125.859C140.194 124.926 140.77 124.244 141.089 123.934L141.134 123.896L141.157 123.949C141.248 124.161 141.286 124.275 141.271 124.282C141.255 124.282 141.195 124.184 141.081 123.979H141.142C140.861 124.328 140.33 125.01 139.951 125.919C139.375 127.261 139.405 128.473 139.352 128.465Z" fill="#455A64"/>
<path d="M149.392 133.672C149.392 133.672 149.294 133.391 149.233 132.914C149.18 132.436 149.165 131.77 149.279 131.05C149.392 130.33 149.605 129.693 149.802 129.261C149.999 128.822 150.166 128.579 150.181 128.587C150.227 128.609 149.65 129.648 149.43 131.072C149.203 132.497 149.438 133.664 149.385 133.664L149.392 133.672Z" fill="#455A64"/>
<path d="M160.343 132.808C160.29 132.808 160.366 131.838 160.055 130.701C159.751 129.564 159.19 128.769 159.236 128.738C159.251 128.731 159.41 128.913 159.615 129.246C159.82 129.58 160.055 130.08 160.214 130.656C160.373 131.232 160.426 131.777 160.419 132.171C160.419 132.565 160.373 132.8 160.351 132.8L160.343 132.808Z" fill="#455A64"/>
<path d="M169.906 128.617C169.86 128.64 169.534 127.662 168.768 126.692C168.01 125.715 167.145 125.161 167.176 125.124C167.183 125.108 167.411 125.222 167.744 125.465C168.078 125.707 168.503 126.094 168.889 126.594C169.276 127.094 169.549 127.602 169.708 127.981C169.868 128.359 169.921 128.609 169.906 128.617Z" fill="#455A64"/>
<path d="M176.496 122.123C176.45 122.153 176.261 120.963 175.184 120.054C174.13 119.129 172.924 119.114 172.947 119.061C172.947 119.053 173.015 119.046 173.144 119.046C173.273 119.046 173.462 119.069 173.682 119.114C174.137 119.212 174.744 119.47 175.282 119.932C175.821 120.395 176.162 120.963 176.321 121.395C176.405 121.607 176.45 121.789 176.473 121.918C176.496 122.047 176.496 122.115 176.488 122.115L176.496 122.123Z" fill="#455A64"/>
<path d="M180.022 110.119C179.999 110.164 179.264 109.384 178.027 109.164C176.799 108.921 175.828 109.391 175.821 109.346C175.783 109.323 176.761 108.762 178.05 109.012C179.347 109.24 180.06 110.111 180.014 110.119H180.022Z" fill="#455A64"/>
<path d="M132.777 120.38C132.777 120.38 132.793 120.122 132.937 119.728C133.081 119.341 133.361 118.826 133.794 118.356C134.226 117.886 134.711 117.568 135.09 117.394C135.469 117.219 135.72 117.166 135.727 117.182C135.75 117.227 134.749 117.545 133.915 118.47C133.066 119.379 132.83 120.402 132.785 120.38H132.777Z" fill="#455A64"/>
<path d="M130.381 112.4C130.381 112.4 130.487 112.142 130.76 111.786C131.033 111.43 131.465 110.983 132.026 110.604C132.595 110.225 133.172 109.982 133.604 109.869C134.036 109.747 134.309 109.732 134.309 109.747C134.324 109.8 133.225 109.975 132.117 110.732C131.003 111.475 130.426 112.43 130.381 112.4Z" fill="#455A64"/>
<path d="M111.528 158.968C111.528 158.968 111.49 158.93 111.475 158.968C111.453 159.013 111.43 159.104 111.415 159.218C111.377 159.445 111.331 159.794 111.293 160.233C111.202 161.12 111.104 162.416 110.998 164.007C110.778 167.198 110.527 171.608 110.292 176.488C110.057 181.369 109.883 185.787 109.769 188.977C109.716 190.531 109.678 191.804 109.648 192.766C109.633 193.176 109.617 193.517 109.602 193.797C109.587 194.032 109.572 194.153 109.564 194.153C109.557 194.153 109.534 194.032 109.526 193.797C109.519 193.517 109.504 193.176 109.496 192.766C109.481 191.872 109.473 190.576 109.496 188.977C109.534 185.772 109.663 181.354 109.906 176.473C110.141 171.593 110.436 167.182 110.725 163.992C110.869 162.401 111.013 161.105 111.149 160.218C111.217 159.771 111.286 159.43 111.346 159.203C111.377 159.089 111.407 158.998 111.453 158.945C111.528 158.877 111.544 158.983 111.536 158.96L111.528 158.968Z" fill="black"/>
<path d="M195.075 5.90341C188.75 3.97097 182.16 9.63188 175.669 8.35874C171.726 7.58577 168.753 4.44082 165.242 2.48565C160.002 -0.439534 152.585 -0.91696 147.224 1.80361C141.87 4.52418 138.419 7.42663 137.684 13.3831C132.807 10.5867 124.678 16.7175 121.902 22.6361C119.135 28.5546 119.825 34.6702 121.402 41.0132C124.109 51.9333 128.985 62.3079 135.666 71.3562C136.258 72.1595 137.206 73.0462 138.108 72.6218C138.73 72.3262 138.935 71.5533 139.049 70.8712C139.981 65.0739 139.246 59.1553 138.745 53.305C138.245 47.4546 137.995 41.4224 139.845 35.8448C141.695 30.2673 146.056 25.1823 151.827 24.0456C156.089 23.2044 160.51 24.5912 164.294 26.7131C168.078 28.835 171.407 31.6768 175.009 34.0943C178.611 36.5117 182.661 38.5502 186.999 38.7397C191.336 38.9292 195.985 36.883 197.835 32.9575C199.686 29.032 197.608 23.4545 193.361 22.5527C197.259 22.1965 200.664 18.8242 201.066 14.9366C201.468 11.0414 198.814 7.05529 195.075 5.91099V5.90341Z" fill="black"/>
<path d="M175.57 107.565L174.956 95.0153C174.956 95.0153 191.503 91.8476 191.124 75.2135C190.942 67.1806 189.221 50.6754 187.484 35.7539C185.619 19.7033 171.741 7.77522 155.581 8.34358L153.973 8.39663C136.698 10.0108 128.424 25.5764 130.517 42.7865L134.499 109.785C135.166 121.062 144.82 129.678 156.111 129.079C167.418 128.481 176.109 118.864 175.555 107.565H175.57Z" fill="#FFBE9D"/>
<path d="M174.972 95.0002C174.972 95.0002 164.484 96.2203 153.063 89.5969C153.063 89.5969 158.606 101.381 175.161 99.3046L174.972 95.0002Z" fill="#EB996E"/>
<path d="M181.88 47.0227C181.971 48.2731 180.978 49.3795 179.673 49.5008C178.369 49.6144 177.239 48.6975 177.148 47.4471C177.057 46.1967 178.05 45.0827 179.355 44.969C180.659 44.8553 181.797 45.7723 181.88 47.0227Z" fill="black"/>
<path d="M184.193 44.0066C183.912 44.3249 182.062 43.0593 179.506 43.1578C176.951 43.2184 175.123 44.5977 174.835 44.2945C174.691 44.1581 174.971 43.5898 175.768 42.9684C176.549 42.3469 177.906 41.7255 179.499 41.6725C181.091 41.627 182.449 42.1651 183.245 42.7334C184.049 43.3094 184.337 43.8626 184.2 44.0066H184.193Z" fill="black"/>
<path d="M156.763 48.7733C156.854 50.0237 155.861 51.1301 154.557 51.2514C153.252 51.365 152.122 50.4481 152.031 49.1977C151.94 47.9473 152.934 46.8333 154.238 46.7196C155.543 46.6059 156.672 47.5229 156.763 48.7733Z" fill="black"/>
<path d="M159.084 45.3631C158.804 45.6814 156.953 44.4158 154.398 44.5143C151.842 44.5749 150.014 45.9542 149.726 45.6511C149.582 45.5146 149.863 44.9463 150.659 44.3249C151.44 43.7035 152.79 43.082 154.39 43.029C155.983 42.9835 157.34 43.5216 158.136 44.0899C158.94 44.6659 159.228 45.2191 159.092 45.3631H159.084Z" fill="black"/>
<path d="M169.026 63.9827C169.011 63.8387 170.588 63.5053 173.151 63.0885C173.804 62.9975 174.418 62.846 174.509 62.3989C174.645 61.9214 174.35 61.2318 174.008 60.4816C173.341 58.9281 172.636 57.2912 171.9 55.5785C168.973 48.599 166.827 42.8547 167.107 42.7335C167.388 42.6198 169.997 48.1822 172.924 55.1617C173.629 56.8819 174.304 58.5264 174.949 60.0951C175.222 60.8302 175.677 61.6562 175.381 62.6414C175.222 63.134 174.759 63.5053 174.342 63.6341C173.925 63.7781 173.561 63.7933 173.235 63.8236C170.649 64.0509 169.041 64.1191 169.026 63.9751V63.9827Z" fill="black"/>
<path d="M161.564 66.0136C161.981 65.9757 162.08 68.7494 164.529 70.6363C166.971 72.5309 169.913 72.1141 169.951 72.5006C169.997 72.6749 169.314 73.0613 168.063 73.1371C166.842 73.2205 165.037 72.8946 163.543 71.7352C162.049 70.5757 161.374 68.9919 161.238 67.8551C161.094 66.6957 161.374 65.9985 161.564 66.0136Z" fill="black"/>
<path d="M158.879 32.2604C158.652 32.9651 156.089 32.7226 153.101 33.1925C150.105 33.6017 147.716 34.5641 147.299 33.9503C147.11 33.6548 147.512 32.9879 148.467 32.2831C149.415 31.5783 150.939 30.8887 152.729 30.6235C154.526 30.3658 156.18 30.5932 157.287 30.9948C158.402 31.3965 158.978 31.9269 158.879 32.2604Z" fill="black"/>
<path d="M182.995 36.6406C182.562 37.2392 180.78 36.6936 178.664 36.7391C176.541 36.7088 174.767 37.2696 174.334 36.6709C174.145 36.3829 174.403 35.7918 175.169 35.2159C175.919 34.6399 177.201 34.1473 178.657 34.1398C180.113 34.1398 181.395 34.6172 182.153 35.1856C182.919 35.7539 183.192 36.345 183.002 36.633L182.995 36.6406Z" fill="black"/>
<path d="M132.314 55.048C132.026 54.9343 120.765 52.0697 121.523 63.4219C122.289 74.774 133.535 71.6669 133.535 71.3411C133.535 71.0152 132.314 55.048 132.314 55.048Z" fill="#FFBE9D"/>
<path d="M129.782 67.2792C129.728 67.2488 129.592 67.4307 129.266 67.605C128.947 67.7793 128.394 67.9157 127.787 67.7338C126.559 67.3777 125.421 65.5362 125.224 63.4976C125.125 62.467 125.277 61.4667 125.588 60.6255C125.876 59.7692 126.377 59.1553 126.976 59.0038C127.567 58.8219 128.022 59.1553 128.181 59.466C128.356 59.7767 128.295 60.0041 128.363 60.0192C128.394 60.042 128.591 59.8146 128.47 59.3524C128.409 59.1326 128.257 58.8749 127.977 58.6703C127.689 58.4657 127.279 58.3824 126.862 58.4581C125.99 58.5794 125.254 59.4357 124.913 60.3603C124.519 61.2924 124.329 62.414 124.443 63.5734C124.67 65.8545 125.982 67.9157 127.658 68.2795C128.47 68.431 129.122 68.1506 129.448 67.8551C129.782 67.552 129.827 67.2943 129.782 67.2716V67.2792Z" fill="#EB996E"/>
<path d="M190.889 32.1391C183.632 34.3443 175.328 32.7832 169.375 28.0847C165.204 24.7958 161.913 19.9761 156.786 18.5969C153.336 17.6647 149.567 18.5362 146.503 20.3701C143.439 22.2041 140.998 24.9322 138.92 27.8422C142.431 36.1783 140.603 45.6889 138.723 54.5326C138.518 55.5102 138.26 56.5636 137.494 57.2001C136.182 58.2838 134.142 57.5412 132.929 56.359C130.98 54.4644 130.153 51.7135 129.584 49.0536C128.28 42.9986 127.901 36.6936 129.046 30.6159C130.191 24.5306 132.914 18.6726 137.236 14.2394C142.643 8.69974 150.386 5.65331 158.121 5.50174C165.864 5.35018 173.546 7.98739 179.885 12.4282C182.828 14.4895 185.558 17.0054 187.15 20.2262" fill="black"/>
<path d="M199.997 9.73799C199.997 9.73799 200.08 10.0866 199.928 10.7307C199.784 11.3597 199.375 12.2994 198.419 13.133C197.479 13.9666 195.977 14.5577 194.218 14.7017C193.338 14.7699 192.39 14.7775 191.389 14.6259C190.396 14.4668 189.334 14.1258 188.447 13.3831C187.583 12.6632 186.862 11.534 186.915 10.223C186.953 8.89681 187.984 7.73735 189.228 7.23719C189.858 6.97195 190.555 6.84312 191.268 6.90375C191.973 6.96437 192.686 7.25992 193.255 7.71462C194.423 8.624 195.037 10.1245 195.09 11.6325C195.151 13.1633 194.514 14.7093 193.445 15.8687C192.375 17.0358 190.95 17.8694 189.403 18.3468C186.278 19.3244 182.79 18.847 179.65 17.6345C176.473 16.4295 173.682 14.6259 171.058 12.8678C168.434 11.1172 165.886 9.43486 163.255 8.26782C160.639 7.07805 157.916 6.48695 155.376 6.63851C152.835 6.79008 150.53 7.58579 148.634 8.624C144.804 10.7459 142.613 13.7014 141.331 15.7399C140.687 16.7781 140.254 17.6269 139.974 18.2028C139.693 18.7788 139.549 19.0895 139.526 19.0819C139.519 19.0819 139.541 18.9985 139.595 18.8394C139.655 18.6878 139.739 18.4529 139.868 18.1574C140.118 17.5587 140.52 16.6872 141.142 15.6262C142.378 13.5347 144.547 10.4882 148.444 8.2754C150.378 7.19172 152.729 6.35054 155.353 6.17624C157.977 5.99437 160.798 6.59304 163.475 7.7904C166.167 8.97259 168.738 10.6625 171.369 12.4055C173.993 14.1561 176.746 15.9294 179.855 17.104C182.926 18.2938 186.278 18.7409 189.251 17.8163C190.714 17.3616 192.064 16.5811 193.058 15.4974C194.051 14.4213 194.635 13.0345 194.582 11.6401C194.544 10.2609 193.983 8.90439 192.959 8.1011C191.966 7.25235 190.548 7.19172 189.425 7.66915C188.295 8.11626 187.408 9.12416 187.37 10.2457C187.31 11.3673 187.939 12.4055 188.728 13.08C189.531 13.762 190.525 14.103 191.473 14.2697C192.428 14.4289 193.361 14.4365 194.218 14.3834C195.939 14.2773 197.38 13.7393 198.298 12.9663C199.231 12.1933 199.663 11.3143 199.837 10.708C200.019 10.0942 199.981 9.74557 200.012 9.74557L199.997 9.73799Z" fill="#455A64"/>
<path d="M120.227 32.4877C120.265 32.3665 121.523 33.094 123.73 33.2683C124.83 33.3441 126.149 33.2152 127.529 32.7378C128.91 32.2831 130.351 31.5026 131.723 30.5401C134.468 28.5546 135.955 25.6977 136.554 23.5909C137.176 21.4539 137.077 20.0368 137.183 20.0443C137.214 20.0443 137.267 20.3929 137.274 21.0295C137.274 21.6661 137.206 22.5906 136.933 23.697C136.417 25.8947 134.923 28.9108 132.049 30.9948C130.624 32.0027 129.145 32.7833 127.681 33.2304C126.233 33.7002 124.83 33.7912 123.692 33.6623C122.547 33.5259 121.66 33.2228 121.084 32.9652C120.507 32.6999 120.204 32.5105 120.219 32.4877H120.227Z" fill="#455A64"/>
<path d="M121.015 40.6949C121.03 40.5888 122.365 40.8389 124.504 40.6418C126.627 40.46 129.585 39.6946 132.254 37.8C134.916 35.8979 136.607 33.3516 137.471 31.404C138.359 29.4488 138.556 28.0999 138.662 28.1227C138.692 28.1227 138.677 28.4637 138.571 29.0699C138.465 29.6762 138.245 30.5401 137.835 31.5556C137.047 33.5941 135.348 36.2768 132.58 38.2547C129.812 40.225 126.718 40.9525 124.534 41.0359C123.434 41.0814 122.547 41.0132 121.94 40.9146C121.334 40.8161 121.008 40.7252 121.015 40.6873V40.6949Z" fill="#455A64"/>
<path d="M150.97 56.5182C150.818 56.5561 150.666 56.45 150.621 56.2832C150.583 56.1165 150.674 55.9574 150.826 55.9195C150.977 55.8816 151.129 55.9877 151.174 56.1544C151.212 56.3211 151.121 56.4803 150.97 56.5182Z" fill="#EB996E"/>
<path d="M155.816 55.245C155.664 55.2829 155.505 55.1541 155.459 54.9646C155.414 54.7752 155.497 54.5933 155.649 54.5554C155.8 54.5175 155.96 54.6463 156.005 54.8358C156.051 55.0252 155.967 55.2071 155.816 55.245Z" fill="#EB996E"/>
<path d="M159.099 55.048C158.947 55.0707 158.788 54.8888 158.75 54.6387C158.712 54.3887 158.803 54.1613 158.955 54.1386C159.107 54.1158 159.266 54.2977 159.304 54.5478C159.342 54.7979 159.251 55.0252 159.099 55.048Z" fill="#EB996E"/>
<path d="M153.48 59.4964C153.321 59.4964 153.192 59.4282 153.192 59.3297C153.192 59.2311 153.313 59.1478 153.465 59.1402C153.624 59.1402 153.753 59.2084 153.753 59.3069C153.753 59.4054 153.631 59.4888 153.48 59.4964Z" fill="#EB996E"/>
<path d="M157.924 58.3066C157.772 58.3293 157.628 58.2005 157.605 58.0262C157.583 57.8519 157.689 57.6928 157.848 57.6776C158 57.6625 158.144 57.7837 158.167 57.958C158.189 58.1323 158.083 58.2914 157.924 58.3066Z" fill="#EB996E"/>
<path d="M181.137 54.707C180.985 54.7449 180.826 54.6312 180.788 54.4645C180.75 54.2902 180.841 54.1234 180.993 54.0931C181.144 54.0552 181.304 54.1689 181.341 54.3356C181.379 54.5099 181.288 54.6766 181.137 54.707Z" fill="#EB996E"/>
<path d="M184.458 54.2826C184.307 54.3053 184.155 54.1613 184.132 53.9643C184.109 53.7673 184.208 53.593 184.367 53.5778C184.519 53.5551 184.671 53.6991 184.693 53.8961C184.716 54.0931 184.617 54.2674 184.458 54.2826Z" fill="#EB996E"/>
<path d="M178.202 54.8888C178.05 54.9267 177.899 54.8434 177.868 54.7145C177.838 54.5781 177.937 54.4417 178.088 54.4114C178.24 54.3735 178.392 54.4569 178.422 54.5857C178.452 54.7221 178.354 54.8585 178.202 54.8888Z" fill="#EB996E"/>
<path d="M180.788 58.1323C180.651 58.2005 180.469 58.1247 180.393 57.958C180.318 57.7989 180.363 57.6094 180.507 57.5412C180.644 57.473 180.826 57.5488 180.902 57.7155C180.977 57.8747 180.932 58.0641 180.788 58.1323Z" fill="#EB996E"/>
<path d="M183.609 57.4654C183.457 57.4275 183.359 57.2987 183.389 57.1698C183.419 57.041 183.563 56.9652 183.715 57.0031C183.867 57.041 183.965 57.1698 183.935 57.2987C183.905 57.4275 183.761 57.5033 183.609 57.4654Z" fill="#EB996E"/>
<path d="M177.974 246.321L177.792 229.475C177.792 229.475 166.546 213.902 170.982 197.01C170.982 197.01 178.316 191.857 197.979 194.881C197.979 194.881 222.663 170.85 255.75 176.958C288.836 183.066 291.915 211.879 292.226 219.722C292.537 227.565 292.469 242.798 281.086 257.689L280.32 272.466C280.32 272.466 277.605 278.036 269.757 277.657C261.9 277.278 262.348 276.119 262.348 276.119C262.348 276.119 252.504 284.068 252.064 286.152C251.625 288.236 250.093 296.095 250.093 296.095C250.093 296.095 246.68 300.748 239.294 301.286C235.806 301.544 232.931 300.612 230.861 299.558C228.874 298.543 227.358 296.792 226.683 294.663C225.75 291.707 223.346 286.721 217.401 283.985L212.304 282.651C212.304 282.651 210.249 284.523 203.098 285.288C195.947 286.054 195.924 283.515 195.924 283.515C195.924 283.515 184.799 286.084 176.435 275.187C169.83 266.578 166.25 251.065 177.974 246.321Z" fill="#5DB1EB"/>
<path d="M246.566 247.291C246.566 247.291 246.68 247.102 246.93 246.776C247.181 246.443 247.552 245.958 248.015 245.321C248.948 244.056 250.26 242.184 251.693 239.766C253.118 237.349 254.673 234.371 256.046 230.915C256.736 229.187 257.38 227.346 257.949 225.413C258.503 223.496 258.996 221.389 258.495 219.343C257.987 217.289 256.478 215.706 254.855 214.561C253.209 213.409 251.427 212.591 249.714 211.894C246.271 210.514 242.957 209.855 240.158 209.598C237.36 209.325 235.077 209.454 233.515 209.598C232.734 209.673 232.128 209.749 231.718 209.81C231.309 209.863 231.089 209.885 231.089 209.87C231.089 209.855 231.301 209.81 231.71 209.726C232.12 209.635 232.719 209.537 233.508 209.438C235.078 209.249 237.368 209.075 240.196 209.31C243.017 209.537 246.369 210.166 249.858 211.545C251.594 212.242 253.399 213.061 255.09 214.235C256.751 215.395 258.351 217.054 258.889 219.237C259.42 221.419 258.897 223.579 258.336 225.512C257.752 227.459 257.1 229.308 256.395 231.044C254.992 234.507 253.414 237.493 251.943 239.903C250.464 242.313 249.114 244.162 248.144 245.404C247.658 246.026 247.264 246.496 246.999 246.814C246.726 247.132 246.582 247.291 246.574 247.284L246.566 247.291Z" fill="black"/>
<path d="M200.3 195.608C200.3 195.608 200.36 195.737 200.414 196.002C200.467 196.267 200.512 196.662 200.467 197.177C200.383 198.192 199.852 199.67 198.578 201.004C197.335 202.368 195.454 203.482 193.626 204.982C191.776 206.475 189.865 208.264 188.083 210.355C184.496 214.516 182.13 218.957 180.788 222.283C180.113 223.951 179.658 225.337 179.362 226.3C179.225 226.747 179.119 227.118 179.028 227.414C178.945 227.664 178.899 227.8 178.884 227.793C178.869 227.793 178.892 227.649 178.952 227.391C179.021 227.088 179.112 226.717 179.218 226.254C179.468 225.277 179.885 223.867 180.537 222.177C181.827 218.805 184.17 214.296 187.795 210.09C189.592 207.983 191.533 206.18 193.414 204.694C195.287 203.194 197.168 202.11 198.396 200.807C199.655 199.541 200.209 198.132 200.338 197.154C200.467 196.161 200.277 195.616 200.323 195.608H200.3Z" fill="black"/>
<g opacity="0.5">
<path d="M213.525 197.677L223.589 200.246C223.589 200.246 238.323 183.695 254.506 179.512L248.447 178.08C248.447 178.08 228.897 181.505 213.525 197.677Z" fill="black"/>
</g>
<path d="M251.23 178.716C238.081 181.649 225.864 188.621 216.65 198.442L213.525 197.669C213.525 197.669 227.797 182.013 248.447 178.072L251.223 178.709L251.23 178.716Z" fill="#5DB1EB"/>
<g opacity="0.7">
<path d="M251.23 178.716C238.081 181.649 225.864 188.621 216.65 198.442L213.525 197.669C213.525 197.669 227.797 182.013 248.447 178.072L251.223 178.709L251.23 178.716Z" fill="black"/>
</g>
<path d="M173.113 249.762C178.695 241.79 192.671 244.222 199.049 251.399C205.335 258.469 208.262 268.435 204.107 276.937C202.332 280.567 198.935 283.773 194.893 283.682C199.041 279.218 200.512 272.777 199.215 266.82C197.919 260.872 194.165 255.62 189.418 251.8C187.014 249.86 184.306 247.731 181.228 247.428C178.149 247.125 175.676 247.034 173.106 249.769" fill="#5DB1EB"/>
<g opacity="0.3">
<path d="M173.113 249.762C178.695 241.79 192.671 244.222 199.049 251.399C205.335 258.469 208.262 268.435 204.107 276.937C202.332 280.567 198.935 283.773 194.893 283.682C199.041 279.218 200.512 272.777 199.215 266.82C197.919 260.872 194.165 255.62 189.418 251.8C187.014 249.86 184.306 247.731 181.228 247.428C178.149 247.125 175.676 247.034 173.106 249.769" fill="black"/>
</g>
<g opacity="0.3">
<path d="M247.12 246.829C247.021 248.519 248.561 250.012 250.237 250.209C251.913 250.406 253.589 249.519 254.703 248.254C255.818 246.988 256.47 245.374 256.978 243.768C258.723 238.311 259.625 230.157 258.707 224.496C256.296 231.824 251.988 240.964 246.991 246.844" fill="black"/>
</g>
<g opacity="0.3">
<path d="M252.406 221.624C251.321 218.419 248 216.554 244.8 215.44C241.546 214.304 238.126 213.637 234.691 213.455C233.606 213.394 232.492 213.394 231.468 213.773C230.452 214.152 229.534 214.978 229.352 216.047C229.2 216.91 229.671 217.865 230.429 218.244C235.912 224.572 240.037 232.067 242.464 240.085C242.934 241.638 244.906 242.062 245.983 240.835C248.561 237.894 250.047 233.931 251.382 230.172C252.36 227.414 253.346 224.398 252.406 221.624Z" fill="black"/>
</g>
<g opacity="0.3">
<path d="M179.9 223.102C176.465 217.79 174.66 211.439 174.797 205.111C174.827 203.77 174.986 202.322 175.927 201.36C177.057 200.201 178.892 200.178 180.507 200.284C184.966 200.564 189.41 201.186 193.771 202.148C194.112 202.224 194.499 202.338 194.635 202.663C194.84 203.148 194.787 203.914 194.339 204.187C187.552 208.347 182.737 216.001 180.173 223.488" fill="black"/>
</g>
<g opacity="0.2">
<path d="M190.859 264.941C189.698 264.502 188.303 264.911 187.461 265.82C186.619 266.729 186.301 268.063 186.498 269.283C186.695 270.511 187.067 271.564 187.947 272.436C188.553 273.035 189.607 273.603 190.449 273.656C191.617 273.732 192.694 272.891 193.263 271.86C193.93 270.655 194.051 269.155 193.581 267.866C193.111 266.57 192.148 265.426 190.859 264.941Z" fill="black"/>
</g>
<path d="M189.691 264.797C188.599 266.108 188.242 267.987 188.781 269.609C189.319 271.231 190.73 272.527 192.383 272.921C191.822 273.467 190.684 273.845 189.827 273.595C187.552 272.944 186.089 270.556 186.263 268.2C186.331 267.252 186.688 266.305 187.363 265.638C188.038 264.971 189.319 264.714 189.691 264.797Z" fill="#5DB1EB"/>
<g opacity="0.4">
<path d="M189.691 264.797C188.599 266.108 188.242 267.987 188.781 269.609C189.319 271.231 190.73 272.527 192.383 272.921C191.822 273.467 190.684 273.845 189.827 273.595C187.552 272.944 186.089 270.556 186.263 268.2C186.331 267.252 186.688 266.305 187.363 265.638C188.038 264.971 189.319 264.714 189.691 264.797Z" fill="black"/>
</g>
<g opacity="0.2">
<path d="M179.688 260.637C178.566 260.212 177.223 260.606 176.412 261.485C175.593 262.364 175.29 263.645 175.487 264.827C175.676 266.01 176.033 267.033 176.882 267.874C177.466 268.45 178.482 269.003 179.301 269.048C180.431 269.117 181.463 268.306 182.016 267.321C182.661 266.161 182.775 264.714 182.32 263.463C181.865 262.213 180.939 261.114 179.696 260.637" fill="black"/>
</g>
<path d="M178.558 260.5C177.504 261.766 177.163 263.577 177.679 265.138C178.194 266.699 179.559 267.95 181.152 268.336C180.613 268.859 179.514 269.223 178.687 268.988C176.496 268.359 175.085 266.055 175.252 263.782C175.32 262.872 175.661 261.955 176.314 261.311C176.966 260.667 178.202 260.417 178.558 260.5Z" fill="#5DB1EB"/>
<g opacity="0.4">
<path d="M178.558 260.5C177.504 261.766 177.163 263.577 177.679 265.138C178.194 266.699 179.559 267.95 181.152 268.336C180.613 268.859 179.514 269.223 178.687 268.988C176.496 268.359 175.085 266.055 175.252 263.782C175.32 262.872 175.661 261.955 176.314 261.311C176.966 260.667 178.202 260.417 178.558 260.5Z" fill="black"/>
</g>
<path d="M209.84 239.304C209.901 239.296 209.779 239.312 209.84 239.304V239.304Z" fill="black"/>
<path d="M208.46 239.736C208.46 239.736 208.536 239.706 208.566 239.683C208.581 239.675 208.596 239.66 208.619 239.653L208.46 239.728V239.736Z" fill="black"/>
<path d="M214.185 242.146C213.791 241.191 213.146 240.289 212.221 239.834C211.622 239.546 210.758 239.259 209.901 239.296H209.832C209.415 239.327 208.953 239.456 208.558 239.69C206.882 240.494 205.661 242.252 205.525 244.124C205.351 246.503 206.852 248.875 209.013 249.876C209.741 250.209 210.56 250.406 211.341 250.232C212.13 250.05 212.79 249.497 213.29 248.86C214.762 247.003 215.08 244.336 214.185 242.146Z" fill="black"/>
<path d="M186.217 232.029C186.271 232.021 186.164 232.029 186.217 232.029V232.029Z" fill="black"/>
<path d="M185.019 232.4C185.019 232.4 185.088 232.377 185.11 232.355C185.125 232.355 185.141 232.34 185.156 232.332L185.019 232.4Z" fill="black"/>
<path d="M189.986 234.484C189.645 233.658 189.092 232.878 188.288 232.484C187.772 232.234 187.021 231.983 186.278 232.014H186.217C185.853 232.044 185.452 232.158 185.118 232.355C183.669 233.052 182.608 234.568 182.486 236.197C182.335 238.258 183.631 240.312 185.512 241.183C186.142 241.471 186.854 241.646 187.529 241.487C188.212 241.327 188.781 240.85 189.22 240.297C190.494 238.69 190.768 236.379 189.994 234.484H189.986Z" fill="black"/>
<path d="M184.253 238.167C184.215 238.198 184.018 238.031 183.814 237.675C183.609 237.319 183.427 236.765 183.427 236.136C183.427 235.507 183.601 234.947 183.806 234.598C184.003 234.242 184.2 234.075 184.238 234.105C184.337 234.166 183.806 234.992 183.821 236.144C183.814 237.296 184.352 238.114 184.253 238.175V238.167Z" fill="#FAFAFA"/>
<path d="M207.11 246.541C207.072 246.564 206.882 246.367 206.716 245.965C206.549 245.564 206.443 244.95 206.549 244.29C206.662 243.631 206.958 243.086 207.246 242.76C207.535 242.434 207.777 242.305 207.808 242.343C207.891 242.426 207.117 243.146 206.935 244.351C206.716 245.556 207.208 246.488 207.102 246.534L207.11 246.541Z" fill="#FAFAFA"/>
<path d="M221.503 286.592C221.465 286.653 220.548 286.016 218.94 285.213C217.34 284.402 215.035 283.485 212.418 282.636C209.81 281.787 207.421 281.06 205.722 280.454C204.873 280.15 204.19 279.893 203.72 279.696C203.257 279.499 203 279.377 203.015 279.355C203.038 279.302 204.092 279.665 205.813 280.196C207.534 280.734 209.923 281.408 212.547 282.265C215.171 283.121 217.492 284.084 219.069 284.97C219.471 285.182 219.82 285.395 220.123 285.592C220.434 285.781 220.692 285.948 220.889 286.107C221.298 286.402 221.518 286.584 221.503 286.599V286.592Z" fill="black"/>
<path d="M275.3 262.183C275.3 262.183 275.073 262.577 274.61 263.251C274.147 263.926 273.435 264.873 272.509 266.01C270.667 268.283 267.884 271.238 264.577 274.239C261.271 277.24 258.184 279.84 256 281.78C254.946 282.719 254.082 283.492 253.422 284.084C252.815 284.629 252.466 284.925 252.451 284.902C252.436 284.879 252.739 284.553 253.316 283.97C253.892 283.386 254.741 282.568 255.818 281.575C257.957 279.582 261.021 276.945 264.319 273.951C267.618 270.958 270.416 268.056 272.305 265.835C273.245 264.721 273.996 263.812 274.496 263.16C275.004 262.516 275.293 262.167 275.315 262.19L275.3 262.183Z" fill="black"/>
<g opacity="0.2">
<path d="M262.408 276.217C266.496 276.551 271.122 275.3 274.018 272.406C276.915 269.511 277.924 264.668 276.18 260.962C273.799 264.357 271.114 267.965 267.838 270.738C265.768 272.489 264.403 274.618 262.408 276.225" fill="black"/>
</g>
<g opacity="0.5">
<path d="M247.878 180.899C253.156 188.712 264.069 191.175 269.332 198.996C271.372 202.019 272.373 205.604 273.351 209.12C277.401 223.701 281.45 238.289 285.5 252.869C286 243.389 283.718 234.007 281.442 224.784C279.198 215.683 276.961 206.574 274.716 197.472C274.223 195.472 273.707 193.418 272.532 191.721C271.334 190 269.552 188.795 267.815 187.628C261.581 183.445 255.166 179.186 247.855 177.519" fill="black"/>
</g>
<g opacity="0.3">
<path d="M210.659 204.535C210.993 205.596 209.544 207.044 207.269 208.84C206.124 209.734 204.789 210.757 203.318 211.856C201.862 212.977 200.277 214.19 198.647 215.508C197.024 216.842 195.515 218.138 194.119 219.335C192.739 220.548 191.465 221.654 190.358 222.587C188.136 224.443 186.422 225.572 185.452 225.027C184.519 224.511 184.542 222.329 185.838 219.305C186.475 217.797 187.469 216.115 188.773 214.395C190.093 212.689 191.738 210.954 193.664 209.378C195.606 207.809 197.638 206.559 199.572 205.619C201.521 204.694 203.371 204.065 204.979 203.747C208.202 203.095 210.348 203.52 210.659 204.535Z" fill="white"/>
</g>
<path d="M280.654 188.909C280.73 188.955 279.524 190.607 277.431 191.94C275.346 193.289 273.344 193.706 273.336 193.615C273.298 193.501 275.202 192.941 277.226 191.622C279.266 190.326 280.563 188.826 280.654 188.909Z" fill="#EB996E"/>
<path d="M302.866 183.839C298.794 174.442 258.033 141.083 258.033 141.083L235.062 170.896C235.389 170.449 272.547 193.062 272.547 193.062L283.513 242.979L285.394 251.869C285.394 251.869 280.464 256.165 280.669 260.705C280.806 263.729 273.814 270.261 273.814 270.261C272.161 268.889 271.099 268.503 270.265 268.662L262.871 275.581L264.63 277.187C266.594 278.976 269.173 279.931 271.827 279.847L284.469 279.461C286.273 279.408 287.98 278.658 289.239 277.362C293.129 273.36 301.327 264.433 301.493 260.121C301.584 257.711 301.607 255.415 301.6 253.566C301.6 253.566 306.953 193.229 302.874 183.832L302.866 183.839Z" fill="#FFBE9D"/>
<path d="M290.763 263.683C290.763 263.683 290.535 263.88 290.065 264.13C289.595 264.388 288.882 264.691 288.056 265.146C287.221 265.585 286.395 266.328 285.576 267.283C284.764 268.23 283.801 269.299 282.558 270.102C280.085 271.761 277.31 272.201 275.399 272.072C274.921 272.042 274.474 272.019 274.102 271.852C273.723 271.708 273.473 271.345 273.495 271.049C273.488 270.754 273.632 270.541 273.761 270.466C273.897 270.382 273.981 270.405 273.981 270.413C273.981 270.428 273.905 270.443 273.814 270.526C273.723 270.61 273.624 270.799 273.655 271.042C273.662 271.292 273.859 271.534 274.201 271.655C274.527 271.784 274.959 271.792 275.429 271.807C277.295 271.868 279.972 271.398 282.368 269.791C283.581 269.011 284.499 268.003 285.333 267.055C286.167 266.108 287.07 265.335 287.949 264.918C288.814 264.486 289.534 264.221 290.02 264.009C290.505 263.797 290.77 263.668 290.786 263.691L290.763 263.683Z" fill="#EB996E"/>
<path d="M284.984 270.253C285.037 270.352 283.991 270.966 282.868 271.921C281.738 272.868 280.957 273.792 280.866 273.724C280.783 273.671 281.45 272.61 282.618 271.625C283.786 270.64 284.939 270.155 284.977 270.246L284.984 270.253Z" fill="#EB996E"/>
<path d="M290.103 249.58C290.103 249.694 288.988 249.762 287.767 250.345C286.539 250.914 285.773 251.732 285.689 251.656C285.606 251.603 286.296 250.611 287.608 250.004C288.912 249.383 290.118 249.482 290.103 249.58Z" fill="#EB996E"/>
<path d="M282.194 274.156C282.163 274.217 281.375 273.83 280.017 273.504C278.667 273.179 276.718 272.982 274.633 273.398C274.117 273.512 273.617 273.633 273.147 273.8C272.912 273.868 272.676 273.974 272.403 274.02C272.138 274.08 271.797 274.005 271.592 273.845C270.864 273.315 270.189 272.822 269.582 272.383C268.452 271.542 267.77 271.004 267.8 270.958C267.831 270.913 268.574 271.375 269.749 272.156C270.363 272.572 271.054 273.035 271.789 273.535C272.115 273.785 272.525 273.603 273.025 273.421C273.511 273.247 274.026 273.118 274.565 272.997C276.718 272.565 278.736 272.815 280.093 273.224C280.783 273.413 281.306 273.656 281.67 273.823C282.027 274.005 282.209 274.118 282.201 274.149L282.194 274.156Z" fill="#EB996E"/>
<path d="M196.448 158.361C191.587 156.975 189.433 156.368 189.433 156.368L189.448 154.163L191.382 154.14C193.316 154.118 196.114 151.731 196.114 151.731L200.262 145.38L200.793 141.318C200.346 136.294 194.294 138.264 194.294 138.264C194.006 136.514 186.263 134.755 180.439 133.672C176.488 132.937 172.416 134.005 169.337 136.597L163.748 141.311L146.996 155.967L103.763 192.456L75.3479 184.074C75.3479 184.074 66.316 211.704 64.8372 221.624C62.0086 240.638 88.1563 253.309 99.6907 243.525C108.654 235.917 160.934 179.664 169.595 170.327C169.617 170.327 169.648 170.327 169.671 170.327C175.002 169.645 183.988 164.272 183.988 164.272L188.606 164.818C188.606 164.818 200.876 167.16 202.332 164.757C203.47 162.87 201.316 159.763 196.455 158.377L196.448 158.361Z" fill="#FFBE9D"/>
<path d="M171.271 152.837C171.271 152.837 171.392 153.019 171.544 153.367C171.703 153.716 171.877 154.246 172.044 154.921C172.378 156.255 172.567 158.187 172.241 160.279C171.908 162.37 171.127 164.151 170.391 165.311C170.027 165.894 169.693 166.349 169.435 166.629C169.185 166.917 169.033 167.069 169.011 167.054C168.958 167.008 169.488 166.356 170.148 165.167C170.808 163.992 171.521 162.241 171.847 160.211C172.165 158.18 172.029 156.293 171.764 154.974C171.506 153.648 171.202 152.86 171.271 152.829V152.837Z" fill="#EB996E"/>
<path d="M174.403 137.37C174.403 137.37 174.562 137.324 174.88 137.279C175.191 137.233 175.654 137.173 176.253 137.12C177.444 137.021 179.195 136.87 181.341 137.18C182.411 137.347 183.571 137.643 184.731 138.188C185.884 138.734 187.044 139.53 187.962 140.659C188.872 141.78 189.539 143.258 189.516 144.865C189.516 145.66 189.296 146.479 188.917 147.206C188.538 147.941 188.015 148.593 187.431 149.177C186.271 150.321 184.997 151.261 183.715 152.094C183.063 152.488 182.449 152.913 181.721 153.186C181.364 153.314 180.985 153.405 180.583 153.375C180.189 153.36 179.787 153.163 179.537 152.845C179.279 152.526 179.203 152.125 179.21 151.761C179.21 151.397 179.294 151.048 179.4 150.723C179.628 150.078 179.931 149.495 180.287 148.972C181.008 147.919 181.941 147.138 182.896 146.63L182.942 146.896C180.795 146.486 179.036 146.153 177.77 145.91C177.193 145.789 176.731 145.698 176.367 145.623C176.048 145.554 175.881 145.509 175.881 145.494C175.881 145.479 176.056 145.494 176.382 145.539C176.746 145.592 177.216 145.668 177.8 145.751C179.074 145.964 180.841 146.251 182.995 146.608L183.397 146.676L183.04 146.873C182.13 147.381 181.25 148.138 180.568 149.146C180.227 149.647 179.946 150.215 179.734 150.821C179.544 151.405 179.453 152.132 179.825 152.61C180.204 153.102 180.955 153.072 181.599 152.822C182.251 152.579 182.873 152.155 183.51 151.761C184.769 150.942 186.028 150.003 187.15 148.889C188.288 147.767 189.13 146.35 189.13 144.842C189.16 143.349 188.538 141.947 187.681 140.871C186.817 139.787 185.709 139.007 184.595 138.469C183.48 137.923 182.35 137.62 181.304 137.438C179.203 137.097 177.459 137.203 176.268 137.256C175.707 137.294 175.244 137.317 174.888 137.34C174.569 137.362 174.41 137.362 174.403 137.347V137.37Z" fill="#EB996E"/>
<path d="M194.339 138.514C194.339 138.514 194.423 138.802 194.476 139.333C194.529 139.863 194.582 140.628 194.567 141.583C194.529 143.47 194.21 146.206 192.679 148.752C191.169 151.291 188.788 152.928 186.824 153.178C185.823 153.299 185.034 152.86 184.686 152.443C184.504 152.238 184.405 152.041 184.367 151.905C184.322 151.768 184.322 151.693 184.329 151.693C184.367 151.677 184.428 151.981 184.799 152.344C185.156 152.701 185.884 153.049 186.794 152.913C188.599 152.61 190.896 151.003 192.345 148.555C193.824 146.1 194.188 143.44 194.294 141.576C194.385 139.696 194.279 138.522 194.347 138.514H194.339Z" fill="#EB996E"/>
<path d="M183.609 160.157C183.563 160.112 183.958 159.763 184.428 159.089C184.898 158.422 185.406 157.376 185.527 156.141C185.649 154.906 185.345 153.777 185.019 153.034C184.693 152.276 184.375 151.867 184.42 151.829C184.451 151.799 184.86 152.155 185.27 152.913C185.679 153.663 186.051 154.853 185.922 156.179C185.793 157.505 185.201 158.604 184.655 159.256C184.109 159.923 183.639 160.195 183.616 160.157H183.609Z" fill="#EB996E"/>
<path d="M176.245 145.797C176.291 145.766 176.594 146.395 176.488 147.456C176.443 147.972 176.306 148.608 175.957 149.222C175.639 149.828 175.214 150.473 174.668 151.056C173.561 152.246 172.196 152.837 171.263 153.231C170.308 153.617 169.701 153.807 169.678 153.754C169.655 153.701 170.224 153.42 171.142 152.973C172.044 152.511 173.333 151.905 174.372 150.776C174.896 150.222 175.305 149.616 175.631 149.033C175.972 148.472 176.116 147.896 176.2 147.403C176.367 146.411 176.177 145.797 176.23 145.782L176.245 145.797Z" fill="#EB996E"/>
<path d="M208.49 148.032L187.158 159.657C187.158 159.657 198.571 162.507 208.9 173.427C218.265 183.332 221.882 194.062 221.882 194.062L243.139 179.929C243.139 179.929 231.726 154.057 208.49 148.025V148.032Z" fill="#DF602F"/>
<path d="M190.919 159.218C191.86 158.68 197.676 155.36 208.141 149.381L208.187 149.351L208.24 149.366C211.046 150.101 213.996 151.291 216.953 152.958C219.896 154.633 222.838 156.778 225.644 159.339C228.457 161.893 231.15 164.848 233.667 168.122C236.177 171.396 238.559 174.958 240.591 178.853L240.674 179.004L240.53 179.103C240.174 179.338 239.795 179.596 239.415 179.853C233.667 183.695 228.116 187.393 223.02 190.804L222.831 190.932L222.74 190.72C220.199 184.514 216.878 179.164 213.291 174.889C209.704 170.608 205.889 167.402 202.522 165.091C199.14 162.772 196.198 161.332 194.15 160.453C193.119 160.013 192.315 159.718 191.761 159.521C191.496 159.43 191.291 159.362 191.132 159.309C190.98 159.256 190.919 159.233 190.919 159.233L191.139 159.278C191.299 159.324 191.511 159.384 191.776 159.46C192.33 159.635 193.149 159.915 194.188 160.332C196.258 161.173 199.231 162.59 202.643 164.894C206.048 167.19 209.901 170.388 213.526 174.677C217.151 178.959 220.51 184.339 223.081 190.576L222.8 190.493C227.896 187.083 233.44 183.377 239.188 179.527C239.567 179.27 239.954 179.02 240.303 178.777L240.234 179.027C238.225 175.177 235.851 171.616 233.364 168.357C230.861 165.098 228.192 162.151 225.401 159.612C222.618 157.058 219.706 154.928 216.794 153.246C213.867 151.587 210.947 150.389 208.172 149.647L208.278 149.631C197.729 155.459 191.86 158.702 190.912 159.225L190.919 159.218Z" fill="white"/>
<path d="M225.833 166.22C225.28 169.501 221.117 171.487 216.544 170.653C211.971 169.82 208.71 166.485 209.264 163.204C209.817 159.923 213.981 157.937 218.553 158.771C223.126 159.604 226.387 162.939 225.833 166.22Z" fill="#FAFAFA"/>
<path d="M215.899 167.281L215.163 168.099L214.314 167.273L215.027 166.485C214.367 165.743 213.882 164.879 213.738 164.181L215.171 163.56C215.338 164.288 215.778 165.098 216.346 165.659C216.93 166.228 217.31 166.273 217.53 166.023C218.265 165.205 214.906 163.06 216.635 161.158C217.363 160.347 218.546 160.21 219.827 161.181L220.555 160.37L221.405 161.196L220.684 161.991C221.17 162.545 221.556 163.196 221.731 163.825L220.32 164.485C220.085 163.757 219.736 163.174 219.304 162.757C218.713 162.188 218.318 162.188 218.083 162.438C217.37 163.227 220.715 165.371 219.001 167.266C218.295 168.046 217.143 168.198 215.891 167.289L215.899 167.281Z" fill="#DF602F"/>
<path d="M195.788 156.482C195.788 156.482 199.405 158.316 195.932 160.999L190.616 158.937L195.788 156.482Z" fill="#FAFAFA"/>
<path d="M205.502 151.026C205.502 151.026 208.991 154.709 212.32 150.874L208.209 149.503L205.502 151.026Z" fill="#FAFAFA"/>
<path d="M220.715 185.802C220.715 185.802 225.409 181.998 228.154 187.128L222.906 190.637L220.715 185.802Z" fill="#FAFAFA"/>
<path d="M238.035 174.761C238.035 174.761 234.645 176.875 236.943 181.255L240.416 178.936L238.035 174.768V174.761Z" fill="#FAFAFA"/>
<path d="M225.469 187.052C225.469 187.863 224.832 188.523 224.051 188.523C223.27 188.523 222.633 187.863 222.633 187.052C222.633 186.242 223.27 185.582 224.051 185.582C224.832 185.582 225.469 186.242 225.469 187.052Z" fill="#DF602F"/>
<path d="M239.704 178.004C239.704 178.815 239.067 179.474 238.286 179.474C237.504 179.474 236.867 178.815 236.867 178.004C236.867 177.193 237.504 176.534 238.286 176.534C239.067 176.534 239.704 177.193 239.704 178.004Z" fill="#DF602F"/>
<path d="M210.394 150.882C210.394 151.405 209.666 151.829 208.771 151.829C207.876 151.829 207.148 151.405 207.148 150.882C207.148 150.359 207.876 149.935 208.771 149.935C209.666 149.935 210.394 150.359 210.394 150.882Z" fill="#DF602F"/>
<path d="M196.531 158.74C196.531 159.438 195.826 159.998 194.954 159.998C194.082 159.998 193.376 159.43 193.376 158.74C193.376 158.043 194.082 157.482 194.954 157.482C195.826 157.482 196.531 158.051 196.531 158.74Z" fill="#DF602F"/>
<path d="M209.612 157.952C209.612 158.755 208.611 159.407 207.375 159.407C206.139 159.407 205.138 158.756 205.138 157.945C205.138 157.141 206.139 156.49 207.375 156.49C208.611 156.49 209.612 157.141 209.612 157.952Z" fill="#FAFAFA"/>
<path d="M227.578 177.428C226.569 177.883 225.325 177.246 224.795 176.003C224.271 174.761 224.658 173.381 225.667 172.919C226.675 172.464 227.919 173.101 228.45 174.344C228.973 175.587 228.586 176.966 227.578 177.428Z" fill="#FAFAFA"/>
<path d="M196.106 151.731L204.858 160.938C204.858 160.938 208.361 164.939 210.719 163.052C213.078 161.158 209.764 157.619 209.066 156.596C208.369 155.573 199.784 145.16 199.784 145.16L196.099 151.738L196.106 151.731Z" fill="#FFBE9D"/>
<path d="M200.618 143.425C200.664 143.44 200.565 144.054 200.285 145.024C199.997 145.994 199.511 147.312 198.73 148.654C197.949 149.995 197.016 151.071 196.243 151.731C195.469 152.397 194.908 152.685 194.885 152.655C194.847 152.602 195.348 152.231 196.053 151.533C196.758 150.836 197.631 149.775 198.389 148.464C199.898 145.835 200.489 143.387 200.618 143.432V143.425Z" fill="#EB996E"/>
<path d="M119.134 179.474C119.134 179.474 119.006 179.626 118.725 179.876C118.414 180.149 118.012 180.512 117.504 180.967C116.397 181.93 114.85 183.271 112.946 184.915C109.086 188.235 103.725 192.782 97.7492 197.745C91.7734 202.709 86.3134 207.142 82.3017 210.28C80.2997 211.856 78.6541 213.091 77.5014 213.932C76.9478 214.326 76.5004 214.645 76.1668 214.887C75.8558 215.099 75.6966 215.205 75.689 215.198C75.6814 215.19 75.8331 215.061 76.1212 214.826C76.4473 214.569 76.872 214.235 77.4104 213.819C78.5328 212.94 80.1481 211.666 82.1273 210.067C86.0935 206.877 91.5232 202.413 97.4989 197.45C103.444 192.486 108.829 187.992 112.764 184.711C114.698 183.104 116.276 181.793 117.398 180.861C117.929 180.429 118.346 180.088 118.672 179.823C118.968 179.588 119.127 179.474 119.134 179.482V179.474Z" fill="#EB996E"/>
</svg>
