<svg width="42" height="42" viewBox="0 0 42 42" fill="none" xmlns="http://www.w3.org/2000/svg">
<circle cx="21" cy="21" r="21" fill="black"/>
<path fill-rule="evenodd" clip-rule="evenodd" d="M31.75 22.9549H10.75C10.336 22.9549 10 22.6189 10 22.2049C10 21.7909 10.336 21.4549 10.75 21.4549H31.75C32.164 21.4549 32.5 21.7909 32.5 22.2049C32.5 22.6189 32.164 22.9549 31.75 22.9549" fill="white"/>
<path fill-rule="evenodd" clip-rule="evenodd" d="M29.8799 18.745C29.4659 18.745 29.1299 18.409 29.1299 17.995V16.481C29.1299 14.838 27.7919 13.5 26.1469 13.5H24.9419C24.5279 13.5 24.1919 13.164 24.1919 12.75C24.1919 12.336 24.5279 12 24.9419 12H26.1469C28.6189 12 30.6299 14.011 30.6299 16.481V17.995C30.6299 18.409 30.2939 18.745 29.8799 18.745" fill="white"/>
<path fill-rule="evenodd" clip-rule="evenodd" d="M12.6201 18.745C12.2061 18.745 11.8701 18.409 11.8701 17.995V16.481C11.8701 14.011 13.8811 12 16.3531 12H17.5891C18.0031 12 18.3391 12.336 18.3391 12.75C18.3391 13.164 18.0031 13.5 17.5891 13.5H16.3531C14.7081 13.5 13.3701 14.838 13.3701 16.481V17.995C13.3701 18.409 13.0341 18.745 12.6201 18.745" fill="white"/>
<path fill-rule="evenodd" clip-rule="evenodd" d="M26.1469 30.7606H24.9419C24.5279 30.7606 24.1919 30.4246 24.1919 30.0106C24.1919 29.5966 24.5279 29.2606 24.9419 29.2606H26.1469C27.7919 29.2606 29.1299 27.9226 29.1299 26.2786V22.2036C29.1299 21.7896 29.4659 21.4536 29.8799 21.4536C30.2939 21.4536 30.6299 21.7896 30.6299 22.2036V26.2786C30.6299 28.7496 28.6189 30.7606 26.1469 30.7606" fill="white"/>
<path fill-rule="evenodd" clip-rule="evenodd" d="M17.5889 30.7606H16.3529C13.8809 30.7606 11.8699 28.7496 11.8699 26.2786V22.2036C11.8699 21.7896 12.2059 21.4536 12.6199 21.4536C13.0339 21.4536 13.3699 21.7896 13.3699 22.2036V26.2786C13.3699 27.9226 14.7079 29.2606 16.3529 29.2606H17.5889C18.0029 29.2606 18.3389 29.5966 18.3389 30.0106C18.3389 30.4246 18.0029 30.7606 17.5889 30.7606" fill="white"/>
</svg>
