<svg width="303" height="303" viewBox="0 0 303 303" fill="none" xmlns="http://www.w3.org/2000/svg">
<path d="M267.878 257.238C261.656 263.658 255.769 267.797 251.118 271.069C196.443 309.517 131.748 298.309 118 295.573C97.6961 291.531 58.4499 283.719 30.0753 251.016C-12.8531 201.537 -6.16936 123.588 27.1293 72.1321C33.22 62.7202 65.3925 10.4807 130.784 2.10249C170.358 -2.96699 216.489 7.25821 249.896 34.6885C320.019 92.2682 315.027 208.589 267.878 257.237V257.238Z" fill="#76C7FF"/>
<g opacity="0.3">
<path d="M51.4749 24.8879C51.0063 24.5364 50.8698 23.8803 51.1778 23.3673C51.8506 22.244 52.5825 21.1338 53.3536 20.0673C53.7283 19.5477 54.4536 19.4309 54.9724 19.8053L54.991 19.8184C55.4945 20.1961 55.6049 20.91 55.2346 21.4231C54.5027 22.4372 53.8069 23.4917 53.1679 24.5582C52.8392 25.1073 52.127 25.2863 51.5776 24.9567C51.5426 24.9359 51.5087 24.913 51.476 24.889L51.4749 24.8879ZM57.6005 16.8612C57.5644 16.8339 57.5295 16.8044 57.4956 16.7717C57.0325 16.3296 57.015 15.596 57.4574 15.1332C58.3651 14.1824 59.323 13.2599 60.3039 12.3943C60.7834 11.9707 61.5131 12.0144 61.9413 12.4947C62.3651 12.9739 62.3203 13.7064 61.8408 14.13C60.9091 14.9541 59.9992 15.8296 59.1363 16.7335C58.7266 17.1625 58.0658 17.2083 57.6016 16.8612H57.6005ZM65.3427 10.3813C65.24 10.3038 65.1472 10.2078 65.0718 10.0942C64.719 9.56044 64.8654 8.84107 65.3995 8.48847C66.494 7.76473 67.6343 7.07919 68.7878 6.45151C69.3503 6.14586 70.0538 6.35435 70.3607 6.91545C70.6666 7.47763 70.459 8.18173 69.8965 8.48738C68.8009 9.08341 67.7184 9.73401 66.6786 10.4206C66.258 10.699 65.7228 10.6673 65.3427 10.3813ZM74.3421 5.79326C74.1717 5.66554 74.0341 5.4887 73.9544 5.27474C73.7293 4.67544 74.033 4.00737 74.6327 3.7825C75.8626 3.32183 77.1275 2.90811 78.3913 2.55333C79.0073 2.38086 79.6474 2.74 79.8211 3.35676C79.9937 3.97244 79.6343 4.61213 79.0172 4.7857C77.8167 5.12192 76.6152 5.5149 75.4464 5.95264C75.062 6.09673 74.648 6.02359 74.3421 5.79326ZM84.1389 3.3262C83.8997 3.14608 83.7293 2.87536 83.6867 2.55552C83.6004 1.92128 84.045 1.33727 84.6796 1.25103C85.9784 1.07419 87.3022 0.950833 88.6152 0.885336C89.2553 0.852587 89.7992 1.34382 89.832 1.98351C89.8648 2.6221 89.3721 3.16682 88.7321 3.19957C87.4836 3.26289 86.2252 3.37969 84.9909 3.5478C84.6764 3.59037 84.3738 3.50304 84.1379 3.3262H84.1389ZM94.2372 3.08713C93.927 2.85462 93.7413 2.47255 93.7774 2.05774C93.8342 1.42023 94.3967 0.94865 95.0346 1.00541C96.3421 1.12003 97.6605 1.2936 98.9538 1.51848C99.5851 1.62873 100.007 2.22912 99.8964 2.86008C99.7861 3.48994 99.1853 3.9124 98.5551 3.80215C97.3263 3.58819 96.0734 3.42335 94.8314 3.31419C94.6075 3.29454 94.4044 3.21267 94.2372 3.08713ZM129.869 26.3823C129.74 26.2863 129.631 26.1618 129.549 26.0112C128.952 24.9185 128.298 23.8377 127.608 22.7974C127.254 22.2647 127.399 21.5453 127.932 21.1917C128.465 20.8369 129.185 20.9821 129.54 21.5159C130.268 22.6108 130.956 23.7493 131.585 24.8999C131.892 25.4621 131.686 26.1662 131.123 26.4729C130.711 26.6978 130.222 26.6476 129.87 26.3823H129.869ZM104.131 5.09026C103.747 4.80207 103.569 4.29119 103.724 3.8076C103.92 3.19848 104.574 2.86444 105.183 3.06094C106.433 3.46374 107.679 3.9255 108.889 4.43419C109.478 4.68527 109.758 5.36098 109.509 5.95155C109.261 6.54102 108.58 6.81829 107.99 6.5705C106.841 6.08691 105.657 5.64917 104.471 5.26601C104.345 5.22562 104.231 5.16558 104.13 5.09026H104.131ZM124.058 18.1275C123.997 18.0816 123.939 18.0292 123.887 17.9692C123.06 17.037 122.18 16.1287 121.275 15.2696C120.811 14.8286 120.792 14.095 121.233 13.6311C121.675 13.1672 122.41 13.1464 122.873 13.5896C123.825 14.4946 124.751 15.4508 125.621 16.4311C126.046 16.9103 126.002 17.6428 125.524 18.0674C125.104 18.4397 124.491 18.4517 124.059 18.1286L124.058 18.1275ZM113.331 9.25042C112.863 8.89892 112.725 8.24395 113.032 7.73089C113.36 7.18071 114.072 7.00169 114.623 7.32917C115.749 8.00052 116.861 8.72972 117.928 9.49604C117.935 9.5004 117.941 9.50586 117.948 9.51023C118.451 9.88793 118.562 10.5997 118.192 11.1127C117.819 11.6323 117.094 11.7513 116.574 11.3769C115.56 10.6488 114.504 9.9567 113.433 9.3192C113.397 9.29736 113.363 9.27444 113.329 9.24933L113.331 9.25042Z" fill="#61BEFF"/>
<path d="M133.112 33.8479C132.93 33.7103 132.786 33.5193 132.708 33.2857C132.521 32.7181 132.318 32.146 132.106 31.5828C131.881 30.9835 132.184 30.3154 132.783 30.0905C133.383 29.8646 134.053 30.168 134.277 30.7673C134.499 31.359 134.712 31.9616 134.909 32.5587C135.11 33.1667 134.78 33.8217 134.172 34.0225C133.797 34.1459 133.404 34.0684 133.111 33.8479H133.112Z" fill="#61BEFF"/>
</g>
<g opacity="0.3">
<path d="M130.209 69.0581C129.761 68.7219 129.611 68.1019 129.88 67.5921C130.158 67.0637 130.431 66.5201 130.689 65.9776C130.964 65.399 131.656 65.1545 132.235 65.4285C132.816 65.7047 133.058 66.3957 132.784 66.9731C132.512 67.544 132.225 68.1161 131.931 68.6728C131.632 69.2393 130.931 69.4555 130.365 69.1575C130.309 69.128 130.257 69.0952 130.209 69.0581Z" fill="#61BEFF"/>
<path d="M63.162 84.1498C62.735 83.8299 62.3122 83.5014 61.8939 83.164C61.3947 82.7623 61.3161 82.0331 61.718 81.5343C62.12 81.0354 62.8529 80.9568 63.3488 81.3585C64.3155 82.1357 65.3117 82.8726 66.321 83.5559C66.8507 83.9162 66.9906 84.6355 66.6312 85.165C66.2718 85.6955 65.5509 85.8341 65.0211 85.475C64.3963 85.0525 63.7716 84.6061 63.1631 84.1498H63.162ZM57.3991 79.0104C57.3477 78.9711 57.2975 78.9275 57.2516 78.8794C56.3625 77.9396 55.504 76.9527 54.6989 75.9441C54.2991 75.4441 54.3822 74.7149 54.8824 74.3154C55.3827 73.9158 56.1145 73.9977 56.5121 74.4988C57.2768 75.4561 58.0927 76.3949 58.937 77.2879C59.3772 77.7529 59.3565 78.4865 58.8912 78.9253C58.4739 79.3194 57.8426 79.3434 57.3991 79.0104ZM70.2991 88.5359C69.8622 88.2073 69.706 87.6058 69.9561 87.0982C70.239 86.5241 70.9348 86.2883 71.5094 86.571C72.6082 87.1124 73.7453 87.6146 74.889 88.0621C75.4853 88.2968 75.7792 88.9682 75.5454 89.5642C75.3117 90.1602 74.6388 90.4539 74.0424 90.2203C72.8376 89.7487 71.6405 89.2204 70.4837 88.6494C70.4171 88.6167 70.3559 88.5785 70.2991 88.5359ZM51.4057 71.082C51.2877 70.9936 51.1861 70.8811 51.1053 70.7469C50.4455 69.6367 49.8251 68.4839 49.2615 67.3224C48.9818 66.7461 49.2232 66.054 49.7989 65.7745C50.3756 65.4951 51.0681 65.7352 51.3478 66.3116C51.883 67.4141 52.4717 68.509 53.0987 69.5635C53.4264 70.1137 53.244 70.8244 52.6935 71.1518C52.2773 71.3986 51.7694 71.356 51.4046 71.082H51.4057ZM79.6404 91.9134C79.2822 91.6437 79.0976 91.1787 79.209 90.7148C79.3586 90.0926 79.9856 89.7094 80.6082 89.8589C81.7988 90.146 83.0178 90.3851 84.2325 90.5707C84.8649 90.6678 85.3007 91.2584 85.2024 91.8915C85.1052 92.5236 84.5132 92.9581 83.8807 92.8609C82.6017 92.6655 81.3182 92.4133 80.0643 92.111C79.9059 92.0728 79.7617 92.004 79.6394 91.9112L79.6404 91.9134ZM89.4984 93.1611C89.2122 92.9461 89.0287 92.6011 89.0342 92.2158C89.044 91.5761 89.5716 91.0652 90.2117 91.075C91.4394 91.0947 92.6825 91.0619 93.9059 90.98C94.5448 90.9364 95.0975 91.4189 95.1412 92.0575C95.1838 92.6961 94.701 93.2484 94.062 93.2921C92.7742 93.3794 91.4668 93.4133 90.1735 93.3925C89.919 93.3882 89.6852 93.303 89.4963 93.1611H89.4984ZM99.3936 92.231C99.1751 92.0673 99.0145 91.8271 98.9544 91.539C98.8245 90.9124 99.2286 90.2989 99.8556 90.1701C101.059 89.9223 102.266 89.6199 103.442 89.2728C104.055 89.0915 104.7 89.4419 104.882 90.0565C105.064 90.67 104.713 91.3152 104.098 91.4964C102.861 91.861 101.591 92.1786 100.324 92.4406C99.9856 92.5105 99.6502 92.4243 99.3936 92.2321V92.231ZM108.85 89.1669C108.699 89.0533 108.573 88.9016 108.49 88.7171C108.227 88.1342 108.486 87.4476 109.07 87.1845C110.19 86.6791 111.301 86.1212 112.371 85.5241C112.93 85.213 113.637 85.4139 113.948 85.9717C114.261 86.5306 114.06 87.2369 113.501 87.548C112.372 88.1768 111.202 88.7652 110.024 89.2968C109.624 89.4769 109.176 89.4125 108.85 89.1669ZM117.406 84.1007C117.32 84.0373 117.243 83.9598 117.176 83.8714C116.791 83.3605 116.892 82.6335 117.403 82.2482C118.382 81.5102 119.341 80.7221 120.256 79.9023C120.734 79.4755 121.468 79.5169 121.894 79.9918C122.321 80.4688 122.28 81.2013 121.804 81.6281C120.841 82.4905 119.83 83.3212 118.8 84.0974C118.378 84.4161 117.809 84.4019 117.406 84.0996V84.1007ZM124.633 77.2846C124.615 77.2704 124.596 77.2551 124.578 77.2398C124.09 76.825 124.031 76.0936 124.446 75.6068C125.032 74.919 125.604 74.2051 126.146 73.4836C126.343 73.2227 126.535 72.9596 126.724 72.6965C127.097 72.1769 127.822 72.0568 128.342 72.4312C128.876 72.7991 128.981 73.5283 128.608 74.0479C128.408 74.3252 128.206 74.6014 128 74.8765C127.43 75.6351 126.829 76.3862 126.212 77.1099C125.812 77.5793 125.119 77.6514 124.633 77.2857V77.2846Z" fill="#61BEFF"/>
<path d="M47.2978 62.0019C47.1132 61.8632 46.969 61.6689 46.8914 61.4342C46.697 60.8371 46.5124 60.2258 46.342 59.6145C46.1694 58.9977 46.5299 58.3591 47.1459 58.1867C47.7631 58.0142 48.4021 58.3733 48.5747 58.9901C48.7374 59.5697 48.9133 60.1516 49.0968 60.7181C49.2945 61.3261 48.9613 61.98 48.3518 62.1776C47.9783 62.2988 47.5883 62.2202 47.2967 62.0019H47.2978Z" fill="#61BEFF"/>
</g>
<path d="M56.6258 52.1937C56.6357 52.424 56.7897 52.6238 57.0114 52.6904L63.3282 54.5865C64.1507 57.5536 65.4527 60.4103 67.231 63.0324L64.5854 69.0658C64.4926 69.2776 64.5439 69.5243 64.7143 69.6815L70.5297 75.0424C70.7001 75.1996 70.9502 75.2302 71.1534 75.121L76.9579 72.0001C79.717 73.56 82.6706 74.6276 85.6963 75.2083L88.096 81.3487C88.1801 81.5638 88.392 81.7024 88.6225 81.6926L96.5275 81.3738C96.759 81.364 96.9578 81.2101 97.0245 80.9885L98.9218 74.6756C101.891 73.8536 104.749 72.5524 107.373 70.7753L113.41 73.4203C113.622 73.5131 113.869 73.4617 114.026 73.2915L119.391 67.4797C119.549 67.3094 119.58 67.0594 119.47 66.8564L116.347 61.0555C117.909 58.298 118.976 55.3463 119.557 52.3225L125.702 49.9242C125.917 49.8402 126.056 49.6284 126.046 49.3981L125.727 41.498C125.718 41.2666 125.563 41.0679 125.341 41.0013L119.024 39.1052C118.202 36.1382 116.9 33.2814 115.122 30.6593L117.768 24.6259C117.861 24.4141 117.81 24.1674 117.639 24.0102L111.824 18.6493C111.654 18.4921 111.403 18.4604 111.2 18.5707L105.396 21.6916C102.637 20.1306 99.6831 19.0641 96.6575 18.4834L94.2577 12.343C94.1736 12.128 93.9617 11.9893 93.7312 11.9991L85.8262 12.3179C85.5958 12.3266 85.3959 12.4816 85.3292 12.7032L83.4319 19.0161C80.4631 19.8381 77.6045 21.1393 74.9808 22.9164L68.9437 20.2714C68.7318 20.1787 68.4849 20.23 68.3276 20.4003L62.9634 26.212C62.8061 26.3823 62.7744 26.6323 62.8847 26.8365L66.0076 32.6373C64.4467 35.3948 63.3784 38.3465 62.7973 41.3703L56.6532 43.7686C56.438 43.8526 56.2993 44.0644 56.3091 44.2947L56.628 52.1948L56.6258 52.1937Z" fill="#53A3DA"/>
<path d="M86.3963 53.198C83.2964 50.8717 82.2838 46.5533 84.1899 43.0503C86.2838 39.199 91.1227 37.7701 94.9752 39.8627C96.8419 40.8758 98.2018 42.5558 98.8037 44.5916C99.4067 46.6275 99.1795 48.7758 98.1647 50.6414C96.0708 54.4926 91.2319 55.9216 87.3794 53.8289C87.032 53.6401 86.7043 53.4294 86.3963 53.198ZM94.8496 41.9805C94.6104 41.8004 94.357 41.6377 94.0883 41.4925C91.1347 39.8878 87.4241 40.9849 85.8196 43.9367C84.2139 46.8895 85.3095 50.5966 88.2652 52.2013C91.2188 53.806 94.9293 52.7089 96.5339 49.7572C97.3116 48.3272 97.4853 46.6799 97.0244 45.1189C96.6486 43.8504 95.8895 42.7621 94.8496 41.9816V41.9805Z" fill="white"/>
<path d="M79.6285 62.4746C79.0965 62.0751 78.5809 61.6461 78.085 61.1887C77.9288 61.0446 77.7748 60.8983 77.623 60.7499C76.8759 60.0152 76.1888 59.2227 75.5717 58.3843C75.5629 58.3734 75.5553 58.3614 75.5465 58.3505C75.5225 58.3177 75.4996 58.285 75.4755 58.2522C75.4297 58.1889 75.3838 58.1245 75.339 58.0612C75.2199 57.8931 75.2298 57.6726 75.3467 57.5165C75.3751 57.4783 75.41 57.4444 75.4515 57.415C75.6612 57.2676 75.9496 57.3189 76.0971 57.5274C76.8562 58.6048 77.7355 59.6069 78.7131 60.5075C83.564 64.981 90.1735 66.3826 96.1265 64.8118C99.4373 63.9385 102.546 62.1449 105.034 59.4475C105.471 58.9749 105.881 58.4836 106.262 57.976C108.828 54.5604 110.13 50.4013 109.956 46.0763C109.756 41.1083 107.632 36.5148 103.975 33.1428C96.4214 26.1804 84.617 26.6585 77.6536 34.2027C77.2243 34.6678 76.8202 35.1535 76.4422 35.6557C74.8049 37.8346 73.6634 40.3475 73.1085 43.0176C73.0943 43.0863 73.0648 43.1486 73.0255 43.201C72.9207 43.3396 72.7415 43.4138 72.5602 43.3767C72.309 43.3243 72.1484 43.0798 72.2008 42.8287C72.7841 40.0254 73.9824 37.387 75.7006 35.1C76.0971 34.5717 76.5209 34.063 76.972 33.575C84.2838 25.6543 96.6814 25.1576 104.605 32.4627C108.444 36.0017 110.674 40.8245 110.885 46.0403C111.068 50.5814 109.701 54.9468 107.007 58.5328C106.606 59.0655 106.177 59.5818 105.719 60.0774C102.177 63.9145 97.3521 66.1436 92.1331 66.3531C87.588 66.5365 83.2188 65.1687 79.6306 62.4757L79.6285 62.4746Z" fill="white"/>
<g opacity="0.3">
<path d="M1.48357 25.5581C1.23562 25.3726 1.12857 25.0396 1.24327 24.7351C1.45626 24.1663 1.69002 23.5954 1.93797 23.0398C2.09853 22.6785 2.52125 22.5158 2.8839 22.6763C3.24654 22.8356 3.4082 23.2603 3.24763 23.6216C3.01169 24.151 2.78887 24.6947 2.5857 25.2372C2.44698 25.6073 2.03409 25.7939 1.6638 25.6564C1.59826 25.6313 1.53819 25.5985 1.48466 25.5581H1.48357Z" fill="#61BEFF"/>
<path d="M3.88353 20.6011C3.59298 20.3828 3.50997 19.9767 3.70112 19.6601C4.24181 18.7639 4.83383 17.8852 5.46299 17.0501C5.59516 16.8743 5.72951 16.6986 5.86714 16.525C6.11182 16.2139 6.56949 16.1844 6.87315 16.4038C7.18445 16.6484 7.23907 17.0981 6.99439 17.4081C6.86332 17.5751 6.73443 17.7422 6.60772 17.9103C6.00805 18.7082 5.44333 19.5455 4.92777 20.4003C4.72351 20.7387 4.28331 20.8478 3.9447 20.6437C3.92395 20.6306 3.90319 20.6164 3.88353 20.6022V20.6011ZM8.47446 14.7544C8.44715 14.7337 8.42094 14.7118 8.3969 14.6867C8.11728 14.4062 8.11837 13.9531 8.39909 13.6737C9.29805 12.7786 10.2604 11.9304 11.2587 11.1553C11.5711 10.913 12.0222 10.9708 12.2636 11.2809C12.5061 11.5931 12.4504 12.0428 12.138 12.2851C11.1855 13.0253 10.2669 13.8342 9.41056 14.6878C9.15496 14.9422 8.75627 14.964 8.47555 14.7533L8.47446 14.7544ZM14.3466 10.1947C14.2735 10.1401 14.2112 10.0703 14.161 9.98838C13.9589 9.64889 14.0714 9.20896 14.4111 9.00701C15.5001 8.36077 16.6427 7.77457 17.8049 7.26697C18.1675 7.10869 18.5891 7.27352 18.7475 7.63594C18.9059 7.99836 18.7399 8.41972 18.3783 8.57801C17.2696 9.06269 16.1806 9.6205 15.1418 10.2373C14.8851 10.3901 14.5706 10.3628 14.3456 10.1936L14.3466 10.1947ZM21.1604 7.21785C21.0413 7.12833 20.9507 7.0028 20.9048 6.84997C20.7923 6.47118 21.0086 6.07165 21.3876 5.9603C22.6044 5.59897 23.854 5.31079 25.1036 5.10338C25.4935 5.03897 25.8627 5.30314 25.9272 5.69176C25.9927 6.08147 25.7284 6.45044 25.3384 6.51594C24.1489 6.71352 22.9561 6.98861 21.795 7.33356C21.5689 7.40015 21.3363 7.35102 21.1604 7.21894V7.21785ZM28.4952 5.99414C28.3291 5.8697 28.2188 5.67539 28.209 5.45161C28.1926 5.05644 28.4985 4.72349 28.8939 4.70603C30.1609 4.65254 31.4422 4.67546 32.7038 4.77698C33.0992 4.80755 33.3919 5.15359 33.3614 5.54767C33.3297 5.94174 32.9845 6.23539 32.5902 6.20373C31.3865 6.10767 30.1631 6.08475 28.955 6.13714C28.7824 6.14478 28.623 6.0902 28.4952 5.99414ZM35.9042 6.58689C35.6901 6.42642 35.5754 6.15024 35.6322 5.8697C35.712 5.48326 36.091 5.23328 36.4777 5.31297C37.7196 5.56841 38.9572 5.90354 40.1554 6.30962C40.5301 6.43843 40.73 6.84342 40.6033 7.21785C40.4766 7.59227 40.0692 7.79313 39.6956 7.66541C38.553 7.27789 37.3734 6.95804 36.1893 6.71461C36.0823 6.69278 35.9861 6.64802 35.9042 6.5858V6.58689ZM42.9419 8.97099C42.6732 8.76904 42.576 8.40007 42.7278 8.08787C42.9004 7.732 43.3286 7.58354 43.6847 7.75492C44.8217 8.3051 45.9392 8.93388 47.0063 9.62378C47.3351 9.84429 47.4334 10.282 47.2182 10.6139C47.0031 10.9457 46.5596 11.0407 46.2275 10.8257C45.2095 10.1663 44.1445 9.56701 43.0599 9.04195C43.0173 9.0212 42.9779 8.99719 42.9419 8.9699V8.97099ZM51.8867 15.572C51.854 15.5469 51.8223 15.5185 51.7928 15.488C51.0806 14.7249 50.3138 13.9881 49.5142 13.2971C49.3941 13.1912 49.2739 13.0897 49.1538 12.9892C48.8501 12.7349 48.8097 12.2841 49.0631 11.9806C49.3165 11.676 49.7775 11.6291 50.0724 11.89C50.2002 11.9981 50.328 12.105 50.4547 12.2164C51.2903 12.939 52.0943 13.7119 52.8414 14.5121C53.1112 14.8013 53.0959 15.2533 52.8064 15.5229C52.5487 15.7631 52.1609 15.7772 51.8889 15.572H51.8867Z" fill="#61BEFF"/>
</g>
<g opacity="0.3">
<path d="M11.975 60.5599C11.6626 60.3252 11.596 59.882 11.8275 59.5654C12.0602 59.2467 12.5091 59.1768 12.8281 59.4104C13.7893 60.1123 14.8019 60.7618 15.8374 61.3415C16.1782 61.5369 16.306 61.9703 16.1126 62.3152C15.9193 62.6602 15.4824 62.7835 15.1383 62.5903C14.0525 61.9823 12.9908 61.3022 11.9837 60.5664L11.9761 60.561L11.975 60.5599ZM9.1525 58.2249C9.13174 58.2096 9.11208 58.1932 9.09242 58.1747C8.18144 57.3243 7.31197 56.4106 6.51023 55.4576C6.25572 55.1553 6.29395 54.7033 6.59761 54.449C6.90018 54.1936 7.35239 54.235 7.60689 54.5352C8.3726 55.4445 9.20165 56.3168 10.0711 57.1289C10.3606 57.3986 10.3759 57.8516 10.1061 58.1398C9.85375 58.4105 9.44196 58.441 9.15359 58.2249H9.1525ZM18.3573 64.1262C18.1039 63.9352 17.999 63.5913 18.1246 63.2835C18.2732 62.9178 18.6915 62.742 19.0574 62.8916C20.1607 63.3402 21.301 63.7267 22.4458 64.0378C22.8281 64.1437 23.052 64.5356 22.9482 64.9165C22.8444 65.2975 22.4501 65.5224 22.0689 65.4187C20.8685 65.0923 19.6735 64.6873 18.5168 64.2157C18.4578 64.1917 18.4043 64.1611 18.3562 64.1251L18.3573 64.1262ZM4.44469 52.6271C4.37916 52.578 4.32126 52.5168 4.2743 52.4448C3.59379 51.4001 2.97118 50.3019 2.42394 49.183C2.25027 48.8282 2.39773 48.3992 2.75273 48.2257C3.10772 48.0532 3.5359 48.2006 3.71067 48.5542C4.23279 49.6218 4.82591 50.6676 5.47473 51.6643C5.68991 51.995 5.59598 52.4393 5.26501 52.6544C5.00613 52.8225 4.67845 52.8017 4.44469 52.6271ZM25.4124 66.0453C25.2093 65.8935 25.0946 65.6381 25.1328 65.3696C25.1896 64.9777 25.5533 64.707 25.9444 64.7637C27.1208 64.9351 28.319 65.0355 29.5075 65.0628C29.904 65.0716 30.2164 65.4001 30.2065 65.7953C30.1978 66.1905 29.869 66.5038 29.4736 66.4939C28.2273 66.4645 26.9701 66.3597 25.7368 66.1806C25.6134 66.1632 25.5031 66.114 25.4103 66.0453H25.4124ZM32.7232 66.2167C32.5681 66.0999 32.461 65.9219 32.4403 65.7134C32.402 65.3204 32.6893 64.97 33.0836 64.9307C34.2699 64.815 35.4583 64.6262 36.6172 64.3696C37.0039 64.2845 37.3862 64.5279 37.4714 64.9133C37.5566 65.2997 37.313 65.6807 36.9274 65.7658C35.7128 66.0344 34.4665 66.233 33.2235 66.3542C33.0378 66.3728 32.8619 66.3182 32.7243 66.2145L32.7232 66.2167ZM39.8646 64.6327C39.7554 64.5508 39.668 64.4373 39.6199 64.2987C39.4878 63.9264 39.6844 63.5171 40.0569 63.385C41.1797 62.9898 42.2884 62.5204 43.3523 61.9932C43.7062 61.8185 44.1366 61.9615 44.3125 62.3163C44.4883 62.67 44.3441 63.1001 43.9902 63.2758C42.8761 63.8293 41.7128 64.3205 40.5342 64.7364C40.2994 64.8194 40.0503 64.7724 39.8657 64.6327H39.8646Z" fill="#61BEFF"/>
<path d="M1.22022 46.0271C1.1099 45.9442 1.02252 45.8285 0.973364 45.6887C0.773474 45.1091 0.589968 44.5218 0.428308 43.9421C0.322355 43.5612 0.544092 43.166 0.925303 43.0601C1.30542 42.9553 1.70083 43.1758 1.80788 43.5568C1.96299 44.1103 2.13775 44.6703 2.32781 45.2237C2.4567 45.597 2.25791 46.0053 1.88434 46.133C1.65059 46.2127 1.40373 46.1658 1.22022 46.0282V46.0271Z" fill="#61BEFF"/>
</g>
<path d="M7.2519 38.9906C7.25845 39.1445 7.36222 39.2788 7.50968 39.3235L11.7369 40.592C12.2874 42.5765 13.1579 44.4891 14.3486 46.2433L12.5779 50.2812C12.5157 50.4231 12.5506 50.5879 12.6642 50.6927L16.555 54.2809C16.6686 54.3857 16.8368 54.4064 16.9723 54.3333L20.8565 52.245C22.7024 53.2897 24.6795 54.0036 26.7035 54.3922L28.3092 58.5011C28.366 58.6452 28.5069 58.738 28.662 58.7314L33.952 58.5186C34.1071 58.512 34.2404 58.4083 34.2852 58.2609L35.5544 54.0364C37.5413 53.4862 39.4539 52.6151 41.2092 51.4263L45.2496 53.1958C45.3916 53.258 45.5566 53.2231 45.6614 53.1096L49.2518 49.2212C49.3567 49.1077 49.3785 48.9396 49.3043 48.8042L47.2147 44.9224C48.26 43.0776 48.9744 41.1018 49.3632 39.079L53.4746 37.4743C53.6188 37.4175 53.7117 37.2767 53.7051 37.1217L53.4921 31.835C53.4856 31.68 53.3818 31.5468 53.2343 31.5021L49.0071 30.2336C48.4566 28.2479 47.5861 26.3365 46.3955 24.5823L48.1661 20.5444C48.2283 20.4025 48.1934 20.2376 48.0798 20.1328L44.189 16.5447C44.0754 16.4399 43.9072 16.4191 43.7718 16.4923L39.8876 18.5805C38.0416 17.5359 36.0645 16.8219 34.0405 16.4333L32.4348 12.3245C32.378 12.1804 32.2371 12.0876 32.082 12.0941L26.792 12.307C26.638 12.3136 26.5036 12.4173 26.4589 12.5646L25.1896 16.7892C23.2027 17.3394 21.2901 18.2105 19.5348 19.3993L15.4944 17.6297C15.3524 17.5675 15.1874 17.6025 15.0826 17.716L11.4922 21.6043C11.3873 21.7179 11.3666 21.886 11.4398 22.0213L13.5293 25.9031C12.484 27.748 11.7696 29.7238 11.3808 31.7466L7.26937 33.3513C7.12519 33.408 7.03235 33.5488 7.0389 33.7039L7.2519 38.9906Z" fill="#53A3DA"/>
<path d="M27.109 39.735C26.1849 39.0419 25.5109 38.0747 25.1767 36.947C24.766 35.5607 24.9211 34.0968 25.6125 32.8262C27.038 30.2041 30.3334 29.2304 32.9582 30.6549C35.5841 32.0871 36.5573 35.3751 35.1308 37.9972C34.4394 39.2678 33.2946 40.1935 31.9074 40.6029C30.5202 41.0133 29.0554 40.8583 27.784 40.1673C27.547 40.0385 27.3209 39.8933 27.1079 39.7339L27.109 39.735ZM32.7671 32.2291C32.613 32.1133 32.4492 32.0075 32.2744 31.9125C30.3432 30.8645 27.9194 31.5806 26.8708 33.5106C26.3629 34.445 26.2482 35.5214 26.5508 36.541C26.8534 37.5616 27.5349 38.4022 28.4689 38.9109C29.4039 39.4185 30.482 39.532 31.5022 39.2307C32.5235 38.9283 33.3656 38.2482 33.8735 37.3127C34.8282 35.5585 34.3203 33.3938 32.7671 32.228V32.2291Z" fill="white"/>
<path d="M22.3901 46.1865C22.0275 45.9147 21.6768 45.6222 21.336 45.3089C20.661 44.6867 20.0482 43.9957 19.5141 43.2512C19.4901 43.2173 19.4671 43.1835 19.4431 43.1508C19.2596 42.8909 19.2738 42.5514 19.4551 42.3091C19.4988 42.2502 19.5534 42.1978 19.6168 42.153C19.9401 41.9249 20.3857 42.0045 20.614 42.3266C21.1056 43.0252 21.6757 43.6747 22.3071 44.2555C22.342 44.2882 22.377 44.3199 22.412 44.3504C23.9182 45.7128 25.7074 46.6483 27.6309 47.1133C28.6752 47.3655 29.7598 47.479 30.8609 47.4441C30.8696 47.4441 30.8783 47.4441 30.8882 47.4441C30.9155 47.443 30.9428 47.4419 30.9701 47.4408C34.188 47.3109 37.1634 45.9366 39.348 43.571C39.6309 43.2654 39.8953 42.9466 40.1421 42.618C41.8035 40.4064 42.6457 37.7145 42.5332 34.9134C42.4032 31.6975 41.028 28.7239 38.661 26.5417C36.294 24.3618 33.217 23.2287 29.9991 23.3575C26.7811 23.4874 23.8057 24.8617 21.6211 27.2273C21.3426 27.5286 21.0815 27.8419 20.8369 28.1672C19.7773 29.5775 19.0378 31.2041 18.6785 32.9332C18.6566 33.0402 18.6119 33.1351 18.5496 33.217C18.3879 33.4321 18.1116 33.5467 17.8309 33.4877C17.4442 33.4059 17.1951 33.0282 17.276 32.6406C17.6779 30.7063 18.5048 28.8865 19.6899 27.3092C19.9641 26.9446 20.2558 26.5931 20.5671 26.2568C23.0105 23.6097 26.3399 22.0727 29.9401 21.9275C33.5403 21.7823 36.9821 23.0442 39.6309 25.4894C42.2798 27.9314 43.8188 31.2575 43.963 34.8566C44.0897 37.9896 43.147 41.0014 41.2879 43.475C41.0116 43.8417 40.7156 44.1987 40.3999 44.5404C35.6692 49.6644 27.8527 50.2867 22.3901 46.1855V46.1865Z" fill="white"/>
<path d="M285.836 25.5636C285.002 24.8213 283.886 23.7177 283.216 24.3792C272.403 35.0825 246.587 66.6959 254.728 118.376C264.941 183.218 251.368 208.036 234.04 223.78C237.991 223.813 245.458 223.483 253.664 220.214C317.249 194.88 303.687 41.4489 285.835 25.5636H285.836Z" fill="#61BEFF"/>
<g style="mix-blend-mode:soft-light">
<path d="M277.975 46.5566C276.795 53.9305 275.766 61.3153 275.02 68.7154C274.233 76.1111 273.681 83.5177 273.369 90.92C273.088 98.3212 272.951 105.721 273.142 113.102C273.3 120.484 273.788 127.839 274.306 135.22C274.78 142.602 275.301 150.033 275.026 157.571C274.76 165.093 273.552 172.744 270.927 180.016C270.271 181.828 269.578 183.638 268.783 185.394C268.02 187.165 267.177 188.906 266.302 190.634C264.535 194.084 262.531 197.435 260.28 200.641C255.765 207.042 250.263 212.82 244.163 217.807C243.52 218.332 242.578 218.276 242.055 217.683C241.543 217.102 241.628 216.216 242.24 215.688L242.244 215.685C243.694 214.432 245.128 213.167 246.5 211.848C247.197 211.197 247.863 210.52 248.543 209.855C249.196 209.168 249.876 208.502 250.507 207.797C253.078 205.013 255.449 202.068 257.589 198.98C261.895 192.827 265.289 186.065 267.809 179.122C269.029 175.637 269.981 172.083 270.649 168.483C271.313 164.882 271.691 161.239 271.853 157.581C272.178 150.261 271.726 142.899 271.307 135.512C270.899 128.122 270.541 120.693 270.505 113.247C270.477 109.526 270.517 105.8 270.629 102.075C270.673 100.213 270.754 98.3507 270.833 96.4884C270.93 94.6261 271.037 92.7638 271.162 90.9025C271.671 83.4566 272.416 76.0194 273.404 68.6051C274.43 61.1941 275.66 53.8027 277.183 46.4572C277.226 46.2476 277.438 46.1035 277.656 46.1363C277.866 46.168 278.006 46.3557 277.973 46.5588L277.975 46.5566Z" fill="white"/>
</g>
<path d="M232.302 186.384C230.94 188.088 228.196 187.341 227.875 185.184C224.335 161.435 211.986 66.817 229.413 4.2617C230.657 -0.205207 236.372 -1.50314 239.39 2.01842C258.464 24.2766 305.445 94.8662 232.302 186.383V186.384Z" fill="#53A3DA"/>
<g style="mix-blend-mode:soft-light">
<path d="M238.447 33.408C239.334 36.4449 240.008 39.5342 240.625 42.6322C241.229 45.7335 241.762 48.849 242.207 51.9786C243.112 58.2347 243.725 64.5312 244.136 70.8397C244.542 77.1492 244.727 83.473 244.73 89.7978C244.733 96.1227 244.504 102.446 244.147 108.763L243.842 113.498L243.453 118.227L243.256 120.591L243.014 122.951L242.527 127.673C241.772 133.955 240.964 140.235 239.909 146.476C237.868 158.969 235.245 171.37 232.091 183.637C231.914 184.325 231.213 184.739 230.524 184.562C229.836 184.386 229.42 183.685 229.597 182.996L229.603 182.975C232.934 170.832 235.743 158.543 237.973 146.144C239.123 139.95 240.029 133.716 240.881 127.474L241.441 122.782L241.72 120.436L241.955 118.086L242.418 113.383L242.798 108.673C243.254 102.389 243.585 96.0921 243.684 89.7891C243.782 83.4872 243.7 77.1798 243.395 70.8822C243.086 64.5847 242.577 58.2937 241.774 52.0376C241.381 48.9079 240.899 45.7902 240.346 42.6857C239.78 39.5844 239.156 36.4864 238.322 33.4473V33.4451C238.311 33.4102 238.331 33.3741 238.366 33.3643C238.401 33.3545 238.437 33.3752 238.447 33.4091V33.408Z" fill="white"/>
</g>
<path d="M23.6067 59.4431C17.7847 59.9496 13.3216 64.8215 13.3052 70.6617C13.2036 106.375 13.0365 229.561 15.3664 273.163C15.6132 277.781 19.4024 281.411 24.0305 281.46C46.9217 281.707 112.77 282.159 150.152 279.769C157.937 279.271 163.996 272.827 163.987 265.03C163.941 227.547 163.342 122.133 158.204 73.9485C157.588 68.175 152.945 63.6687 147.153 63.2179C122.186 61.2737 55.8862 56.6376 23.6067 59.4431Z" fill="black"/>
<path d="M22.7014 79.5326C22.2514 110.083 20.9723 211.709 23.206 249.218C23.5326 254.701 27.7937 259.029 33.0553 259.212C54.7188 259.967 110.272 261.427 141.928 257.946C147.627 257.319 151.985 252.382 152.136 246.403C152.928 215.228 155.067 120.573 152.896 83.4843C152.549 77.5677 148.026 72.8465 142.356 72.4644C118.899 70.8848 58.6653 67.2421 31.7467 69.4821C26.6937 69.9024 22.7789 74.2437 22.7014 79.5326Z" fill="#76C7FF"/>
<path d="M74.8364 64.7549C74.8549 65.5988 75.5289 66.281 76.3732 66.3061C80.5414 66.4328 92.2847 66.7919 97.5332 66.9808C98.5676 67.0179 99.3584 66.0714 99.1411 65.0606C99.1236 65.0289 98.9881 63.7321 97.6632 63.6393C94.1132 63.3926 83.4011 62.7278 76.323 63.1361C74.8691 63.2201 74.7905 64.8717 74.8375 64.7549H74.8364Z" fill="#53A3DA"/>
<path d="M134.725 48.0662C128.358 48.6197 123.475 53.949 123.458 60.336C123.346 99.3975 123.164 234.13 125.711 281.818C125.981 286.87 130.125 290.839 135.188 290.894C160.226 291.164 232.245 291.658 273.131 289.045C281.647 288.5 288.274 281.451 288.264 272.924C288.215 231.928 287.558 116.632 281.939 63.9318C281.266 57.6179 276.187 52.6892 269.852 52.1958C242.545 50.0693 170.03 44.9988 134.725 48.0673V48.0662Z" fill="black"/>
<path d="M133.508 70.5732C133.017 103.987 131.616 215.14 134.061 256.164C134.418 262.16 139.079 266.895 144.833 267.094C168.527 267.92 229.288 269.517 263.911 265.709C270.146 265.024 274.91 259.623 275.077 253.083C275.943 218.986 278.282 115.46 275.907 74.8939C275.528 68.4227 270.581 63.2583 264.38 62.8413C238.724 61.1133 172.844 57.1299 143.402 59.5795C137.875 60.0391 133.594 64.7876 133.509 70.5732H133.508Z" fill="#53A3DA"/>
<path d="M137.641 75.4768C137.203 107.245 135.965 212.927 138.259 251.933C138.594 257.634 142.928 262.137 148.276 262.332C170.297 263.13 226.766 264.682 258.941 261.082C264.735 260.433 269.16 255.302 269.31 249.084C270.096 216.664 272.211 118.234 269.982 79.6642C269.626 73.5108 265.025 68.5985 259.262 68.1979C235.418 66.5408 174.19 62.7157 146.829 65.0289C141.693 65.4633 137.717 69.975 137.64 75.4757L137.641 75.4768Z" fill="#76C7FF"/>
<path d="M190.757 53.8758C190.777 54.7993 191.514 55.5449 192.437 55.5722C196.996 55.7108 209.839 56.1038 215.58 56.3101C216.712 56.3505 217.577 55.3157 217.338 54.2098C217.318 54.1749 217.171 52.7558 215.721 52.6554C211.838 52.3857 200.122 51.6576 192.381 52.1041C190.792 52.1958 190.704 54.0024 190.757 53.8747V53.8758Z" fill="#53A3DA"/>
<path d="M108.85 118.206H45.7487C45.0248 118.206 44.438 118.793 44.438 119.516V143.169C44.438 143.893 45.0248 144.479 45.7487 144.479H108.85C109.574 144.479 110.16 143.893 110.16 143.169V119.516C110.16 118.793 109.574 118.206 108.85 118.206Z" fill="#DF602F"/>
<path d="M62.3638 127.358C62.2709 127.507 62.1726 127.619 62.071 127.693C61.9684 127.768 61.8362 127.805 61.6756 127.805C61.5325 127.805 61.3796 127.76 61.2147 127.669C61.0497 127.58 60.864 127.478 60.6565 127.367C60.4479 127.256 60.2109 127.154 59.9443 127.065C59.6778 126.975 59.3731 126.929 59.0323 126.929C58.4424 126.929 58.0033 127.055 57.715 127.306C57.4266 127.557 57.2824 127.896 57.2824 128.324C57.2824 128.597 57.3698 128.823 57.5435 129.003C57.7171 129.183 57.9454 129.338 58.2272 129.468C58.5091 129.598 58.8324 129.718 59.195 129.826C59.5577 129.936 59.9279 130.056 60.307 130.189C60.686 130.322 61.0563 130.479 61.4189 130.658C61.7816 130.838 62.1049 131.068 62.3878 131.347C62.6696 131.626 62.8979 131.966 63.0716 132.366C63.2453 132.765 63.3326 133.248 63.3326 133.812C63.3326 134.438 63.2234 135.025 63.0071 135.571C62.7898 136.116 62.4752 136.592 62.0623 136.998C61.6494 137.404 61.1404 137.724 60.5353 137.957C59.9301 138.189 59.2431 138.306 58.4741 138.306C58.0514 138.306 57.6221 138.262 57.1852 138.176C56.7472 138.09 56.3245 137.967 55.9148 137.808C55.5052 137.65 55.1207 137.462 54.7603 137.245C54.3998 137.028 54.0863 136.787 53.8198 136.519L54.7505 135.05C54.8193 134.938 54.9154 134.848 55.0388 134.78C55.1634 134.712 55.2966 134.678 55.4386 134.678C55.6243 134.678 55.8122 134.737 56.0022 134.854C56.1912 134.972 56.4053 135.102 56.6445 135.245C56.8837 135.388 57.1579 135.518 57.4681 135.636C57.7783 135.754 58.1442 135.813 58.5659 135.813C59.1371 135.813 59.5806 135.687 59.8974 135.436C60.2141 135.185 60.3725 134.787 60.3725 134.241C60.3725 133.924 60.2851 133.668 60.1115 133.469C59.9378 133.27 59.7095 133.107 59.4277 132.976C59.1448 132.846 58.8236 132.731 58.4643 132.632C58.1038 132.533 57.7346 132.422 57.3556 132.301C56.9777 132.18 56.6074 132.031 56.248 131.855C55.8875 131.678 55.5664 131.445 55.2846 131.157C55.0028 130.869 54.7745 130.509 54.6008 130.077C54.4271 129.646 54.3398 129.115 54.3398 128.483C54.3398 127.974 54.4424 127.477 54.6467 126.994C54.851 126.51 55.1524 126.079 55.55 125.701C55.9476 125.322 56.4348 125.021 57.0115 124.794C57.5893 124.568 58.2502 124.455 58.9951 124.455C59.4113 124.455 59.8154 124.487 60.2098 124.552C60.6041 124.617 60.9776 124.713 61.3316 124.84C61.6855 124.968 62.0153 125.119 62.3223 125.296C62.6292 125.473 62.9045 125.673 63.1459 125.897L62.3638 127.357V127.358Z" fill="white"/>
<path d="M73.6273 124.605V127.024H68.061V130.188H72.3242V132.514H68.061V135.742H73.6273V138.161H64.8955V124.606H73.6273V124.605Z" fill="white"/>
<path d="M77.4156 124.624C77.5085 124.636 77.5926 124.66 77.6669 124.694C77.7422 124.727 77.8132 124.775 77.881 124.838C77.9487 124.9 78.0273 124.984 78.1136 125.089L84.5549 133.229C84.5298 132.968 84.5112 132.716 84.4992 132.47C84.4872 132.226 84.4806 131.994 84.4806 131.777V124.604H87.2551V138.159H85.6166C85.3752 138.159 85.1699 138.122 85.0027 138.047C84.8356 137.973 84.674 137.837 84.5189 137.638L78.1234 129.563C78.142 129.799 78.1573 130.031 78.1693 130.256C78.1813 130.482 78.1879 130.695 78.1879 130.894V138.16H75.4146V124.605H77.0716C77.2081 124.605 77.3228 124.612 77.4156 124.624Z" fill="white"/>
<path d="M101.796 131.378C101.796 132.358 101.626 133.262 101.288 134.089C100.949 134.917 100.473 135.634 99.8592 136.239C99.2442 136.843 98.5047 137.315 97.6385 137.652C96.7723 137.991 95.8122 138.16 94.757 138.16H89.4878V124.605H94.757C95.8122 124.605 96.7723 124.775 97.6385 125.117C98.5047 125.459 99.2442 125.929 99.8592 126.531C100.473 127.132 100.949 127.847 101.288 128.675C101.626 129.502 101.796 130.404 101.796 131.378ZM98.5746 131.378C98.5746 130.707 98.4883 130.103 98.3146 129.563C98.141 129.024 97.8908 128.567 97.5653 128.191C97.2398 127.816 96.8411 127.527 96.3693 127.325C95.8974 127.124 95.3611 127.023 94.7581 127.023H92.6544V135.74H94.7581C95.36 135.74 95.8963 135.639 96.3693 135.437C96.8411 135.236 97.2398 134.947 97.5653 134.573C97.8908 134.197 98.141 133.74 98.3146 133.201C98.4883 132.661 98.5746 132.053 98.5746 131.378Z" fill="white"/>
<path d="M207.699 92.8074C165.244 66.5987 129 66.8246 87.3009 86.8351C84.603 88.1298 82.8924 90.8632 82.9263 93.8543L82.9459 95.5877C83.006 100.884 88.2905 104.532 93.2681 102.713C129.326 89.5282 156.336 82.5603 200.035 106.113C204.844 108.706 210.748 105.571 211.312 100.138C211.615 97.2044 210.211 94.3575 207.699 92.8074Z" fill="#DF602F"/>
<path d="M200.21 72.5425L222.911 107.302C223.602 108.361 222.913 109.773 221.652 109.881L181.839 113.294C180.358 113.42 179.291 111.903 179.911 110.553C189.421 98.3266 194.984 85.7053 197.296 72.7565C197.845 71.5655 199.491 71.4433 200.208 72.5414L200.21 72.5425Z" fill="#DF602F"/>
<path d="M63.0878 236.455L53.528 238.843L55.9179 256.757C55.9179 256.757 52.333 260.339 51.1381 265.116C49.9431 269.893 48.841 289.95 48.841 289.95L46.5722 291.32L46.2959 292.464L52.8956 301.331L51.8011 294.272C51.6274 293.152 51.9278 290.88 51.8338 290.833C55.4188 281.279 63.0867 254.367 63.0867 254.367V236.454L63.0878 236.455Z" fill="url(#paint0_linear_525_2382)"/>
<path d="M65.8808 292.587C65.777 292.585 65.6755 292.594 65.5717 292.587C66.0337 286.828 68.1451 261.48 70.2577 251.98C72.6476 241.232 66.6727 219.737 66.6727 219.737L55.918 230.485L61.8928 250.786C57.7989 256.924 62.5602 292.868 62.4586 292.852L62.4652 292.932L60.9065 295.074L61.0966 296.235L70.6203 301.852L66.8726 295.77C66.2773 294.805 65.9496 293.71 65.8819 292.587H65.8808Z" fill="url(#paint1_linear_525_2382)"/>
<path d="M53.7849 172.069C53.7849 172.069 32.8455 195.653 53.7849 207.746L55.9181 206.203C55.9181 206.203 45.5228 196.255 55.9181 184.076L53.7849 172.069Z" fill="url(#paint2_linear_525_2382)"/>
<path d="M71.2464 302.733H68.2076C67.6385 302.733 67.1022 302.472 66.7548 302.021C65.8078 300.791 63.845 298.39 62.9056 298.328C61.6418 298.244 61.8035 302.733 61.8035 302.733H61.0956L60.1989 297.154C59.9728 295.751 60.6718 294.36 61.9323 293.703C61.9323 293.703 62.2207 295.838 63.7871 296.782C65.3534 297.726 70.1606 301.108 70.1606 301.108C70.1606 301.108 70.7494 301.024 71.396 301.141C72.3551 301.314 72.2207 302.734 71.2464 302.734V302.733Z" fill="black"/>
<path d="M53.1326 302.386L50.3309 301.209C49.8066 300.988 49.4133 300.539 49.2681 299.99C48.8716 298.489 47.9944 295.516 47.1534 295.094C46.0218 294.527 44.4281 298.727 44.4281 298.727L43.7749 298.453L45.113 292.964C45.4494 291.583 46.6324 290.572 48.0502 290.454C48.0502 290.454 47.4887 292.534 48.5657 294.01C49.6427 295.487 52.7623 300.467 52.7623 300.467C52.7623 300.467 53.338 300.618 53.8885 300.976C54.7055 301.508 54.0305 302.763 53.1326 302.386Z" fill="black"/>
<path d="M69.411 201.563C69.411 201.563 69.0593 203.716 69.5749 209.634C70.0894 215.551 72.5514 229.446 72.05 242.738C72.05 242.738 65.0528 244.368 52.8966 243.596C52.8966 243.596 47.7661 222.841 49.0167 214.951C50.2663 207.061 57.0462 201.401 57.0462 201.401L69.4121 201.563H69.411Z" fill="black"/>
<path d="M64.2414 162.019L65.0967 172.069H56.9722L58.9918 156.729L64.2414 162.019Z" fill="url(#paint3_linear_525_2382)"/>
<path d="M54.5647 170.679C57.3686 170.524 63.6384 170.238 68.0797 170.481C70.4183 170.608 73.2757 171.256 73.7542 173.547L73.9388 179.764C74.3418 181.696 74.2818 183.697 73.7629 185.601L69.4123 201.562C69.4123 201.562 65.5423 203.886 57.0464 201.4C57.0464 201.4 49.5849 183.618 52.639 172.245C52.876 171.361 53.6515 170.729 54.5647 170.679Z" fill="#4292CA"/>
<path d="M71.8698 171.143C72.3045 171.045 72.748 170.972 73.1805 170.9C78.1188 170.078 82.6748 168.249 87.4896 167.076C88.0904 166.93 90.6628 166.768 90.9457 166.139C93.2723 160.957 93.1237 154.791 93.9484 149.252L93.9528 149.225C94.0533 148.55 94.6813 148.085 95.3564 148.184C95.802 148.251 96.1559 148.548 96.3176 148.935C98.0139 153.017 99.0265 157.479 99.0658 161.906C99.1019 165.913 98.4661 169.989 94.9981 172.513C91.5027 175.058 85.4678 178.458 81.423 179.385C78.5503 180.043 70.9555 183.124 68.9337 179.551C68.488 178.764 68.3799 177.835 68.3329 176.932C68.275 175.82 68.3034 174.676 68.6999 173.634C69.2581 172.168 70.4061 171.474 71.872 171.142L71.8698 171.143Z" fill="url(#paint4_linear_525_2382)"/>
<path d="M95.1089 150.816L92.3257 148.328L93.0084 140.498C93.0084 140.498 94.4578 140.351 93.963 143.568C93.963 143.568 95.5316 142.897 96.7407 143.957C97.9499 145.017 97.2509 151.633 95.1099 150.816H95.1089Z" fill="url(#paint5_linear_525_2382)"/>
<path d="M65.8483 149.683C66.1706 149.78 70.3071 157.063 69.2486 160.8C68.1913 164.537 61.6102 162.25 58.909 157.881C56.2077 153.512 57.2585 147.094 65.8483 149.683Z" fill="url(#paint6_linear_525_2382)"/>
<path d="M51.0465 159.019C51.656 165.546 46.9853 165.124 44.8673 168.753C41.4364 174.632 33.218 172.132 27.8504 178.345C23.975 182.83 24.0187 191.289 28.2196 196.856C34.0383 204.567 46.011 204.837 50.8531 200.485C55.4812 196.326 52.4195 188.993 58.7898 183.873C61.4943 181.698 63.2605 182.044 64.5473 179.646C66.8007 175.447 64.0339 169.462 62.9678 167.157C60.6554 162.154 58.6161 161.739 58.757 159.19C59.0322 154.232 66.9099 152.851 66.5866 149.507C66.2927 146.462 59.1349 142.689 54.2119 145.117C46.5954 148.872 50.7723 156.113 51.0443 159.022L51.0465 159.019Z" fill="black"/>
<path d="M28.1518 193.161C28.0546 193.184 27.953 193.139 27.906 193.047C25.8448 188.958 25.4844 185.293 26.8366 182.153C29.0802 176.943 35.362 175.006 35.4254 174.988C35.5215 174.947 35.6635 175.018 35.6985 175.135C35.7334 175.251 35.6679 175.373 35.551 175.408C35.4898 175.427 29.3981 177.306 27.2386 182.33C25.9421 185.344 26.2981 188.884 28.2981 192.85C28.3528 192.958 28.3091 193.09 28.2009 193.145C28.1856 193.152 28.1682 193.159 28.1518 193.162V193.161Z" fill="#61BEFF"/>
<path d="M49.9958 191.498C49.9871 191.5 49.9772 191.501 49.9674 191.501C49.9073 191.499 49.8593 191.448 49.8604 191.388C49.963 187.249 51.1121 184.121 53.276 182.092C54.85 180.616 56.5332 180.118 58.0166 179.68C59.4475 179.256 60.6829 178.89 61.4813 177.758C63.1307 175.418 61.9652 170.993 58.0166 164.607C57.9849 164.555 58.0013 164.488 58.0526 164.456C58.105 164.424 58.1717 164.441 58.2033 164.492C62.2022 170.96 63.3644 175.466 61.6605 177.885C60.8183 179.08 59.549 179.456 58.0788 179.89C56.6184 180.323 54.9625 180.812 53.4256 182.253C51.3055 184.239 50.1793 187.316 50.0788 191.395C50.0777 191.446 50.0417 191.488 49.9936 191.499L49.9958 191.498Z" fill="#61BEFF"/>
<path d="M53.9234 155.935C53.9125 155.937 53.9004 155.938 53.8884 155.937C53.8283 155.931 53.7836 155.878 53.789 155.817C54.0337 153.223 56.4477 153.034 59.0058 152.835C60.6246 152.709 62.298 152.577 63.5738 151.851C64.5252 151.308 65.0222 150.697 65.0517 150.032C65.103 148.901 63.7748 147.964 63.7617 147.955C63.7115 147.92 63.6994 147.852 63.7344 147.802C63.7683 147.752 63.8371 147.74 63.8873 147.775C63.9463 147.815 65.327 148.789 65.2723 150.042C65.2396 150.787 64.7054 151.459 63.6842 152.042C62.3657 152.793 60.6672 152.926 59.0244 153.054C56.4564 153.255 54.2369 153.427 54.0097 155.839C54.0053 155.887 53.9703 155.925 53.9256 155.935H53.9234Z" fill="#61BEFF"/>
<path d="M167.772 177.118C173.277 171.616 173.277 162.695 167.772 157.193C162.266 151.69 153.339 151.69 147.834 157.193C142.328 162.695 142.328 171.616 147.834 177.118C153.339 182.621 162.266 182.621 167.772 177.118Z" fill="#DF602F"/>
<path opacity="0.7" d="M146.563 162.026C146.483 162.026 146.402 162.007 146.325 161.969C146.064 161.838 145.959 161.519 146.091 161.259C148.336 156.813 152.823 154.053 157.802 154.053C158.597 154.053 159.392 154.125 160.167 154.266C160.454 154.318 160.645 154.593 160.593 154.881C160.54 155.168 160.266 155.358 159.977 155.307C159.266 155.177 158.534 155.112 157.802 155.112C153.225 155.112 149.1 157.65 147.036 161.737C146.943 161.921 146.757 162.027 146.563 162.027V162.026Z" fill="white"/>
<path opacity="0.78" d="M166.257 175.604C170.762 171.102 170.762 163.803 166.257 159.301C161.752 154.798 154.448 154.798 149.943 159.301C145.438 163.803 145.438 171.102 149.943 175.604C154.448 180.107 161.752 180.107 166.257 175.604Z" fill="white"/>
<path d="M156.967 176.022V174.767C155.659 174.715 154.366 174.406 153.446 174.004C153.118 173.861 152.95 173.492 153.045 173.147L153.364 171.979C153.481 171.55 153.947 171.329 154.357 171.501C155.269 171.883 156.394 172.186 157.609 172.186C158.823 172.186 159.808 171.759 159.808 170.883C159.808 170.094 159.082 169.625 157.331 169.154C154.832 168.471 153.038 167.383 153.038 165.184C153.038 163.199 154.491 161.683 157.011 161.278V160.024C157.011 159.62 157.339 159.294 157.742 159.294H158.479C158.883 159.294 159.21 159.621 159.21 160.024V161.15C160.42 161.199 161.302 161.406 162.001 161.652C162.359 161.777 162.554 162.164 162.455 162.529L162.162 163.61C162.049 164.027 161.604 164.255 161.2 164.102C160.557 163.859 159.646 163.606 158.463 163.606C156.967 163.606 156.54 164.224 156.54 164.779C156.54 165.462 157.437 165.932 159.381 166.529C162.158 167.362 163.311 168.513 163.311 170.584C163.311 172.484 161.902 174.192 159.168 174.619V176.023C159.168 176.427 158.841 176.753 158.438 176.753H157.7C157.296 176.753 156.97 176.426 156.97 176.023L156.967 176.022Z" fill="#DF602F"/>
<path d="M236.399 223.613C246.261 213.756 246.261 197.776 236.399 187.92C226.537 178.064 210.547 178.064 200.684 187.92C190.822 197.776 190.822 213.756 200.684 223.613C210.547 233.469 226.537 233.469 236.399 223.613Z" fill="#DF602F"/>
<path opacity="0.7" d="M198.409 196.16C198.33 196.16 198.248 196.141 198.171 196.103C197.91 195.972 197.805 195.653 197.938 195.392C201.887 187.572 209.782 182.714 218.542 182.714C219.94 182.714 221.339 182.84 222.702 183.088C222.989 183.14 223.181 183.415 223.128 183.703C223.076 183.99 222.801 184.18 222.512 184.129C221.211 183.892 219.875 183.772 218.542 183.772C210.184 183.772 202.652 188.407 198.882 195.868C198.79 196.053 198.603 196.159 198.409 196.159V196.16Z" fill="white"/>
<path opacity="0.78" d="M233.684 220.9C241.754 212.836 241.754 199.761 233.684 191.696C225.615 183.632 212.532 183.632 204.463 191.696C196.393 199.761 196.393 212.836 204.462 220.9C212.532 228.964 225.615 228.964 233.684 220.9Z" fill="white"/>
<path d="M217.046 221.649V219.403C214.703 219.309 212.384 218.756 210.738 218.036C210.15 217.778 209.85 217.119 210.019 216.501L210.59 214.408C210.8 213.641 211.636 213.244 212.37 213.551C214.003 214.236 216.019 214.777 218.194 214.777C220.369 214.777 222.135 214.012 222.135 212.445C222.135 211.03 220.834 210.189 217.697 209.348C213.221 208.124 210.007 206.174 210.007 202.236C210.007 198.679 212.609 195.965 217.123 195.238V192.992C217.123 192.269 217.71 191.683 218.433 191.683H219.754C220.477 191.683 221.063 192.269 221.063 192.992V195.009C223.231 195.095 224.81 195.467 226.063 195.907C226.705 196.131 227.056 196.822 226.878 197.48L226.352 199.415C226.15 200.162 225.352 200.57 224.627 200.297C223.474 199.861 221.843 199.407 219.724 199.407C217.046 199.407 216.281 200.516 216.281 201.51C216.281 202.734 217.888 203.574 221.369 204.645C226.342 206.136 228.409 208.2 228.409 211.91C228.409 215.312 225.884 218.371 220.987 219.136V221.65C220.987 222.373 220.4 222.959 219.677 222.959H218.357C217.633 222.959 217.047 222.373 217.047 221.65L217.046 221.649Z" fill="#DF602F"/>
<path d="M185.52 215.114C192.745 207.893 192.745 196.185 185.52 188.964C178.294 181.743 166.579 181.743 159.353 188.964C152.128 196.185 152.128 207.893 159.353 215.114C166.579 222.335 178.294 222.335 185.52 215.114Z" fill="#DF602F"/>
<path opacity="0.7" d="M157.686 195.142C157.607 195.142 157.525 195.124 157.448 195.086C157.187 194.955 157.082 194.636 157.214 194.375C160.132 188.597 165.965 185.008 172.437 185.008C173.47 185.008 174.504 185.101 175.51 185.284C175.798 185.336 175.989 185.613 175.936 185.9C175.884 186.188 175.611 186.378 175.32 186.325C174.377 186.153 173.407 186.066 172.437 186.066C166.367 186.066 160.897 189.432 158.159 194.851C158.066 195.035 157.88 195.141 157.686 195.141V195.142Z" fill="white"/>
<path opacity="0.78" d="M175.593 217.299C183.814 215.773 189.24 207.877 187.714 199.661C186.187 191.446 178.286 186.022 170.065 187.548C161.844 189.074 156.418 196.97 157.944 205.186C159.471 213.402 167.373 218.825 175.593 217.299Z" fill="white"/>
<path d="M171.34 213.676V212.03C169.623 211.961 167.924 211.556 166.718 211.029C166.288 210.84 166.068 210.357 166.192 209.904L166.61 208.371C166.764 207.808 167.376 207.517 167.914 207.743C169.112 208.244 170.588 208.641 172.182 208.641C173.776 208.641 175.069 208.081 175.069 206.932C175.069 205.896 174.116 205.279 171.817 204.663C168.538 203.767 166.183 202.338 166.183 199.453C166.183 196.847 168.089 194.859 171.397 194.327V192.681C171.397 192.151 171.826 191.721 172.357 191.721H173.325C173.854 191.721 174.285 192.15 174.285 192.681V194.159C175.874 194.222 177.03 194.494 177.948 194.816C178.419 194.981 178.676 195.487 178.545 195.968L178.16 197.386C178.012 197.933 177.427 198.232 176.896 198.032C176.051 197.712 174.857 197.38 173.304 197.38C171.342 197.38 170.781 198.192 170.781 198.92C170.781 199.817 171.958 200.433 174.509 201.217C178.152 202.31 179.666 203.823 179.666 206.54C179.666 209.033 177.816 211.274 174.228 211.834V213.677C174.228 214.206 173.799 214.637 173.268 214.637H172.3C171.77 214.637 171.34 214.208 171.34 213.677V213.676Z" fill="#DF602F"/>
<path d="M257.564 293.461C257.564 293.461 258.926 295.384 259.525 300.929C259.58 301.446 259.193 301.908 258.673 301.935L248.811 302.435C248.415 302.454 248.111 302.08 248.219 301.698C248.711 299.959 250.247 295.704 254.024 293.124L257.563 293.461H257.564Z" fill="black"/>
<path d="M258.901 290.447L257.822 295.036C257.729 295.432 257.377 295.717 256.971 295.718C256.427 295.719 255.642 295.675 254.899 295.465C254.222 295.274 253.795 294.604 253.874 293.906L254.381 289.416L258.902 290.447H258.901Z" fill="url(#paint7_linear_525_2382)"/>
<path d="M235.043 293.803C235.043 293.803 237.034 296.671 237.135 300.7C237.159 301.649 236.39 302.432 235.441 302.465L220.115 302.999C219.397 303.024 219.074 302.113 219.646 301.68C222.475 299.544 228.042 295.543 232.113 293.906L235.043 293.803Z" fill="black"/>
<path d="M235.425 288.913L235.033 294.801C234.989 295.459 234.421 295.977 233.764 295.922C233.364 295.889 232.883 295.785 232.351 295.548C231.847 295.32 231.534 294.8 231.555 294.247L231.822 287.143L235.426 288.914L235.425 288.913Z" fill="url(#paint8_linear_525_2382)"/>
<path d="M265.936 211.247C265.936 211.247 269.642 215.337 269.925 219.787C270.208 224.237 259.238 294.814 259.238 294.814C259.238 294.814 255.045 295.034 253.069 293.511C253.069 293.511 255.745 247.206 255.032 236.357C255.032 236.357 239.623 282.898 235.872 291.199C235.872 291.199 231.852 291.233 230.659 290.336C230.659 290.336 240.258 228.836 244.799 218.221L265.936 211.247Z" fill="#4292CA"/>
<path d="M229.944 165.697C247.432 166.212 251.556 170.305 251.556 170.305L241.748 182.504C241.748 182.504 224.762 180.249 213.624 169.478C216.184 167.279 218.076 164.742 219.331 162.742C222.33 164.402 225.865 165.577 229.945 165.697H229.944Z" fill="black"/>
<path d="M205.678 137.223C205.765 136.671 206.534 136.605 206.713 137.135L208.392 142.098C208.716 143.058 208.738 144.093 208.454 145.065L207.369 147.722C206.986 149.035 207.181 150.445 207.911 151.601C209.657 154.368 213.46 159.49 219.33 162.742C218.075 164.742 216.183 167.279 213.623 169.478C209.535 165.527 206.236 160.429 204.85 153.875C203.881 153.453 203.316 152.433 203.474 151.387L205.678 137.223Z" fill="url(#paint9_linear_525_2382)"/>
<path d="M223.381 172.67C230.221 166.79 242.174 165.131 249.038 164.67C252.045 164.468 254.765 166.434 255.493 169.357C257.602 177.83 263.448 199.915 264.633 203.731C265.605 206.862 266.644 209.93 267.307 211.849C267.703 212.995 267.103 214.246 265.957 214.648C259.99 216.736 249.459 218.672 245.195 219.411C244.256 219.574 243.429 218.79 243.535 217.845C243.626 217.044 243.496 216.231 243.162 215.498L230.464 187.698C219.5 197.398 210.855 197.424 204.565 194.322C206.052 191.041 207.159 187.711 207.889 184.332C217.761 183.766 223.379 172.671 223.379 172.671L223.381 172.67Z" fill="black"/>
<path d="M192.087 180.716L194.098 178.584C199.318 183.105 203.945 184.558 207.891 184.332C207.16 187.711 206.054 191.04 204.567 194.322C196.282 190.234 192.088 180.717 192.088 180.717L192.087 180.716Z" fill="url(#paint10_linear_525_2382)"/>
<path d="M193.315 180.896L183.424 180.17L174.928 174.087C176.322 173.418 183.493 175.915 183.493 175.915C183.493 175.915 191.317 175.619 193.4 175.85C195.13 176.042 194.603 178.501 194.373 179.327C194.326 179.496 194.292 179.597 194.292 179.597L193.314 180.895L193.315 180.896Z" fill="url(#paint11_linear_525_2382)"/>
<path d="M241.148 151.564L244.914 164.819C244.914 164.819 238.478 168.277 233.72 167.342L232.413 155.657L241.149 151.564H241.148Z" fill="url(#paint12_linear_525_2382)"/>
<path d="M233.345 141.938C233.208 142.093 228.085 154.823 228.085 154.823L235.421 157.592L242.07 146.247C242.07 146.247 235.656 139.342 233.345 141.938Z" fill="url(#paint13_linear_525_2382)"/>
<path d="M239.021 147.74L235.989 153.986C235.949 154.066 235.901 154.139 235.842 154.206C235.481 154.613 234.133 155.925 232.875 154.465C231.733 153.141 230.671 151.949 229.602 151.634C229.123 151.492 228.614 151.737 228.427 152.201C227.961 153.358 226.962 155.984 226.442 158.399C226.336 158.889 226.628 159.374 227.107 159.523C228.55 159.969 231.622 160.825 234.253 160.935C234.609 160.951 234.945 160.773 235.129 160.467C236.026 158.977 238.769 154.458 239.728 153.317C240.628 152.246 242.511 152.491 243.294 152.65C243.551 152.702 243.815 152.648 244.03 152.498C244.791 151.97 246.283 150.57 244.639 148.508C244.295 148.077 244.375 147.453 244.818 147.122C245.698 146.464 246.699 145.234 245.558 143.439C244.399 141.615 242.591 141.68 241.456 141.955C240.997 142.067 240.537 141.827 240.343 141.397C240.232 141.152 240.014 140.951 239.598 140.94C239.036 140.925 238.621 140.409 238.694 139.853C238.834 138.784 238.604 137.388 236.809 136.6C233.626 135.202 231.209 138.155 230.737 140.509C230.265 142.863 233.802 144.182 235.961 144.263C237.603 144.324 238.629 146.073 239.026 146.907C239.152 147.171 239.149 147.478 239.021 147.741V147.74Z" fill="black"/>
<path d="M238.6 155.58C238.6 155.58 239.598 151.514 241.338 151.505C243.078 151.496 244.591 153.095 242.623 155.219C240.174 157.86 238.6 155.58 238.6 155.58Z" fill="url(#paint14_linear_525_2382)"/>
<path d="M216.047 175.26C225.631 165.682 225.631 150.152 216.047 140.574C206.463 130.996 190.924 130.996 181.34 140.574C171.756 150.152 171.756 165.682 181.34 175.26C190.924 184.838 206.463 184.838 216.047 175.26Z" fill="#DF602F"/>
<path opacity="0.7" d="M179.13 148.597C179.05 148.597 178.968 148.578 178.892 148.54C178.631 148.409 178.526 148.09 178.658 147.829C182.499 140.224 190.177 135.501 198.695 135.501C200.054 135.501 201.415 135.623 202.741 135.864C203.028 135.917 203.22 136.192 203.167 136.48C203.115 136.767 202.841 136.956 202.551 136.906C201.287 136.675 199.99 136.558 198.695 136.558C190.58 136.558 183.263 141.06 179.604 148.306C179.511 148.491 179.325 148.597 179.131 148.597H179.13Z" fill="white"/>
<path opacity="0.78" d="M199.212 178.503C210.302 178.503 219.293 169.518 219.293 158.434C219.293 147.351 210.302 138.366 199.212 138.366C188.122 138.366 179.131 147.351 179.131 158.434C179.131 169.518 188.122 178.503 199.212 178.503Z" fill="white"/>
<path d="M197.24 173.354V171.17C194.963 171.079 192.711 170.542 191.11 169.842C190.539 169.592 190.248 168.951 190.412 168.35L190.967 166.316C191.171 165.57 191.983 165.184 192.696 165.483C194.284 166.148 196.243 166.674 198.357 166.674C200.47 166.674 202.186 165.931 202.186 164.408C202.186 163.034 200.923 162.216 197.874 161.398C193.524 160.21 190.4 158.314 190.4 154.487C190.4 151.031 192.929 148.394 197.316 147.688V145.504C197.316 144.801 197.886 144.233 198.588 144.233H199.872C200.575 144.233 201.144 144.802 201.144 145.504V147.465C203.251 147.549 204.786 147.909 206.003 148.337C206.627 148.556 206.967 149.228 206.795 149.865L206.285 151.746C206.088 152.471 205.313 152.868 204.609 152.603C203.488 152.18 201.903 151.739 199.843 151.739C197.24 151.739 196.498 152.816 196.498 153.782C196.498 154.971 198.06 155.788 201.443 156.829C206.276 158.277 208.284 160.284 208.284 163.888C208.284 167.195 205.83 170.168 201.071 170.911V173.354C201.071 174.057 200.501 174.625 199.799 174.625H198.515C197.812 174.625 197.243 174.056 197.243 173.354H197.24Z" fill="#DF602F"/>
<defs>
<linearGradient id="paint0_linear_525_2382" x1="41.682" y1="299.752" x2="68.6414" y2="230.308" gradientUnits="userSpaceOnUse">
<stop stop-color="#FEBBBA"/>
<stop offset="1" stop-color="#FF928E"/>
</linearGradient>
<linearGradient id="paint1_linear_525_2382" x1="41.2724" y1="523.094" x2="130.363" y2="-518.8" gradientUnits="userSpaceOnUse">
<stop stop-color="#FEBBBA"/>
<stop offset="1" stop-color="#FF928E"/>
</linearGradient>
<linearGradient id="paint2_linear_525_2382" x1="44.4785" y1="189.908" x2="55.9181" y2="189.908" gradientUnits="userSpaceOnUse">
<stop stop-color="#FEBBBA"/>
<stop offset="1" stop-color="#FF928E"/>
</linearGradient>
<linearGradient id="paint3_linear_525_2382" x1="56.9722" y1="164.399" x2="65.0967" y2="164.399" gradientUnits="userSpaceOnUse">
<stop stop-color="#FEBBBA"/>
<stop offset="1" stop-color="#FF928E"/>
</linearGradient>
<linearGradient id="paint4_linear_525_2382" x1="77.0032" y1="133.326" x2="94.4399" y2="224.463" gradientUnits="userSpaceOnUse">
<stop stop-color="#FEBBBA"/>
<stop offset="1" stop-color="#FF928E"/>
</linearGradient>
<linearGradient id="paint5_linear_525_2382" x1="92.1182" y1="132.772" x2="107.327" y2="212.263" gradientUnits="userSpaceOnUse">
<stop stop-color="#FEBBBA"/>
<stop offset="1" stop-color="#FF928E"/>
</linearGradient>
<linearGradient id="paint6_linear_525_2382" x1="71.8981" y1="162.59" x2="51.0901" y2="143.913" gradientUnits="userSpaceOnUse">
<stop stop-color="#FEBBBA"/>
<stop offset="1" stop-color="#FF928E"/>
</linearGradient>
<linearGradient id="paint7_linear_525_2382" x1="258.634" y1="292.918" x2="254.055" y2="292.402" gradientUnits="userSpaceOnUse">
<stop stop-color="#FEBBBA"/>
<stop offset="1" stop-color="#FF928E"/>
</linearGradient>
<linearGradient id="paint8_linear_525_2382" x1="235.717" y1="291.097" x2="231.177" y2="291.721" gradientUnits="userSpaceOnUse">
<stop stop-color="#FEBBBA"/>
<stop offset="1" stop-color="#FF928E"/>
</linearGradient>
<linearGradient id="paint9_linear_525_2382" x1="220.294" y1="154.279" x2="203.372" y2="152.371" gradientUnits="userSpaceOnUse">
<stop stop-color="#FEBBBA"/>
<stop offset="1" stop-color="#FF928E"/>
</linearGradient>
<linearGradient id="paint10_linear_525_2382" x1="181.557" y1="153.65" x2="212.97" y2="203.25" gradientUnits="userSpaceOnUse">
<stop stop-color="#FEBBBA"/>
<stop offset="1" stop-color="#FF928E"/>
</linearGradient>
<linearGradient id="paint11_linear_525_2382" x1="173.997" y1="158.438" x2="205.409" y2="208.039" gradientUnits="userSpaceOnUse">
<stop stop-color="#FEBBBA"/>
<stop offset="1" stop-color="#FF928E"/>
</linearGradient>
<linearGradient id="paint12_linear_525_2382" x1="225.795" y1="130.809" x2="253.847" y2="199.84" gradientUnits="userSpaceOnUse">
<stop stop-color="#FEBBBA"/>
<stop offset="1" stop-color="#FF928E"/>
</linearGradient>
<linearGradient id="paint13_linear_525_2382" x1="235.604" y1="144.033" x2="233.528" y2="170.055" gradientUnits="userSpaceOnUse">
<stop stop-color="#FEBBBA"/>
<stop offset="1" stop-color="#FF928E"/>
</linearGradient>
<linearGradient id="paint14_linear_525_2382" x1="241.874" y1="171.677" x2="241.05" y2="153.607" gradientUnits="userSpaceOnUse">
<stop stop-color="#FEBBBA"/>
<stop offset="1" stop-color="#FF928E"/>
</linearGradient>
</defs>
</svg>
