<svg width="50" height="50" viewBox="0 0 50 50" fill="none" xmlns="http://www.w3.org/2000/svg">
<path d="M49.1662 24.9997C49.1662 38.3493 38.3468 49.1663 24.9995 49.1663C11.6523 49.1663 0.832886 38.3493 0.832886 24.9997C0.832886 11.6548 11.6523 0.833008 24.9995 0.833008C38.3468 0.833008 49.1662 11.6548 49.1662 24.9997Z" fill="#DF602F"/>
<path d="M33.6361 34.2181C33.3195 34.2181 33.0005 34.1359 32.7081 33.9643L23.2202 28.3045C22.6741 27.9758 22.3381 27.3837 22.3381 26.7457V14.5488C22.3381 13.5483 23.1501 12.7363 24.1506 12.7363C25.1511 12.7363 25.9631 13.5483 25.9631 14.5488V25.7162L34.5665 30.8468C35.4244 31.3616 35.7071 32.4732 35.1948 33.3336C34.8541 33.9015 34.2523 34.2181 33.6361 34.2181Z" fill="white"/>
</svg>
