<svg width="357" height="335" viewBox="0 0 357 335" fill="none" xmlns="http://www.w3.org/2000/svg">
<path d="M309.59 287.879C302.608 295.087 296.002 299.735 290.783 303.408C229.431 346.579 156.837 333.994 141.409 330.922C118.626 326.384 74.5874 317.612 42.7478 280.892C-5.42266 225.336 2.07728 137.812 39.4422 80.0366C46.2766 69.4686 82.3778 10.8127 155.754 1.4054C200.161 -4.28675 251.925 7.19438 289.411 37.9938C368.098 102.646 362.496 233.254 309.59 287.877V287.879Z" fill="#1F1F1F"/>
<path d="M317.098 210.265H180.416C176.875 210.265 174.001 206.951 174.001 202.863V123.544C174.001 119.456 176.875 116.142 180.416 116.142H317.098C320.639 116.142 323.513 119.456 323.513 123.544V202.863C323.513 206.951 320.639 210.265 317.098 210.265V210.265Z" fill="#5DB1EB"/>
<path d="M188.177 132.258H218.133" stroke="#3A8DC6" stroke-width="5.09" stroke-miterlimit="10" stroke-linecap="round"/>
<path d="M187.919 182.1H209.156" stroke="#3A8DC6" stroke-width="4.64" stroke-miterlimit="10" stroke-linecap="round"/>
<path d="M221.363 182.1H242.589" stroke="#3A8DC6" stroke-width="4.64" stroke-miterlimit="10" stroke-linecap="round"/>
<path d="M254.796 182.1H276.033" stroke="#3A8DC6" stroke-width="4.64" stroke-miterlimit="10" stroke-linecap="round"/>
<path d="M288.229 182.1H309.466" stroke="#3A8DC6" stroke-width="4.64" stroke-miterlimit="10" stroke-linecap="round"/>
<path d="M188.177 195.946H240.34" stroke="#3A8DC6" stroke-width="4.51" stroke-miterlimit="10" stroke-linecap="round"/>
<path d="M252.104 195.946H272.696" stroke="#3A8DC6" stroke-width="4.51" stroke-miterlimit="10" stroke-linecap="round"/>
<path d="M297.572 195.946H309.348" stroke="#3A8DC6" stroke-width="4.51" stroke-miterlimit="10" stroke-linecap="round"/>
<path d="M310.711 141.08C313.472 136.197 311.751 130.001 306.866 127.241C301.98 124.481 295.781 126.201 293.019 131.084C290.258 135.967 291.979 142.162 296.864 144.923C301.75 147.683 307.949 145.962 310.711 141.08Z" fill="white"/>
<path d="M178.5 304C277.083 304 357 302.541 357 300.74C357 298.94 277.083 297.481 178.5 297.481C79.9172 297.481 0 298.94 0 300.74C0 302.541 79.9172 304 178.5 304Z" fill="#272727"/>
<path d="M222.686 205.047H20.807C17.3947 205.047 14.6284 207.812 14.6284 211.222V293.887C14.6284 297.298 17.3947 300.063 20.807 300.063H222.686C226.099 300.063 228.865 297.298 228.865 293.887V211.222C228.865 207.812 226.099 205.047 222.686 205.047Z" fill="#3A8DC6"/>
<path d="M222.17 293.382V211.749H21.3235V293.382H222.17Z" fill="#CCEAFF"/>
<path d="M42.0767 205.047C42.0767 220.195 29.7842 232.48 14.6284 232.48V215.881C14.6284 209.899 19.483 205.047 25.4678 205.047H42.0767Z" fill="#3A8DC6"/>
<path d="M42.0767 300.073H25.4678C19.483 300.073 14.6284 295.221 14.6284 289.24V272.64C29.7842 272.64 42.0767 284.926 42.0767 300.073Z" fill="#3A8DC6"/>
<path d="M228.865 215.891V232.491C213.709 232.491 201.417 220.205 201.417 205.058H218.026C224.01 205.058 228.865 209.91 228.865 215.891Z" fill="#999999"/>
<path d="M228.865 272.629V289.229C228.865 295.211 224.01 300.062 218.026 300.062H201.417C201.417 284.915 213.709 272.629 228.865 272.629Z" fill="#999999"/>
<path d="M57.4801 264.152C63.8886 264.152 69.0837 258.96 69.0837 252.555C69.0837 246.15 63.8886 240.958 57.4801 240.958C51.0716 240.958 45.8765 246.15 45.8765 252.555C45.8765 258.96 51.0716 264.152 57.4801 264.152Z" fill="#3A8DC6"/>
<path d="M182.224 264.152C188.633 264.152 193.828 258.96 193.828 252.555C193.828 246.15 188.633 240.958 182.224 240.958C175.816 240.958 170.621 246.15 170.621 252.555C170.621 258.96 175.816 264.152 182.224 264.152Z" fill="#999999"/>
<path d="M148.92 25H73.4861C70.8288 25 68.6746 27.153 68.6746 29.8089V180.078C68.6746 182.734 70.8288 184.887 73.4861 184.887H148.92C151.578 184.887 153.732 182.734 153.732 180.078V29.8089C153.732 27.153 151.578 25 148.92 25Z" fill="#E76432"/>
<path d="M142.075 39.717H80.332C79.148 39.717 78.1792 38.7596 78.1792 37.5654C78.1792 36.382 79.1372 35.4138 80.332 35.4138H142.075C143.259 35.4138 144.227 36.3713 144.227 37.5654C144.227 38.7488 143.269 39.717 142.075 39.717Z" fill="#F8DCD1"/>
<path d="M142.075 46.8174H80.332C79.148 46.8174 78.1792 45.8599 78.1792 44.6658C78.1792 43.4824 79.1372 42.5142 80.332 42.5142H142.075C143.259 42.5142 144.227 43.4716 144.227 44.6658C144.227 45.8492 143.269 46.8174 142.075 46.8174Z" fill="#F8DCD1"/>
<path d="M107.694 53.9069H80.332C79.148 53.9069 78.1792 52.9387 78.1792 51.7553C78.1792 50.5719 79.1372 49.6037 80.332 49.6037H107.694C108.878 49.6037 109.847 50.5612 109.847 51.7553C109.847 52.9387 108.889 53.9069 107.694 53.9069Z" fill="#F8DCD1"/>
<path d="M142.075 66.2788H80.332C79.148 66.2788 78.1792 65.3213 78.1792 64.1271C78.1792 62.9438 79.1372 61.9755 80.332 61.9755H142.075C143.259 61.9755 144.227 62.9438 144.227 64.1271C144.227 65.3105 143.269 66.2788 142.075 66.2788Z" fill="#F8DCD1"/>
<path d="M142.075 73.3684H80.332C79.148 73.3684 78.1792 72.4109 78.1792 71.2167C78.1792 70.0334 79.1372 69.0651 80.332 69.0651H142.075C143.259 69.0651 144.227 70.0226 144.227 71.2167C144.227 72.4001 143.269 73.3684 142.075 73.3684Z" fill="#F8DCD1"/>
<path d="M107.694 80.4579H80.332C79.148 80.4579 78.1792 79.5004 78.1792 78.3063C78.1792 77.1229 79.1372 76.1547 80.332 76.1547H107.694C108.878 76.1547 109.847 77.1121 109.847 78.3063C109.847 79.4897 108.889 80.4579 107.694 80.4579Z" fill="#F8DCD1"/>
<path d="M142.075 92.8405H80.332C79.148 92.8405 78.1792 91.8722 78.1792 90.6888C78.1792 89.5055 79.1372 88.5372 80.332 88.5372H142.075C143.259 88.5372 144.227 89.4947 144.227 90.6888C144.227 91.8722 143.269 92.8405 142.075 92.8405Z" fill="#F8DCD1"/>
<path d="M142.075 99.9301H80.332C79.148 99.9301 78.1792 98.9726 78.1792 97.7784C78.1792 96.5951 79.1372 95.6268 80.332 95.6268H142.075C143.259 95.6268 144.227 96.5951 144.227 97.7784C144.227 98.9618 143.269 99.9301 142.075 99.9301Z" fill="#F8DCD1"/>
<path d="M107.694 107.02H80.332C79.148 107.02 78.1792 106.062 78.1792 104.868C78.1792 103.685 79.1372 102.716 80.332 102.716H107.694C108.878 102.716 109.847 103.674 109.847 104.868C109.847 106.051 108.889 107.02 107.694 107.02Z" fill="#F8DCD1"/>
<path d="M142.075 119.391H80.332C79.148 119.391 78.1792 118.423 78.1792 117.24C78.1792 116.056 79.1372 115.088 80.332 115.088H142.075C143.259 115.088 144.227 116.046 144.227 117.24C144.227 118.423 143.269 119.391 142.075 119.391Z" fill="#F8DCD1"/>
<path d="M142.075 126.481H80.332C79.148 126.481 78.1792 125.523 78.1792 124.329C78.1792 123.146 79.1372 122.178 80.332 122.178H142.075C143.259 122.178 144.227 123.146 144.227 124.329C144.227 125.513 143.269 126.481 142.075 126.481Z" fill="#F8DCD1"/>
<path d="M107.694 133.571H80.332C79.148 133.571 78.1792 132.613 78.1792 131.419C78.1792 130.235 79.1372 129.267 80.332 129.267H107.694C108.878 129.267 109.847 130.225 109.847 131.419C109.847 132.602 108.889 133.571 107.694 133.571Z" fill="#F8DCD1"/>
<path d="M142.075 145.953H80.332C79.148 145.953 78.1792 144.996 78.1792 143.801C78.1792 142.618 79.1372 141.65 80.332 141.65H142.075C143.259 141.65 144.227 142.607 144.227 143.801C144.227 144.985 143.269 145.953 142.075 145.953Z" fill="#F8DCD1"/>
<path d="M142.075 153.043H80.332C79.148 153.043 78.1792 152.085 78.1792 150.891C78.1792 149.708 79.1372 148.739 80.332 148.739H142.075C143.259 148.739 144.227 149.708 144.227 150.891C144.227 152.074 143.269 153.043 142.075 153.043Z" fill="#F8DCD1"/>
<path d="M107.694 160.132H80.332C79.148 160.132 78.1792 159.175 78.1792 157.981C78.1792 156.797 79.1372 155.829 80.332 155.829H107.694C108.878 155.829 109.847 156.786 109.847 157.981C109.847 159.164 108.889 160.132 107.694 160.132Z" fill="#F8DCD1"/>
<path d="M284.494 288.164H223.644C222.925 288.164 222.342 288.747 222.342 289.466V299.342C222.342 300.061 222.925 300.643 223.644 300.643H284.494C285.213 300.643 285.796 300.061 285.796 299.342V289.466C285.796 288.747 285.213 288.164 284.494 288.164Z" fill="#DF602F"/>
<path d="M284.418 299.632C284.763 299.632 285.053 299.352 285.053 298.997V290.144C285.053 289.799 284.773 289.509 284.418 289.509C284.074 289.509 283.783 289.789 283.783 290.144V298.997C283.783 299.342 284.063 299.632 284.418 299.632Z" fill="#DF602F"/>
<path d="M282.104 299.632C282.449 299.632 282.739 299.352 282.739 298.997V290.144C282.739 289.799 282.459 289.509 282.104 289.509C281.76 289.509 281.469 289.789 281.469 290.144V298.997C281.469 299.342 281.749 299.632 282.104 299.632Z" fill="#DF602F"/>
<path d="M277.454 299.632C277.798 299.632 278.089 299.352 278.089 298.997V290.144C278.089 289.799 277.809 289.509 277.454 289.509C277.109 289.509 276.819 289.789 276.819 290.144V298.997C276.819 299.342 277.099 299.632 277.454 299.632Z" fill="#DF602F"/>
<path d="M275.14 299.632C275.484 299.632 275.775 299.352 275.775 298.997V290.144C275.775 289.799 275.495 289.509 275.14 289.509C274.795 289.509 274.505 289.789 274.505 290.144V298.997C274.505 299.342 274.784 299.632 275.14 299.632V299.632Z" fill="#DF602F"/>
<path d="M272.815 299.632C273.159 299.632 273.45 299.352 273.45 298.997V290.144C273.45 289.799 273.17 289.509 272.815 289.509C272.47 289.509 272.179 289.789 272.179 290.144V298.997C272.179 299.342 272.459 299.632 272.815 299.632Z" fill="#DF602F"/>
<path d="M270.5 299.632C270.845 299.632 271.135 299.352 271.135 298.997V290.144C271.135 289.799 270.856 289.509 270.5 289.509C270.156 289.509 269.865 289.789 269.865 290.144V298.997C269.865 299.342 270.145 299.632 270.5 299.632Z" fill="#DF602F"/>
<path d="M268.175 299.632C268.52 299.632 268.81 299.352 268.81 298.997V290.144C268.81 289.799 268.531 289.509 268.175 289.509C267.831 289.509 267.54 289.789 267.54 290.144V298.997C267.54 299.342 267.82 299.632 268.175 299.632Z" fill="#DF602F"/>
<path d="M265.861 299.632C266.206 299.632 266.496 299.352 266.496 298.997V290.144C266.496 289.799 266.216 289.509 265.861 289.509C265.517 289.509 265.226 289.789 265.226 290.144V298.997C265.226 299.342 265.506 299.632 265.861 299.632Z" fill="#DF602F"/>
<path d="M263.536 299.632C263.88 299.632 264.171 299.352 264.171 298.997V290.144C264.171 289.799 263.891 289.509 263.536 289.509C263.192 289.509 262.901 289.789 262.901 290.144V298.997C262.901 299.342 263.181 299.632 263.536 299.632Z" fill="#DF602F"/>
<path d="M261.222 299.632C261.566 299.632 261.857 299.352 261.857 298.997V290.144C261.857 289.799 261.577 289.509 261.222 289.509C260.877 289.509 260.587 289.789 260.587 290.144V298.997C260.587 299.342 260.867 299.632 261.222 299.632Z" fill="#DF602F"/>
<path d="M258.897 299.632C259.241 299.632 259.532 299.352 259.532 298.997V290.144C259.532 289.799 259.252 289.509 258.897 289.509C258.552 289.509 258.262 289.789 258.262 290.144V298.997C258.262 299.342 258.542 299.632 258.897 299.632Z" fill="#DF602F"/>
<path d="M256.572 299.632C256.916 299.632 257.207 299.352 257.207 298.997V290.144C257.207 289.799 256.927 289.509 256.572 289.509C256.227 289.509 255.937 289.789 255.937 290.144V298.997C255.937 299.342 256.216 299.632 256.572 299.632Z" fill="#DF602F"/>
<path d="M254.257 299.632C254.602 299.632 254.892 299.352 254.892 298.997V290.144C254.892 289.799 254.613 289.509 254.257 289.509C253.913 289.509 253.622 289.789 253.622 290.144V298.997C253.622 299.342 253.902 299.632 254.257 299.632Z" fill="#DF602F"/>
<path d="M244.979 299.632C245.323 299.632 245.614 299.352 245.614 298.997V290.144C245.614 289.799 245.334 289.509 244.979 289.509C244.634 289.509 244.344 289.789 244.344 290.144V298.997C244.344 299.342 244.624 299.632 244.979 299.632Z" fill="#DF602F"/>
<path d="M242.654 299.632C242.998 299.632 243.289 299.352 243.289 298.997V290.144C243.289 289.799 243.009 289.509 242.654 289.509C242.309 289.509 242.019 289.789 242.019 290.144V298.997C242.019 299.342 242.299 299.632 242.654 299.632Z" fill="#DF602F"/>
<path d="M240.329 299.632C240.673 299.632 240.964 299.352 240.964 298.997V290.144C240.964 289.799 240.684 289.509 240.329 289.509C239.984 289.509 239.694 289.789 239.694 290.144V298.997C239.694 299.342 239.973 299.632 240.329 299.632Z" fill="#DF602F"/>
<path d="M238.014 299.632C238.359 299.632 238.65 299.352 238.65 298.997V290.144C238.65 289.799 238.37 289.509 238.014 289.509C237.67 289.509 237.379 289.789 237.379 290.144V298.997C237.379 299.342 237.659 299.632 238.014 299.632Z" fill="#DF602F"/>
<path d="M235.69 299.632C236.034 299.632 236.325 299.352 236.325 298.997V290.144C236.325 289.799 236.045 289.509 235.69 289.509C235.345 289.509 235.054 289.789 235.054 290.144V298.997C235.054 299.342 235.334 299.632 235.69 299.632Z" fill="#DF602F"/>
<path d="M233.375 299.632C233.72 299.632 234.01 299.352 234.01 298.997V290.144C234.01 289.799 233.73 289.509 233.375 289.509C233.031 289.509 232.74 289.789 232.74 290.144V298.997C232.74 299.342 233.02 299.632 233.375 299.632Z" fill="#DF602F"/>
<path d="M231.05 299.632C231.395 299.632 231.685 299.352 231.685 298.997V290.144C231.685 289.799 231.405 289.509 231.05 289.509C230.706 289.509 230.415 289.789 230.415 290.144V298.997C230.415 299.342 230.695 299.632 231.05 299.632Z" fill="#DF602F"/>
<path d="M228.736 299.632C229.08 299.632 229.371 299.352 229.371 298.997V290.144C229.371 289.799 229.091 289.509 228.736 289.509C228.391 289.509 228.101 289.789 228.101 290.144V298.997C228.101 299.342 228.381 299.632 228.736 299.632Z" fill="#DF602F"/>
<path d="M226.411 299.632C226.755 299.632 227.046 299.352 227.046 298.997V290.144C227.046 289.799 226.766 289.509 226.411 289.509C226.067 289.509 225.776 289.789 225.776 290.144V298.997C225.776 299.342 226.056 299.632 226.411 299.632Z" fill="#DF602F"/>
<path d="M224.086 299.632C224.43 299.632 224.721 299.352 224.721 298.997V290.144C224.721 289.799 224.441 289.509 224.086 289.509C223.741 289.509 223.451 289.789 223.451 290.144V298.997C223.451 299.342 223.731 299.632 224.086 299.632Z" fill="#DF602F"/>
<path d="M221.772 299.632C222.116 299.632 222.407 299.352 222.407 298.997V290.144C222.407 289.799 222.127 289.509 221.772 289.509C221.427 289.509 221.136 289.789 221.136 290.144V298.997C221.136 299.342 221.416 299.632 221.772 299.632Z" fill="#DF602F"/>
<path d="M296.248 275.685H235.399C234.679 275.685 234.096 276.267 234.096 276.986V286.862C234.096 287.581 234.679 288.164 235.399 288.164H296.248C296.967 288.164 297.55 287.581 297.55 286.862V276.986C297.55 276.267 296.967 275.685 296.248 275.685Z" fill="#B53E11"/>
<path d="M296.183 287.153C296.528 287.153 296.818 286.873 296.818 286.518V277.664C296.818 277.32 296.538 277.029 296.183 277.029C295.839 277.029 295.548 277.309 295.548 277.664V286.518C295.548 286.862 295.828 287.153 296.183 287.153Z" fill="#DF602F"/>
<path d="M293.858 287.153C294.203 287.153 294.493 286.873 294.493 286.518V277.664C294.493 277.32 294.213 277.029 293.858 277.029C293.514 277.029 293.223 277.309 293.223 277.664V286.518C293.223 286.862 293.503 287.153 293.858 287.153Z" fill="#DF602F"/>
<path d="M289.219 287.153C289.563 287.153 289.854 286.873 289.854 286.518V277.664C289.854 277.32 289.574 277.029 289.219 277.029C288.874 277.029 288.584 277.309 288.584 277.664V286.518C288.584 286.862 288.864 287.153 289.219 287.153Z" fill="#DF602F"/>
<path d="M286.894 287.153C287.238 287.153 287.529 286.873 287.529 286.518V277.664C287.529 277.32 287.249 277.029 286.894 277.029C286.549 277.029 286.259 277.309 286.259 277.664V286.518C286.259 286.862 286.539 287.153 286.894 287.153Z" fill="#DF602F"/>
<path d="M284.579 287.153C284.924 287.153 285.214 286.873 285.214 286.518V277.664C285.214 277.32 284.935 277.029 284.579 277.029C284.235 277.029 283.944 277.309 283.944 277.664V286.518C283.944 286.862 284.224 287.153 284.579 287.153Z" fill="#DF602F"/>
<path d="M282.254 287.153C282.599 287.153 282.89 286.873 282.89 286.518V277.664C282.89 277.32 282.61 277.029 282.254 277.029C281.91 277.029 281.619 277.309 281.619 277.664V286.518C281.619 286.862 281.899 287.153 282.254 287.153Z" fill="#DF602F"/>
<path d="M279.94 287.153C280.285 287.153 280.575 286.873 280.575 286.518V277.664C280.575 277.32 280.295 277.029 279.94 277.029C279.596 277.029 279.305 277.309 279.305 277.664V286.518C279.305 286.862 279.585 287.153 279.94 287.153Z" fill="#DF602F"/>
<path d="M277.615 287.153C277.96 287.153 278.25 286.873 278.25 286.518V277.664C278.25 277.32 277.971 277.029 277.615 277.029C277.271 277.029 276.98 277.309 276.98 277.664V286.518C276.98 286.862 277.26 287.153 277.615 287.153Z" fill="#DF602F"/>
<path d="M275.301 287.153C275.645 287.153 275.936 286.873 275.936 286.518V277.664C275.936 277.32 275.656 277.029 275.301 277.029C274.956 277.029 274.666 277.309 274.666 277.664V286.518C274.666 286.862 274.946 287.153 275.301 287.153V287.153Z" fill="#DF602F"/>
<path d="M272.976 287.153C273.32 287.153 273.611 286.873 273.611 286.518V277.664C273.611 277.32 273.331 277.029 272.976 277.029C272.631 277.029 272.341 277.309 272.341 277.664V286.518C272.341 286.862 272.621 287.153 272.976 287.153Z" fill="#DF602F"/>
<path d="M270.651 287.153C270.995 287.153 271.286 286.873 271.286 286.518V277.664C271.286 277.32 271.006 277.029 270.651 277.029C270.306 277.029 270.016 277.309 270.016 277.664V286.518C270.016 286.862 270.296 287.153 270.651 287.153Z" fill="#DF602F"/>
<path d="M268.336 287.153C268.681 287.153 268.972 286.873 268.972 286.518V277.664C268.972 277.32 268.692 277.029 268.336 277.029C267.992 277.029 267.701 277.309 267.701 277.664V286.518C267.701 286.862 267.981 287.153 268.336 287.153Z" fill="#DF602F"/>
<path d="M266.012 287.153C266.356 287.153 266.647 286.873 266.647 286.518V277.664C266.647 277.32 266.367 277.029 266.012 277.029C265.667 277.029 265.376 277.309 265.376 277.664V286.518C265.376 286.862 265.656 287.153 266.012 287.153Z" fill="#DF602F"/>
<path d="M256.733 287.153C257.077 287.153 257.368 286.873 257.368 286.518V277.664C257.368 277.32 257.088 277.029 256.733 277.029C256.389 277.029 256.098 277.309 256.098 277.664V286.518C256.098 286.862 256.378 287.153 256.733 287.153Z" fill="#DF602F"/>
<path d="M254.408 287.153C254.752 287.153 255.043 286.873 255.043 286.518V277.664C255.043 277.32 254.763 277.029 254.408 277.029C254.064 277.029 253.773 277.309 253.773 277.664V286.518C253.773 286.862 254.053 287.153 254.408 287.153Z" fill="#DF602F"/>
<path d="M252.094 287.153C252.438 287.153 252.729 286.873 252.729 286.518V277.664C252.729 277.32 252.449 277.029 252.094 277.029C251.749 277.029 251.458 277.309 251.458 277.664V286.518C251.458 286.862 251.738 287.153 252.094 287.153Z" fill="#DF602F"/>
<path d="M249.769 287.153C250.113 287.153 250.404 286.873 250.404 286.518V277.664C250.404 277.32 250.124 277.029 249.769 277.029C249.424 277.029 249.134 277.309 249.134 277.664V286.518C249.134 286.862 249.413 287.153 249.769 287.153Z" fill="#DF602F"/>
<path d="M247.454 287.153C247.799 287.153 248.089 286.873 248.089 286.518V277.664C248.089 277.32 247.81 277.029 247.454 277.029C247.11 277.029 246.819 277.309 246.819 277.664V286.518C246.819 286.862 247.099 287.153 247.454 287.153Z" fill="#DF602F"/>
<path d="M245.129 287.153C245.474 287.153 245.764 286.873 245.764 286.518V277.664C245.764 277.32 245.484 277.029 245.129 277.029C244.785 277.029 244.494 277.309 244.494 277.664V286.518C244.494 286.862 244.774 287.153 245.129 287.153Z" fill="#DF602F"/>
<path d="M242.815 287.153C243.159 287.153 243.45 286.873 243.45 286.518V277.664C243.45 277.32 243.17 277.029 242.815 277.029C242.471 277.029 242.18 277.309 242.18 277.664V286.518C242.18 286.862 242.46 287.153 242.815 287.153Z" fill="#DF602F"/>
<path d="M240.49 287.153C240.835 287.153 241.125 286.873 241.125 286.518V277.664C241.125 277.32 240.845 277.029 240.49 277.029C240.146 277.029 239.855 277.309 239.855 277.664V286.518C239.855 286.862 240.135 287.153 240.49 287.153Z" fill="#DF602F"/>
<path d="M238.176 287.153C238.52 287.153 238.811 286.873 238.811 286.518V277.664C238.811 277.32 238.531 277.029 238.176 277.029C237.831 277.029 237.541 277.309 237.541 277.664V286.518C237.541 286.862 237.821 287.153 238.176 287.153Z" fill="#DF602F"/>
<path d="M235.851 287.153C236.195 287.153 236.486 286.873 236.486 286.518V277.664C236.486 277.32 236.206 277.029 235.851 277.029C235.506 277.029 235.216 277.309 235.216 277.664V286.518C235.216 286.862 235.495 287.153 235.851 287.153Z" fill="#DF602F"/>
<path d="M233.526 287.153C233.87 287.153 234.161 286.873 234.161 286.518V277.664C234.161 277.32 233.881 277.029 233.526 277.029C233.181 277.029 232.891 277.309 232.891 277.664V286.518C232.891 286.862 233.17 287.153 233.526 287.153Z" fill="#DF602F"/>
<path d="M289.445 263.195H228.596C227.877 263.195 227.293 263.777 227.293 264.496V274.372C227.293 275.091 227.877 275.674 228.596 275.674H289.445C290.164 275.674 290.747 275.091 290.747 274.372V264.496C290.747 263.777 290.164 263.195 289.445 263.195Z" fill="#DF602F"/>
<path d="M289.38 274.673C289.725 274.673 290.016 274.394 290.016 274.039V265.185C290.016 264.841 289.736 264.55 289.38 264.55C289.036 264.55 288.745 264.83 288.745 265.185V274.039C288.745 274.383 289.025 274.673 289.38 274.673Z" fill="#DF602F"/>
<path d="M287.055 274.673C287.4 274.673 287.691 274.394 287.691 274.039V265.185C287.691 264.841 287.411 264.55 287.055 264.55C286.711 264.55 286.42 264.83 286.42 265.185V274.039C286.42 274.383 286.7 274.673 287.055 274.673Z" fill="#DF602F"/>
<path d="M282.416 274.673C282.761 274.673 283.051 274.394 283.051 274.039V265.185C283.051 264.841 282.771 264.55 282.416 264.55C282.072 264.55 281.781 264.83 281.781 265.185V274.039C281.781 274.383 282.061 274.673 282.416 274.673Z" fill="#DF602F"/>
<path d="M280.091 274.673C280.436 274.673 280.726 274.394 280.726 274.039V265.185C280.726 264.841 280.446 264.55 280.091 264.55C279.747 264.55 279.456 264.83 279.456 265.185V274.039C279.456 274.383 279.736 274.673 280.091 274.673Z" fill="#DF602F"/>
<path d="M277.777 274.673C278.121 274.673 278.412 274.394 278.412 274.039V265.185C278.412 264.841 278.132 264.55 277.777 264.55C277.432 264.55 277.142 264.83 277.142 265.185V274.039C277.142 274.383 277.421 274.673 277.777 274.673Z" fill="#DF602F"/>
<path d="M275.452 274.673C275.796 274.673 276.087 274.394 276.087 274.039V265.185C276.087 264.841 275.807 264.55 275.452 264.55C275.107 264.55 274.817 264.83 274.817 265.185V274.039C274.817 274.383 275.097 274.673 275.452 274.673Z" fill="#DF602F"/>
<path d="M273.138 274.673C273.482 274.673 273.773 274.394 273.773 274.039V265.185C273.773 264.841 273.493 264.55 273.138 264.55C272.793 264.55 272.502 264.83 272.502 265.185V274.039C272.502 274.383 272.782 274.673 273.138 274.673Z" fill="#DF602F"/>
<path d="M270.813 274.673C271.157 274.673 271.448 274.394 271.448 274.039V265.185C271.448 264.841 271.168 264.55 270.813 264.55C270.468 264.55 270.177 264.83 270.177 265.185V274.039C270.177 274.383 270.457 274.673 270.813 274.673Z" fill="#DF602F"/>
<path d="M268.498 274.673C268.843 274.673 269.133 274.394 269.133 274.039V265.185C269.133 264.841 268.853 264.55 268.498 264.55C268.154 264.55 267.863 264.83 267.863 265.185V274.039C267.863 274.383 268.143 274.673 268.498 274.673Z" fill="#DF602F"/>
<path d="M266.173 274.673C266.518 274.673 266.808 274.394 266.808 274.039V265.185C266.808 264.841 266.528 264.55 266.173 264.55C265.829 264.55 265.538 264.83 265.538 265.185V274.039C265.538 274.383 265.818 274.673 266.173 274.673Z" fill="#DF602F"/>
<path d="M263.848 274.673C264.193 274.673 264.483 274.394 264.483 274.039V265.185C264.483 264.841 264.203 264.55 263.848 264.55C263.504 264.55 263.213 264.83 263.213 265.185V274.039C263.213 274.383 263.493 274.673 263.848 274.673Z" fill="#DF602F"/>
<path d="M261.534 274.673C261.878 274.673 262.169 274.394 262.169 274.039V265.185C262.169 264.841 261.889 264.55 261.534 264.55C261.189 264.55 260.899 264.83 260.899 265.185V274.039C260.899 274.383 261.179 274.673 261.534 274.673Z" fill="#DF602F"/>
<path d="M259.209 274.673C259.553 274.673 259.844 274.394 259.844 274.039V265.185C259.844 264.841 259.564 264.55 259.209 264.55C258.864 264.55 258.574 264.83 258.574 265.185V274.039C258.574 274.383 258.854 274.673 259.209 274.673Z" fill="#DF602F"/>
<path d="M249.93 274.673C250.275 274.673 250.565 274.394 250.565 274.039V265.185C250.565 264.841 250.285 264.55 249.93 264.55C249.586 264.55 249.295 264.83 249.295 265.185V274.039C249.295 274.383 249.575 274.673 249.93 274.673Z" fill="#DF602F"/>
<path d="M247.605 274.673C247.95 274.673 248.24 274.394 248.24 274.039V265.185C248.24 264.841 247.961 264.55 247.605 264.55C247.261 264.55 246.97 264.83 246.97 265.185V274.039C246.97 274.383 247.25 274.673 247.605 274.673Z" fill="#DF602F"/>
<path d="M245.291 274.673C245.635 274.673 245.926 274.394 245.926 274.039V265.185C245.926 264.841 245.646 264.55 245.291 264.55C244.946 264.55 244.656 264.83 244.656 265.185V274.039C244.656 274.383 244.936 274.673 245.291 274.673Z" fill="#DF602F"/>
<path d="M242.966 274.673C243.31 274.673 243.601 274.394 243.601 274.039V265.185C243.601 264.841 243.321 264.55 242.966 264.55C242.621 264.55 242.331 264.83 242.331 265.185V274.039C242.331 274.383 242.611 274.673 242.966 274.673Z" fill="#DF602F"/>
<path d="M240.652 274.673C240.996 274.673 241.287 274.394 241.287 274.039V265.185C241.287 264.841 241.007 264.55 240.652 264.55C240.307 264.55 240.017 264.83 240.017 265.185V274.039C240.017 274.383 240.296 274.673 240.652 274.673Z" fill="#DF602F"/>
<path d="M238.327 274.673C238.671 274.673 238.962 274.394 238.962 274.039V265.185C238.962 264.841 238.682 264.55 238.327 264.55C237.982 264.55 237.692 264.83 237.692 265.185V274.039C237.692 274.383 237.972 274.673 238.327 274.673Z" fill="#DF602F"/>
<path d="M236.012 274.673C236.357 274.673 236.647 274.394 236.647 274.039V265.185C236.647 264.841 236.367 264.55 236.012 264.55C235.668 264.55 235.377 264.83 235.377 265.185V274.039C235.377 274.383 235.657 274.673 236.012 274.673Z" fill="#DF602F"/>
<path d="M234.322 265.185C234.322 264.834 234.038 264.55 233.687 264.55C233.337 264.55 233.052 264.834 233.052 265.185V274.039C233.052 274.389 233.337 274.673 233.687 274.673C234.038 274.673 234.322 274.389 234.322 274.039V265.185Z" fill="#DF602F"/>
<path d="M231.373 274.673C231.718 274.673 232.008 274.394 232.008 274.039V265.185C232.008 264.841 231.728 264.55 231.373 264.55C231.029 264.55 230.738 264.83 230.738 265.185V274.039C230.738 274.383 231.018 274.673 231.373 274.673Z" fill="#DF602F"/>
<path d="M229.048 274.673C229.392 274.673 229.683 274.394 229.683 274.039V265.185C229.683 264.841 229.403 264.55 229.048 264.55C228.703 264.55 228.413 264.83 228.413 265.185V274.039C228.413 274.383 228.693 274.673 229.048 274.673Z" fill="#DF602F"/>
<path d="M226.723 274.673C227.067 274.673 227.358 274.394 227.358 274.039V265.185C227.358 264.841 227.078 264.55 226.723 264.55C226.379 264.55 226.088 264.83 226.088 265.185V274.039C226.088 274.383 226.368 274.673 226.723 274.673Z" fill="#DF602F"/>
<path d="M144.873 288.164H84.0241C83.3048 288.164 82.7217 288.747 82.7217 289.466V299.342C82.7217 300.061 83.3048 300.643 84.0241 300.643H144.873C145.593 300.643 146.176 300.061 146.176 299.342V289.466C146.176 288.747 145.593 288.164 144.873 288.164Z" fill="#DF602F"/>
<path d="M144.798 299.632C145.142 299.632 145.433 299.352 145.433 298.997V290.144C145.433 289.799 145.153 289.509 144.798 289.509C144.453 289.509 144.163 289.789 144.163 290.144V298.997C144.163 299.342 144.443 299.632 144.798 299.632Z" fill="#DF602F"/>
<path d="M142.484 299.632C142.828 299.632 143.119 299.352 143.119 298.997V290.144C143.119 289.799 142.839 289.509 142.484 289.509C142.139 289.509 141.849 289.789 141.849 290.144V298.997C141.849 299.342 142.128 299.632 142.484 299.632Z" fill="#DF602F"/>
<path d="M137.844 299.632C138.189 299.632 138.479 299.352 138.479 298.997V290.144C138.479 289.799 138.2 289.509 137.844 289.509C137.5 289.509 137.209 289.789 137.209 290.144V298.997C137.209 299.342 137.489 299.632 137.844 299.632Z" fill="#DF602F"/>
<path d="M135.519 299.632C135.864 299.632 136.154 299.352 136.154 298.997V290.144C136.154 289.799 135.875 289.509 135.519 289.509C135.175 289.509 134.884 289.789 134.884 290.144V298.997C134.884 299.342 135.164 299.632 135.519 299.632Z" fill="#DF602F"/>
<path d="M133.205 299.632C133.549 299.632 133.84 299.352 133.84 298.997V290.144C133.84 289.799 133.56 289.509 133.205 289.509C132.86 289.509 132.57 289.789 132.57 290.144V298.997C132.57 299.342 132.85 299.632 133.205 299.632Z" fill="#DF602F"/>
<path d="M130.88 299.632C131.224 299.632 131.515 299.352 131.515 298.997V290.144C131.515 289.799 131.235 289.509 130.88 289.509C130.535 289.509 130.245 289.789 130.245 290.144V298.997C130.245 299.342 130.525 299.632 130.88 299.632Z" fill="#DF602F"/>
<path d="M128.555 299.632C128.899 299.632 129.19 299.352 129.19 298.997V290.144C129.19 289.799 128.91 289.509 128.555 289.509C128.211 289.509 127.92 289.789 127.92 290.144V298.997C127.92 299.342 128.2 299.632 128.555 299.632Z" fill="#DF602F"/>
<path d="M126.241 299.632C126.585 299.632 126.876 299.352 126.876 298.997V290.144C126.876 289.799 126.596 289.509 126.241 289.509C125.896 289.509 125.606 289.789 125.606 290.144V298.997C125.606 299.342 125.886 299.632 126.241 299.632Z" fill="#DF602F"/>
<path d="M123.916 299.632C124.26 299.632 124.551 299.352 124.551 298.997V290.144C124.551 289.799 124.271 289.509 123.916 289.509C123.571 289.509 123.281 289.789 123.281 290.144V298.997C123.281 299.342 123.56 299.632 123.916 299.632Z" fill="#DF602F"/>
<path d="M121.601 299.632C121.946 299.632 122.236 299.352 122.236 298.997V290.144C122.236 289.799 121.957 289.509 121.601 289.509C121.257 289.509 120.966 289.789 120.966 290.144V298.997C120.966 299.342 121.246 299.632 121.601 299.632Z" fill="#DF602F"/>
<path d="M119.276 299.632C119.621 299.632 119.912 299.352 119.912 298.997V290.144C119.912 289.799 119.632 289.509 119.276 289.509C118.932 289.509 118.641 289.789 118.641 290.144V298.997C118.641 299.342 118.921 299.632 119.276 299.632Z" fill="#DF602F"/>
<path d="M116.962 299.632C117.306 299.632 117.597 299.352 117.597 298.997V290.144C117.597 289.799 117.317 289.509 116.962 289.509C116.618 289.509 116.327 289.789 116.327 290.144V298.997C116.327 299.342 116.607 299.632 116.962 299.632Z" fill="#DF602F"/>
<path d="M114.637 299.632C114.981 299.632 115.272 299.352 115.272 298.997V290.144C115.272 289.799 114.992 289.509 114.637 289.509C114.293 289.509 114.002 289.789 114.002 290.144V298.997C114.002 299.342 114.282 299.632 114.637 299.632Z" fill="#DF602F"/>
<path d="M105.358 299.632C105.703 299.632 105.994 299.352 105.994 298.997V290.144C105.994 289.799 105.714 289.509 105.358 289.509C105.014 289.509 104.723 289.789 104.723 290.144V298.997C104.723 299.342 105.003 299.632 105.358 299.632Z" fill="#DF602F"/>
<path d="M103.034 299.632C103.378 299.632 103.669 299.352 103.669 298.997V290.144C103.669 289.799 103.389 289.509 103.034 289.509C102.689 289.509 102.398 289.789 102.398 290.144V298.997C102.398 299.342 102.678 299.632 103.034 299.632Z" fill="#DF602F"/>
<path d="M101.354 290.144C101.354 289.793 101.07 289.509 100.719 289.509C100.368 289.509 100.084 289.793 100.084 290.144V298.997C100.084 299.348 100.368 299.632 100.719 299.632C101.07 299.632 101.354 299.348 101.354 298.997V290.144Z" fill="#DF602F"/>
<path d="M98.3941 299.632C98.7386 299.632 99.0292 299.352 99.0292 298.997V290.144C99.0292 289.799 98.7493 289.509 98.3941 289.509C98.0497 289.509 97.759 289.789 97.759 290.144V298.997C97.759 299.342 98.0389 299.632 98.3941 299.632Z" fill="#DF602F"/>
<path d="M96.0799 299.632C96.4244 299.632 96.715 299.352 96.715 298.997V290.144C96.715 289.799 96.4351 289.509 96.0799 289.509C95.7355 289.509 95.4448 289.789 95.4448 290.144V298.997C95.4448 299.342 95.7247 299.632 96.0799 299.632Z" fill="#DF602F"/>
<path d="M93.7547 299.632C94.0992 299.632 94.3898 299.352 94.3898 298.997V290.144C94.3898 289.799 94.1099 289.509 93.7547 289.509C93.4103 289.509 93.1196 289.789 93.1196 290.144V298.997C93.1196 299.342 93.3995 299.632 93.7547 299.632Z" fill="#DF602F"/>
<path d="M91.4298 299.632C91.7742 299.632 92.0648 299.352 92.0648 298.997V290.144C92.0648 289.799 91.785 289.509 91.4298 289.509C91.0853 289.509 90.7947 289.789 90.7947 290.144V298.997C90.7947 299.342 91.0745 299.632 91.4298 299.632Z" fill="#DF602F"/>
<path d="M89.1156 299.632C89.46 299.632 89.7506 299.352 89.7506 298.997V290.144C89.7506 289.799 89.4708 289.509 89.1156 289.509C88.7711 289.509 88.4805 289.789 88.4805 290.144V298.997C88.4805 299.342 88.7603 299.632 89.1156 299.632Z" fill="#DF602F"/>
<path d="M86.7906 299.632C87.135 299.632 87.4257 299.352 87.4257 298.997V290.144C87.4257 289.799 87.1458 289.509 86.7906 289.509C86.4461 289.509 86.1555 289.789 86.1555 290.144V298.997C86.1555 299.342 86.4354 299.632 86.7906 299.632Z" fill="#DF602F"/>
<path d="M84.4761 299.632C84.8206 299.632 85.1112 299.352 85.1112 298.997V290.144C85.1112 289.799 84.8314 289.509 84.4761 289.509C84.1317 289.509 83.8411 289.789 83.8411 290.144V298.997C83.8411 299.342 84.1209 299.632 84.4761 299.632Z" fill="#DF602F"/>
<path d="M82.1512 299.632C82.4956 299.632 82.7863 299.352 82.7863 298.997V290.144C82.7863 289.799 82.5064 289.509 82.1512 289.509C81.8067 289.509 81.5161 289.789 81.5161 290.144V298.997C81.5161 299.342 81.796 299.632 82.1512 299.632Z" fill="#DF602F"/>
<path d="M156.638 275.685H95.7893C95.0699 275.685 94.4868 276.267 94.4868 276.986V286.862C94.4868 287.581 95.0699 288.164 95.7893 288.164H156.638C157.358 288.164 157.941 287.581 157.941 286.862V276.986C157.941 276.267 157.358 275.685 156.638 275.685Z" fill="#B53E11"/>
<path d="M156.563 287.153C156.908 287.153 157.198 286.873 157.198 286.518V277.664C157.198 277.32 156.918 277.029 156.563 277.029C156.219 277.029 155.928 277.309 155.928 277.664V286.518C155.928 286.862 156.208 287.153 156.563 287.153Z" fill="#DF602F"/>
<path d="M154.238 287.153C154.582 287.153 154.873 286.873 154.873 286.518V277.664C154.873 277.32 154.593 277.029 154.238 277.029C153.893 277.029 153.603 277.309 153.603 277.664V286.518C153.603 286.862 153.883 287.153 154.238 287.153Z" fill="#DF602F"/>
<path d="M149.599 287.153C149.943 287.153 150.234 286.873 150.234 286.518V277.664C150.234 277.32 149.954 277.029 149.599 277.029C149.254 277.029 148.964 277.309 148.964 277.664V286.518C148.964 286.862 149.243 287.153 149.599 287.153Z" fill="#DF602F"/>
<path d="M147.284 287.153C147.629 287.153 147.92 286.873 147.92 286.518V277.664C147.92 277.32 147.64 277.029 147.284 277.029C146.94 277.029 146.649 277.309 146.649 277.664V286.518C146.649 286.862 146.929 287.153 147.284 287.153Z" fill="#DF602F"/>
<path d="M144.959 287.153C145.304 287.153 145.594 286.873 145.594 286.518V277.664C145.594 277.32 145.315 277.029 144.959 277.029C144.615 277.029 144.324 277.309 144.324 277.664V286.518C144.324 286.862 144.604 287.153 144.959 287.153Z" fill="#DF602F"/>
<path d="M142.645 287.153C142.99 287.153 143.28 286.873 143.28 286.518V277.664C143.28 277.32 143 277.029 142.645 277.029C142.301 277.029 142.01 277.309 142.01 277.664V286.518C142.01 286.862 142.29 287.153 142.645 287.153Z" fill="#DF602F"/>
<path d="M140.32 287.153C140.665 287.153 140.955 286.873 140.955 286.518V277.664C140.955 277.32 140.675 277.029 140.32 277.029C139.976 277.029 139.685 277.309 139.685 277.664V286.518C139.685 286.862 139.965 287.153 140.32 287.153Z" fill="#DF602F"/>
<path d="M137.995 287.153C138.339 287.153 138.63 286.873 138.63 286.518V277.664C138.63 277.32 138.35 277.029 137.995 277.029C137.65 277.029 137.36 277.309 137.36 277.664V286.518C137.36 286.862 137.64 287.153 137.995 287.153Z" fill="#DF602F"/>
<path d="M135.681 287.153C136.025 287.153 136.316 286.873 136.316 286.518V277.664C136.316 277.32 136.036 277.029 135.681 277.029C135.336 277.029 135.046 277.309 135.046 277.664V286.518C135.046 286.862 135.326 287.153 135.681 287.153Z" fill="#DF602F"/>
<path d="M133.356 287.153C133.7 287.153 133.991 286.873 133.991 286.518V277.664C133.991 277.32 133.711 277.029 133.356 277.029C133.011 277.029 132.721 277.309 132.721 277.664V286.518C132.721 286.862 133.001 287.153 133.356 287.153Z" fill="#DF602F"/>
<path d="M131.042 287.153C131.386 287.153 131.677 286.873 131.677 286.518V277.664C131.677 277.32 131.397 277.029 131.042 277.029C130.697 277.029 130.406 277.309 130.406 277.664V286.518C130.406 286.862 130.686 287.153 131.042 287.153Z" fill="#DF602F"/>
<path d="M128.716 287.153C129.061 287.153 129.351 286.873 129.351 286.518V277.664C129.351 277.32 129.072 277.029 128.716 277.029C128.372 277.029 128.081 277.309 128.081 277.664V286.518C128.081 286.862 128.361 287.153 128.716 287.153Z" fill="#DF602F"/>
<path d="M126.402 287.153C126.747 287.153 127.037 286.873 127.037 286.518V277.664C127.037 277.32 126.757 277.029 126.402 277.029C126.058 277.029 125.767 277.309 125.767 277.664V286.518C125.767 286.862 126.047 287.153 126.402 287.153Z" fill="#DF602F"/>
<path d="M117.113 287.153C117.457 287.153 117.748 286.873 117.748 286.518V277.664C117.748 277.32 117.468 277.029 117.113 277.029C116.768 277.029 116.478 277.309 116.478 277.664V286.518C116.478 286.862 116.758 287.153 117.113 287.153Z" fill="#DF602F"/>
<path d="M114.799 287.153C115.143 287.153 115.434 286.873 115.434 286.518V277.664C115.434 277.32 115.154 277.029 114.799 277.029C114.454 277.029 114.164 277.309 114.164 277.664V286.518C114.164 286.862 114.443 287.153 114.799 287.153Z" fill="#DF602F"/>
<path d="M112.473 287.153C112.818 287.153 113.109 286.873 113.109 286.518V277.664C113.109 277.32 112.829 277.029 112.473 277.029C112.129 277.029 111.838 277.309 111.838 277.664V286.518C111.838 286.862 112.118 287.153 112.473 287.153Z" fill="#DF602F"/>
<path d="M110.159 287.153C110.504 287.153 110.794 286.873 110.794 286.518V277.664C110.794 277.32 110.514 277.029 110.159 277.029C109.815 277.029 109.524 277.309 109.524 277.664V286.518C109.524 286.862 109.804 287.153 110.159 287.153Z" fill="#DF602F"/>
<path d="M107.834 287.153C108.179 287.153 108.469 286.873 108.469 286.518V277.664C108.469 277.32 108.19 277.029 107.834 277.029C107.49 277.029 107.199 277.309 107.199 277.664V286.518C107.199 286.862 107.479 287.153 107.834 287.153Z" fill="#DF602F"/>
<path d="M105.509 287.153C105.854 287.153 106.144 286.873 106.144 286.518V277.664C106.144 277.32 105.864 277.029 105.509 277.029C105.165 277.029 104.874 277.309 104.874 277.664V286.518C104.874 286.862 105.154 287.153 105.509 287.153Z" fill="#DF602F"/>
<path d="M103.195 287.153C103.539 287.153 103.83 286.873 103.83 286.518V277.664C103.83 277.32 103.55 277.029 103.195 277.029C102.85 277.029 102.56 277.309 102.56 277.664V286.518C102.56 286.862 102.84 287.153 103.195 287.153Z" fill="#DF602F"/>
<path d="M100.87 287.153C101.214 287.153 101.505 286.873 101.505 286.518V277.664C101.505 277.32 101.225 277.029 100.87 277.029C100.525 277.029 100.235 277.309 100.235 277.664V286.518C100.235 286.862 100.515 287.153 100.87 287.153Z" fill="#DF602F"/>
<path d="M98.5557 287.153C98.9002 287.153 99.1908 286.873 99.1908 286.518V277.664C99.1908 277.32 98.9109 277.029 98.5557 277.029C98.2113 277.029 97.9207 277.309 97.9207 277.664V286.518C97.9207 286.862 98.2005 287.153 98.5557 287.153Z" fill="#DF602F"/>
<path d="M96.2305 287.153C96.575 287.153 96.8656 286.873 96.8656 286.518V277.664C96.8656 277.32 96.5858 277.029 96.2305 277.029C95.8861 277.029 95.5955 277.309 95.5955 277.664V286.518C95.5955 286.862 95.8753 287.153 96.2305 287.153Z" fill="#DF602F"/>
<path d="M93.9163 287.153C94.2608 287.153 94.5514 286.873 94.5514 286.518V277.664C94.5514 277.32 94.2715 277.029 93.9163 277.029C93.5719 277.029 93.2812 277.309 93.2812 277.664V286.518C93.2812 286.862 93.5611 287.153 93.9163 287.153Z" fill="#DF602F"/>
<path d="M149.835 263.195H88.9863C88.267 263.195 87.6838 263.777 87.6838 264.496V274.372C87.6838 275.091 88.267 275.674 88.9863 275.674H149.835C150.555 275.674 151.138 275.091 151.138 274.372V264.496C151.138 263.777 150.555 263.195 149.835 263.195Z" fill="#DF602F"/>
<path d="M149.76 274.673C150.105 274.673 150.395 274.394 150.395 274.039V265.185C150.395 264.841 150.115 264.55 149.76 264.55C149.416 264.55 149.125 264.83 149.125 265.185V274.039C149.125 274.383 149.405 274.673 149.76 274.673Z" fill="#DF602F"/>
<path d="M147.435 274.673C147.78 274.673 148.07 274.394 148.07 274.039V265.185C148.07 264.841 147.79 264.55 147.435 264.55C147.091 264.55 146.8 264.83 146.8 265.185V274.039C146.8 274.383 147.08 274.673 147.435 274.673Z" fill="#DF602F"/>
<path d="M143.431 265.185C143.431 264.834 143.146 264.55 142.796 264.55C142.445 264.55 142.161 264.834 142.161 265.185V274.039C142.161 274.389 142.445 274.673 142.796 274.673C143.146 274.673 143.431 274.389 143.431 274.039V265.185Z" fill="#DF602F"/>
<path d="M140.482 274.673C140.826 274.673 141.117 274.394 141.117 274.039V265.185C141.117 264.841 140.837 264.55 140.482 264.55C140.137 264.55 139.846 264.83 139.846 265.185V274.039C139.846 274.383 140.126 274.673 140.482 274.673Z" fill="#DF602F"/>
<path d="M138.156 274.673C138.501 274.673 138.791 274.394 138.791 274.039V265.185C138.791 264.841 138.512 264.55 138.156 264.55C137.812 264.55 137.521 264.83 137.521 265.185V274.039C137.521 274.383 137.801 274.673 138.156 274.673Z" fill="#DF602F"/>
<path d="M135.842 274.673C136.187 274.673 136.477 274.394 136.477 274.039V265.185C136.477 264.841 136.197 264.55 135.842 264.55C135.498 264.55 135.207 264.83 135.207 265.185V274.039C135.207 274.383 135.487 274.673 135.842 274.673Z" fill="#DF602F"/>
<path d="M133.517 274.673C133.862 274.673 134.152 274.394 134.152 274.039V265.185C134.152 264.841 133.872 264.55 133.517 264.55C133.173 264.55 132.882 264.83 132.882 265.185V274.039C132.882 274.383 133.162 274.673 133.517 274.673Z" fill="#DF602F"/>
<path d="M131.192 274.673C131.536 274.673 131.827 274.394 131.827 274.039V265.185C131.827 264.841 131.547 264.55 131.192 264.55C130.848 264.55 130.557 264.83 130.557 265.185V274.039C130.557 274.383 130.837 274.673 131.192 274.673Z" fill="#DF602F"/>
<path d="M128.878 274.673C129.222 274.673 129.513 274.394 129.513 274.039V265.185C129.513 264.841 129.233 264.55 128.878 264.55C128.533 264.55 128.243 264.83 128.243 265.185V274.039C128.243 274.383 128.523 274.673 128.878 274.673Z" fill="#DF602F"/>
<path d="M126.553 274.673C126.897 274.673 127.188 274.394 127.188 274.039V265.185C127.188 264.841 126.908 264.55 126.553 264.55C126.208 264.55 125.918 264.83 125.918 265.185V274.039C125.918 274.383 126.198 274.673 126.553 274.673Z" fill="#DF602F"/>
<path d="M124.239 274.673C124.583 274.673 124.874 274.394 124.874 274.039V265.185C124.874 264.841 124.594 264.55 124.239 264.55C123.894 264.55 123.604 264.83 123.604 265.185V274.039C123.604 274.383 123.883 274.673 124.239 274.673Z" fill="#DF602F"/>
<path d="M121.913 274.673C122.258 274.673 122.548 274.394 122.548 274.039V265.185C122.548 264.841 122.269 264.55 121.913 264.55C121.569 264.55 121.278 264.83 121.278 265.185V274.039C121.278 274.383 121.558 274.673 121.913 274.673Z" fill="#DF602F"/>
<path d="M119.599 274.673C119.944 274.673 120.234 274.394 120.234 274.039V265.185C120.234 264.841 119.954 264.55 119.599 264.55C119.255 264.55 118.964 264.83 118.964 265.185V274.039C118.964 274.383 119.244 274.673 119.599 274.673Z" fill="#DF602F"/>
<path d="M110.31 274.673C110.654 274.673 110.945 274.394 110.945 274.039V265.185C110.945 264.841 110.665 264.55 110.31 264.55C109.965 264.55 109.675 264.83 109.675 265.185V274.039C109.675 274.383 109.955 274.673 110.31 274.673Z" fill="#DF602F"/>
<path d="M107.996 274.673C108.34 274.673 108.631 274.394 108.631 274.039V265.185C108.631 264.841 108.351 264.55 107.996 264.55C107.651 264.55 107.361 264.83 107.361 265.185V274.039C107.361 274.383 107.64 274.673 107.996 274.673Z" fill="#DF602F"/>
<path d="M105.67 274.673C106.015 274.673 106.306 274.394 106.306 274.039V265.185C106.306 264.841 106.026 264.55 105.67 264.55C105.326 264.55 105.035 264.83 105.035 265.185V274.039C105.035 274.383 105.315 274.673 105.67 274.673Z" fill="#DF602F"/>
<path d="M103.356 274.673C103.701 274.673 103.991 274.394 103.991 274.039V265.185C103.991 264.841 103.711 264.55 103.356 264.55C103.012 264.55 102.721 264.83 102.721 265.185V274.039C102.721 274.383 103.001 274.673 103.356 274.673Z" fill="#DF602F"/>
<path d="M101.031 274.673C101.376 274.673 101.666 274.394 101.666 274.039V265.185C101.666 264.841 101.387 264.55 101.031 264.55C100.687 264.55 100.396 264.83 100.396 265.185V274.039C100.396 274.383 100.676 274.673 101.031 274.673Z" fill="#DF602F"/>
<path d="M98.7061 274.673C99.0506 274.673 99.3412 274.394 99.3412 274.039V265.185C99.3412 264.841 99.0613 264.55 98.7061 264.55C98.3617 264.55 98.071 264.83 98.071 265.185V274.039C98.071 274.383 98.3509 274.673 98.7061 274.673Z" fill="#DF602F"/>
<path d="M96.3919 274.673C96.7364 274.673 97.027 274.394 97.027 274.039V265.185C97.027 264.841 96.7471 264.55 96.3919 264.55C96.0475 264.55 95.7568 264.83 95.7568 265.185V274.039C95.7568 274.383 96.0367 274.673 96.3919 274.673Z" fill="#DF602F"/>
<path d="M94.067 274.673C94.4114 274.673 94.702 274.394 94.702 274.039V265.185C94.702 264.841 94.4222 264.55 94.067 264.55C93.7225 264.55 93.4319 264.83 93.4319 265.185V274.039C93.4319 274.383 93.7117 274.673 94.067 274.673Z" fill="#DF602F"/>
<path d="M91.7527 274.673C92.0972 274.673 92.3878 274.394 92.3878 274.039V265.185C92.3878 264.841 92.108 264.55 91.7527 264.55C91.4083 264.55 91.1177 264.83 91.1177 265.185V274.039C91.1177 274.383 91.3975 274.673 91.7527 274.673Z" fill="#DF602F"/>
<path d="M89.4276 274.673C89.772 274.673 90.0626 274.394 90.0626 274.039V265.185C90.0626 264.841 89.7828 264.55 89.4276 264.55C89.0831 264.55 88.7925 264.83 88.7925 265.185V274.039C88.7925 274.383 89.0723 274.673 89.4276 274.673Z" fill="#DF602F"/>
<path d="M87.1134 274.673C87.4578 274.673 87.7484 274.394 87.7484 274.039V265.185C87.7484 264.841 87.4686 264.55 87.1134 264.55C86.7689 264.55 86.4783 264.83 86.4783 265.185V274.039C86.4783 274.383 86.7581 274.673 87.1134 274.673Z" fill="#DF602F"/>
<path d="M271.674 250.715H210.824C210.105 250.715 209.522 251.298 209.522 252.017V261.893C209.522 262.612 210.105 263.195 210.824 263.195H271.674C272.393 263.195 272.976 262.612 272.976 261.893V252.017C272.976 251.298 272.393 250.715 271.674 250.715Z" fill="#B53E11"/>
<path d="M271.609 262.183C271.953 262.183 272.244 261.904 272.244 261.549V252.695C272.244 252.35 271.964 252.06 271.609 252.06C271.265 252.06 270.974 252.34 270.974 252.695V261.549C270.974 261.893 271.254 262.183 271.609 262.183Z" fill="#DF602F"/>
<path d="M269.284 262.183C269.628 262.183 269.919 261.904 269.919 261.549V252.695C269.919 252.35 269.639 252.06 269.284 252.06C268.94 252.06 268.649 252.34 268.649 252.695V261.549C268.649 261.893 268.929 262.183 269.284 262.183Z" fill="#DF602F"/>
<path d="M264.645 262.183C264.989 262.183 265.28 261.904 265.28 261.549V252.695C265.28 252.35 265 252.06 264.645 252.06C264.3 252.06 264.01 252.34 264.01 252.695V261.549C264.01 261.893 264.289 262.183 264.645 262.183Z" fill="#DF602F"/>
<path d="M262.32 262.183C262.664 262.183 262.955 261.904 262.955 261.549V252.695C262.955 252.35 262.675 252.06 262.32 252.06C261.975 252.06 261.685 252.34 261.685 252.695V261.549C261.685 261.893 261.964 262.183 262.32 262.183Z" fill="#DF602F"/>
<path d="M260.005 262.183C260.35 262.183 260.64 261.904 260.64 261.549V252.695C260.64 252.35 260.36 252.06 260.005 252.06C259.661 252.06 259.37 252.34 259.37 252.695V261.549C259.37 261.893 259.65 262.183 260.005 262.183Z" fill="#DF602F"/>
<path d="M257.68 262.183C258.025 262.183 258.315 261.904 258.315 261.549V252.695C258.315 252.35 258.035 252.06 257.68 252.06C257.336 252.06 257.045 252.34 257.045 252.695V261.549C257.045 261.893 257.325 262.183 257.68 262.183Z" fill="#DF602F"/>
<path d="M255.366 262.183C255.71 262.183 256.001 261.904 256.001 261.549V252.695C256.001 252.35 255.721 252.06 255.366 252.06C255.022 252.06 254.731 252.34 254.731 252.695V261.549C254.731 261.893 255.011 262.183 255.366 262.183Z" fill="#DF602F"/>
<path d="M253.041 262.183C253.386 262.183 253.676 261.904 253.676 261.549V252.695C253.676 252.35 253.396 252.06 253.041 252.06C252.697 252.06 252.406 252.34 252.406 252.695V261.549C252.406 261.893 252.686 262.183 253.041 262.183Z" fill="#DF602F"/>
<path d="M250.727 262.183C251.071 262.183 251.362 261.904 251.362 261.549V252.695C251.362 252.35 251.082 252.06 250.727 252.06C250.382 252.06 250.092 252.34 250.092 252.695V261.549C250.092 261.893 250.371 262.183 250.727 262.183Z" fill="#DF602F"/>
<path d="M248.402 262.183C248.746 262.183 249.037 261.904 249.037 261.549V252.695C249.037 252.35 248.757 252.06 248.402 252.06C248.057 252.06 247.767 252.34 247.767 252.695V261.549C247.767 261.893 248.046 262.183 248.402 262.183Z" fill="#DF602F"/>
<path d="M246.077 262.183C246.421 262.183 246.712 261.904 246.712 261.549V252.695C246.712 252.35 246.432 252.06 246.077 252.06C245.732 252.06 245.442 252.34 245.442 252.695V261.549C245.442 261.893 245.722 262.183 246.077 262.183Z" fill="#DF602F"/>
<path d="M243.762 262.183C244.107 262.183 244.397 261.904 244.397 261.549V252.695C244.397 252.35 244.118 252.06 243.762 252.06C243.418 252.06 243.127 252.34 243.127 252.695V261.549C243.127 261.893 243.407 262.183 243.762 262.183Z" fill="#DF602F"/>
<path d="M241.437 262.183C241.782 262.183 242.072 261.904 242.072 261.549V252.695C242.072 252.35 241.793 252.06 241.437 252.06C241.093 252.06 240.802 252.34 240.802 252.695V261.549C240.802 261.893 241.082 262.183 241.437 262.183Z" fill="#DF602F"/>
<path d="M232.159 262.183C232.503 262.183 232.794 261.904 232.794 261.549V252.695C232.794 252.35 232.514 252.06 232.159 252.06C231.814 252.06 231.524 252.34 231.524 252.695V261.549C231.524 261.893 231.804 262.183 232.159 262.183Z" fill="#DF602F"/>
<path d="M229.834 262.183C230.178 262.183 230.469 261.904 230.469 261.549V252.695C230.469 252.35 230.189 252.06 229.834 252.06C229.489 252.06 229.199 252.34 229.199 252.695V261.549C229.199 261.893 229.479 262.183 229.834 262.183Z" fill="#DF602F"/>
<path d="M227.519 262.183C227.864 262.183 228.154 261.904 228.154 261.549V252.695C228.154 252.35 227.875 252.06 227.519 252.06C227.175 252.06 226.884 252.34 226.884 252.695V261.549C226.884 261.893 227.164 262.183 227.519 262.183Z" fill="#DF602F"/>
<path d="M225.194 262.183C225.539 262.183 225.829 261.904 225.829 261.549V252.695C225.829 252.35 225.55 252.06 225.194 252.06C224.85 252.06 224.559 252.34 224.559 252.695V261.549C224.559 261.893 224.839 262.183 225.194 262.183Z" fill="#DF602F"/>
<path d="M222.88 262.183C223.225 262.183 223.515 261.904 223.515 261.549V252.695C223.515 252.35 223.235 252.06 222.88 252.06C222.536 252.06 222.245 252.34 222.245 252.695V261.549C222.245 261.893 222.525 262.183 222.88 262.183Z" fill="#DF602F"/>
<path d="M220.555 262.183C220.899 262.183 221.19 261.904 221.19 261.549V252.695C221.19 252.35 220.91 252.06 220.555 252.06C220.211 252.06 219.92 252.34 219.92 252.695V261.549C219.92 261.893 220.2 262.183 220.555 262.183Z" fill="#DF602F"/>
<path d="M218.241 262.183C218.585 262.183 218.876 261.904 218.876 261.549V252.695C218.876 252.35 218.596 252.06 218.241 252.06C217.896 252.06 217.606 252.34 217.606 252.695V261.549C217.606 261.893 217.886 262.183 218.241 262.183Z" fill="#DF602F"/>
<path d="M215.916 262.183C216.26 262.183 216.551 261.904 216.551 261.549V252.695C216.551 252.35 216.271 252.06 215.916 252.06C215.571 252.06 215.281 252.34 215.281 252.695V261.549C215.281 261.893 215.561 262.183 215.916 262.183Z" fill="#DF602F"/>
<path d="M213.591 262.183C213.935 262.183 214.226 261.904 214.226 261.549V252.695C214.226 252.35 213.946 252.06 213.591 252.06C213.246 252.06 212.956 252.34 212.956 252.695V261.549C212.956 261.893 213.236 262.183 213.591 262.183Z" fill="#DF602F"/>
<path d="M211.276 262.183C211.621 262.183 211.912 261.904 211.912 261.549V252.695C211.912 252.35 211.632 252.06 211.276 252.06C210.932 252.06 210.641 252.34 210.641 252.695V261.549C210.641 261.893 210.921 262.183 211.276 262.183Z" fill="#DF602F"/>
<path d="M208.951 262.183C209.296 262.183 209.587 261.904 209.587 261.549V252.695C209.587 252.35 209.307 252.06 208.951 252.06C208.607 252.06 208.316 252.34 208.316 252.695V261.549C208.316 261.893 208.596 262.183 208.951 262.183Z" fill="#DF602F"/>
<path d="M268.714 238.236H207.886C207.161 238.236 206.573 238.823 206.573 239.548V249.403C206.573 250.128 207.161 250.715 207.886 250.715H268.714C269.439 250.715 270.027 250.128 270.027 249.403V239.548C270.027 238.823 269.439 238.236 268.714 238.236Z" fill="#DF602F"/>
<path d="M268.649 249.704C268.993 249.704 269.284 249.424 269.284 249.069V240.215C269.284 239.871 269.004 239.581 268.649 239.581C268.305 239.581 268.014 239.86 268.014 240.215V249.069C268.014 249.414 268.294 249.704 268.649 249.704Z" fill="#DF602F"/>
<path d="M266.335 249.704C266.679 249.704 266.97 249.424 266.97 249.069V240.215C266.97 239.871 266.69 239.581 266.335 239.581C265.99 239.581 265.7 239.86 265.7 240.215V249.069C265.7 249.414 265.98 249.704 266.335 249.704Z" fill="#DF602F"/>
<path d="M261.695 249.704C262.04 249.704 262.33 249.424 262.33 249.069V240.215C262.33 239.871 262.051 239.581 261.695 239.581C261.351 239.581 261.06 239.86 261.06 240.215V249.069C261.06 249.414 261.34 249.704 261.695 249.704Z" fill="#DF602F"/>
<path d="M259.37 249.704C259.715 249.704 260.006 249.424 260.006 249.069V240.215C260.006 239.871 259.726 239.581 259.37 239.581C259.026 239.581 258.735 239.86 258.735 240.215V249.069C258.735 249.414 259.015 249.704 259.37 249.704Z" fill="#DF602F"/>
<path d="M257.045 249.704C257.39 249.704 257.68 249.424 257.68 249.069V240.215C257.68 239.871 257.4 239.581 257.045 239.581C256.701 239.581 256.41 239.86 256.41 240.215V249.069C256.41 249.414 256.69 249.704 257.045 249.704Z" fill="#DF602F"/>
<path d="M254.731 249.704C255.075 249.704 255.366 249.424 255.366 249.069V240.215C255.366 239.871 255.086 239.581 254.731 239.581C254.387 239.581 254.096 239.86 254.096 240.215V249.069C254.096 249.414 254.376 249.704 254.731 249.704Z" fill="#DF602F"/>
<path d="M252.406 249.704C252.751 249.704 253.041 249.424 253.041 249.069V240.215C253.041 239.871 252.761 239.581 252.406 239.581C252.062 239.581 251.771 239.86 251.771 240.215V249.069C251.771 249.414 252.051 249.704 252.406 249.704Z" fill="#DF602F"/>
<path d="M250.727 240.226C250.727 239.876 250.443 239.591 250.092 239.591C249.741 239.591 249.457 239.876 249.457 240.226V249.08C249.457 249.431 249.741 249.715 250.092 249.715C250.443 249.715 250.727 249.431 250.727 249.08V240.226Z" fill="#DF602F"/>
<path d="M247.767 249.704C248.111 249.704 248.402 249.424 248.402 249.069V240.215C248.402 239.871 248.122 239.581 247.767 239.581C247.422 239.581 247.132 239.86 247.132 240.215V249.069C247.132 249.414 247.411 249.704 247.767 249.704Z" fill="#DF602F"/>
<path d="M245.452 249.704C245.797 249.704 246.088 249.424 246.088 249.069V240.215C246.088 239.871 245.808 239.581 245.452 239.581C245.108 239.581 244.817 239.86 244.817 240.215V249.069C244.817 249.414 245.097 249.704 245.452 249.704Z" fill="#DF602F"/>
<path d="M243.128 249.704C243.472 249.704 243.763 249.424 243.763 249.069V240.215C243.763 239.871 243.483 239.581 243.128 239.581C242.783 239.581 242.492 239.86 242.492 240.215V249.069C242.492 249.414 242.772 249.704 243.128 249.704Z" fill="#DF602F"/>
<path d="M240.802 249.704C241.147 249.704 241.437 249.424 241.437 249.069V240.215C241.437 239.871 241.158 239.581 240.802 239.581C240.458 239.581 240.167 239.86 240.167 240.215V249.069C240.167 249.414 240.447 249.704 240.802 249.704Z" fill="#DF602F"/>
<path d="M238.488 249.704C238.833 249.704 239.123 249.424 239.123 249.069V240.215C239.123 239.871 238.843 239.581 238.488 239.581C238.144 239.581 237.853 239.86 237.853 240.215V249.069C237.853 249.414 238.133 249.704 238.488 249.704Z" fill="#DF602F"/>
<path d="M229.21 249.704C229.554 249.704 229.845 249.424 229.845 249.069V240.215C229.845 239.871 229.565 239.581 229.21 239.581C228.865 239.581 228.574 239.86 228.574 240.215V249.069C228.574 249.414 228.854 249.704 229.21 249.704Z" fill="#DF602F"/>
<path d="M226.885 249.704C227.229 249.704 227.52 249.424 227.52 249.069V240.215C227.52 239.871 227.24 239.581 226.885 239.581C226.54 239.581 226.25 239.86 226.25 240.215V249.069C226.25 249.414 226.529 249.704 226.885 249.704Z" fill="#DF602F"/>
<path d="M224.57 249.704C224.915 249.704 225.205 249.424 225.205 249.069V240.215C225.205 239.871 224.925 239.581 224.57 239.581C224.226 239.581 223.935 239.86 223.935 240.215V249.069C223.935 249.414 224.215 249.704 224.57 249.704Z" fill="#DF602F"/>
<path d="M222.245 249.704C222.59 249.704 222.88 249.424 222.88 249.069V240.215C222.88 239.871 222.6 239.581 222.245 239.581C221.901 239.581 221.61 239.86 221.61 240.215V249.069C221.61 249.414 221.89 249.704 222.245 249.704Z" fill="#DF602F"/>
<path d="M219.92 249.704C220.265 249.704 220.555 249.424 220.555 249.069V240.215C220.555 239.871 220.275 239.581 219.92 239.581C219.576 239.581 219.285 239.86 219.285 240.215V249.069C219.285 249.414 219.565 249.704 219.92 249.704Z" fill="#DF602F"/>
<path d="M217.606 249.704C217.95 249.704 218.241 249.424 218.241 249.069V240.215C218.241 239.871 217.961 239.581 217.606 239.581C217.262 239.581 216.971 239.86 216.971 240.215V249.069C216.971 249.414 217.251 249.704 217.606 249.704Z" fill="#DF602F"/>
<path d="M215.281 249.704C215.625 249.704 215.916 249.424 215.916 249.069V240.215C215.916 239.871 215.636 239.581 215.281 239.581C214.936 239.581 214.646 239.86 214.646 240.215V249.069C214.646 249.414 214.926 249.704 215.281 249.704Z" fill="#DF602F"/>
<path d="M212.967 249.704C213.311 249.704 213.602 249.424 213.602 249.069V240.215C213.602 239.871 213.322 239.581 212.967 239.581C212.622 239.581 212.332 239.86 212.332 240.215V249.069C212.332 249.414 212.611 249.704 212.967 249.704Z" fill="#DF602F"/>
<path d="M210.642 249.704C210.986 249.704 211.277 249.424 211.277 249.069V240.215C211.277 239.871 210.997 239.581 210.642 239.581C210.297 239.581 210.007 239.86 210.007 240.215V249.069C210.007 249.414 210.286 249.704 210.642 249.704Z" fill="#DF602F"/>
<path d="M208.327 249.704C208.672 249.704 208.962 249.424 208.962 249.069V240.215C208.962 239.871 208.682 239.581 208.327 239.581C207.983 239.581 207.692 239.86 207.692 240.215V249.069C207.692 249.414 207.972 249.704 208.327 249.704Z" fill="#DF602F"/>
<path d="M206.002 249.704C206.347 249.704 206.637 249.424 206.637 249.069V240.215C206.637 239.871 206.357 239.581 206.002 239.581C205.658 239.581 205.367 239.86 205.367 240.215V249.069C205.367 249.414 205.647 249.704 206.002 249.704Z" fill="#DF602F"/>
<path d="M277.745 225.756H216.895C216.176 225.756 215.593 226.339 215.593 227.058V236.934C215.593 237.653 216.176 238.236 216.895 238.236H277.745C278.464 238.236 279.047 237.653 279.047 236.934V227.058C279.047 226.339 278.464 225.756 277.745 225.756Z" fill="#B53E11"/>
<path d="M277.669 237.225C278.014 237.225 278.304 236.945 278.304 236.59V227.736C278.304 227.392 278.024 227.101 277.669 227.101C277.325 227.101 277.034 227.381 277.034 227.736V236.59C277.034 236.934 277.314 237.225 277.669 237.225Z" fill="#DF602F"/>
<path d="M275.355 237.225C275.699 237.225 275.99 236.945 275.99 236.59V227.736C275.99 227.392 275.71 227.101 275.355 227.101C275.011 227.101 274.72 227.381 274.72 227.736V236.59C274.72 236.934 275 237.225 275.355 237.225V237.225Z" fill="#DF602F"/>
<path d="M270.705 237.225C271.049 237.225 271.34 236.945 271.34 236.59V227.736C271.34 227.392 271.06 227.101 270.705 227.101C270.36 227.101 270.07 227.381 270.07 227.736V236.59C270.07 236.934 270.35 237.225 270.705 237.225Z" fill="#DF602F"/>
<path d="M268.391 237.225C268.735 237.225 269.026 236.945 269.026 236.59V227.736C269.026 227.392 268.746 227.101 268.391 227.101C268.046 227.101 267.756 227.381 267.756 227.736V236.59C267.756 236.934 268.035 237.225 268.391 237.225Z" fill="#DF602F"/>
<path d="M266.065 237.225C266.41 237.225 266.701 236.945 266.701 236.59V227.736C266.701 227.392 266.421 227.101 266.065 227.101C265.721 227.101 265.43 227.381 265.43 227.736V236.59C265.43 236.934 265.71 237.225 266.065 237.225Z" fill="#DF602F"/>
<path d="M263.751 237.225C264.096 237.225 264.386 236.945 264.386 236.59V227.736C264.386 227.392 264.106 227.101 263.751 227.101C263.407 227.101 263.116 227.381 263.116 227.736V236.59C263.116 236.934 263.396 237.225 263.751 237.225Z" fill="#DF602F"/>
<path d="M261.426 237.225C261.771 237.225 262.061 236.945 262.061 236.59V227.736C262.061 227.392 261.782 227.101 261.426 227.101C261.082 227.101 260.791 227.381 260.791 227.736V236.59C260.791 236.934 261.071 237.225 261.426 237.225Z" fill="#DF602F"/>
<path d="M259.112 237.225C259.457 237.225 259.747 236.945 259.747 236.59V227.736C259.747 227.392 259.467 227.101 259.112 227.101C258.768 227.101 258.477 227.381 258.477 227.736V236.59C258.477 236.934 258.757 237.225 259.112 237.225Z" fill="#DF602F"/>
<path d="M256.787 237.225C257.131 237.225 257.422 236.945 257.422 236.59V227.736C257.422 227.392 257.142 227.101 256.787 227.101C256.442 227.101 256.152 227.381 256.152 227.736V236.59C256.152 236.934 256.432 237.225 256.787 237.225Z" fill="#DF602F"/>
<path d="M254.462 237.225C254.806 237.225 255.097 236.945 255.097 236.59V227.736C255.097 227.392 254.817 227.101 254.462 227.101C254.118 227.101 253.827 227.381 253.827 227.736V236.59C253.827 236.934 254.107 237.225 254.462 237.225Z" fill="#DF602F"/>
<path d="M252.148 237.225C252.492 237.225 252.783 236.945 252.783 236.59V227.736C252.783 227.392 252.503 227.101 252.148 227.101C251.803 227.101 251.513 227.381 251.513 227.736V236.59C251.513 236.934 251.793 237.225 252.148 237.225Z" fill="#DF602F"/>
<path d="M249.823 237.225C250.167 237.225 250.458 236.945 250.458 236.59V227.736C250.458 227.392 250.178 227.101 249.823 227.101C249.478 227.101 249.188 227.381 249.188 227.736V236.59C249.188 236.934 249.467 237.225 249.823 237.225Z" fill="#DF602F"/>
<path d="M247.508 237.225C247.853 237.225 248.143 236.945 248.143 236.59V227.736C248.143 227.392 247.864 227.101 247.508 227.101C247.164 227.101 246.873 227.381 246.873 227.736V236.59C246.873 236.934 247.153 237.225 247.508 237.225Z" fill="#DF602F"/>
<path d="M238.219 237.225C238.564 237.225 238.854 236.945 238.854 236.59V227.736C238.854 227.392 238.574 227.101 238.219 227.101C237.875 227.101 237.584 227.381 237.584 227.736V236.59C237.584 236.934 237.864 237.225 238.219 237.225Z" fill="#DF602F"/>
<path d="M235.905 237.225C236.249 237.225 236.54 236.945 236.54 236.59V227.736C236.54 227.392 236.26 227.101 235.905 227.101C235.56 227.101 235.27 227.381 235.27 227.736V236.59C235.27 236.934 235.55 237.225 235.905 237.225Z" fill="#DF602F"/>
<path d="M233.58 237.225C233.924 237.225 234.215 236.945 234.215 236.59V227.736C234.215 227.392 233.935 227.101 233.58 227.101C233.235 227.101 232.945 227.381 232.945 227.736V236.59C232.945 236.934 233.224 237.225 233.58 237.225Z" fill="#DF602F"/>
<path d="M231.265 237.225C231.61 237.225 231.901 236.945 231.901 236.59V227.736C231.901 227.392 231.621 227.101 231.265 227.101C230.921 227.101 230.63 227.381 230.63 227.736V236.59C230.63 236.934 230.91 237.225 231.265 237.225Z" fill="#DF602F"/>
<path d="M228.94 237.225C229.285 237.225 229.576 236.945 229.576 236.59V227.736C229.576 227.392 229.296 227.101 228.94 227.101C228.596 227.101 228.305 227.381 228.305 227.736V236.59C228.305 236.934 228.585 237.225 228.94 237.225Z" fill="#DF602F"/>
<path d="M226.626 237.225C226.97 237.225 227.261 236.945 227.261 236.59V227.736C227.261 227.392 226.981 227.101 226.626 227.101C226.282 227.101 225.991 227.381 225.991 227.736V236.59C225.991 236.934 226.271 237.225 226.626 237.225Z" fill="#DF602F"/>
<path d="M224.301 237.225C224.646 237.225 224.936 236.945 224.936 236.59V227.736C224.936 227.392 224.656 227.101 224.301 227.101C223.957 227.101 223.666 227.381 223.666 227.736V236.59C223.666 236.934 223.946 237.225 224.301 237.225Z" fill="#DF602F"/>
<path d="M221.976 237.225C222.321 237.225 222.611 236.945 222.611 236.59V227.736C222.611 227.392 222.331 227.101 221.976 227.101C221.632 227.101 221.341 227.381 221.341 227.736V236.59C221.341 236.934 221.621 237.225 221.976 237.225Z" fill="#DF602F"/>
<path d="M219.662 237.225C220.006 237.225 220.297 236.945 220.297 236.59V227.736C220.297 227.392 220.017 227.101 219.662 227.101C219.317 227.101 219.027 227.381 219.027 227.736V236.59C219.027 236.934 219.307 237.225 219.662 237.225Z" fill="#DF602F"/>
<path d="M217.337 237.225C217.681 237.225 217.972 236.945 217.972 236.59V227.736C217.972 227.392 217.692 227.101 217.337 227.101C216.992 227.101 216.702 227.381 216.702 227.736V236.59C216.702 236.934 216.982 237.225 217.337 237.225Z" fill="#DF602F"/>
<path d="M215.023 237.225C215.367 237.225 215.658 236.945 215.658 236.59V227.736C215.658 227.392 215.378 227.101 215.023 227.101C214.678 227.101 214.387 227.381 214.387 227.736V236.59C214.387 236.934 214.667 237.225 215.023 237.225Z" fill="#DF602F"/>
<path d="M274.042 213.277H213.193C212.473 213.277 211.89 213.86 211.89 214.579V224.455C211.89 225.174 212.473 225.756 213.193 225.756H274.042C274.761 225.756 275.344 225.174 275.344 224.455V214.579C275.344 213.86 274.761 213.277 274.042 213.277Z" fill="#DF602F"/>
<path d="M273.966 224.745C274.311 224.745 274.601 224.466 274.601 224.111V215.257C274.601 214.912 274.322 214.622 273.966 214.622C273.622 214.622 273.331 214.902 273.331 215.257V224.111C273.331 224.455 273.611 224.745 273.966 224.745Z" fill="#DF602F"/>
<path d="M271.652 224.745C271.997 224.745 272.287 224.466 272.287 224.111V215.257C272.287 214.912 272.007 214.622 271.652 214.622C271.308 214.622 271.017 214.902 271.017 215.257V224.111C271.017 224.455 271.297 224.745 271.652 224.745Z" fill="#DF602F"/>
<path d="M267.013 224.745C267.357 224.745 267.648 224.466 267.648 224.111V215.257C267.648 214.912 267.368 214.622 267.013 214.622C266.668 214.622 266.378 214.902 266.378 215.257V224.111C266.378 224.455 266.658 224.745 267.013 224.745Z" fill="#DF602F"/>
<path d="M264.688 224.745C265.032 224.745 265.323 224.466 265.323 224.111V215.257C265.323 214.912 265.043 214.622 264.688 214.622C264.343 214.622 264.053 214.902 264.053 215.257V224.111C264.053 224.455 264.333 224.745 264.688 224.745Z" fill="#DF602F"/>
<path d="M262.363 224.745C262.707 224.745 262.998 224.466 262.998 224.111V215.257C262.998 214.912 262.718 214.622 262.363 214.622C262.018 214.622 261.728 214.902 261.728 215.257V224.111C261.728 224.455 262.007 224.745 262.363 224.745Z" fill="#DF602F"/>
<path d="M260.048 224.745C260.393 224.745 260.683 224.466 260.683 224.111V215.257C260.683 214.912 260.404 214.622 260.048 214.622C259.704 214.622 259.413 214.902 259.413 215.257V224.111C259.413 224.455 259.693 224.745 260.048 224.745Z" fill="#DF602F"/>
<path d="M257.723 224.745C258.068 224.745 258.359 224.466 258.359 224.111V215.257C258.359 214.912 258.079 214.622 257.723 214.622C257.379 214.622 257.088 214.902 257.088 215.257V224.111C257.088 224.455 257.368 224.745 257.723 224.745Z" fill="#DF602F"/>
<path d="M255.409 224.745C255.754 224.745 256.044 224.466 256.044 224.111V215.257C256.044 214.912 255.764 214.622 255.409 214.622C255.065 214.622 254.774 214.902 254.774 215.257V224.111C254.774 224.455 255.054 224.745 255.409 224.745Z" fill="#DF602F"/>
<path d="M253.084 224.745C253.428 224.745 253.719 224.466 253.719 224.111V215.257C253.719 214.912 253.439 214.622 253.084 214.622C252.74 214.622 252.449 214.902 252.449 215.257V224.111C252.449 224.455 252.729 224.745 253.084 224.745Z" fill="#DF602F"/>
<path d="M250.77 224.745C251.114 224.745 251.405 224.466 251.405 224.111V215.257C251.405 214.912 251.125 214.622 250.77 214.622C250.425 214.622 250.135 214.902 250.135 215.257V224.111C250.135 224.455 250.415 224.745 250.77 224.745Z" fill="#DF602F"/>
<path d="M248.445 224.745C248.789 224.745 249.08 224.466 249.08 224.111V215.257C249.08 214.912 248.8 214.622 248.445 214.622C248.1 214.622 247.81 214.902 247.81 215.257V224.111C247.81 224.455 248.09 224.745 248.445 224.745Z" fill="#DF602F"/>
<path d="M246.12 224.745C246.464 224.745 246.755 224.466 246.755 224.111V215.257C246.755 214.912 246.475 214.622 246.12 214.622C245.775 214.622 245.485 214.902 245.485 215.257V224.111C245.485 224.455 245.764 224.745 246.12 224.745Z" fill="#DF602F"/>
<path d="M244.441 215.257C244.441 214.906 244.156 214.622 243.805 214.622C243.455 214.622 243.17 214.906 243.17 215.257V224.111C243.17 224.461 243.455 224.745 243.805 224.745C244.156 224.745 244.441 224.461 244.441 224.111V215.257Z" fill="#DF602F"/>
<path d="M234.527 224.745C234.871 224.745 235.162 224.466 235.162 224.111V215.257C235.162 214.912 234.882 214.622 234.527 214.622C234.182 214.622 233.892 214.902 233.892 215.257V224.111C233.892 224.455 234.172 224.745 234.527 224.745Z" fill="#DF602F"/>
<path d="M232.202 224.745C232.546 224.745 232.837 224.466 232.837 224.111V215.257C232.837 214.912 232.557 214.622 232.202 214.622C231.858 214.622 231.567 214.902 231.567 215.257V224.111C231.567 224.455 231.847 224.745 232.202 224.745Z" fill="#DF602F"/>
<path d="M229.888 224.745C230.232 224.745 230.523 224.466 230.523 224.111V215.257C230.523 214.912 230.243 214.622 229.888 214.622C229.543 214.622 229.252 214.902 229.252 215.257V224.111C229.252 224.455 229.532 224.745 229.888 224.745Z" fill="#DF602F"/>
<path d="M227.563 224.745C227.907 224.745 228.198 224.466 228.198 224.111V215.257C228.198 214.912 227.918 214.622 227.563 214.622C227.218 214.622 226.927 214.902 226.927 215.257V224.111C226.927 224.455 227.207 224.745 227.563 224.745Z" fill="#DF602F"/>
<path d="M225.238 224.745C225.582 224.745 225.873 224.466 225.873 224.111V215.257C225.873 214.912 225.593 214.622 225.238 214.622C224.893 214.622 224.603 214.902 224.603 215.257V224.111C224.603 224.455 224.882 224.745 225.238 224.745Z" fill="#DF602F"/>
<path d="M222.923 224.745C223.268 224.745 223.558 224.466 223.558 224.111V215.257C223.558 214.912 223.278 214.622 222.923 214.622C222.579 214.622 222.288 214.902 222.288 215.257V224.111C222.288 224.455 222.568 224.745 222.923 224.745Z" fill="#DF602F"/>
<path d="M220.598 224.745C220.943 224.745 221.233 224.466 221.233 224.111V215.257C221.233 214.912 220.953 214.622 220.598 214.622C220.254 214.622 219.963 214.902 219.963 215.257V224.111C219.963 224.455 220.243 224.745 220.598 224.745Z" fill="#DF602F"/>
<path d="M218.284 224.745C218.628 224.745 218.919 224.466 218.919 224.111V215.257C218.919 214.912 218.639 214.622 218.284 214.622C217.94 214.622 217.649 214.902 217.649 215.257V224.111C217.649 224.455 217.929 224.745 218.284 224.745Z" fill="#DF602F"/>
<path d="M215.959 224.745C216.304 224.745 216.594 224.466 216.594 224.111V215.257C216.594 214.912 216.314 214.622 215.959 214.622C215.615 214.622 215.324 214.902 215.324 215.257V224.111C215.324 224.455 215.604 224.745 215.959 224.745Z" fill="#DF602F"/>
<path d="M213.645 224.745C213.989 224.745 214.28 224.466 214.28 224.111V215.257C214.28 214.912 214 214.622 213.645 214.622C213.3 214.622 213.01 214.902 213.01 215.257V224.111C213.01 224.455 213.289 224.745 213.645 224.745Z" fill="#DF602F"/>
<path d="M211.32 224.745C211.664 224.745 211.955 224.466 211.955 224.111V215.257C211.955 214.912 211.675 214.622 211.32 214.622C210.975 214.622 210.685 214.902 210.685 215.257V224.111C210.685 224.455 210.964 224.745 211.32 224.745Z" fill="#DF602F"/>
<path d="M262.75 200.798H201.901C201.182 200.798 200.599 201.381 200.599 202.099V211.975C200.599 212.694 201.182 213.277 201.901 213.277H262.75C263.469 213.277 264.053 212.694 264.053 211.975V202.099C264.053 201.381 263.469 200.798 262.75 200.798Z" fill="#B53E11"/>
<path d="M262.686 212.266C263.03 212.266 263.321 211.986 263.321 211.631V202.777C263.321 202.433 263.041 202.143 262.686 202.143C262.341 202.143 262.051 202.422 262.051 202.777V211.631C262.051 211.975 262.33 212.266 262.686 212.266Z" fill="#DF602F"/>
<path d="M260.36 212.266C260.705 212.266 260.996 211.986 260.996 211.631V202.777C260.996 202.433 260.716 202.143 260.36 202.143C260.016 202.143 259.725 202.422 259.725 202.777V211.631C259.725 211.975 260.005 212.266 260.36 212.266Z" fill="#DF602F"/>
<path d="M255.721 212.266C256.066 212.266 256.356 211.986 256.356 211.631V202.777C256.356 202.433 256.076 202.143 255.721 202.143C255.377 202.143 255.086 202.422 255.086 202.777V211.631C255.086 211.975 255.366 212.266 255.721 212.266Z" fill="#DF602F"/>
<path d="M253.407 212.266C253.751 212.266 254.042 211.986 254.042 211.631V202.777C254.042 202.433 253.762 202.143 253.407 202.143C253.063 202.143 252.772 202.422 252.772 202.777V211.631C252.772 211.975 253.052 212.266 253.407 212.266Z" fill="#DF602F"/>
<path d="M251.082 212.266C251.426 212.266 251.717 211.986 251.717 211.631V202.777C251.717 202.433 251.437 202.143 251.082 202.143C250.737 202.143 250.447 202.422 250.447 202.777V211.631C250.447 211.975 250.727 212.266 251.082 212.266Z" fill="#DF602F"/>
<path d="M248.757 212.266C249.101 212.266 249.392 211.986 249.392 211.631V202.777C249.392 202.433 249.112 202.143 248.757 202.143C248.412 202.143 248.122 202.422 248.122 202.777V211.631C248.122 211.975 248.402 212.266 248.757 212.266Z" fill="#DF602F"/>
<path d="M246.443 212.266C246.787 212.266 247.078 211.986 247.078 211.631V202.777C247.078 202.433 246.798 202.143 246.443 202.143C246.098 202.143 245.808 202.422 245.808 202.777V211.631C245.808 211.975 246.087 212.266 246.443 212.266Z" fill="#DF602F"/>
<path d="M244.117 212.266C244.462 212.266 244.753 211.986 244.753 211.631V202.777C244.753 202.433 244.473 202.143 244.117 202.143C243.773 202.143 243.482 202.422 243.482 202.777V211.631C243.482 211.975 243.762 212.266 244.117 212.266Z" fill="#DF602F"/>
<path d="M241.803 212.266C242.148 212.266 242.438 211.986 242.438 211.631V202.777C242.438 202.433 242.159 202.143 241.803 202.143C241.459 202.143 241.168 202.422 241.168 202.777V211.631C241.168 211.975 241.448 212.266 241.803 212.266Z" fill="#DF602F"/>
<path d="M239.478 212.266C239.823 212.266 240.113 211.986 240.113 211.631V202.777C240.113 202.433 239.834 202.143 239.478 202.143C239.134 202.143 238.843 202.422 238.843 202.777V211.631C238.843 211.975 239.123 212.266 239.478 212.266Z" fill="#DF602F"/>
<path d="M237.164 212.266C237.509 212.266 237.799 211.986 237.799 211.631V202.777C237.799 202.433 237.519 202.143 237.164 202.143C236.82 202.143 236.529 202.422 236.529 202.777V211.631C236.529 211.975 236.809 212.266 237.164 212.266Z" fill="#DF602F"/>
<path d="M234.839 212.266C235.183 212.266 235.474 211.986 235.474 211.631V202.777C235.474 202.433 235.194 202.143 234.839 202.143C234.494 202.143 234.204 202.422 234.204 202.777V211.631C234.204 211.975 234.484 212.266 234.839 212.266Z" fill="#DF602F"/>
<path d="M232.514 212.266C232.858 212.266 233.149 211.986 233.149 211.631V202.777C233.149 202.433 232.869 202.143 232.514 202.143C232.17 202.143 231.879 202.422 231.879 202.777V211.631C231.879 211.975 232.159 212.266 232.514 212.266Z" fill="#DF602F"/>
<path d="M223.235 212.266C223.58 212.266 223.87 211.986 223.87 211.631V202.777C223.87 202.433 223.591 202.143 223.235 202.143C222.891 202.143 222.6 202.422 222.6 202.777V211.631C222.6 211.975 222.88 212.266 223.235 212.266Z" fill="#DF602F"/>
<path d="M220.921 212.266C221.266 212.266 221.556 211.986 221.556 211.631V202.777C221.556 202.433 221.276 202.143 220.921 202.143C220.577 202.143 220.286 202.422 220.286 202.777V211.631C220.286 211.975 220.566 212.266 220.921 212.266Z" fill="#DF602F"/>
<path d="M218.596 212.266C218.94 212.266 219.231 211.986 219.231 211.631V202.777C219.231 202.433 218.951 202.143 218.596 202.143C218.252 202.143 217.961 202.422 217.961 202.777V211.631C217.961 211.975 218.241 212.266 218.596 212.266Z" fill="#DF602F"/>
<path d="M216.271 212.266C216.616 212.266 216.906 211.986 216.906 211.631V202.777C216.906 202.433 216.626 202.143 216.271 202.143C215.927 202.143 215.636 202.422 215.636 202.777V211.631C215.636 211.975 215.916 212.266 216.271 212.266Z" fill="#DF602F"/>
<path d="M213.957 212.266C214.301 212.266 214.592 211.986 214.592 211.631V202.777C214.592 202.433 214.312 202.143 213.957 202.143C213.612 202.143 213.322 202.422 213.322 202.777V211.631C213.322 211.975 213.602 212.266 213.957 212.266Z" fill="#DF602F"/>
<path d="M211.632 212.266C211.976 212.266 212.267 211.986 212.267 211.631V202.777C212.267 202.433 211.987 202.143 211.632 202.143C211.287 202.143 210.997 202.422 210.997 202.777V211.631C210.997 211.975 211.276 212.266 211.632 212.266Z" fill="#DF602F"/>
<path d="M209.317 212.266C209.662 212.266 209.953 211.986 209.953 211.631V202.777C209.953 202.433 209.673 202.143 209.317 202.143C208.973 202.143 208.682 202.422 208.682 202.777V211.631C208.682 211.975 208.962 212.266 209.317 212.266Z" fill="#DF602F"/>
<path d="M206.992 212.266C207.337 212.266 207.628 211.986 207.628 211.631V202.777C207.628 202.433 207.348 202.143 206.992 202.143C206.648 202.143 206.357 202.422 206.357 202.777V211.631C206.357 211.975 206.637 212.266 206.992 212.266Z" fill="#DF602F"/>
<path d="M204.678 212.266C205.023 212.266 205.313 211.986 205.313 211.631V202.777C205.313 202.433 205.034 202.143 204.678 202.143C204.334 202.143 204.043 202.422 204.043 202.777V211.631C204.043 211.975 204.323 212.266 204.678 212.266Z" fill="#DF602F"/>
<path d="M202.353 212.266C202.698 212.266 202.988 211.986 202.988 211.631V202.777C202.988 202.433 202.708 202.143 202.353 202.143C202.009 202.143 201.718 202.422 201.718 202.777V211.631C201.718 211.975 201.998 212.266 202.353 212.266Z" fill="#DF602F"/>
<path d="M200.039 212.266C200.383 212.266 200.674 211.986 200.674 211.631V202.777C200.674 202.433 200.394 202.143 200.039 202.143C199.694 202.143 199.404 202.422 199.404 202.777V211.631C199.404 211.975 199.684 212.266 200.039 212.266Z" fill="#DF602F"/>
<g style="mix-blend-mode:multiply">
<path d="M135.412 300.74H125.315C113.701 300.74 104.271 291.316 104.271 279.708V61.7496C104.271 50.1308 113.701 40.7175 125.315 40.7175H135.412C123.797 40.7175 114.368 50.1308 114.368 61.7496V279.708C114.368 291.316 123.797 300.74 135.412 300.74Z" fill="#DAF0FF"/>
</g>
<path d="M221.965 40.7175H135.412C123.79 40.7175 114.368 50.1339 114.368 61.7496V279.708C114.368 291.324 123.79 300.74 135.412 300.74H221.965C233.587 300.74 243.009 291.324 243.009 279.708V61.7496C243.009 50.1339 233.587 40.7175 221.965 40.7175Z" fill="#3A8DC6"/>
<path d="M243.02 61.7496V279.708C243.02 291.316 233.601 300.74 221.976 300.74H211.879C223.505 300.74 232.923 291.316 232.923 279.708V61.7496C232.923 50.1308 223.505 40.7175 211.879 40.7175H221.976C233.601 40.7175 243.02 50.1308 243.02 61.7496Z" fill="#3A8DC6"/>
<path d="M219.059 47.0541H138.339C129.178 47.0541 121.752 54.4764 121.752 63.6323V277.826C121.752 286.981 129.178 294.404 138.339 294.404H219.059C228.22 294.404 235.646 286.981 235.646 277.826V63.6323C235.646 54.4764 228.22 47.0541 219.059 47.0541Z" fill="#CCEAFF"/>
<path d="M146.208 43.1059V46.6775C146.208 50.6688 149.437 53.907 153.42 53.907H203.968C207.951 53.907 211.18 50.6688 211.18 46.6775V41.5567L146.208 43.0951V43.1059Z" fill="#3A8DC6"/>
<path d="M200.781 47.3015C200.781 47.8932 200.297 48.3773 199.705 48.3773C199.113 48.3773 198.629 47.8932 198.629 47.3015C198.629 46.7098 199.113 46.2257 199.705 46.2257C200.297 46.2257 200.781 46.7098 200.781 47.3015Z" fill="#DAF0FF"/>
<path d="M188.672 48.3773H168.543C167.951 48.3773 167.467 47.8932 167.467 47.3015C167.467 46.7098 167.951 46.2257 168.543 46.2257H188.672C189.264 46.2257 189.748 46.7098 189.748 47.3015C189.748 47.8932 189.264 48.3773 188.672 48.3773Z" fill="#DAF0FF"/>
<g style="mix-blend-mode:multiply">
<path d="M243.02 71.4857V99.7579H207.767C199.953 99.7579 193.624 93.4321 193.624 85.6218C193.624 81.7166 195.206 78.1879 197.768 75.6275C200.33 73.0671 203.86 71.4857 207.767 71.4857H243.02V71.4857Z" fill="#DAF0FF"/>
</g>
<path d="M290.65 89.4624H214.527C206.713 89.4624 200.383 83.1367 200.383 75.3263C200.383 67.5159 206.713 61.1902 214.527 61.1902H290.65C298.465 61.1902 304.794 67.5159 304.794 75.3263C304.794 83.1367 298.465 89.4624 290.65 89.4624Z" fill="#5DB1EB"/>
<path d="M214.452 75.606C214.452 72.5722 216.906 70.1194 219.942 70.1194C222.977 70.1194 225.431 72.5722 225.431 75.606C225.431 78.6398 222.977 81.0926 219.942 81.0926C216.906 81.0926 214.452 78.6398 214.452 75.606Z" fill="white"/>
<path d="M235.614 75.606C235.614 72.5722 238.068 70.1194 241.104 70.1194C244.139 70.1194 246.593 72.5722 246.593 75.606C246.593 78.6398 244.139 81.0926 241.104 81.0926C238.068 81.0926 235.614 78.6398 235.614 75.606Z" fill="white"/>
<path d="M256.776 75.606C256.776 72.5722 259.23 70.1194 262.266 70.1194C265.301 70.1194 267.755 72.5722 267.755 75.606C267.755 78.6398 265.301 81.0926 262.266 81.0926C259.23 81.0926 256.776 78.6398 256.776 75.606Z" fill="white"/>
<path d="M277.927 75.606C277.927 72.5722 280.382 70.1194 283.417 70.1194C286.453 70.1194 288.907 72.5722 288.907 75.606C288.907 78.6398 286.453 81.0926 283.417 81.0926C280.382 81.0926 277.927 78.6398 277.927 75.606Z" fill="white"/>
<path d="M213.763 109.559C210.695 111.667 204.99 114.098 196.164 112.151C187.047 110.15 182.655 104.922 180.674 101.436C180.351 100.866 179.77 100.576 179.2 100.586C178.64 100.586 178.091 100.877 177.779 101.436C177.413 102.092 176.95 102.802 176.401 103.545C175.658 104.535 174.743 105.578 173.613 106.589C173.043 107.095 172.429 107.601 171.751 108.085C169.383 109.774 166.294 111.269 162.311 112.151C160.653 112.517 159.114 112.721 157.672 112.818C157.187 112.85 156.724 112.861 156.272 112.861C155.39 112.861 154.561 112.829 153.775 112.743C152.925 112.657 152.117 112.528 151.364 112.366C150.632 112.205 149.954 112.022 149.308 111.807C148.35 111.495 147.489 111.118 146.725 110.731C146.466 110.602 146.229 110.473 145.993 110.344C145.53 110.075 145.099 109.806 144.712 109.548C144.421 109.343 144.098 109.247 143.775 109.236C143.463 109.225 143.151 109.3 142.871 109.451C142.602 109.602 142.354 109.817 142.193 110.086C142.021 110.355 141.924 110.677 141.924 111.032C141.924 111.925 141.945 112.958 141.978 114.098C141.999 114.862 142.021 115.669 142.053 116.519C142.096 117.799 142.161 119.176 142.247 120.639C142.559 125.986 143.162 132.376 144.292 138.81C144.4 139.391 144.507 139.982 144.615 140.563C145.734 146.416 147.327 152.214 149.556 157.217C149.997 158.217 150.47 159.186 150.976 160.111C152.968 163.812 154.916 167.007 156.918 169.804C157.919 171.202 158.931 172.493 159.975 173.709C162.063 176.13 164.248 178.195 166.649 180.024C167.844 180.938 169.103 181.788 170.416 182.606C171.729 183.413 173.118 184.177 174.582 184.908C176.046 185.64 177.585 186.328 179.21 187.006C179.221 187.006 179.232 187.006 179.243 187.017C185.777 184.316 190.846 181.293 195.281 177.098C199.716 172.902 203.516 167.534 207.509 160.111C215.507 145.243 216.486 120.575 216.562 111.022C216.562 109.591 214.958 108.73 213.774 109.548L213.763 109.559Z" fill="#E76432"/>
<path d="M179.232 181.509C178.403 181.143 177.607 180.766 176.832 180.379C175.475 179.701 174.237 179.023 173.053 178.292C171.859 177.56 170.761 176.807 169.706 176C167.575 174.376 165.637 172.547 163.796 170.406C162.86 169.32 161.923 168.126 161.019 166.856C159.189 164.296 157.359 161.305 155.422 157.712C154.991 156.905 154.572 156.044 154.173 155.151C152.3 150.966 150.761 145.738 149.577 139.606C149.469 139.046 149.362 138.487 149.265 137.917C148.318 132.57 147.65 126.653 147.284 120.327C147.198 118.94 147.144 117.627 147.101 116.401C147.306 116.476 147.5 116.541 147.704 116.605C148.544 116.885 149.416 117.121 150.277 117.304C151.224 117.509 152.236 117.67 153.258 117.767C154.184 117.864 155.142 117.907 156.089 117.907H156.294C156.832 117.907 157.392 117.885 157.962 117.853C159.728 117.745 161.547 117.487 163.387 117.078C167.661 116.142 171.46 114.496 174.679 112.194C175.486 111.624 176.261 111 176.982 110.355C177.779 109.645 178.532 108.87 179.232 108.074C182.278 111.538 187.251 115.368 195.077 117.089C197.574 117.638 200.039 117.918 202.375 117.918C205.916 117.918 208.908 117.283 211.352 116.411C210.943 126.911 209.307 146.039 203.031 157.722C199.188 164.866 195.722 169.707 191.783 173.429C188.392 176.635 184.463 179.174 179.221 181.519L179.232 181.509Z" fill="#CCEAFF"/>
<path d="M185.798 137.616C185.798 133.7 182.623 130.526 178.705 130.526C174.786 130.526 171.611 133.7 171.611 137.616C171.611 140.66 173.527 143.242 176.229 144.253L173.796 153.925C173.689 154.355 174.011 154.764 174.453 154.764H182.967C183.408 154.764 183.731 154.355 183.624 153.925L181.191 144.253C183.882 143.242 185.809 140.66 185.809 137.616H185.798Z" fill="#DF602F"/>
<path d="M157.09 237.72C157.123 235.32 157.467 233.115 158.048 231.093C158.048 231.06 158.07 231.039 158.081 231.007C158.231 230.49 158.393 229.984 158.576 229.5" stroke="#5DB1EB" stroke-width="1.42" stroke-linecap="round" stroke-linejoin="round"/>
<path d="M199.899 237.87C199.899 236.59 199.791 235.353 199.608 234.18C198.661 227.844 195.421 223.078 191.202 219.979" stroke="#5DB1EB" stroke-width="1.42" stroke-linecap="round" stroke-linejoin="round"/>
<path d="M186.681 217.441C187.273 217.688 187.865 217.957 188.435 218.258" stroke="#5DB1EB" stroke-width="1.42" stroke-linecap="round" stroke-linejoin="round"/>
<path d="M160.449 225.703C164.496 219.205 171.611 215.795 178.457 215.795C179.964 215.795 181.482 215.956 182.967 216.279" stroke="#5DB1EB" stroke-width="1.42" stroke-linecap="round" stroke-linejoin="round"/>
<path d="M173 220.507C166.498 222.658 160.922 228.683 160.922 238.118C160.922 239.484 159.835 241.367 157.93 243.368" stroke="#5DB1EB" stroke-width="1.42" stroke-linecap="round" stroke-linejoin="round"/>
<path d="M193.58 228.285C195.13 230.963 196.067 234.245 196.067 238.107V238.182C196.067 243.572 195.001 248.435 193.279 252.77" stroke="#5DB1EB" stroke-width="1.42" stroke-linecap="round" stroke-linejoin="round"/>
<path d="M178.446 219.624C183.118 219.624 187.951 221.561 191.363 225.272" stroke="#5DB1EB" stroke-width="1.42" stroke-linecap="round" stroke-linejoin="round"/>
<path d="M164.83 236.45C164.776 236.999 164.754 237.547 164.754 238.128C164.754 241.506 162.01 244.863 159.48 247.24" stroke="#5DB1EB" stroke-width="1.42" stroke-linecap="round" stroke-linejoin="round"/>
<path d="M192.041 241.98C191.428 247.703 189.479 252.727 186.875 257.041" stroke="#5DB1EB" stroke-width="1.42" stroke-linecap="round" stroke-linejoin="round"/>
<path d="M166.089 231.523C168.446 226.241 173.559 223.454 178.457 223.454C185.066 223.454 191.751 228.134 192.224 237.085" stroke="#5DB1EB" stroke-width="1.42" stroke-linecap="round" stroke-linejoin="round"/>
<path d="M182.849 228.285C185.949 229.78 188.403 232.975 188.403 238.107V238.182C188.403 241.829 187.789 245.196 186.745 248.284" stroke="#5DB1EB" stroke-width="1.42" stroke-linecap="round" stroke-linejoin="round"/>
<path d="M178.446 227.284C173.548 227.284 168.586 231.006 168.586 238.128C168.586 242.98 165.109 247.337 161.579 250.511" stroke="#5DB1EB" stroke-width="1.42" stroke-linecap="round" stroke-linejoin="round"/>
<path d="M185.443 251.576C184.259 254.136 182.795 256.482 181.191 258.601" stroke="#5DB1EB" stroke-width="1.42" stroke-linecap="round" stroke-linejoin="round"/>
<path d="M168.597 248.51C167.273 250.306 165.745 251.909 164.195 253.308" stroke="#5DB1EB" stroke-width="1.42" stroke-linecap="round" stroke-linejoin="round"/>
<path d="M176.186 258.655C180.728 253.523 184.582 246.66 184.582 238.182V238.107C184.582 232.954 181.277 231.114 178.457 231.114C175.637 231.114 172.418 233.298 172.418 238.128C172.418 240.743 171.686 243.206 170.524 245.444" stroke="#5DB1EB" stroke-width="1.42" stroke-linecap="round" stroke-linejoin="round"/>
<path d="M171.816 257.719C180.857 248.574 180.739 240.226 180.739 238.096C180.739 235.708 179.749 234.933 178.435 234.933C177.122 234.933 176.229 235.987 176.229 238.096C176.229 240.022 176.272 247.251 167.295 255.632" stroke="#5DB1EB" stroke-width="1.42" stroke-linecap="round" stroke-linejoin="round"/>
</svg>
