<svg width="357" height="279" viewBox="0 0 357 279" fill="none" xmlns="http://www.w3.org/2000/svg">
<path d="M317.098 185.265H180.416C176.875 185.265 174.001 181.951 174.001 177.863V98.544C174.001 94.4559 176.875 91.1425 180.416 91.1425H317.098C320.639 91.1425 323.513 94.4559 323.513 98.544V177.863C323.513 181.951 320.639 185.265 317.098 185.265Z" fill="#5DB1EB"/>
<path d="M188.177 107.258H218.133" stroke="#3A8DC6" stroke-width="5.09" stroke-miterlimit="10" stroke-linecap="round"/>
<path d="M187.919 157.1H209.156" stroke="#3A8DC6" stroke-width="4.64" stroke-miterlimit="10" stroke-linecap="round"/>
<path d="M221.363 157.1H242.589" stroke="#3A8DC6" stroke-width="4.64" stroke-miterlimit="10" stroke-linecap="round"/>
<path d="M254.796 157.1H276.033" stroke="#3A8DC6" stroke-width="4.64" stroke-miterlimit="10" stroke-linecap="round"/>
<path d="M288.229 157.1H309.466" stroke="#3A8DC6" stroke-width="4.64" stroke-miterlimit="10" stroke-linecap="round"/>
<path d="M188.177 170.946H240.34" stroke="#3A8DC6" stroke-width="4.51" stroke-miterlimit="10" stroke-linecap="round"/>
<path d="M252.104 170.946H272.696" stroke="#3A8DC6" stroke-width="4.51" stroke-miterlimit="10" stroke-linecap="round"/>
<path d="M297.572 170.946H309.348" stroke="#3A8DC6" stroke-width="4.51" stroke-miterlimit="10" stroke-linecap="round"/>
<path d="M310.711 116.08C313.472 111.197 311.751 105.001 306.866 102.241C301.98 99.4809 295.781 101.201 293.019 106.084C290.258 110.967 291.979 117.162 296.864 119.923C301.75 122.683 307.949 120.962 310.711 116.08Z" fill="white"/>
<path d="M178.5 279C277.083 279 357 277.541 357 275.74C357 273.94 277.083 272.481 178.5 272.481C79.9172 272.481 0 273.94 0 275.74C0 277.541 79.9172 279 178.5 279Z" fill="#272727"/>
<path d="M222.686 180.047H20.807C17.3947 180.047 14.6284 182.812 14.6284 186.222V268.887C14.6284 272.298 17.3947 275.063 20.807 275.063H222.686C226.099 275.063 228.865 272.298 228.865 268.887V186.222C228.865 182.812 226.099 180.047 222.686 180.047Z" fill="#3A8DC6"/>
<path d="M222.17 268.382V186.749H21.3235V268.382H222.17Z" fill="#CCEAFF"/>
<path d="M42.0767 180.047C42.0767 195.195 29.7842 207.48 14.6284 207.48V190.881C14.6284 184.899 19.483 180.047 25.4678 180.047H42.0767Z" fill="#3A8DC6"/>
<path d="M42.0767 275.073H25.4678C19.483 275.073 14.6284 270.221 14.6284 264.24V247.64C29.7842 247.64 42.0767 259.926 42.0767 275.073Z" fill="#3A8DC6"/>
<path d="M228.865 190.891V207.491C213.709 207.491 201.417 195.205 201.417 180.058H218.026C224.01 180.058 228.865 184.91 228.865 190.891Z" fill="#999999"/>
<path d="M228.865 247.629V264.229C228.865 270.211 224.01 275.062 218.026 275.062H201.417C201.417 259.915 213.709 247.629 228.865 247.629Z" fill="#999999"/>
<path d="M57.4801 239.152C63.8886 239.152 69.0837 233.96 69.0837 227.555C69.0837 221.15 63.8886 215.958 57.4801 215.958C51.0716 215.958 45.8765 221.15 45.8765 227.555C45.8765 233.96 51.0716 239.152 57.4801 239.152Z" fill="#3A8DC6"/>
<path d="M182.224 239.152C188.633 239.152 193.828 233.96 193.828 227.555C193.828 221.15 188.633 215.958 182.224 215.958C175.816 215.958 170.621 221.15 170.621 227.555C170.621 233.96 175.816 239.152 182.224 239.152Z" fill="#999999"/>
<path d="M148.92 0H73.4861C70.8288 0 68.6746 2.153 68.6746 4.80886V155.078C68.6746 157.734 70.8288 159.887 73.4861 159.887H148.92C151.578 159.887 153.732 157.734 153.732 155.078V4.80886C153.732 2.153 151.578 0 148.92 0Z" fill="#E76432"/>
<path d="M142.075 14.717H80.332C79.148 14.717 78.1792 13.7596 78.1792 12.5654C78.1792 11.382 79.1372 10.4138 80.332 10.4138H142.075C143.259 10.4138 144.227 11.3713 144.227 12.5654C144.227 13.7488 143.269 14.717 142.075 14.717Z" fill="#F8DCD1"/>
<path d="M142.075 21.8174H80.332C79.148 21.8174 78.1792 20.8599 78.1792 19.6658C78.1792 18.4824 79.1372 17.5142 80.332 17.5142H142.075C143.259 17.5142 144.227 18.4716 144.227 19.6658C144.227 20.8492 143.269 21.8174 142.075 21.8174Z" fill="#F8DCD1"/>
<path d="M107.694 28.9069H80.332C79.148 28.9069 78.1792 27.9387 78.1792 26.7553C78.1792 25.5719 79.1372 24.6037 80.332 24.6037H107.694C108.878 24.6037 109.847 25.5612 109.847 26.7553C109.847 27.9387 108.889 28.9069 107.694 28.9069Z" fill="#F8DCD1"/>
<path d="M142.075 41.2788H80.332C79.148 41.2788 78.1792 40.3213 78.1792 39.1271C78.1792 37.9438 79.1372 36.9755 80.332 36.9755H142.075C143.259 36.9755 144.227 37.9438 144.227 39.1271C144.227 40.3105 143.269 41.2788 142.075 41.2788Z" fill="#F8DCD1"/>
<path d="M142.075 48.3684H80.332C79.148 48.3684 78.1792 47.4109 78.1792 46.2167C78.1792 45.0334 79.1372 44.0651 80.332 44.0651H142.075C143.259 44.0651 144.227 45.0226 144.227 46.2167C144.227 47.4001 143.269 48.3684 142.075 48.3684Z" fill="#F8DCD1"/>
<path d="M107.694 55.4579H80.332C79.148 55.4579 78.1792 54.5004 78.1792 53.3063C78.1792 52.1229 79.1372 51.1547 80.332 51.1547H107.694C108.878 51.1547 109.847 52.1121 109.847 53.3063C109.847 54.4897 108.889 55.4579 107.694 55.4579Z" fill="#F8DCD1"/>
<path d="M142.075 67.8405H80.332C79.148 67.8405 78.1792 66.8722 78.1792 65.6888C78.1792 64.5055 79.1372 63.5372 80.332 63.5372H142.075C143.259 63.5372 144.227 64.4947 144.227 65.6888C144.227 66.8722 143.269 67.8405 142.075 67.8405Z" fill="#F8DCD1"/>
<path d="M142.075 74.9301H80.332C79.148 74.9301 78.1792 73.9726 78.1792 72.7784C78.1792 71.5951 79.1372 70.6268 80.332 70.6268H142.075C143.259 70.6268 144.227 71.5951 144.227 72.7784C144.227 73.9618 143.269 74.9301 142.075 74.9301Z" fill="#F8DCD1"/>
<path d="M107.694 82.0196H80.332C79.148 82.0196 78.1792 81.0621 78.1792 79.868C78.1792 78.6846 79.1372 77.7164 80.332 77.7164H107.694C108.878 77.7164 109.847 78.6738 109.847 79.868C109.847 81.0514 108.889 82.0196 107.694 82.0196Z" fill="#F8DCD1"/>
<path d="M142.075 94.3914H80.332C79.148 94.3914 78.1792 93.4231 78.1792 92.2398C78.1792 91.0564 79.1372 90.0881 80.332 90.0881H142.075C143.259 90.0881 144.227 91.0456 144.227 92.2398C144.227 93.4231 143.269 94.3914 142.075 94.3914Z" fill="#F8DCD1"/>
<path d="M142.075 101.481H80.332C79.148 101.481 78.1792 100.523 78.1792 99.3293C78.1792 98.146 79.1372 97.1777 80.332 97.1777H142.075C143.259 97.1777 144.227 98.146 144.227 99.3293C144.227 100.513 143.269 101.481 142.075 101.481Z" fill="#F8DCD1"/>
<path d="M107.694 108.571H80.332C79.148 108.571 78.1792 107.613 78.1792 106.419C78.1792 105.235 79.1372 104.267 80.332 104.267H107.694C108.878 104.267 109.847 105.225 109.847 106.419C109.847 107.602 108.889 108.571 107.694 108.571Z" fill="#F8DCD1"/>
<path d="M142.075 120.953H80.332C79.148 120.953 78.1792 119.996 78.1792 118.801C78.1792 117.618 79.1372 116.65 80.332 116.65H142.075C143.259 116.65 144.227 117.607 144.227 118.801C144.227 119.985 143.269 120.953 142.075 120.953Z" fill="#F8DCD1"/>
<path d="M142.075 128.043H80.332C79.148 128.043 78.1792 127.085 78.1792 125.891C78.1792 124.708 79.1372 123.739 80.332 123.739H142.075C143.259 123.739 144.227 124.708 144.227 125.891C144.227 127.074 143.269 128.043 142.075 128.043Z" fill="#F8DCD1"/>
<path d="M107.694 135.132H80.332C79.148 135.132 78.1792 134.175 78.1792 132.981C78.1792 131.797 79.1372 130.829 80.332 130.829H107.694C108.878 130.829 109.847 131.786 109.847 132.981C109.847 134.164 108.889 135.132 107.694 135.132Z" fill="#F8DCD1"/>
<path d="M284.494 263.164H223.644C222.925 263.164 222.342 263.747 222.342 264.466V274.342C222.342 275.061 222.925 275.643 223.644 275.643H284.494C285.213 275.643 285.796 275.061 285.796 274.342V264.466C285.796 263.747 285.213 263.164 284.494 263.164Z" fill="#DF602F"/>
<path d="M284.418 274.632C284.763 274.632 285.053 274.352 285.053 273.997V265.144C285.053 264.799 284.773 264.509 284.418 264.509C284.074 264.509 283.783 264.789 283.783 265.144V273.997C283.783 274.342 284.063 274.632 284.418 274.632Z" fill="#DF602F"/>
<path d="M282.104 274.632C282.449 274.632 282.739 274.352 282.739 273.997V265.144C282.739 264.799 282.459 264.509 282.104 264.509C281.76 264.509 281.469 264.789 281.469 265.144V273.997C281.469 274.342 281.749 274.632 282.104 274.632Z" fill="#DF602F"/>
<path d="M277.454 274.632C277.798 274.632 278.089 274.352 278.089 273.997V265.144C278.089 264.799 277.809 264.509 277.454 264.509C277.109 264.509 276.819 264.789 276.819 265.144V273.997C276.819 274.342 277.099 274.632 277.454 274.632Z" fill="#DF602F"/>
<path d="M275.14 274.632C275.484 274.632 275.775 274.352 275.775 273.997V265.144C275.775 264.799 275.495 264.509 275.14 264.509C274.795 264.509 274.505 264.789 274.505 265.144V273.997C274.505 274.342 274.784 274.632 275.14 274.632Z" fill="#DF602F"/>
<path d="M272.815 274.632C273.159 274.632 273.45 274.352 273.45 273.997V265.144C273.45 264.799 273.17 264.509 272.815 264.509C272.47 264.509 272.179 264.789 272.179 265.144V273.997C272.179 274.342 272.459 274.632 272.815 274.632Z" fill="#DF602F"/>
<path d="M270.5 274.632C270.845 274.632 271.135 274.352 271.135 273.997V265.144C271.135 264.799 270.856 264.509 270.5 264.509C270.156 264.509 269.865 264.789 269.865 265.144V273.997C269.865 274.342 270.145 274.632 270.5 274.632Z" fill="#DF602F"/>
<path d="M268.175 274.632C268.52 274.632 268.81 274.352 268.81 273.997V265.144C268.81 264.799 268.531 264.509 268.175 264.509C267.831 264.509 267.54 264.789 267.54 265.144V273.997C267.54 274.342 267.82 274.632 268.175 274.632Z" fill="#DF602F"/>
<path d="M265.861 274.632C266.206 274.632 266.496 274.352 266.496 273.997V265.144C266.496 264.799 266.216 264.509 265.861 264.509C265.517 264.509 265.226 264.789 265.226 265.144V273.997C265.226 274.342 265.506 274.632 265.861 274.632Z" fill="#DF602F"/>
<path d="M263.536 274.632C263.88 274.632 264.171 274.352 264.171 273.997V265.144C264.171 264.799 263.891 264.509 263.536 264.509C263.192 264.509 262.901 264.789 262.901 265.144V273.997C262.901 274.342 263.181 274.632 263.536 274.632Z" fill="#DF602F"/>
<path d="M261.222 274.632C261.566 274.632 261.857 274.352 261.857 273.997V265.144C261.857 264.799 261.577 264.509 261.222 264.509C260.877 264.509 260.587 264.789 260.587 265.144V273.997C260.587 274.342 260.867 274.632 261.222 274.632Z" fill="#DF602F"/>
<path d="M258.897 274.632C259.241 274.632 259.532 274.352 259.532 273.997V265.144C259.532 264.799 259.252 264.509 258.897 264.509C258.552 264.509 258.262 264.789 258.262 265.144V273.997C258.262 274.342 258.542 274.632 258.897 274.632Z" fill="#DF602F"/>
<path d="M256.572 274.632C256.916 274.632 257.207 274.352 257.207 273.997V265.144C257.207 264.799 256.927 264.509 256.572 264.509C256.227 264.509 255.937 264.789 255.937 265.144V273.997C255.937 274.342 256.216 274.632 256.572 274.632Z" fill="#DF602F"/>
<path d="M254.257 274.632C254.602 274.632 254.892 274.352 254.892 273.997V265.144C254.892 264.799 254.613 264.509 254.257 264.509C253.913 264.509 253.622 264.789 253.622 265.144V273.997C253.622 274.342 253.902 274.632 254.257 274.632Z" fill="#DF602F"/>
<path d="M244.979 274.632C245.323 274.632 245.614 274.352 245.614 273.997V265.144C245.614 264.799 245.334 264.509 244.979 264.509C244.634 264.509 244.344 264.789 244.344 265.144V273.997C244.344 274.342 244.624 274.632 244.979 274.632Z" fill="#DF602F"/>
<path d="M242.654 274.632C242.998 274.632 243.289 274.352 243.289 273.997V265.144C243.289 264.799 243.009 264.509 242.654 264.509C242.309 264.509 242.019 264.789 242.019 265.144V273.997C242.019 274.342 242.299 274.632 242.654 274.632Z" fill="#DF602F"/>
<path d="M240.329 274.632C240.673 274.632 240.964 274.352 240.964 273.997V265.144C240.964 264.799 240.684 264.509 240.329 264.509C239.984 264.509 239.694 264.789 239.694 265.144V273.997C239.694 274.342 239.973 274.632 240.329 274.632Z" fill="#DF602F"/>
<path d="M238.014 274.632C238.359 274.632 238.65 274.352 238.65 273.997V265.144C238.65 264.799 238.37 264.509 238.014 264.509C237.67 264.509 237.379 264.789 237.379 265.144V273.997C237.379 274.342 237.659 274.632 238.014 274.632Z" fill="#DF602F"/>
<path d="M235.69 274.632C236.034 274.632 236.325 274.352 236.325 273.997V265.144C236.325 264.799 236.045 264.509 235.69 264.509C235.345 264.509 235.054 264.789 235.054 265.144V273.997C235.054 274.342 235.334 274.632 235.69 274.632Z" fill="#DF602F"/>
<path d="M233.375 274.632C233.72 274.632 234.01 274.352 234.01 273.997V265.144C234.01 264.799 233.73 264.509 233.375 264.509C233.031 264.509 232.74 264.789 232.74 265.144V273.997C232.74 274.342 233.02 274.632 233.375 274.632Z" fill="#DF602F"/>
<path d="M231.05 274.632C231.395 274.632 231.685 274.352 231.685 273.997V265.144C231.685 264.799 231.405 264.509 231.05 264.509C230.706 264.509 230.415 264.789 230.415 265.144V273.997C230.415 274.342 230.695 274.632 231.05 274.632Z" fill="#DF602F"/>
<path d="M228.736 274.632C229.08 274.632 229.371 274.352 229.371 273.997V265.144C229.371 264.799 229.091 264.509 228.736 264.509C228.391 264.509 228.101 264.789 228.101 265.144V273.997C228.101 274.342 228.381 274.632 228.736 274.632Z" fill="#DF602F"/>
<path d="M226.411 274.632C226.755 274.632 227.046 274.352 227.046 273.997V265.144C227.046 264.799 226.766 264.509 226.411 264.509C226.067 264.509 225.776 264.789 225.776 265.144V273.997C225.776 274.342 226.056 274.632 226.411 274.632Z" fill="#DF602F"/>
<path d="M224.086 274.632C224.43 274.632 224.721 274.352 224.721 273.997V265.144C224.721 264.799 224.441 264.509 224.086 264.509C223.741 264.509 223.451 264.789 223.451 265.144V273.997C223.451 274.342 223.731 274.632 224.086 274.632Z" fill="#DF602F"/>
<path d="M221.772 274.632C222.116 274.632 222.407 274.352 222.407 273.997V265.144C222.407 264.799 222.127 264.509 221.772 264.509C221.427 264.509 221.136 264.789 221.136 265.144V273.997C221.136 274.342 221.416 274.632 221.772 274.632Z" fill="#DF602F"/>
<path d="M296.248 250.685H235.399C234.679 250.685 234.096 251.267 234.096 251.986V261.862C234.096 262.581 234.679 263.164 235.399 263.164H296.248C296.967 263.164 297.55 262.581 297.55 261.862V251.986C297.55 251.267 296.967 250.685 296.248 250.685Z" fill="#B53E11"/>
<path d="M296.183 262.153C296.528 262.153 296.818 261.873 296.818 261.518V252.664C296.818 252.32 296.538 252.029 296.183 252.029C295.839 252.029 295.548 252.309 295.548 252.664V261.518C295.548 261.862 295.828 262.153 296.183 262.153Z" fill="#DF602F"/>
<path d="M293.858 262.153C294.203 262.153 294.493 261.873 294.493 261.518V252.664C294.493 252.32 294.213 252.029 293.858 252.029C293.514 252.029 293.223 252.309 293.223 252.664V261.518C293.223 261.862 293.503 262.153 293.858 262.153Z" fill="#DF602F"/>
<path d="M289.219 262.153C289.563 262.153 289.854 261.873 289.854 261.518V252.664C289.854 252.32 289.574 252.029 289.219 252.029C288.874 252.029 288.584 252.309 288.584 252.664V261.518C288.584 261.862 288.864 262.153 289.219 262.153Z" fill="#DF602F"/>
<path d="M286.894 262.153C287.238 262.153 287.529 261.873 287.529 261.518V252.664C287.529 252.32 287.249 252.029 286.894 252.029C286.549 252.029 286.259 252.309 286.259 252.664V261.518C286.259 261.862 286.539 262.153 286.894 262.153Z" fill="#DF602F"/>
<path d="M284.579 262.153C284.924 262.153 285.214 261.873 285.214 261.518V252.664C285.214 252.32 284.935 252.029 284.579 252.029C284.235 252.029 283.944 252.309 283.944 252.664V261.518C283.944 261.862 284.224 262.153 284.579 262.153Z" fill="#DF602F"/>
<path d="M282.254 262.153C282.599 262.153 282.89 261.873 282.89 261.518V252.664C282.89 252.32 282.61 252.029 282.254 252.029C281.91 252.029 281.619 252.309 281.619 252.664V261.518C281.619 261.862 281.899 262.153 282.254 262.153Z" fill="#DF602F"/>
<path d="M279.94 262.153C280.285 262.153 280.575 261.873 280.575 261.518V252.664C280.575 252.32 280.295 252.029 279.94 252.029C279.596 252.029 279.305 252.309 279.305 252.664V261.518C279.305 261.862 279.585 262.153 279.94 262.153Z" fill="#DF602F"/>
<path d="M277.615 262.153C277.96 262.153 278.25 261.873 278.25 261.518V252.664C278.25 252.32 277.971 252.029 277.615 252.029C277.271 252.029 276.98 252.309 276.98 252.664V261.518C276.98 261.862 277.26 262.153 277.615 262.153Z" fill="#DF602F"/>
<path d="M275.301 262.153C275.645 262.153 275.936 261.873 275.936 261.518V252.664C275.936 252.32 275.656 252.029 275.301 252.029C274.956 252.029 274.666 252.309 274.666 252.664V261.518C274.666 261.862 274.946 262.153 275.301 262.153Z" fill="#DF602F"/>
<path d="M272.976 262.153C273.32 262.153 273.611 261.873 273.611 261.518V252.664C273.611 252.32 273.331 252.029 272.976 252.029C272.631 252.029 272.341 252.309 272.341 252.664V261.518C272.341 261.862 272.621 262.153 272.976 262.153Z" fill="#DF602F"/>
<path d="M270.651 262.153C270.995 262.153 271.286 261.873 271.286 261.518V252.664C271.286 252.32 271.006 252.029 270.651 252.029C270.306 252.029 270.016 252.309 270.016 252.664V261.518C270.016 261.862 270.296 262.153 270.651 262.153Z" fill="#DF602F"/>
<path d="M268.336 262.153C268.681 262.153 268.972 261.873 268.972 261.518V252.664C268.972 252.32 268.692 252.029 268.336 252.029C267.992 252.029 267.701 252.309 267.701 252.664V261.518C267.701 261.862 267.981 262.153 268.336 262.153Z" fill="#DF602F"/>
<path d="M266.012 262.153C266.356 262.153 266.647 261.873 266.647 261.518V252.664C266.647 252.32 266.367 252.029 266.012 252.029C265.667 252.029 265.376 252.309 265.376 252.664V261.518C265.376 261.862 265.656 262.153 266.012 262.153Z" fill="#DF602F"/>
<path d="M256.733 262.153C257.077 262.153 257.368 261.873 257.368 261.518V252.664C257.368 252.32 257.088 252.029 256.733 252.029C256.389 252.029 256.098 252.309 256.098 252.664V261.518C256.098 261.862 256.378 262.153 256.733 262.153Z" fill="#DF602F"/>
<path d="M254.408 262.153C254.752 262.153 255.043 261.873 255.043 261.518V252.664C255.043 252.32 254.763 252.029 254.408 252.029C254.064 252.029 253.773 252.309 253.773 252.664V261.518C253.773 261.862 254.053 262.153 254.408 262.153Z" fill="#DF602F"/>
<path d="M252.094 262.153C252.438 262.153 252.729 261.873 252.729 261.518V252.664C252.729 252.32 252.449 252.029 252.094 252.029C251.749 252.029 251.458 252.309 251.458 252.664V261.518C251.458 261.862 251.738 262.153 252.094 262.153Z" fill="#DF602F"/>
<path d="M249.769 262.153C250.113 262.153 250.404 261.873 250.404 261.518V252.664C250.404 252.32 250.124 252.029 249.769 252.029C249.424 252.029 249.134 252.309 249.134 252.664V261.518C249.134 261.862 249.413 262.153 249.769 262.153Z" fill="#DF602F"/>
<path d="M247.454 262.153C247.799 262.153 248.089 261.873 248.089 261.518V252.664C248.089 252.32 247.81 252.029 247.454 252.029C247.11 252.029 246.819 252.309 246.819 252.664V261.518C246.819 261.862 247.099 262.153 247.454 262.153Z" fill="#DF602F"/>
<path d="M245.129 262.153C245.474 262.153 245.764 261.873 245.764 261.518V252.664C245.764 252.32 245.484 252.029 245.129 252.029C244.785 252.029 244.494 252.309 244.494 252.664V261.518C244.494 261.862 244.774 262.153 245.129 262.153Z" fill="#DF602F"/>
<path d="M242.815 262.153C243.159 262.153 243.45 261.873 243.45 261.518V252.664C243.45 252.32 243.17 252.029 242.815 252.029C242.471 252.029 242.18 252.309 242.18 252.664V261.518C242.18 261.862 242.46 262.153 242.815 262.153Z" fill="#DF602F"/>
<path d="M240.49 262.153C240.835 262.153 241.125 261.873 241.125 261.518V252.664C241.125 252.32 240.845 252.029 240.49 252.029C240.146 252.029 239.855 252.309 239.855 252.664V261.518C239.855 261.862 240.135 262.153 240.49 262.153Z" fill="#DF602F"/>
<path d="M238.176 262.153C238.52 262.153 238.811 261.873 238.811 261.518V252.664C238.811 252.32 238.531 252.029 238.176 252.029C237.831 252.029 237.541 252.309 237.541 252.664V261.518C237.541 261.862 237.821 262.153 238.176 262.153Z" fill="#DF602F"/>
<path d="M235.851 262.153C236.195 262.153 236.486 261.873 236.486 261.518V252.664C236.486 252.32 236.206 252.029 235.851 252.029C235.506 252.029 235.216 252.309 235.216 252.664V261.518C235.216 261.862 235.495 262.153 235.851 262.153Z" fill="#DF602F"/>
<path d="M233.526 262.153C233.87 262.153 234.161 261.873 234.161 261.518V252.664C234.161 252.32 233.881 252.029 233.526 252.029C233.181 252.029 232.891 252.309 232.891 252.664V261.518C232.891 261.862 233.17 262.153 233.526 262.153Z" fill="#DF602F"/>
<path d="M289.445 238.195H228.596C227.877 238.195 227.293 238.777 227.293 239.496V249.372C227.293 250.091 227.877 250.674 228.596 250.674H289.445C290.164 250.674 290.747 250.091 290.747 249.372V239.496C290.747 238.777 290.164 238.195 289.445 238.195Z" fill="#DF602F"/>
<path d="M289.38 249.673C289.725 249.673 290.016 249.394 290.016 249.039V240.185C290.016 239.841 289.736 239.55 289.38 239.55C289.036 239.55 288.745 239.83 288.745 240.185V249.039C288.745 249.383 289.025 249.673 289.38 249.673Z" fill="#DF602F"/>
<path d="M287.055 249.673C287.4 249.673 287.691 249.394 287.691 249.039V240.185C287.691 239.841 287.411 239.55 287.055 239.55C286.711 239.55 286.42 239.83 286.42 240.185V249.039C286.42 249.383 286.7 249.673 287.055 249.673Z" fill="#DF602F"/>
<path d="M282.416 249.673C282.761 249.673 283.051 249.394 283.051 249.039V240.185C283.051 239.841 282.771 239.55 282.416 239.55C282.072 239.55 281.781 239.83 281.781 240.185V249.039C281.781 249.383 282.061 249.673 282.416 249.673Z" fill="#DF602F"/>
<path d="M280.091 249.673C280.436 249.673 280.726 249.394 280.726 249.039V240.185C280.726 239.841 280.446 239.55 280.091 239.55C279.747 239.55 279.456 239.83 279.456 240.185V249.039C279.456 249.383 279.736 249.673 280.091 249.673Z" fill="#DF602F"/>
<path d="M277.777 249.673C278.121 249.673 278.412 249.394 278.412 249.039V240.185C278.412 239.841 278.132 239.55 277.777 239.55C277.432 239.55 277.142 239.83 277.142 240.185V249.039C277.142 249.383 277.421 249.673 277.777 249.673Z" fill="#DF602F"/>
<path d="M275.452 249.673C275.796 249.673 276.087 249.394 276.087 249.039V240.185C276.087 239.841 275.807 239.55 275.452 239.55C275.107 239.55 274.817 239.83 274.817 240.185V249.039C274.817 249.383 275.097 249.673 275.452 249.673Z" fill="#DF602F"/>
<path d="M273.138 249.673C273.482 249.673 273.773 249.394 273.773 249.039V240.185C273.773 239.841 273.493 239.55 273.138 239.55C272.793 239.55 272.502 239.83 272.502 240.185V249.039C272.502 249.383 272.782 249.673 273.138 249.673Z" fill="#DF602F"/>
<path d="M270.813 249.673C271.157 249.673 271.448 249.394 271.448 249.039V240.185C271.448 239.841 271.168 239.55 270.813 239.55C270.468 239.55 270.177 239.83 270.177 240.185V249.039C270.177 249.383 270.457 249.673 270.813 249.673Z" fill="#DF602F"/>
<path d="M268.498 249.673C268.843 249.673 269.133 249.394 269.133 249.039V240.185C269.133 239.841 268.853 239.55 268.498 239.55C268.154 239.55 267.863 239.83 267.863 240.185V249.039C267.863 249.383 268.143 249.673 268.498 249.673Z" fill="#DF602F"/>
<path d="M266.173 249.673C266.518 249.673 266.808 249.394 266.808 249.039V240.185C266.808 239.841 266.528 239.55 266.173 239.55C265.829 239.55 265.538 239.83 265.538 240.185V249.039C265.538 249.383 265.818 249.673 266.173 249.673Z" fill="#DF602F"/>
<path d="M263.848 249.673C264.193 249.673 264.483 249.394 264.483 249.039V240.185C264.483 239.841 264.203 239.55 263.848 239.55C263.504 239.55 263.213 239.83 263.213 240.185V249.039C263.213 249.383 263.493 249.673 263.848 249.673Z" fill="#DF602F"/>
<path d="M261.534 249.673C261.878 249.673 262.169 249.394 262.169 249.039V240.185C262.169 239.841 261.889 239.55 261.534 239.55C261.189 239.55 260.899 239.83 260.899 240.185V249.039C260.899 249.383 261.179 249.673 261.534 249.673Z" fill="#DF602F"/>
<path d="M259.209 249.673C259.553 249.673 259.844 249.394 259.844 249.039V240.185C259.844 239.841 259.564 239.55 259.209 239.55C258.864 239.55 258.574 239.83 258.574 240.185V249.039C258.574 249.383 258.854 249.673 259.209 249.673Z" fill="#DF602F"/>
<path d="M249.93 249.673C250.275 249.673 250.565 249.394 250.565 249.039V240.185C250.565 239.841 250.285 239.55 249.93 239.55C249.586 239.55 249.295 239.83 249.295 240.185V249.039C249.295 249.383 249.575 249.673 249.93 249.673Z" fill="#DF602F"/>
<path d="M247.605 249.673C247.95 249.673 248.24 249.394 248.24 249.039V240.185C248.24 239.841 247.961 239.55 247.605 239.55C247.261 239.55 246.97 239.83 246.97 240.185V249.039C246.97 249.383 247.25 249.673 247.605 249.673Z" fill="#DF602F"/>
<path d="M245.291 249.673C245.635 249.673 245.926 249.394 245.926 249.039V240.185C245.926 239.841 245.646 239.55 245.291 239.55C244.946 239.55 244.656 239.83 244.656 240.185V249.039C244.656 249.383 244.936 249.673 245.291 249.673Z" fill="#DF602F"/>
<path d="M242.966 249.673C243.31 249.673 243.601 249.394 243.601 249.039V240.185C243.601 239.841 243.321 239.55 242.966 239.55C242.621 239.55 242.331 239.83 242.331 240.185V249.039C242.331 249.383 242.611 249.673 242.966 249.673Z" fill="#DF602F"/>
<path d="M240.652 249.673C240.996 249.673 241.287 249.394 241.287 249.039V240.185C241.287 239.841 241.007 239.55 240.652 239.55C240.307 239.55 240.017 239.83 240.017 240.185V249.039C240.017 249.383 240.296 249.673 240.652 249.673Z" fill="#DF602F"/>
<path d="M238.327 249.673C238.671 249.673 238.962 249.394 238.962 249.039V240.185C238.962 239.841 238.682 239.55 238.327 239.55C237.982 239.55 237.692 239.83 237.692 240.185V249.039C237.692 249.383 237.972 249.673 238.327 249.673Z" fill="#DF602F"/>
<path d="M236.012 249.673C236.357 249.673 236.647 249.394 236.647 249.039V240.185C236.647 239.841 236.367 239.55 236.012 239.55C235.668 239.55 235.377 239.83 235.377 240.185V249.039C235.377 249.383 235.657 249.673 236.012 249.673Z" fill="#DF602F"/>
<path d="M234.322 240.185C234.322 239.834 234.038 239.55 233.687 239.55C233.337 239.55 233.052 239.834 233.052 240.185V249.039C233.052 249.389 233.337 249.673 233.687 249.673C234.038 249.673 234.322 249.389 234.322 249.039V240.185Z" fill="#DF602F"/>
<path d="M231.373 249.673C231.718 249.673 232.008 249.394 232.008 249.039V240.185C232.008 239.841 231.728 239.55 231.373 239.55C231.029 239.55 230.738 239.83 230.738 240.185V249.039C230.738 249.383 231.018 249.673 231.373 249.673Z" fill="#DF602F"/>
<path d="M229.048 249.673C229.392 249.673 229.683 249.394 229.683 249.039V240.185C229.683 239.841 229.403 239.55 229.048 239.55C228.703 239.55 228.413 239.83 228.413 240.185V249.039C228.413 249.383 228.693 249.673 229.048 249.673Z" fill="#DF602F"/>
<path d="M226.723 249.673C227.067 249.673 227.358 249.394 227.358 249.039V240.185C227.358 239.841 227.078 239.55 226.723 239.55C226.379 239.55 226.088 239.83 226.088 240.185V249.039C226.088 249.383 226.368 249.673 226.723 249.673Z" fill="#DF602F"/>
<path d="M144.873 263.164H84.0241C83.3048 263.164 82.7217 263.747 82.7217 264.466V274.342C82.7217 275.061 83.3048 275.643 84.0241 275.643H144.873C145.593 275.643 146.176 275.061 146.176 274.342V264.466C146.176 263.747 145.593 263.164 144.873 263.164Z" fill="#DF602F"/>
<path d="M144.798 274.632C145.142 274.632 145.433 274.352 145.433 273.997V265.144C145.433 264.799 145.153 264.509 144.798 264.509C144.453 264.509 144.163 264.789 144.163 265.144V273.997C144.163 274.342 144.443 274.632 144.798 274.632Z" fill="#DF602F"/>
<path d="M142.484 274.632C142.828 274.632 143.119 274.352 143.119 273.997V265.144C143.119 264.799 142.839 264.509 142.484 264.509C142.139 264.509 141.849 264.789 141.849 265.144V273.997C141.849 274.342 142.128 274.632 142.484 274.632Z" fill="#DF602F"/>
<path d="M137.844 274.632C138.189 274.632 138.479 274.352 138.479 273.997V265.144C138.479 264.799 138.2 264.509 137.844 264.509C137.5 264.509 137.209 264.789 137.209 265.144V273.997C137.209 274.342 137.489 274.632 137.844 274.632Z" fill="#DF602F"/>
<path d="M135.519 274.632C135.864 274.632 136.154 274.352 136.154 273.997V265.144C136.154 264.799 135.875 264.509 135.519 264.509C135.175 264.509 134.884 264.789 134.884 265.144V273.997C134.884 274.342 135.164 274.632 135.519 274.632Z" fill="#DF602F"/>
<path d="M133.205 274.632C133.549 274.632 133.84 274.352 133.84 273.997V265.144C133.84 264.799 133.56 264.509 133.205 264.509C132.86 264.509 132.57 264.789 132.57 265.144V273.997C132.57 274.342 132.85 274.632 133.205 274.632Z" fill="#DF602F"/>
<path d="M130.88 274.632C131.224 274.632 131.515 274.352 131.515 273.997V265.144C131.515 264.799 131.235 264.509 130.88 264.509C130.535 264.509 130.245 264.789 130.245 265.144V273.997C130.245 274.342 130.525 274.632 130.88 274.632Z" fill="#DF602F"/>
<path d="M128.555 274.632C128.899 274.632 129.19 274.352 129.19 273.997V265.144C129.19 264.799 128.91 264.509 128.555 264.509C128.211 264.509 127.92 264.789 127.92 265.144V273.997C127.92 274.342 128.2 274.632 128.555 274.632Z" fill="#DF602F"/>
<path d="M126.241 274.632C126.585 274.632 126.876 274.352 126.876 273.997V265.144C126.876 264.799 126.596 264.509 126.241 264.509C125.896 264.509 125.606 264.789 125.606 265.144V273.997C125.606 274.342 125.886 274.632 126.241 274.632Z" fill="#DF602F"/>
<path d="M123.916 274.632C124.26 274.632 124.551 274.352 124.551 273.997V265.144C124.551 264.799 124.271 264.509 123.916 264.509C123.571 264.509 123.281 264.789 123.281 265.144V273.997C123.281 274.342 123.56 274.632 123.916 274.632Z" fill="#DF602F"/>
<path d="M121.601 274.632C121.946 274.632 122.236 274.352 122.236 273.997V265.144C122.236 264.799 121.957 264.509 121.601 264.509C121.257 264.509 120.966 264.789 120.966 265.144V273.997C120.966 274.342 121.246 274.632 121.601 274.632Z" fill="#DF602F"/>
<path d="M119.276 274.632C119.621 274.632 119.912 274.352 119.912 273.997V265.144C119.912 264.799 119.632 264.509 119.276 264.509C118.932 264.509 118.641 264.789 118.641 265.144V273.997C118.641 274.342 118.921 274.632 119.276 274.632Z" fill="#DF602F"/>
<path d="M116.962 274.632C117.306 274.632 117.597 274.352 117.597 273.997V265.144C117.597 264.799 117.317 264.509 116.962 264.509C116.618 264.509 116.327 264.789 116.327 265.144V273.997C116.327 274.342 116.607 274.632 116.962 274.632Z" fill="#DF602F"/>
<path d="M114.637 274.632C114.981 274.632 115.272 274.352 115.272 273.997V265.144C115.272 264.799 114.992 264.509 114.637 264.509C114.293 264.509 114.002 264.789 114.002 265.144V273.997C114.002 274.342 114.282 274.632 114.637 274.632Z" fill="#DF602F"/>
<path d="M105.358 274.632C105.703 274.632 105.994 274.352 105.994 273.997V265.144C105.994 264.799 105.714 264.509 105.358 264.509C105.014 264.509 104.723 264.789 104.723 265.144V273.997C104.723 274.342 105.003 274.632 105.358 274.632Z" fill="#DF602F"/>
<path d="M103.034 274.632C103.378 274.632 103.669 274.352 103.669 273.997V265.144C103.669 264.799 103.389 264.509 103.034 264.509C102.689 264.509 102.398 264.789 102.398 265.144V273.997C102.398 274.342 102.678 274.632 103.034 274.632Z" fill="#DF602F"/>
<path d="M101.354 265.144C101.354 264.793 101.07 264.509 100.719 264.509C100.368 264.509 100.084 264.793 100.084 265.144V273.997C100.084 274.348 100.368 274.632 100.719 274.632C101.07 274.632 101.354 274.348 101.354 273.997V265.144Z" fill="#DF602F"/>
<path d="M98.3941 274.632C98.7386 274.632 99.0292 274.352 99.0292 273.997V265.144C99.0292 264.799 98.7493 264.509 98.3941 264.509C98.0497 264.509 97.759 264.789 97.759 265.144V273.997C97.759 274.342 98.0389 274.632 98.3941 274.632Z" fill="#DF602F"/>
<path d="M96.0799 274.632C96.4244 274.632 96.715 274.352 96.715 273.997V265.144C96.715 264.799 96.4351 264.509 96.0799 264.509C95.7355 264.509 95.4448 264.789 95.4448 265.144V273.997C95.4448 274.342 95.7247 274.632 96.0799 274.632Z" fill="#DF602F"/>
<path d="M93.7547 274.632C94.0992 274.632 94.3898 274.352 94.3898 273.997V265.144C94.3898 264.799 94.1099 264.509 93.7547 264.509C93.4103 264.509 93.1196 264.789 93.1196 265.144V273.997C93.1196 274.342 93.3995 274.632 93.7547 274.632Z" fill="#DF602F"/>
<path d="M91.4298 274.632C91.7742 274.632 92.0648 274.352 92.0648 273.997V265.144C92.0648 264.799 91.785 264.509 91.4298 264.509C91.0853 264.509 90.7947 264.789 90.7947 265.144V273.997C90.7947 274.342 91.0745 274.632 91.4298 274.632Z" fill="#DF602F"/>
<path d="M89.1156 274.632C89.46 274.632 89.7506 274.352 89.7506 273.997V265.144C89.7506 264.799 89.4708 264.509 89.1156 264.509C88.7711 264.509 88.4805 264.789 88.4805 265.144V273.997C88.4805 274.342 88.7603 274.632 89.1156 274.632Z" fill="#DF602F"/>
<path d="M86.7906 274.632C87.135 274.632 87.4257 274.352 87.4257 273.997V265.144C87.4257 264.799 87.1458 264.509 86.7906 264.509C86.4461 264.509 86.1555 264.789 86.1555 265.144V273.997C86.1555 274.342 86.4354 274.632 86.7906 274.632Z" fill="#DF602F"/>
<path d="M84.4761 274.632C84.8206 274.632 85.1112 274.352 85.1112 273.997V265.144C85.1112 264.799 84.8314 264.509 84.4761 264.509C84.1317 264.509 83.8411 264.789 83.8411 265.144V273.997C83.8411 274.342 84.1209 274.632 84.4761 274.632Z" fill="#DF602F"/>
<path d="M82.1512 274.632C82.4956 274.632 82.7863 274.352 82.7863 273.997V265.144C82.7863 264.799 82.5064 264.509 82.1512 264.509C81.8067 264.509 81.5161 264.789 81.5161 265.144V273.997C81.5161 274.342 81.796 274.632 82.1512 274.632Z" fill="#DF602F"/>
<path d="M156.638 250.685H95.7893C95.0699 250.685 94.4868 251.267 94.4868 251.986V261.862C94.4868 262.581 95.0699 263.164 95.7893 263.164H156.638C157.358 263.164 157.941 262.581 157.941 261.862V251.986C157.941 251.267 157.358 250.685 156.638 250.685Z" fill="#B53E11"/>
<path d="M156.563 262.153C156.908 262.153 157.198 261.873 157.198 261.518V252.664C157.198 252.32 156.918 252.029 156.563 252.029C156.219 252.029 155.928 252.309 155.928 252.664V261.518C155.928 261.862 156.208 262.153 156.563 262.153Z" fill="#DF602F"/>
<path d="M154.238 262.153C154.582 262.153 154.873 261.873 154.873 261.518V252.664C154.873 252.32 154.593 252.029 154.238 252.029C153.893 252.029 153.603 252.309 153.603 252.664V261.518C153.603 261.862 153.883 262.153 154.238 262.153Z" fill="#DF602F"/>
<path d="M149.599 262.153C149.943 262.153 150.234 261.873 150.234 261.518V252.664C150.234 252.32 149.954 252.029 149.599 252.029C149.254 252.029 148.964 252.309 148.964 252.664V261.518C148.964 261.862 149.243 262.153 149.599 262.153Z" fill="#DF602F"/>
<path d="M147.284 262.153C147.629 262.153 147.92 261.873 147.92 261.518V252.664C147.92 252.32 147.64 252.029 147.284 252.029C146.94 252.029 146.649 252.309 146.649 252.664V261.518C146.649 261.862 146.929 262.153 147.284 262.153Z" fill="#DF602F"/>
<path d="M144.959 262.153C145.304 262.153 145.594 261.873 145.594 261.518V252.664C145.594 252.32 145.315 252.029 144.959 252.029C144.615 252.029 144.324 252.309 144.324 252.664V261.518C144.324 261.862 144.604 262.153 144.959 262.153Z" fill="#DF602F"/>
<path d="M142.645 262.153C142.99 262.153 143.28 261.873 143.28 261.518V252.664C143.28 252.32 143 252.029 142.645 252.029C142.301 252.029 142.01 252.309 142.01 252.664V261.518C142.01 261.862 142.29 262.153 142.645 262.153Z" fill="#DF602F"/>
<path d="M140.32 262.153C140.665 262.153 140.955 261.873 140.955 261.518V252.664C140.955 252.32 140.675 252.029 140.32 252.029C139.976 252.029 139.685 252.309 139.685 252.664V261.518C139.685 261.862 139.965 262.153 140.32 262.153Z" fill="#DF602F"/>
<path d="M137.995 262.153C138.339 262.153 138.63 261.873 138.63 261.518V252.664C138.63 252.32 138.35 252.029 137.995 252.029C137.65 252.029 137.36 252.309 137.36 252.664V261.518C137.36 261.862 137.64 262.153 137.995 262.153Z" fill="#DF602F"/>
<path d="M135.681 262.153C136.025 262.153 136.316 261.873 136.316 261.518V252.664C136.316 252.32 136.036 252.029 135.681 252.029C135.336 252.029 135.046 252.309 135.046 252.664V261.518C135.046 261.862 135.326 262.153 135.681 262.153Z" fill="#DF602F"/>
<path d="M133.356 262.153C133.7 262.153 133.991 261.873 133.991 261.518V252.664C133.991 252.32 133.711 252.029 133.356 252.029C133.011 252.029 132.721 252.309 132.721 252.664V261.518C132.721 261.862 133.001 262.153 133.356 262.153Z" fill="#DF602F"/>
<path d="M131.042 262.153C131.386 262.153 131.677 261.873 131.677 261.518V252.664C131.677 252.32 131.397 252.029 131.042 252.029C130.697 252.029 130.406 252.309 130.406 252.664V261.518C130.406 261.862 130.686 262.153 131.042 262.153Z" fill="#DF602F"/>
<path d="M128.716 262.153C129.061 262.153 129.351 261.873 129.351 261.518V252.664C129.351 252.32 129.072 252.029 128.716 252.029C128.372 252.029 128.081 252.309 128.081 252.664V261.518C128.081 261.862 128.361 262.153 128.716 262.153Z" fill="#DF602F"/>
<path d="M126.402 262.153C126.747 262.153 127.037 261.873 127.037 261.518V252.664C127.037 252.32 126.757 252.029 126.402 252.029C126.058 252.029 125.767 252.309 125.767 252.664V261.518C125.767 261.862 126.047 262.153 126.402 262.153Z" fill="#DF602F"/>
<path d="M117.113 262.153C117.457 262.153 117.748 261.873 117.748 261.518V252.664C117.748 252.32 117.468 252.029 117.113 252.029C116.768 252.029 116.478 252.309 116.478 252.664V261.518C116.478 261.862 116.758 262.153 117.113 262.153Z" fill="#DF602F"/>
<path d="M114.799 262.153C115.143 262.153 115.434 261.873 115.434 261.518V252.664C115.434 252.32 115.154 252.029 114.799 252.029C114.454 252.029 114.164 252.309 114.164 252.664V261.518C114.164 261.862 114.443 262.153 114.799 262.153Z" fill="#DF602F"/>
<path d="M112.473 262.153C112.818 262.153 113.109 261.873 113.109 261.518V252.664C113.109 252.32 112.829 252.029 112.473 252.029C112.129 252.029 111.838 252.309 111.838 252.664V261.518C111.838 261.862 112.118 262.153 112.473 262.153Z" fill="#DF602F"/>
<path d="M110.159 262.153C110.504 262.153 110.794 261.873 110.794 261.518V252.664C110.794 252.32 110.514 252.029 110.159 252.029C109.815 252.029 109.524 252.309 109.524 252.664V261.518C109.524 261.862 109.804 262.153 110.159 262.153Z" fill="#DF602F"/>
<path d="M107.834 262.153C108.179 262.153 108.469 261.873 108.469 261.518V252.664C108.469 252.32 108.19 252.029 107.834 252.029C107.49 252.029 107.199 252.309 107.199 252.664V261.518C107.199 261.862 107.479 262.153 107.834 262.153Z" fill="#DF602F"/>
<path d="M105.509 262.153C105.854 262.153 106.144 261.873 106.144 261.518V252.664C106.144 252.32 105.864 252.029 105.509 252.029C105.165 252.029 104.874 252.309 104.874 252.664V261.518C104.874 261.862 105.154 262.153 105.509 262.153Z" fill="#DF602F"/>
<path d="M103.195 262.153C103.539 262.153 103.83 261.873 103.83 261.518V252.664C103.83 252.32 103.55 252.029 103.195 252.029C102.85 252.029 102.56 252.309 102.56 252.664V261.518C102.56 261.862 102.84 262.153 103.195 262.153Z" fill="#DF602F"/>
<path d="M100.87 262.153C101.214 262.153 101.505 261.873 101.505 261.518V252.664C101.505 252.32 101.225 252.029 100.87 252.029C100.525 252.029 100.235 252.309 100.235 252.664V261.518C100.235 261.862 100.515 262.153 100.87 262.153Z" fill="#DF602F"/>
<path d="M98.5557 262.153C98.9002 262.153 99.1908 261.873 99.1908 261.518V252.664C99.1908 252.32 98.9109 252.029 98.5557 252.029C98.2113 252.029 97.9207 252.309 97.9207 252.664V261.518C97.9207 261.862 98.2005 262.153 98.5557 262.153Z" fill="#DF602F"/>
<path d="M96.2305 262.153C96.575 262.153 96.8656 261.873 96.8656 261.518V252.664C96.8656 252.32 96.5858 252.029 96.2305 252.029C95.8861 252.029 95.5955 252.309 95.5955 252.664V261.518C95.5955 261.862 95.8753 262.153 96.2305 262.153Z" fill="#DF602F"/>
<path d="M93.9163 262.153C94.2608 262.153 94.5514 261.873 94.5514 261.518V252.664C94.5514 252.32 94.2715 252.029 93.9163 252.029C93.5719 252.029 93.2812 252.309 93.2812 252.664V261.518C93.2812 261.862 93.5611 262.153 93.9163 262.153Z" fill="#DF602F"/>
<path d="M149.835 238.195H88.9863C88.267 238.195 87.6838 238.777 87.6838 239.496V249.372C87.6838 250.091 88.267 250.674 88.9863 250.674H149.835C150.555 250.674 151.138 250.091 151.138 249.372V239.496C151.138 238.777 150.555 238.195 149.835 238.195Z" fill="#DF602F"/>
<path d="M149.76 249.673C150.105 249.673 150.395 249.394 150.395 249.039V240.185C150.395 239.841 150.115 239.55 149.76 239.55C149.416 239.55 149.125 239.83 149.125 240.185V249.039C149.125 249.383 149.405 249.673 149.76 249.673Z" fill="#DF602F"/>
<path d="M147.435 249.673C147.78 249.673 148.07 249.394 148.07 249.039V240.185C148.07 239.841 147.79 239.55 147.435 239.55C147.091 239.55 146.8 239.83 146.8 240.185V249.039C146.8 249.383 147.08 249.673 147.435 249.673Z" fill="#DF602F"/>
<path d="M143.431 240.185C143.431 239.834 143.146 239.55 142.796 239.55C142.445 239.55 142.161 239.834 142.161 240.185V249.039C142.161 249.389 142.445 249.673 142.796 249.673C143.146 249.673 143.431 249.389 143.431 249.039V240.185Z" fill="#DF602F"/>
<path d="M140.482 249.673C140.826 249.673 141.117 249.394 141.117 249.039V240.185C141.117 239.841 140.837 239.55 140.482 239.55C140.137 239.55 139.846 239.83 139.846 240.185V249.039C139.846 249.383 140.126 249.673 140.482 249.673Z" fill="#DF602F"/>
<path d="M138.156 249.673C138.501 249.673 138.791 249.394 138.791 249.039V240.185C138.791 239.841 138.512 239.55 138.156 239.55C137.812 239.55 137.521 239.83 137.521 240.185V249.039C137.521 249.383 137.801 249.673 138.156 249.673Z" fill="#DF602F"/>
<path d="M135.842 249.673C136.187 249.673 136.477 249.394 136.477 249.039V240.185C136.477 239.841 136.197 239.55 135.842 239.55C135.498 239.55 135.207 239.83 135.207 240.185V249.039C135.207 249.383 135.487 249.673 135.842 249.673Z" fill="#DF602F"/>
<path d="M133.517 249.673C133.862 249.673 134.152 249.394 134.152 249.039V240.185C134.152 239.841 133.872 239.55 133.517 239.55C133.173 239.55 132.882 239.83 132.882 240.185V249.039C132.882 249.383 133.162 249.673 133.517 249.673Z" fill="#DF602F"/>
<path d="M131.192 249.673C131.536 249.673 131.827 249.394 131.827 249.039V240.185C131.827 239.841 131.547 239.55 131.192 239.55C130.848 239.55 130.557 239.83 130.557 240.185V249.039C130.557 249.383 130.837 249.673 131.192 249.673Z" fill="#DF602F"/>
<path d="M128.878 249.673C129.222 249.673 129.513 249.394 129.513 249.039V240.185C129.513 239.841 129.233 239.55 128.878 239.55C128.533 239.55 128.243 239.83 128.243 240.185V249.039C128.243 249.383 128.523 249.673 128.878 249.673Z" fill="#DF602F"/>
<path d="M126.553 249.673C126.897 249.673 127.188 249.394 127.188 249.039V240.185C127.188 239.841 126.908 239.55 126.553 239.55C126.208 239.55 125.918 239.83 125.918 240.185V249.039C125.918 249.383 126.198 249.673 126.553 249.673Z" fill="#DF602F"/>
<path d="M124.239 249.673C124.583 249.673 124.874 249.394 124.874 249.039V240.185C124.874 239.841 124.594 239.55 124.239 239.55C123.894 239.55 123.604 239.83 123.604 240.185V249.039C123.604 249.383 123.883 249.673 124.239 249.673Z" fill="#DF602F"/>
<path d="M121.913 249.673C122.258 249.673 122.548 249.394 122.548 249.039V240.185C122.548 239.841 122.269 239.55 121.913 239.55C121.569 239.55 121.278 239.83 121.278 240.185V249.039C121.278 249.383 121.558 249.673 121.913 249.673Z" fill="#DF602F"/>
<path d="M119.599 249.673C119.944 249.673 120.234 249.394 120.234 249.039V240.185C120.234 239.841 119.954 239.55 119.599 239.55C119.255 239.55 118.964 239.83 118.964 240.185V249.039C118.964 249.383 119.244 249.673 119.599 249.673Z" fill="#DF602F"/>
<path d="M110.31 249.673C110.654 249.673 110.945 249.394 110.945 249.039V240.185C110.945 239.841 110.665 239.55 110.31 239.55C109.965 239.55 109.675 239.83 109.675 240.185V249.039C109.675 249.383 109.955 249.673 110.31 249.673Z" fill="#DF602F"/>
<path d="M107.996 249.673C108.34 249.673 108.631 249.394 108.631 249.039V240.185C108.631 239.841 108.351 239.55 107.996 239.55C107.651 239.55 107.361 239.83 107.361 240.185V249.039C107.361 249.383 107.64 249.673 107.996 249.673Z" fill="#DF602F"/>
<path d="M105.67 249.673C106.015 249.673 106.306 249.394 106.306 249.039V240.185C106.306 239.841 106.026 239.55 105.67 239.55C105.326 239.55 105.035 239.83 105.035 240.185V249.039C105.035 249.383 105.315 249.673 105.67 249.673Z" fill="#DF602F"/>
<path d="M103.356 249.673C103.701 249.673 103.991 249.394 103.991 249.039V240.185C103.991 239.841 103.711 239.55 103.356 239.55C103.012 239.55 102.721 239.83 102.721 240.185V249.039C102.721 249.383 103.001 249.673 103.356 249.673Z" fill="#DF602F"/>
<path d="M101.031 249.673C101.376 249.673 101.666 249.394 101.666 249.039V240.185C101.666 239.841 101.387 239.55 101.031 239.55C100.687 239.55 100.396 239.83 100.396 240.185V249.039C100.396 249.383 100.676 249.673 101.031 249.673Z" fill="#DF602F"/>
<path d="M98.7061 249.673C99.0506 249.673 99.3412 249.394 99.3412 249.039V240.185C99.3412 239.841 99.0613 239.55 98.7061 239.55C98.3617 239.55 98.071 239.83 98.071 240.185V249.039C98.071 249.383 98.3509 249.673 98.7061 249.673Z" fill="#DF602F"/>
<path d="M96.3919 249.673C96.7364 249.673 97.027 249.394 97.027 249.039V240.185C97.027 239.841 96.7471 239.55 96.3919 239.55C96.0475 239.55 95.7568 239.83 95.7568 240.185V249.039C95.7568 249.383 96.0367 249.673 96.3919 249.673Z" fill="#DF602F"/>
<path d="M94.067 249.673C94.4114 249.673 94.702 249.394 94.702 249.039V240.185C94.702 239.841 94.4222 239.55 94.067 239.55C93.7225 239.55 93.4319 239.83 93.4319 240.185V249.039C93.4319 249.383 93.7117 249.673 94.067 249.673Z" fill="#DF602F"/>
<path d="M91.7527 249.673C92.0972 249.673 92.3878 249.394 92.3878 249.039V240.185C92.3878 239.841 92.108 239.55 91.7527 239.55C91.4083 239.55 91.1177 239.83 91.1177 240.185V249.039C91.1177 249.383 91.3975 249.673 91.7527 249.673Z" fill="#DF602F"/>
<path d="M89.4276 249.673C89.772 249.673 90.0626 249.394 90.0626 249.039V240.185C90.0626 239.841 89.7828 239.55 89.4276 239.55C89.0831 239.55 88.7925 239.83 88.7925 240.185V249.039C88.7925 249.383 89.0723 249.673 89.4276 249.673Z" fill="#DF602F"/>
<path d="M87.1134 249.673C87.4578 249.673 87.7484 249.394 87.7484 249.039V240.185C87.7484 239.841 87.4686 239.55 87.1134 239.55C86.7689 239.55 86.4783 239.83 86.4783 240.185V249.039C86.4783 249.383 86.7581 249.673 87.1134 249.673Z" fill="#DF602F"/>
<path d="M271.674 225.715H210.824C210.105 225.715 209.522 226.298 209.522 227.017V236.893C209.522 237.612 210.105 238.195 210.824 238.195H271.674C272.393 238.195 272.976 237.612 272.976 236.893V227.017C272.976 226.298 272.393 225.715 271.674 225.715Z" fill="#B53E11"/>
<path d="M271.609 237.183C271.953 237.183 272.244 236.904 272.244 236.549V227.695C272.244 227.35 271.964 227.06 271.609 227.06C271.265 227.06 270.974 227.34 270.974 227.695V236.549C270.974 236.893 271.254 237.183 271.609 237.183Z" fill="#DF602F"/>
<path d="M269.284 237.183C269.628 237.183 269.919 236.904 269.919 236.549V227.695C269.919 227.35 269.639 227.06 269.284 227.06C268.94 227.06 268.649 227.34 268.649 227.695V236.549C268.649 236.893 268.929 237.183 269.284 237.183Z" fill="#DF602F"/>
<path d="M264.645 237.183C264.989 237.183 265.28 236.904 265.28 236.549V227.695C265.28 227.35 265 227.06 264.645 227.06C264.3 227.06 264.01 227.34 264.01 227.695V236.549C264.01 236.893 264.289 237.183 264.645 237.183Z" fill="#DF602F"/>
<path d="M262.32 237.183C262.664 237.183 262.955 236.904 262.955 236.549V227.695C262.955 227.35 262.675 227.06 262.32 227.06C261.975 227.06 261.685 227.34 261.685 227.695V236.549C261.685 236.893 261.964 237.183 262.32 237.183Z" fill="#DF602F"/>
<path d="M260.005 237.183C260.35 237.183 260.64 236.904 260.64 236.549V227.695C260.64 227.35 260.36 227.06 260.005 227.06C259.661 227.06 259.37 227.34 259.37 227.695V236.549C259.37 236.893 259.65 237.183 260.005 237.183Z" fill="#DF602F"/>
<path d="M257.68 237.183C258.025 237.183 258.315 236.904 258.315 236.549V227.695C258.315 227.35 258.035 227.06 257.68 227.06C257.336 227.06 257.045 227.34 257.045 227.695V236.549C257.045 236.893 257.325 237.183 257.68 237.183Z" fill="#DF602F"/>
<path d="M255.366 237.183C255.71 237.183 256.001 236.904 256.001 236.549V227.695C256.001 227.35 255.721 227.06 255.366 227.06C255.022 227.06 254.731 227.34 254.731 227.695V236.549C254.731 236.893 255.011 237.183 255.366 237.183Z" fill="#DF602F"/>
<path d="M253.041 237.183C253.386 237.183 253.676 236.904 253.676 236.549V227.695C253.676 227.35 253.396 227.06 253.041 227.06C252.697 227.06 252.406 227.34 252.406 227.695V236.549C252.406 236.893 252.686 237.183 253.041 237.183Z" fill="#DF602F"/>
<path d="M250.727 237.183C251.071 237.183 251.362 236.904 251.362 236.549V227.695C251.362 227.35 251.082 227.06 250.727 227.06C250.382 227.06 250.092 227.34 250.092 227.695V236.549C250.092 236.893 250.371 237.183 250.727 237.183Z" fill="#DF602F"/>
<path d="M248.402 237.183C248.746 237.183 249.037 236.904 249.037 236.549V227.695C249.037 227.35 248.757 227.06 248.402 227.06C248.057 227.06 247.767 227.34 247.767 227.695V236.549C247.767 236.893 248.046 237.183 248.402 237.183Z" fill="#DF602F"/>
<path d="M246.077 237.183C246.421 237.183 246.712 236.904 246.712 236.549V227.695C246.712 227.35 246.432 227.06 246.077 227.06C245.732 227.06 245.442 227.34 245.442 227.695V236.549C245.442 236.893 245.722 237.183 246.077 237.183Z" fill="#DF602F"/>
<path d="M243.762 237.183C244.107 237.183 244.397 236.904 244.397 236.549V227.695C244.397 227.35 244.118 227.06 243.762 227.06C243.418 227.06 243.127 227.34 243.127 227.695V236.549C243.127 236.893 243.407 237.183 243.762 237.183Z" fill="#DF602F"/>
<path d="M241.437 237.183C241.782 237.183 242.072 236.904 242.072 236.549V227.695C242.072 227.35 241.793 227.06 241.437 227.06C241.093 227.06 240.802 227.34 240.802 227.695V236.549C240.802 236.893 241.082 237.183 241.437 237.183Z" fill="#DF602F"/>
<path d="M232.159 237.183C232.503 237.183 232.794 236.904 232.794 236.549V227.695C232.794 227.35 232.514 227.06 232.159 227.06C231.814 227.06 231.524 227.34 231.524 227.695V236.549C231.524 236.893 231.804 237.183 232.159 237.183Z" fill="#DF602F"/>
<path d="M229.834 237.183C230.178 237.183 230.469 236.904 230.469 236.549V227.695C230.469 227.35 230.189 227.06 229.834 227.06C229.489 227.06 229.199 227.34 229.199 227.695V236.549C229.199 236.893 229.479 237.183 229.834 237.183Z" fill="#DF602F"/>
<path d="M227.519 237.183C227.864 237.183 228.154 236.904 228.154 236.549V227.695C228.154 227.35 227.875 227.06 227.519 227.06C227.175 227.06 226.884 227.34 226.884 227.695V236.549C226.884 236.893 227.164 237.183 227.519 237.183Z" fill="#DF602F"/>
<path d="M225.194 237.183C225.539 237.183 225.829 236.904 225.829 236.549V227.695C225.829 227.35 225.55 227.06 225.194 227.06C224.85 227.06 224.559 227.34 224.559 227.695V236.549C224.559 236.893 224.839 237.183 225.194 237.183Z" fill="#DF602F"/>
<path d="M222.88 237.183C223.225 237.183 223.515 236.904 223.515 236.549V227.695C223.515 227.35 223.235 227.06 222.88 227.06C222.536 227.06 222.245 227.34 222.245 227.695V236.549C222.245 236.893 222.525 237.183 222.88 237.183Z" fill="#DF602F"/>
<path d="M220.555 237.183C220.899 237.183 221.19 236.904 221.19 236.549V227.695C221.19 227.35 220.91 227.06 220.555 227.06C220.211 227.06 219.92 227.34 219.92 227.695V236.549C219.92 236.893 220.2 237.183 220.555 237.183Z" fill="#DF602F"/>
<path d="M218.241 237.183C218.585 237.183 218.876 236.904 218.876 236.549V227.695C218.876 227.35 218.596 227.06 218.241 227.06C217.896 227.06 217.606 227.34 217.606 227.695V236.549C217.606 236.893 217.886 237.183 218.241 237.183Z" fill="#DF602F"/>
<path d="M215.916 237.183C216.26 237.183 216.551 236.904 216.551 236.549V227.695C216.551 227.35 216.271 227.06 215.916 227.06C215.571 227.06 215.281 227.34 215.281 227.695V236.549C215.281 236.893 215.561 237.183 215.916 237.183Z" fill="#DF602F"/>
<path d="M213.591 237.183C213.935 237.183 214.226 236.904 214.226 236.549V227.695C214.226 227.35 213.946 227.06 213.591 227.06C213.246 227.06 212.956 227.34 212.956 227.695V236.549C212.956 236.893 213.236 237.183 213.591 237.183Z" fill="#DF602F"/>
<path d="M211.276 237.183C211.621 237.183 211.912 236.904 211.912 236.549V227.695C211.912 227.35 211.632 227.06 211.276 227.06C210.932 227.06 210.641 227.34 210.641 227.695V236.549C210.641 236.893 210.921 237.183 211.276 237.183Z" fill="#DF602F"/>
<path d="M208.951 237.183C209.296 237.183 209.587 236.904 209.587 236.549V227.695C209.587 227.35 209.307 227.06 208.951 227.06C208.607 227.06 208.316 227.34 208.316 227.695V236.549C208.316 236.893 208.596 237.183 208.951 237.183Z" fill="#DF602F"/>
<path d="M268.714 213.236H207.886C207.161 213.236 206.573 213.823 206.573 214.548V224.403C206.573 225.128 207.161 225.715 207.886 225.715H268.714C269.439 225.715 270.027 225.128 270.027 224.403V214.548C270.027 213.823 269.439 213.236 268.714 213.236Z" fill="#DF602F"/>
<path d="M268.649 224.704C268.993 224.704 269.284 224.424 269.284 224.069V215.215C269.284 214.871 269.004 214.581 268.649 214.581C268.305 214.581 268.014 214.86 268.014 215.215V224.069C268.014 224.414 268.294 224.704 268.649 224.704Z" fill="#DF602F"/>
<path d="M266.335 224.704C266.679 224.704 266.97 224.424 266.97 224.069V215.215C266.97 214.871 266.69 214.581 266.335 214.581C265.99 214.581 265.7 214.86 265.7 215.215V224.069C265.7 224.414 265.98 224.704 266.335 224.704Z" fill="#DF602F"/>
<path d="M261.695 224.704C262.04 224.704 262.33 224.424 262.33 224.069V215.215C262.33 214.871 262.051 214.581 261.695 214.581C261.351 214.581 261.06 214.86 261.06 215.215V224.069C261.06 224.414 261.34 224.704 261.695 224.704Z" fill="#DF602F"/>
<path d="M259.37 224.704C259.715 224.704 260.006 224.424 260.006 224.069V215.215C260.006 214.871 259.726 214.581 259.37 214.581C259.026 214.581 258.735 214.86 258.735 215.215V224.069C258.735 224.414 259.015 224.704 259.37 224.704Z" fill="#DF602F"/>
<path d="M257.045 224.704C257.39 224.704 257.68 224.424 257.68 224.069V215.215C257.68 214.871 257.4 214.581 257.045 214.581C256.701 214.581 256.41 214.86 256.41 215.215V224.069C256.41 224.414 256.69 224.704 257.045 224.704Z" fill="#DF602F"/>
<path d="M254.731 224.704C255.075 224.704 255.366 224.424 255.366 224.069V215.215C255.366 214.871 255.086 214.581 254.731 214.581C254.387 214.581 254.096 214.86 254.096 215.215V224.069C254.096 224.414 254.376 224.704 254.731 224.704Z" fill="#DF602F"/>
<path d="M252.406 224.704C252.751 224.704 253.041 224.424 253.041 224.069V215.215C253.041 214.871 252.761 214.581 252.406 214.581C252.062 214.581 251.771 214.86 251.771 215.215V224.069C251.771 224.414 252.051 224.704 252.406 224.704Z" fill="#DF602F"/>
<path d="M250.727 215.226C250.727 214.876 250.443 214.591 250.092 214.591C249.741 214.591 249.457 214.876 249.457 215.226V224.08C249.457 224.431 249.741 224.715 250.092 224.715C250.443 224.715 250.727 224.431 250.727 224.08V215.226Z" fill="#DF602F"/>
<path d="M247.767 224.704C248.111 224.704 248.402 224.424 248.402 224.069V215.215C248.402 214.871 248.122 214.581 247.767 214.581C247.422 214.581 247.132 214.86 247.132 215.215V224.069C247.132 224.414 247.411 224.704 247.767 224.704Z" fill="#DF602F"/>
<path d="M245.452 224.704C245.797 224.704 246.088 224.424 246.088 224.069V215.215C246.088 214.871 245.808 214.581 245.452 214.581C245.108 214.581 244.817 214.86 244.817 215.215V224.069C244.817 224.414 245.097 224.704 245.452 224.704Z" fill="#DF602F"/>
<path d="M243.128 224.704C243.472 224.704 243.763 224.424 243.763 224.069V215.215C243.763 214.871 243.483 214.581 243.128 214.581C242.783 214.581 242.492 214.86 242.492 215.215V224.069C242.492 224.414 242.772 224.704 243.128 224.704Z" fill="#DF602F"/>
<path d="M240.802 224.704C241.147 224.704 241.437 224.424 241.437 224.069V215.215C241.437 214.871 241.158 214.581 240.802 214.581C240.458 214.581 240.167 214.86 240.167 215.215V224.069C240.167 224.414 240.447 224.704 240.802 224.704Z" fill="#DF602F"/>
<path d="M238.488 224.704C238.833 224.704 239.123 224.424 239.123 224.069V215.215C239.123 214.871 238.843 214.581 238.488 214.581C238.144 214.581 237.853 214.86 237.853 215.215V224.069C237.853 224.414 238.133 224.704 238.488 224.704Z" fill="#DF602F"/>
<path d="M229.21 224.704C229.554 224.704 229.845 224.424 229.845 224.069V215.215C229.845 214.871 229.565 214.581 229.21 214.581C228.865 214.581 228.574 214.86 228.574 215.215V224.069C228.574 224.414 228.854 224.704 229.21 224.704Z" fill="#DF602F"/>
<path d="M226.885 224.704C227.229 224.704 227.52 224.424 227.52 224.069V215.215C227.52 214.871 227.24 214.581 226.885 214.581C226.54 214.581 226.25 214.86 226.25 215.215V224.069C226.25 224.414 226.529 224.704 226.885 224.704Z" fill="#DF602F"/>
<path d="M224.57 224.704C224.915 224.704 225.205 224.424 225.205 224.069V215.215C225.205 214.871 224.925 214.581 224.57 214.581C224.226 214.581 223.935 214.86 223.935 215.215V224.069C223.935 224.414 224.215 224.704 224.57 224.704Z" fill="#DF602F"/>
<path d="M222.245 224.704C222.59 224.704 222.88 224.424 222.88 224.069V215.215C222.88 214.871 222.6 214.581 222.245 214.581C221.901 214.581 221.61 214.86 221.61 215.215V224.069C221.61 224.414 221.89 224.704 222.245 224.704Z" fill="#DF602F"/>
<path d="M219.92 224.704C220.265 224.704 220.555 224.424 220.555 224.069V215.215C220.555 214.871 220.275 214.581 219.92 214.581C219.576 214.581 219.285 214.86 219.285 215.215V224.069C219.285 224.414 219.565 224.704 219.92 224.704Z" fill="#DF602F"/>
<path d="M217.606 224.704C217.95 224.704 218.241 224.424 218.241 224.069V215.215C218.241 214.871 217.961 214.581 217.606 214.581C217.262 214.581 216.971 214.86 216.971 215.215V224.069C216.971 224.414 217.251 224.704 217.606 224.704Z" fill="#DF602F"/>
<path d="M215.281 224.704C215.625 224.704 215.916 224.424 215.916 224.069V215.215C215.916 214.871 215.636 214.581 215.281 214.581C214.936 214.581 214.646 214.86 214.646 215.215V224.069C214.646 224.414 214.926 224.704 215.281 224.704Z" fill="#DF602F"/>
<path d="M212.967 224.704C213.311 224.704 213.602 224.424 213.602 224.069V215.215C213.602 214.871 213.322 214.581 212.967 214.581C212.622 214.581 212.332 214.86 212.332 215.215V224.069C212.332 224.414 212.611 224.704 212.967 224.704Z" fill="#DF602F"/>
<path d="M210.642 224.704C210.986 224.704 211.277 224.424 211.277 224.069V215.215C211.277 214.871 210.997 214.581 210.642 214.581C210.297 214.581 210.007 214.86 210.007 215.215V224.069C210.007 224.414 210.286 224.704 210.642 224.704Z" fill="#DF602F"/>
<path d="M208.327 224.704C208.672 224.704 208.962 224.424 208.962 224.069V215.215C208.962 214.871 208.682 214.581 208.327 214.581C207.983 214.581 207.692 214.86 207.692 215.215V224.069C207.692 224.414 207.972 224.704 208.327 224.704Z" fill="#DF602F"/>
<path d="M206.002 224.704C206.347 224.704 206.637 224.424 206.637 224.069V215.215C206.637 214.871 206.357 214.581 206.002 214.581C205.658 214.581 205.367 214.86 205.367 215.215V224.069C205.367 224.414 205.647 224.704 206.002 224.704Z" fill="#DF602F"/>
<path d="M277.745 200.756H216.895C216.176 200.756 215.593 201.339 215.593 202.058V211.934C215.593 212.653 216.176 213.236 216.895 213.236H277.745C278.464 213.236 279.047 212.653 279.047 211.934V202.058C279.047 201.339 278.464 200.756 277.745 200.756Z" fill="#B53E11"/>
<path d="M277.669 212.225C278.014 212.225 278.304 211.945 278.304 211.59V202.736C278.304 202.392 278.024 202.101 277.669 202.101C277.325 202.101 277.034 202.381 277.034 202.736V211.59C277.034 211.934 277.314 212.225 277.669 212.225Z" fill="#DF602F"/>
<path d="M275.355 212.225C275.699 212.225 275.99 211.945 275.99 211.59V202.736C275.99 202.392 275.71 202.101 275.355 202.101C275.011 202.101 274.72 202.381 274.72 202.736V211.59C274.72 211.934 275 212.225 275.355 212.225Z" fill="#DF602F"/>
<path d="M270.705 212.225C271.049 212.225 271.34 211.945 271.34 211.59V202.736C271.34 202.392 271.06 202.101 270.705 202.101C270.36 202.101 270.07 202.381 270.07 202.736V211.59C270.07 211.934 270.35 212.225 270.705 212.225Z" fill="#DF602F"/>
<path d="M268.391 212.225C268.735 212.225 269.026 211.945 269.026 211.59V202.736C269.026 202.392 268.746 202.101 268.391 202.101C268.046 202.101 267.756 202.381 267.756 202.736V211.59C267.756 211.934 268.035 212.225 268.391 212.225Z" fill="#DF602F"/>
<path d="M266.065 212.225C266.41 212.225 266.701 211.945 266.701 211.59V202.736C266.701 202.392 266.421 202.101 266.065 202.101C265.721 202.101 265.43 202.381 265.43 202.736V211.59C265.43 211.934 265.71 212.225 266.065 212.225Z" fill="#DF602F"/>
<path d="M263.751 212.225C264.096 212.225 264.386 211.945 264.386 211.59V202.736C264.386 202.392 264.106 202.101 263.751 202.101C263.407 202.101 263.116 202.381 263.116 202.736V211.59C263.116 211.934 263.396 212.225 263.751 212.225Z" fill="#DF602F"/>
<path d="M261.426 212.225C261.771 212.225 262.061 211.945 262.061 211.59V202.736C262.061 202.392 261.782 202.101 261.426 202.101C261.082 202.101 260.791 202.381 260.791 202.736V211.59C260.791 211.934 261.071 212.225 261.426 212.225Z" fill="#DF602F"/>
<path d="M259.112 212.225C259.457 212.225 259.747 211.945 259.747 211.59V202.736C259.747 202.392 259.467 202.101 259.112 202.101C258.768 202.101 258.477 202.381 258.477 202.736V211.59C258.477 211.934 258.757 212.225 259.112 212.225Z" fill="#DF602F"/>
<path d="M256.787 212.225C257.131 212.225 257.422 211.945 257.422 211.59V202.736C257.422 202.392 257.142 202.101 256.787 202.101C256.442 202.101 256.152 202.381 256.152 202.736V211.59C256.152 211.934 256.432 212.225 256.787 212.225Z" fill="#DF602F"/>
<path d="M254.462 212.225C254.806 212.225 255.097 211.945 255.097 211.59V202.736C255.097 202.392 254.817 202.101 254.462 202.101C254.118 202.101 253.827 202.381 253.827 202.736V211.59C253.827 211.934 254.107 212.225 254.462 212.225Z" fill="#DF602F"/>
<path d="M252.148 212.225C252.492 212.225 252.783 211.945 252.783 211.59V202.736C252.783 202.392 252.503 202.101 252.148 202.101C251.803 202.101 251.513 202.381 251.513 202.736V211.59C251.513 211.934 251.793 212.225 252.148 212.225Z" fill="#DF602F"/>
<path d="M249.823 212.225C250.167 212.225 250.458 211.945 250.458 211.59V202.736C250.458 202.392 250.178 202.101 249.823 202.101C249.478 202.101 249.188 202.381 249.188 202.736V211.59C249.188 211.934 249.467 212.225 249.823 212.225Z" fill="#DF602F"/>
<path d="M247.508 212.225C247.853 212.225 248.143 211.945 248.143 211.59V202.736C248.143 202.392 247.864 202.101 247.508 202.101C247.164 202.101 246.873 202.381 246.873 202.736V211.59C246.873 211.934 247.153 212.225 247.508 212.225Z" fill="#DF602F"/>
<path d="M238.219 212.225C238.564 212.225 238.854 211.945 238.854 211.59V202.736C238.854 202.392 238.574 202.101 238.219 202.101C237.875 202.101 237.584 202.381 237.584 202.736V211.59C237.584 211.934 237.864 212.225 238.219 212.225Z" fill="#DF602F"/>
<path d="M235.905 212.225C236.249 212.225 236.54 211.945 236.54 211.59V202.736C236.54 202.392 236.26 202.101 235.905 202.101C235.56 202.101 235.27 202.381 235.27 202.736V211.59C235.27 211.934 235.55 212.225 235.905 212.225Z" fill="#DF602F"/>
<path d="M233.58 212.225C233.924 212.225 234.215 211.945 234.215 211.59V202.736C234.215 202.392 233.935 202.101 233.58 202.101C233.235 202.101 232.945 202.381 232.945 202.736V211.59C232.945 211.934 233.224 212.225 233.58 212.225Z" fill="#DF602F"/>
<path d="M231.265 212.225C231.61 212.225 231.901 211.945 231.901 211.59V202.736C231.901 202.392 231.621 202.101 231.265 202.101C230.921 202.101 230.63 202.381 230.63 202.736V211.59C230.63 211.934 230.91 212.225 231.265 212.225Z" fill="#DF602F"/>
<path d="M228.94 212.225C229.285 212.225 229.576 211.945 229.576 211.59V202.736C229.576 202.392 229.296 202.101 228.94 202.101C228.596 202.101 228.305 202.381 228.305 202.736V211.59C228.305 211.934 228.585 212.225 228.94 212.225Z" fill="#DF602F"/>
<path d="M226.626 212.225C226.97 212.225 227.261 211.945 227.261 211.59V202.736C227.261 202.392 226.981 202.101 226.626 202.101C226.282 202.101 225.991 202.381 225.991 202.736V211.59C225.991 211.934 226.271 212.225 226.626 212.225Z" fill="#DF602F"/>
<path d="M224.301 212.225C224.646 212.225 224.936 211.945 224.936 211.59V202.736C224.936 202.392 224.656 202.101 224.301 202.101C223.957 202.101 223.666 202.381 223.666 202.736V211.59C223.666 211.934 223.946 212.225 224.301 212.225Z" fill="#DF602F"/>
<path d="M221.976 212.225C222.321 212.225 222.611 211.945 222.611 211.59V202.736C222.611 202.392 222.331 202.101 221.976 202.101C221.632 202.101 221.341 202.381 221.341 202.736V211.59C221.341 211.934 221.621 212.225 221.976 212.225Z" fill="#DF602F"/>
<path d="M219.662 212.225C220.006 212.225 220.297 211.945 220.297 211.59V202.736C220.297 202.392 220.017 202.101 219.662 202.101C219.317 202.101 219.027 202.381 219.027 202.736V211.59C219.027 211.934 219.307 212.225 219.662 212.225Z" fill="#DF602F"/>
<path d="M217.337 212.225C217.681 212.225 217.972 211.945 217.972 211.59V202.736C217.972 202.392 217.692 202.101 217.337 202.101C216.992 202.101 216.702 202.381 216.702 202.736V211.59C216.702 211.934 216.982 212.225 217.337 212.225Z" fill="#DF602F"/>
<path d="M215.023 212.225C215.367 212.225 215.658 211.945 215.658 211.59V202.736C215.658 202.392 215.378 202.101 215.023 202.101C214.678 202.101 214.387 202.381 214.387 202.736V211.59C214.387 211.934 214.667 212.225 215.023 212.225Z" fill="#DF602F"/>
<path d="M274.042 188.277H213.193C212.473 188.277 211.89 188.86 211.89 189.579V199.455C211.89 200.174 212.473 200.756 213.193 200.756H274.042C274.761 200.756 275.344 200.174 275.344 199.455V189.579C275.344 188.86 274.761 188.277 274.042 188.277Z" fill="#DF602F"/>
<path d="M273.966 199.745C274.311 199.745 274.601 199.466 274.601 199.111V190.257C274.601 189.912 274.322 189.622 273.966 189.622C273.622 189.622 273.331 189.902 273.331 190.257V199.111C273.331 199.455 273.611 199.745 273.966 199.745Z" fill="#DF602F"/>
<path d="M271.652 199.745C271.997 199.745 272.287 199.466 272.287 199.111V190.257C272.287 189.912 272.007 189.622 271.652 189.622C271.308 189.622 271.017 189.902 271.017 190.257V199.111C271.017 199.455 271.297 199.745 271.652 199.745Z" fill="#DF602F"/>
<path d="M267.013 199.745C267.357 199.745 267.648 199.466 267.648 199.111V190.257C267.648 189.912 267.368 189.622 267.013 189.622C266.668 189.622 266.378 189.902 266.378 190.257V199.111C266.378 199.455 266.658 199.745 267.013 199.745Z" fill="#DF602F"/>
<path d="M264.688 199.745C265.032 199.745 265.323 199.466 265.323 199.111V190.257C265.323 189.912 265.043 189.622 264.688 189.622C264.343 189.622 264.053 189.902 264.053 190.257V199.111C264.053 199.455 264.333 199.745 264.688 199.745Z" fill="#DF602F"/>
<path d="M262.363 199.745C262.707 199.745 262.998 199.466 262.998 199.111V190.257C262.998 189.912 262.718 189.622 262.363 189.622C262.018 189.622 261.728 189.902 261.728 190.257V199.111C261.728 199.455 262.007 199.745 262.363 199.745Z" fill="#DF602F"/>
<path d="M260.048 199.745C260.393 199.745 260.683 199.466 260.683 199.111V190.257C260.683 189.912 260.404 189.622 260.048 189.622C259.704 189.622 259.413 189.902 259.413 190.257V199.111C259.413 199.455 259.693 199.745 260.048 199.745Z" fill="#DF602F"/>
<path d="M257.723 199.745C258.068 199.745 258.359 199.466 258.359 199.111V190.257C258.359 189.912 258.079 189.622 257.723 189.622C257.379 189.622 257.088 189.902 257.088 190.257V199.111C257.088 199.455 257.368 199.745 257.723 199.745Z" fill="#DF602F"/>
<path d="M255.409 199.745C255.754 199.745 256.044 199.466 256.044 199.111V190.257C256.044 189.912 255.764 189.622 255.409 189.622C255.065 189.622 254.774 189.902 254.774 190.257V199.111C254.774 199.455 255.054 199.745 255.409 199.745Z" fill="#DF602F"/>
<path d="M253.084 199.745C253.428 199.745 253.719 199.466 253.719 199.111V190.257C253.719 189.912 253.439 189.622 253.084 189.622C252.74 189.622 252.449 189.902 252.449 190.257V199.111C252.449 199.455 252.729 199.745 253.084 199.745Z" fill="#DF602F"/>
<path d="M250.77 199.745C251.114 199.745 251.405 199.466 251.405 199.111V190.257C251.405 189.912 251.125 189.622 250.77 189.622C250.425 189.622 250.135 189.902 250.135 190.257V199.111C250.135 199.455 250.415 199.745 250.77 199.745Z" fill="#DF602F"/>
<path d="M248.445 199.745C248.789 199.745 249.08 199.466 249.08 199.111V190.257C249.08 189.912 248.8 189.622 248.445 189.622C248.1 189.622 247.81 189.902 247.81 190.257V199.111C247.81 199.455 248.09 199.745 248.445 199.745Z" fill="#DF602F"/>
<path d="M246.12 199.745C246.464 199.745 246.755 199.466 246.755 199.111V190.257C246.755 189.912 246.475 189.622 246.12 189.622C245.775 189.622 245.485 189.902 245.485 190.257V199.111C245.485 199.455 245.764 199.745 246.12 199.745Z" fill="#DF602F"/>
<path d="M244.441 190.257C244.441 189.906 244.156 189.622 243.805 189.622C243.455 189.622 243.17 189.906 243.17 190.257V199.111C243.17 199.461 243.455 199.745 243.805 199.745C244.156 199.745 244.441 199.461 244.441 199.111V190.257Z" fill="#DF602F"/>
<path d="M234.527 199.745C234.871 199.745 235.162 199.466 235.162 199.111V190.257C235.162 189.912 234.882 189.622 234.527 189.622C234.182 189.622 233.892 189.902 233.892 190.257V199.111C233.892 199.455 234.172 199.745 234.527 199.745Z" fill="#DF602F"/>
<path d="M232.202 199.745C232.546 199.745 232.837 199.466 232.837 199.111V190.257C232.837 189.912 232.557 189.622 232.202 189.622C231.858 189.622 231.567 189.902 231.567 190.257V199.111C231.567 199.455 231.847 199.745 232.202 199.745Z" fill="#DF602F"/>
<path d="M229.888 199.745C230.232 199.745 230.523 199.466 230.523 199.111V190.257C230.523 189.912 230.243 189.622 229.888 189.622C229.543 189.622 229.252 189.902 229.252 190.257V199.111C229.252 199.455 229.532 199.745 229.888 199.745Z" fill="#DF602F"/>
<path d="M227.563 199.745C227.907 199.745 228.198 199.466 228.198 199.111V190.257C228.198 189.912 227.918 189.622 227.563 189.622C227.218 189.622 226.927 189.902 226.927 190.257V199.111C226.927 199.455 227.207 199.745 227.563 199.745Z" fill="#DF602F"/>
<path d="M225.238 199.745C225.582 199.745 225.873 199.466 225.873 199.111V190.257C225.873 189.912 225.593 189.622 225.238 189.622C224.893 189.622 224.603 189.902 224.603 190.257V199.111C224.603 199.455 224.882 199.745 225.238 199.745Z" fill="#DF602F"/>
<path d="M222.923 199.745C223.268 199.745 223.558 199.466 223.558 199.111V190.257C223.558 189.912 223.278 189.622 222.923 189.622C222.579 189.622 222.288 189.902 222.288 190.257V199.111C222.288 199.455 222.568 199.745 222.923 199.745Z" fill="#DF602F"/>
<path d="M220.598 199.745C220.943 199.745 221.233 199.466 221.233 199.111V190.257C221.233 189.912 220.953 189.622 220.598 189.622C220.254 189.622 219.963 189.902 219.963 190.257V199.111C219.963 199.455 220.243 199.745 220.598 199.745Z" fill="#DF602F"/>
<path d="M218.284 199.745C218.628 199.745 218.919 199.466 218.919 199.111V190.257C218.919 189.912 218.639 189.622 218.284 189.622C217.94 189.622 217.649 189.902 217.649 190.257V199.111C217.649 199.455 217.929 199.745 218.284 199.745Z" fill="#DF602F"/>
<path d="M215.959 199.745C216.304 199.745 216.594 199.466 216.594 199.111V190.257C216.594 189.912 216.314 189.622 215.959 189.622C215.615 189.622 215.324 189.902 215.324 190.257V199.111C215.324 199.455 215.604 199.745 215.959 199.745Z" fill="#DF602F"/>
<path d="M213.645 199.745C213.989 199.745 214.28 199.466 214.28 199.111V190.257C214.28 189.912 214 189.622 213.645 189.622C213.3 189.622 213.01 189.902 213.01 190.257V199.111C213.01 199.455 213.289 199.745 213.645 199.745Z" fill="#DF602F"/>
<path d="M211.32 199.745C211.664 199.745 211.955 199.466 211.955 199.111V190.257C211.955 189.912 211.675 189.622 211.32 189.622C210.975 189.622 210.685 189.902 210.685 190.257V199.111C210.685 199.455 210.964 199.745 211.32 199.745Z" fill="#DF602F"/>
<path d="M262.75 175.798H201.901C201.182 175.798 200.599 176.381 200.599 177.099V186.975C200.599 187.694 201.182 188.277 201.901 188.277H262.75C263.469 188.277 264.053 187.694 264.053 186.975V177.099C264.053 176.381 263.469 175.798 262.75 175.798Z" fill="#B53E11"/>
<path d="M262.686 187.266C263.03 187.266 263.321 186.986 263.321 186.631V177.777C263.321 177.433 263.041 177.143 262.686 177.143C262.341 177.143 262.051 177.422 262.051 177.777V186.631C262.051 186.975 262.33 187.266 262.686 187.266Z" fill="#DF602F"/>
<path d="M260.36 187.266C260.705 187.266 260.996 186.986 260.996 186.631V177.777C260.996 177.433 260.716 177.143 260.36 177.143C260.016 177.143 259.725 177.422 259.725 177.777V186.631C259.725 186.975 260.005 187.266 260.36 187.266Z" fill="#DF602F"/>
<path d="M255.721 187.266C256.066 187.266 256.356 186.986 256.356 186.631V177.777C256.356 177.433 256.076 177.143 255.721 177.143C255.377 177.143 255.086 177.422 255.086 177.777V186.631C255.086 186.975 255.366 187.266 255.721 187.266Z" fill="#DF602F"/>
<path d="M253.407 187.266C253.751 187.266 254.042 186.986 254.042 186.631V177.777C254.042 177.433 253.762 177.143 253.407 177.143C253.063 177.143 252.772 177.422 252.772 177.777V186.631C252.772 186.975 253.052 187.266 253.407 187.266Z" fill="#DF602F"/>
<path d="M251.082 187.266C251.426 187.266 251.717 186.986 251.717 186.631V177.777C251.717 177.433 251.437 177.143 251.082 177.143C250.737 177.143 250.447 177.422 250.447 177.777V186.631C250.447 186.975 250.727 187.266 251.082 187.266Z" fill="#DF602F"/>
<path d="M248.757 187.266C249.101 187.266 249.392 186.986 249.392 186.631V177.777C249.392 177.433 249.112 177.143 248.757 177.143C248.412 177.143 248.122 177.422 248.122 177.777V186.631C248.122 186.975 248.402 187.266 248.757 187.266Z" fill="#DF602F"/>
<path d="M246.443 187.266C246.787 187.266 247.078 186.986 247.078 186.631V177.777C247.078 177.433 246.798 177.143 246.443 177.143C246.098 177.143 245.808 177.422 245.808 177.777V186.631C245.808 186.975 246.087 187.266 246.443 187.266Z" fill="#DF602F"/>
<path d="M244.117 187.266C244.462 187.266 244.753 186.986 244.753 186.631V177.777C244.753 177.433 244.473 177.143 244.117 177.143C243.773 177.143 243.482 177.422 243.482 177.777V186.631C243.482 186.975 243.762 187.266 244.117 187.266Z" fill="#DF602F"/>
<path d="M241.803 187.266C242.148 187.266 242.438 186.986 242.438 186.631V177.777C242.438 177.433 242.159 177.143 241.803 177.143C241.459 177.143 241.168 177.422 241.168 177.777V186.631C241.168 186.975 241.448 187.266 241.803 187.266Z" fill="#DF602F"/>
<path d="M239.478 187.266C239.823 187.266 240.113 186.986 240.113 186.631V177.777C240.113 177.433 239.834 177.143 239.478 177.143C239.134 177.143 238.843 177.422 238.843 177.777V186.631C238.843 186.975 239.123 187.266 239.478 187.266Z" fill="#DF602F"/>
<path d="M237.164 187.266C237.509 187.266 237.799 186.986 237.799 186.631V177.777C237.799 177.433 237.519 177.143 237.164 177.143C236.82 177.143 236.529 177.422 236.529 177.777V186.631C236.529 186.975 236.809 187.266 237.164 187.266Z" fill="#DF602F"/>
<path d="M234.839 187.266C235.183 187.266 235.474 186.986 235.474 186.631V177.777C235.474 177.433 235.194 177.143 234.839 177.143C234.494 177.143 234.204 177.422 234.204 177.777V186.631C234.204 186.975 234.484 187.266 234.839 187.266Z" fill="#DF602F"/>
<path d="M232.514 187.266C232.858 187.266 233.149 186.986 233.149 186.631V177.777C233.149 177.433 232.869 177.143 232.514 177.143C232.17 177.143 231.879 177.422 231.879 177.777V186.631C231.879 186.975 232.159 187.266 232.514 187.266Z" fill="#DF602F"/>
<path d="M223.235 187.266C223.58 187.266 223.87 186.986 223.87 186.631V177.777C223.87 177.433 223.591 177.143 223.235 177.143C222.891 177.143 222.6 177.422 222.6 177.777V186.631C222.6 186.975 222.88 187.266 223.235 187.266Z" fill="#DF602F"/>
<path d="M220.921 187.266C221.266 187.266 221.556 186.986 221.556 186.631V177.777C221.556 177.433 221.276 177.143 220.921 177.143C220.577 177.143 220.286 177.422 220.286 177.777V186.631C220.286 186.975 220.566 187.266 220.921 187.266Z" fill="#DF602F"/>
<path d="M218.596 187.266C218.94 187.266 219.231 186.986 219.231 186.631V177.777C219.231 177.433 218.951 177.143 218.596 177.143C218.252 177.143 217.961 177.422 217.961 177.777V186.631C217.961 186.975 218.241 187.266 218.596 187.266Z" fill="#DF602F"/>
<path d="M216.271 187.266C216.616 187.266 216.906 186.986 216.906 186.631V177.777C216.906 177.433 216.626 177.143 216.271 177.143C215.927 177.143 215.636 177.422 215.636 177.777V186.631C215.636 186.975 215.916 187.266 216.271 187.266Z" fill="#DF602F"/>
<path d="M213.957 187.266C214.301 187.266 214.592 186.986 214.592 186.631V177.777C214.592 177.433 214.312 177.143 213.957 177.143C213.612 177.143 213.322 177.422 213.322 177.777V186.631C213.322 186.975 213.602 187.266 213.957 187.266Z" fill="#DF602F"/>
<path d="M211.632 187.266C211.976 187.266 212.267 186.986 212.267 186.631V177.777C212.267 177.433 211.987 177.143 211.632 177.143C211.287 177.143 210.997 177.422 210.997 177.777V186.631C210.997 186.975 211.276 187.266 211.632 187.266Z" fill="#DF602F"/>
<path d="M209.317 187.266C209.662 187.266 209.953 186.986 209.953 186.631V177.777C209.953 177.433 209.673 177.143 209.317 177.143C208.973 177.143 208.682 177.422 208.682 177.777V186.631C208.682 186.975 208.962 187.266 209.317 187.266Z" fill="#DF602F"/>
<path d="M206.992 187.266C207.337 187.266 207.628 186.986 207.628 186.631V177.777C207.628 177.433 207.348 177.143 206.992 177.143C206.648 177.143 206.357 177.422 206.357 177.777V186.631C206.357 186.975 206.637 187.266 206.992 187.266Z" fill="#DF602F"/>
<path d="M204.678 187.266C205.023 187.266 205.313 186.986 205.313 186.631V177.777C205.313 177.433 205.034 177.143 204.678 177.143C204.334 177.143 204.043 177.422 204.043 177.777V186.631C204.043 186.975 204.323 187.266 204.678 187.266Z" fill="#DF602F"/>
<path d="M202.353 187.266C202.698 187.266 202.988 186.986 202.988 186.631V177.777C202.988 177.433 202.708 177.143 202.353 177.143C202.009 177.143 201.718 177.422 201.718 177.777V186.631C201.718 186.975 201.998 187.266 202.353 187.266Z" fill="#DF602F"/>
<path d="M200.039 187.266C200.383 187.266 200.674 186.986 200.674 186.631V177.777C200.674 177.433 200.394 177.143 200.039 177.143C199.694 177.143 199.404 177.422 199.404 177.777V186.631C199.404 186.975 199.684 187.266 200.039 187.266Z" fill="#DF602F"/>
<g style="mix-blend-mode:multiply">
<path d="M135.412 275.74H125.315C113.701 275.74 104.271 266.316 104.271 254.708V36.7496C104.271 25.1308 113.701 15.7175 125.315 15.7175H135.412C123.797 15.7175 114.368 25.1308 114.368 36.7496V254.708C114.368 266.316 123.797 275.74 135.412 275.74Z" fill="#DAF0FF"/>
</g>
<path d="M221.965 15.7175H135.412C123.79 15.7175 114.368 25.1339 114.368 36.7496V254.708C114.368 266.324 123.79 275.74 135.412 275.74H221.965C233.587 275.74 243.009 266.324 243.009 254.708V36.7496C243.009 25.1339 233.587 15.7175 221.965 15.7175Z" fill="#3A8DC6"/>
<path d="M243.02 36.7496V254.708C243.02 266.316 233.601 275.74 221.976 275.74H211.879C223.505 275.74 232.923 266.316 232.923 254.708V36.7496C232.923 25.1308 223.505 15.7175 211.879 15.7175H221.976C233.601 15.7175 243.02 25.1308 243.02 36.7496Z" fill="#3A8DC6"/>
<path d="M219.059 22.0541H138.339C129.178 22.0541 121.752 29.4764 121.752 38.6323V252.826C121.752 261.981 129.178 269.404 138.339 269.404H219.059C228.22 269.404 235.646 261.981 235.646 252.826V38.6323C235.646 29.4764 228.22 22.0541 219.059 22.0541Z" fill="#CCEAFF"/>
<path d="M146.208 18.1059V21.6775C146.208 25.6688 149.437 28.907 153.42 28.907H203.968C207.951 28.907 211.18 25.6688 211.18 21.6775V16.5567L146.208 18.0951V18.1059Z" fill="#3A8DC6"/>
<path d="M200.781 22.3015C200.781 22.8932 200.297 23.3773 199.705 23.3773C199.113 23.3773 198.629 22.8932 198.629 22.3015C198.629 21.7098 199.113 21.2257 199.705 21.2257C200.297 21.2257 200.781 21.7098 200.781 22.3015Z" fill="#DAF0FF"/>
<path d="M188.672 23.3773H168.543C167.951 23.3773 167.467 22.8932 167.467 22.3015C167.467 21.7098 167.951 21.2257 168.543 21.2257H188.672C189.264 21.2257 189.748 21.7098 189.748 22.3015C189.748 22.8932 189.264 23.3773 188.672 23.3773Z" fill="#DAF0FF"/>
<g style="mix-blend-mode:multiply">
<path d="M243.02 46.4857V74.7579H207.767C199.953 74.7579 193.624 68.4321 193.624 60.6218C193.624 56.7166 195.206 53.1879 197.768 50.6275C200.33 48.0671 203.86 46.4857 207.767 46.4857H243.02Z" fill="#DAF0FF"/>
</g>
<path d="M290.65 64.4624H214.527C206.713 64.4624 200.383 58.1367 200.383 50.3263C200.383 42.5159 206.713 36.1902 214.527 36.1902H290.65C298.465 36.1902 304.794 42.5159 304.794 50.3263C304.794 58.1367 298.465 64.4624 290.65 64.4624Z" fill="#5DB1EB"/>
<path d="M214.452 50.606C214.452 47.5722 216.906 45.1194 219.942 45.1194C222.977 45.1194 225.431 47.5722 225.431 50.606C225.431 53.6398 222.977 56.0926 219.942 56.0926C216.906 56.0926 214.452 53.6398 214.452 50.606Z" fill="white"/>
<path d="M235.614 50.606C235.614 47.5722 238.068 45.1194 241.104 45.1194C244.139 45.1194 246.593 47.5722 246.593 50.606C246.593 53.6398 244.139 56.0926 241.104 56.0926C238.068 56.0926 235.614 53.6398 235.614 50.606Z" fill="white"/>
<path d="M256.776 50.606C256.776 47.5722 259.23 45.1194 262.266 45.1194C265.301 45.1194 267.755 47.5722 267.755 50.606C267.755 53.6398 265.301 56.0926 262.266 56.0926C259.23 56.0926 256.776 53.6398 256.776 50.606Z" fill="white"/>
<path d="M277.927 50.606C277.927 47.5722 280.382 45.1194 283.417 45.1194C286.453 45.1194 288.907 47.5722 288.907 50.606C288.907 53.6398 286.453 56.0926 283.417 56.0926C280.382 56.0926 277.927 53.6398 277.927 50.606Z" fill="white"/>
<path d="M213.763 84.5585C210.695 86.6671 204.99 89.0984 196.164 87.1512C187.047 85.1502 182.655 79.9218 180.674 76.4362C180.351 75.866 179.77 75.5755 179.2 75.5863C178.64 75.5863 178.091 75.8768 177.779 76.4362C177.413 77.0924 176.95 77.8025 176.401 78.5448C175.658 79.5345 174.743 80.578 173.613 81.5893C173.043 82.0949 172.429 82.6006 171.751 83.0847C169.383 84.7737 166.294 86.2691 162.311 87.1512C160.653 87.517 159.114 87.7214 157.672 87.8182C157.187 87.8505 156.724 87.8612 156.272 87.8612C155.39 87.8612 154.561 87.829 153.775 87.7429C152.925 87.6568 152.117 87.5278 151.364 87.3664C150.632 87.205 149.954 87.0221 149.308 86.807C148.35 86.495 147.489 86.1184 146.725 85.7312C146.466 85.6021 146.229 85.473 145.993 85.3439C145.53 85.0749 145.099 84.806 144.712 84.5478C144.421 84.3434 144.098 84.2465 143.775 84.2358C143.463 84.225 143.151 84.3003 142.871 84.4509C142.602 84.6016 142.354 84.8167 142.193 85.0857C142.021 85.3546 141.924 85.6774 141.924 86.0324C141.924 86.9253 141.945 87.9581 141.978 89.0984C141.999 89.8623 142.021 90.6691 142.053 91.519C142.096 92.7992 142.161 94.1762 142.247 95.6393C142.559 100.986 143.162 107.376 144.292 113.81C144.4 114.391 144.507 114.982 144.615 115.563C145.734 121.416 147.327 127.214 149.556 132.217C149.997 133.217 150.47 134.186 150.976 135.111C152.968 138.812 154.916 142.007 156.918 144.804C157.919 146.202 158.931 147.493 159.975 148.709C162.063 151.13 164.248 153.195 166.649 155.024C167.844 155.938 169.103 156.788 170.416 157.606C171.729 158.413 173.118 159.177 174.582 159.908C176.046 160.64 177.585 161.328 179.21 162.006C179.221 162.006 179.232 162.006 179.243 162.017C185.777 159.316 190.846 156.293 195.281 152.098C199.716 147.902 203.516 142.534 207.509 135.111C215.507 120.243 216.486 95.5748 216.562 86.0216C216.562 84.5908 214.958 83.7301 213.774 84.5478L213.763 84.5585Z" fill="#E76432"/>
<path d="M179.232 156.509C178.403 156.143 177.607 155.766 176.832 155.379C175.475 154.701 174.237 154.023 173.053 153.292C171.859 152.56 170.761 151.807 169.706 151C167.575 149.376 165.637 147.547 163.796 145.406C162.86 144.32 161.923 143.126 161.019 141.856C159.189 139.296 157.359 136.305 155.422 132.712C154.991 131.905 154.572 131.044 154.173 130.151C152.3 125.966 150.761 120.738 149.577 114.606C149.469 114.046 149.362 113.487 149.265 112.917C148.318 107.57 147.65 101.653 147.284 95.3274C147.198 93.9396 147.144 92.6271 147.101 91.4007C147.306 91.476 147.5 91.5405 147.704 91.6051C148.544 91.8848 149.416 92.1215 150.277 92.3043C151.224 92.5087 152.236 92.6701 153.258 92.7669C154.184 92.8638 155.142 92.9068 156.089 92.9068H156.294C156.832 92.9068 157.392 92.8853 157.962 92.853C159.728 92.7454 161.547 92.4872 163.387 92.0784C167.661 91.1425 171.46 89.4965 174.679 87.1943C175.486 86.6241 176.261 86.0001 176.982 85.3546C177.779 84.6446 178.532 83.87 179.232 83.0739C182.278 86.538 187.251 90.3679 195.077 92.0892C197.574 92.6378 200.039 92.9176 202.375 92.9176C205.916 92.9176 208.908 92.2828 211.352 91.4114C210.943 101.911 209.307 121.039 203.031 132.722C199.188 139.866 195.722 144.707 191.783 148.429C188.392 151.635 184.463 154.174 179.221 156.519L179.232 156.509Z" fill="#CCEAFF"/>
<path d="M185.798 112.616C185.798 108.7 182.623 105.526 178.705 105.526C174.786 105.526 171.611 108.7 171.611 112.616C171.611 115.66 173.527 118.242 176.229 119.253L173.796 128.925C173.689 129.355 174.011 129.764 174.453 129.764H182.967C183.408 129.764 183.731 129.355 183.624 128.925L181.191 119.253C183.882 118.242 185.809 115.66 185.809 112.616H185.798Z" fill="#DF602F"/>
<path d="M157.09 212.72C157.123 210.32 157.467 208.115 158.048 206.093C158.048 206.06 158.07 206.039 158.081 206.007C158.231 205.49 158.393 204.984 158.576 204.5" stroke="#5DB1EB" stroke-width="1.42" stroke-linecap="round" stroke-linejoin="round"/>
<path d="M199.899 212.87C199.899 211.59 199.791 210.353 199.608 209.18C198.661 202.844 195.421 198.078 191.202 194.979" stroke="#5DB1EB" stroke-width="1.42" stroke-linecap="round" stroke-linejoin="round"/>
<path d="M186.681 192.441C187.273 192.688 187.865 192.957 188.435 193.258" stroke="#5DB1EB" stroke-width="1.42" stroke-linecap="round" stroke-linejoin="round"/>
<path d="M160.449 200.703C164.496 194.205 171.611 190.795 178.457 190.795C179.964 190.795 181.482 190.956 182.967 191.279" stroke="#5DB1EB" stroke-width="1.42" stroke-linecap="round" stroke-linejoin="round"/>
<path d="M173 195.507C166.498 197.658 160.922 203.683 160.922 213.118C160.922 214.484 159.835 216.367 157.93 218.368" stroke="#5DB1EB" stroke-width="1.42" stroke-linecap="round" stroke-linejoin="round"/>
<path d="M193.58 203.285C195.13 205.963 196.067 209.245 196.067 213.107V213.182C196.067 218.572 195.001 223.435 193.279 227.77" stroke="#5DB1EB" stroke-width="1.42" stroke-linecap="round" stroke-linejoin="round"/>
<path d="M178.446 194.624C183.118 194.624 187.951 196.561 191.363 200.272" stroke="#5DB1EB" stroke-width="1.42" stroke-linecap="round" stroke-linejoin="round"/>
<path d="M164.83 211.45C164.776 211.999 164.754 212.547 164.754 213.128C164.754 216.506 162.01 219.863 159.48 222.24" stroke="#5DB1EB" stroke-width="1.42" stroke-linecap="round" stroke-linejoin="round"/>
<path d="M192.041 216.98C191.428 222.703 189.479 227.727 186.875 232.041" stroke="#5DB1EB" stroke-width="1.42" stroke-linecap="round" stroke-linejoin="round"/>
<path d="M166.089 206.523C168.446 201.241 173.559 198.454 178.457 198.454C185.066 198.454 191.751 203.134 192.224 212.085" stroke="#5DB1EB" stroke-width="1.42" stroke-linecap="round" stroke-linejoin="round"/>
<path d="M182.849 203.285C185.949 204.78 188.403 207.975 188.403 213.107V213.182C188.403 216.829 187.789 220.196 186.745 223.284" stroke="#5DB1EB" stroke-width="1.42" stroke-linecap="round" stroke-linejoin="round"/>
<path d="M178.446 202.284C173.548 202.284 168.586 206.006 168.586 213.128C168.586 217.98 165.109 222.337 161.579 225.511" stroke="#5DB1EB" stroke-width="1.42" stroke-linecap="round" stroke-linejoin="round"/>
<path d="M185.443 226.576C184.259 229.136 182.795 231.482 181.191 233.601" stroke="#5DB1EB" stroke-width="1.42" stroke-linecap="round" stroke-linejoin="round"/>
<path d="M168.597 223.51C167.273 225.306 165.745 226.909 164.195 228.308" stroke="#5DB1EB" stroke-width="1.42" stroke-linecap="round" stroke-linejoin="round"/>
<path d="M176.186 233.655C180.728 228.523 184.582 221.66 184.582 213.182V213.107C184.582 207.954 181.277 206.114 178.457 206.114C175.637 206.114 172.418 208.298 172.418 213.128C172.418 215.743 171.686 218.206 170.524 220.444" stroke="#5DB1EB" stroke-width="1.42" stroke-linecap="round" stroke-linejoin="round"/>
<path d="M171.816 232.719C180.857 223.574 180.739 215.226 180.739 213.096C180.739 210.708 179.749 209.933 178.435 209.933C177.122 209.933 176.229 210.987 176.229 213.096C176.229 215.022 176.272 222.251 167.295 230.632" stroke="#5DB1EB" stroke-width="1.42" stroke-linecap="round" stroke-linejoin="round"/>
</svg>
