<svg width="24" height="19" viewBox="0 0 24 19" fill="none" xmlns="http://www.w3.org/2000/svg">
<path d="M7.54752 19C16.6042 19 21.5578 11.6895 21.5578 5.34987C21.5578 5.14223 21.5578 4.93552 21.5434 4.72975C22.507 4.05062 23.3389 3.20974 24 2.24646C23.1014 2.63462 22.148 2.88907 21.1718 3.00127C22.1998 2.40178 22.9692 1.45875 23.3366 0.347754C22.3701 0.906618 21.3126 1.30045 20.2099 1.51223C19.4675 0.743101 18.4856 0.233802 17.4162 0.0631469C16.3468 -0.107508 15.2494 0.0699964 14.294 0.568192C13.3385 1.06639 12.5782 1.8575 12.1307 2.8191C11.6833 3.78071 11.5735 4.8592 11.8186 5.88768C9.86089 5.792 7.94576 5.29632 6.19745 4.43279C4.44915 3.56926 2.90676 2.3572 1.6704 0.875277C1.04073 1.93141 0.847872 3.18166 1.1311 4.37146C1.41433 5.56127 2.15234 6.60117 3.19488 7.27945C2.41123 7.25707 1.64465 7.0511 0.96 6.67897V6.73976C0.960311 7.84739 1.35385 8.92082 2.07387 9.77798C2.79389 10.6351 3.79606 11.2233 4.9104 11.4426C4.18548 11.6352 3.42487 11.6634 2.68704 11.5249C3.00181 12.4781 3.61443 13.3116 4.43924 13.9089C5.26405 14.5063 6.25983 14.8376 7.28736 14.8565C6.26644 15.6384 5.09731 16.2164 3.84687 16.5576C2.59643 16.8988 1.28921 16.9965 0 16.845C2.25183 18.2529 4.87192 18.9997 7.54752 18.9963" fill="#1DA1F2"/>
</svg>
