<svg width="45" height="41" viewBox="0 0 45 41" fill="none" xmlns="http://www.w3.org/2000/svg">
<path fill-rule="evenodd" clip-rule="evenodd" d="M44.5754 12.4951H35.2239C30.872 12.5027 27.3465 15.9401 27.3387 20.1832C27.3328 24.436 30.8622 27.8886 35.2239 27.8944H44.5833V28.57C44.5833 35.9883 40.0861 40.375 32.4757 40.375H12.5261C4.91377 40.375 0.416626 35.9883 0.416626 28.57V12.4128C0.416626 4.99446 4.91377 0.625 12.5261 0.625H32.4679C40.0783 0.625 44.5754 4.99446 44.5754 12.4128V12.4951ZM10.8831 12.4778H23.3381H23.346H23.3617C24.2941 12.474 25.0479 11.7333 25.044 10.8223C25.04 9.91321 24.2784 9.17826 23.346 9.18209H10.8831C9.95663 9.18592 9.20481 9.91895 9.20089 10.8242C9.19696 11.7333 9.95074 12.474 10.8831 12.4778Z" fill="#5DB1EB"/>
<path opacity="0.4" d="M31.4159 21.1552C31.8777 23.2557 33.7193 24.7336 35.8219 24.6951H42.9988C43.8736 24.6951 44.5833 23.9706 44.5833 23.0751V17.4845C44.5814 16.5909 43.8736 15.8645 42.9988 15.8625H35.6529C33.2612 15.8702 31.3295 17.8555 31.3333 20.3019C31.3333 20.5883 31.3614 20.8746 31.4159 21.1552Z" fill="#5DB1EB"/>
<ellipse cx="35.75" cy="20.2791" rx="2.20833" ry="2.20833" fill="#5DB1EB"/>
</svg>
