<svg width="19" height="34" viewBox="0 0 19 34" fill="none" xmlns="http://www.w3.org/2000/svg">
<path d="M18.2891 22.2305C18.2891 24.0013 17.625 25.4661 16.2969 26.625C14.9688 27.7708 13.1133 28.4935 10.7305 28.793V33.3242H8.21094V28.9688C6.7526 28.9688 5.33984 28.8581 3.97266 28.6367C2.60547 28.4023 1.48568 28.0833 0.613281 27.6797V24.6328C1.69401 25.1146 2.9375 25.5117 4.34375 25.8242C5.76302 26.1237 7.05208 26.2734 8.21094 26.2734V17.6797C5.54167 16.8333 3.66667 15.8503 2.58594 14.7305C1.51823 13.6107 0.984375 12.1654 0.984375 10.3945C0.984375 8.6888 1.64193 7.28906 2.95703 6.19531C4.28516 5.10156 6.03646 4.4375 8.21094 4.20312V0.648438H10.7305V4.16406C13.1263 4.22917 15.4375 4.71094 17.6641 5.60938L16.6484 8.16797C14.7083 7.39974 12.7357 6.94401 10.7305 6.80078V15.2773C12.7747 15.9284 14.3047 16.5664 15.3203 17.1914C16.3359 17.8034 17.0846 18.513 17.5664 19.3203C18.0482 20.1146 18.2891 21.0846 18.2891 22.2305ZM14.9688 22.4844C14.9688 21.5469 14.6758 20.7917 14.0898 20.2188C13.5169 19.6328 12.3971 19.0534 10.7305 18.4805V26.0781C13.556 25.6875 14.9688 24.4896 14.9688 22.4844ZM4.28516 10.3555C4.28516 11.3451 4.57812 12.1393 5.16406 12.7383C5.75 13.3372 6.76562 13.9036 8.21094 14.4375V6.87891C6.92188 7.08724 5.94531 7.4974 5.28125 8.10938C4.61719 8.70833 4.28516 9.45703 4.28516 10.3555Z" fill="#959595"/>
</svg>
