<svg width="96" height="96" viewBox="0 0 96 96" fill="none" xmlns="http://www.w3.org/2000/svg">
<g clip-path="url(#clip0_2541_55)">
<path d="M66 12C59.04 12 52.36 15.24 48 20.36C43.64 15.24 36.96 12 30 12C17.68 12 8 21.68 8 34C8 49.12 21.6 61.44 42.2 80.16L48 85.4L53.8 80.12C74.4 61.44 88 49.12 88 34C88 21.68 78.32 12 66 12ZM48.4 74.2L48 74.6L47.6 74.2C28.56 56.96 16 45.56 16 34C16 26 22 20 30 20C36.16 20 42.16 23.96 44.28 29.44H51.76C53.84 23.96 59.84 20 66 20C74 20 80 26 80 34C80 45.56 67.44 56.96 48.4 74.2Z" fill="black"/>
</g>
<defs>
<clipPath id="clip0_2541_55">
<rect width="96" height="96" fill="white"/>
</clipPath>
</defs>
</svg>
