<svg width="23" height="19" viewBox="0 0 23 19" fill="none" xmlns="http://www.w3.org/2000/svg">
<path d="M22.6667 9.36573C22.6667 9.87199 22.2905 10.2904 21.8024 10.3566L21.6667 10.3657L1.66675 10.3657C1.11446 10.3657 0.666747 9.91802 0.666747 9.36573C0.666747 8.85947 1.04295 8.44108 1.53105 8.37486L1.66675 8.36573L21.6667 8.36573C22.219 8.36573 22.6667 8.81345 22.6667 9.36573Z" fill="black"/>
<path d="M10.4387 16.6896C10.8301 17.0793 10.8315 17.7125 10.4418 18.1038C10.0875 18.4596 9.53204 18.4931 9.13994 18.2035L9.02757 18.1069L0.960905 10.0749C0.604056 9.71958 0.571593 9.16209 0.863532 8.77L0.960846 8.6577L9.02751 0.624362C9.41884 0.234647 10.052 0.235958 10.4417 0.62729C10.796 0.983047 10.8271 1.53866 10.5359 1.92954L10.4388 2.0415L3.08409 9.36666L10.4387 16.6896Z" fill="black"/>
</svg>
